<?xml version="1.0" encoding="utf-8"?>
<!-- Generator: Adobe Illustrator 20.1.0, SVG Export Plug-In . SVG Version: 6.00 Build 0)  -->
<svg version="1.1" id="Layer_1" xmlns="http://www.w3.org/2000/svg" xmlns:xlink="http://www.w3.org/1999/xlink" x="0px" y="0px"
	 viewBox="0 0 134 130" style="enable-background:new 0 0 134 130;" xml:space="preserve">
<style type="text/css">
	.st0{opacity:0.57;}
	.st1{opacity:0;fill:#756937;}
	.st2{opacity:3.225806e-02;fill:#756937;}
	.st3{opacity:6.451613e-02;fill:#756937;}
	.st4{opacity:9.677419e-02;fill:#756937;}
	.st5{opacity:0.129;fill:#756937;}
	.st6{opacity:0.1613;fill:#756937;}
	.st7{opacity:0.1935;fill:#756937;}
	.st8{opacity:0.2258;fill:#756937;}
	.st9{opacity:0.2581;fill:#756937;}
	.st10{opacity:0.2903;fill:#756937;}
	.st11{opacity:0.3226;fill:#756937;}
	.st12{opacity:0.3548;fill:#756937;}
	.st13{opacity:0.3871;fill:#756937;}
	.st14{opacity:0.4194;fill:#756937;}
	.st15{opacity:0.4516;fill:#756937;}
	.st16{opacity:0.4839;fill:#756937;}
	.st17{opacity:0.5161;fill:#756937;}
	.st18{opacity:0.5484;fill:#756937;}
	.st19{opacity:0.5806;fill:#756937;}
	.st20{opacity:0.6129;fill:#756937;}
	.st21{opacity:0.6452;fill:#756937;}
	.st22{opacity:0.6774;fill:#756937;}
	.st23{opacity:0.7097;fill:#756937;}
	.st24{opacity:0.7419;fill:#756937;}
	.st25{opacity:0.7742;fill:#756937;}
	.st26{opacity:0.8065;fill:#756937;}
	.st27{opacity:0.8387;fill:#756937;}
	.st28{opacity:0.871;fill:#756937;}
	.st29{opacity:0.9032;fill:#756937;}
	.st30{opacity:0.9355;fill:#756937;}
	.st31{opacity:0.9677;fill:#756937;}
	.st32{fill:#756937;}
	.st33{fill:url(#SVGID_1_);}
	.st34{fill:#FFFFFF;}
	.st35{fill:#E64444;}
	.st36{fill:#FFEED9;}
	.st37{fill:#FF4C4C;}
</style>
<g class="st0">
	<path class="st1" d="M109.1,123.2c0.1-0.1,0.2-0.3,0.3-0.4c0.1-0.2,0.2-0.4,0.3-0.6c0.1-0.1,0.1-0.3,0.2-0.4
		c0.1-0.2,0.2-0.4,0.3-0.7c0.1-0.2,0.1-0.3,0.2-0.5c0.1-0.2,0.2-0.5,0.2-0.7c0-0.2,0.1-0.3,0.1-0.5c0.1-0.2,0.1-0.5,0.2-0.7
		c0-0.2,0.1-0.3,0.1-0.5c0-0.2,0.1-0.5,0.1-0.7c0-0.2,0-0.4,0.1-0.5c0-0.3,0.1-0.5,0.1-0.8c0-0.2,0-0.4,0-0.5c0-0.3,0-0.5,0.1-0.8
		c0-0.2,0-0.4,0-0.6c0-0.3,0-0.5,0-0.8c0-0.2,0-0.4,0-0.6c0-0.3,0-0.5,0-0.8c0-0.2,0-0.4,0-0.6c0-0.3,0-0.5,0-0.8c0-0.2,0-0.4,0-0.6
		c0-0.3,0-0.5,0-0.8c0-0.4,0-0.9,0-1.3c0-0.5,0-0.9,0-1.4V25c0-1.4-1.2-2.6-2.6-2.6L3,27.1c-0.2,0-0.4,0-0.6,0.1
		c-0.1,0-0.1,0-0.2,0.1c-0.1,0-0.3,0.1-0.4,0.2c-0.1,0-0.1,0.1-0.2,0.1c-0.1,0.1-0.2,0.2-0.3,0.2c0,0-0.1,0.1-0.1,0.1
		c-0.1,0.1-0.3,0.3-0.4,0.4c0,0,0,0,0,0h0c-0.3,0.4-0.4,0.9-0.4,1.5v71c0,1.4,1.2,2.6,2.6,2.6l100.7,6.6c0.1,2,0.1,5-0.2,8.5
		c-0.5,4.9-7.6,10.9-7.7,10.9c0,0,5.2,0.2,10.6-3.4c0.2-0.1,0.3-0.2,0.5-0.4c0,0,0,0-0.1,0.1c0.1-0.1,0.2-0.1,0.3-0.2
		c0.2-0.2,0.4-0.3,0.6-0.5c0.1-0.1,0.2-0.2,0.4-0.4c0.2-0.2,0.3-0.3,0.5-0.5c0.1-0.1,0.2-0.3,0.3-0.4
		C108.9,123.6,109,123.4,109.1,123.2z"/>
	<path class="st2" d="M109.8,122.5c0.1-0.1,0.2-0.3,0.3-0.4c0.1-0.2,0.2-0.4,0.3-0.6c0.1-0.1,0.1-0.3,0.2-0.4
		c0.1-0.2,0.2-0.4,0.3-0.7c0.1-0.2,0.1-0.3,0.2-0.5c0.1-0.2,0.2-0.5,0.2-0.7c0-0.2,0.1-0.3,0.1-0.5c0.1-0.2,0.1-0.5,0.2-0.7
		c0-0.2,0.1-0.3,0.1-0.5c0-0.2,0.1-0.5,0.1-0.7c0-0.2,0-0.4,0.1-0.5c0-0.3,0.1-0.5,0.1-0.8c0-0.2,0-0.4,0-0.5c0-0.3,0-0.5,0.1-0.8
		c0-0.2,0-0.4,0-0.6c0-0.3,0-0.5,0-0.8c0-0.2,0-0.4,0-0.6c0-0.3,0-0.5,0-0.8c0-0.2,0-0.4,0-0.6c0-0.3,0-0.5,0-0.8c0-0.2,0-0.4,0-0.6
		c0-0.3,0-0.5,0-0.8c0-0.4,0-0.9,0-1.3c0-0.5,0-0.9,0-1.4V24.3c0-1.4-1.2-2.6-2.6-2.6L3.7,26.4c-0.2,0-0.4,0-0.6,0.1
		c-0.1,0-0.1,0-0.2,0.1c-0.1,0-0.3,0.1-0.4,0.2c-0.1,0-0.1,0.1-0.2,0.1C2.3,26.9,2.2,27,2.1,27c0,0-0.1,0.1-0.1,0.1
		c-0.1,0.1-0.3,0.3-0.4,0.4c0,0,0,0,0,0h0C1.3,28,1.1,28.5,1.1,29v71c0,1.4,1.2,2.6,2.6,2.6l100.7,6.6c0.1,2,0.1,5-0.2,8.5
		c-0.5,4.9-7.6,10.9-7.7,10.9c0,0,5.2,0.2,10.6-3.4c0.2-0.1,0.3-0.2,0.5-0.4c0,0,0,0-0.1,0.1c0.1-0.1,0.2-0.1,0.3-0.2
		c0.2-0.2,0.4-0.3,0.6-0.5c0.1-0.1,0.2-0.2,0.4-0.4c0.2-0.2,0.3-0.3,0.5-0.5c0.1-0.1,0.2-0.3,0.3-0.4
		C109.6,122.9,109.7,122.7,109.8,122.5z"/>
	<path class="st3" d="M110.6,121.8c0.1-0.1,0.2-0.3,0.3-0.4c0.1-0.2,0.2-0.4,0.3-0.6c0.1-0.1,0.1-0.3,0.2-0.4
		c0.1-0.2,0.2-0.4,0.3-0.7c0.1-0.2,0.1-0.3,0.2-0.5c0.1-0.2,0.2-0.5,0.2-0.7c0-0.2,0.1-0.3,0.1-0.5c0.1-0.2,0.1-0.5,0.2-0.7
		c0-0.2,0.1-0.3,0.1-0.5c0-0.2,0.1-0.5,0.1-0.7c0-0.2,0-0.4,0.1-0.5c0-0.3,0.1-0.5,0.1-0.8c0-0.2,0-0.4,0-0.5c0-0.3,0-0.5,0.1-0.8
		c0-0.2,0-0.4,0-0.6c0-0.3,0-0.5,0-0.8c0-0.2,0-0.4,0-0.6c0-0.3,0-0.5,0-0.8c0-0.2,0-0.4,0-0.6c0-0.3,0-0.5,0-0.8c0-0.2,0-0.4,0-0.6
		c0-0.3,0-0.5,0-0.8c0-0.4,0-0.9,0-1.3c0-0.5,0-0.9,0-1.4V23.6c0-1.4-1.2-2.6-2.6-2.6L4.4,25.7c-0.2,0-0.4,0-0.6,0.1
		c-0.1,0-0.1,0-0.2,0.1c-0.1,0-0.3,0.1-0.4,0.2c-0.1,0-0.1,0.1-0.2,0.1c-0.1,0.1-0.2,0.2-0.3,0.2c0,0-0.1,0.1-0.1,0.1
		c-0.1,0.1-0.3,0.3-0.4,0.4c0,0,0,0,0,0h0c-0.3,0.4-0.4,0.9-0.4,1.5v71c0,1.4,1.2,2.6,2.6,2.6l100.7,6.6c0.1,2,0.1,5-0.2,8.5
		c-0.5,4.9-7.6,10.9-7.7,10.9c0,0,5.2,0.2,10.6-3.4c0.2-0.1,0.3-0.2,0.5-0.4c0,0,0,0-0.1,0.1c0.1-0.1,0.2-0.1,0.3-0.2
		c0.2-0.2,0.4-0.3,0.6-0.5c0.1-0.1,0.2-0.2,0.4-0.4c0.2-0.2,0.3-0.3,0.5-0.5c0.1-0.1,0.2-0.3,0.3-0.4
		C110.3,122.1,110.4,122,110.6,121.8z"/>
	<path class="st4" d="M111.3,121.1c0.1-0.1,0.2-0.3,0.3-0.4c0.1-0.2,0.2-0.4,0.3-0.6c0.1-0.1,0.1-0.3,0.2-0.4
		c0.1-0.2,0.2-0.4,0.3-0.7c0.1-0.2,0.1-0.3,0.2-0.5c0.1-0.2,0.2-0.5,0.2-0.7c0-0.2,0.1-0.3,0.1-0.5c0.1-0.2,0.1-0.5,0.2-0.7
		c0-0.2,0.1-0.3,0.1-0.5c0-0.2,0.1-0.5,0.1-0.7c0-0.2,0-0.4,0.1-0.5c0-0.3,0.1-0.5,0.1-0.8c0-0.2,0-0.4,0-0.5c0-0.3,0-0.5,0.1-0.8
		c0-0.2,0-0.4,0-0.6c0-0.3,0-0.5,0-0.8c0-0.2,0-0.4,0-0.6c0-0.3,0-0.5,0-0.8c0-0.2,0-0.4,0-0.6c0-0.3,0-0.5,0-0.8c0-0.2,0-0.4,0-0.6
		c0-0.3,0-0.5,0-0.8c0-0.4,0-0.9,0-1.3c0-0.5,0-0.9,0-1.4V22.9c0-1.4-1.2-2.6-2.6-2.6L5.2,25c-0.2,0-0.4,0-0.6,0.1
		c-0.1,0-0.1,0-0.2,0.1c-0.1,0-0.3,0.1-0.4,0.2c-0.1,0-0.1,0.1-0.2,0.1c-0.1,0.1-0.2,0.2-0.3,0.2c0,0-0.1,0.1-0.1,0.1
		C3.2,25.9,3.1,26,3,26.2c0,0,0,0,0,0h0c-0.3,0.4-0.4,0.9-0.4,1.5v71c0,1.4,1.2,2.6,2.6,2.6l100.7,6.6c0.1,2,0.1,5-0.2,8.5
		c-0.5,4.9-7.6,10.9-7.7,10.9c0,0,5.2,0.2,10.6-3.4c0.2-0.1,0.3-0.2,0.5-0.4c0,0,0,0-0.1,0.1c0.1-0.1,0.2-0.1,0.3-0.2
		c0.2-0.2,0.4-0.3,0.6-0.5c0.1-0.1,0.2-0.2,0.4-0.4c0.2-0.2,0.3-0.3,0.5-0.5c0.1-0.1,0.2-0.3,0.3-0.4
		C111,121.4,111.1,121.2,111.3,121.1z"/>
	<path class="st5" d="M112,120.3c0.1-0.1,0.2-0.3,0.3-0.4c0.1-0.2,0.2-0.4,0.3-0.6c0.1-0.1,0.1-0.3,0.2-0.4c0.1-0.2,0.2-0.4,0.3-0.7
		c0.1-0.2,0.1-0.3,0.2-0.5c0.1-0.2,0.2-0.5,0.2-0.7c0-0.2,0.1-0.3,0.1-0.5c0.1-0.2,0.1-0.5,0.2-0.7c0-0.2,0.1-0.3,0.1-0.5
		c0-0.2,0.1-0.5,0.1-0.7c0-0.2,0-0.4,0.1-0.5c0-0.3,0.1-0.5,0.1-0.8c0-0.2,0-0.4,0-0.5c0-0.3,0-0.5,0.1-0.8c0-0.2,0-0.4,0-0.6
		c0-0.3,0-0.5,0-0.8c0-0.2,0-0.4,0-0.6c0-0.3,0-0.5,0-0.8c0-0.2,0-0.4,0-0.6c0-0.3,0-0.5,0-0.8c0-0.2,0-0.4,0-0.6c0-0.3,0-0.5,0-0.8
		c0-0.4,0-0.9,0-1.3c0-0.5,0-0.9,0-1.4V22.2c0-1.4-1.2-2.6-2.6-2.6L5.9,24.3c-0.2,0-0.4,0-0.6,0.1c-0.1,0-0.1,0-0.2,0.1
		c-0.1,0-0.3,0.1-0.4,0.2c-0.1,0-0.1,0.1-0.2,0.1c-0.1,0.1-0.2,0.2-0.3,0.2c0,0-0.1,0.1-0.1,0.1c-0.1,0.1-0.3,0.3-0.4,0.4
		c0,0,0,0,0,0h0c-0.3,0.4-0.4,0.9-0.4,1.5v71c0,1.4,1.2,2.6,2.6,2.6l100.7,6.6c0.1,2,0.1,5-0.2,8.5c-0.5,4.9-7.6,10.9-7.7,10.9
		c0,0,5.2,0.2,10.6-3.4c0.2-0.1,0.3-0.2,0.5-0.4c0,0,0,0-0.1,0.1c0.1-0.1,0.2-0.1,0.3-0.2c0.2-0.2,0.4-0.3,0.6-0.5
		c0.1-0.1,0.2-0.2,0.4-0.4c0.2-0.2,0.3-0.3,0.5-0.5c0.1-0.1,0.2-0.3,0.3-0.4C111.7,120.7,111.9,120.5,112,120.3z"/>
	<path class="st6" d="M112.7,119.6c0.1-0.1,0.2-0.3,0.3-0.4c0.1-0.2,0.2-0.4,0.3-0.6c0.1-0.1,0.1-0.3,0.2-0.4
		c0.1-0.2,0.2-0.4,0.3-0.7c0.1-0.2,0.1-0.3,0.2-0.5c0.1-0.2,0.2-0.5,0.2-0.7c0-0.2,0.1-0.3,0.1-0.5c0.1-0.2,0.1-0.5,0.2-0.7
		c0-0.2,0.1-0.3,0.1-0.5c0-0.2,0.1-0.5,0.1-0.7c0-0.2,0-0.4,0.1-0.5c0-0.3,0.1-0.5,0.1-0.8c0-0.2,0-0.4,0-0.5c0-0.3,0-0.5,0.1-0.8
		c0-0.2,0-0.4,0-0.6c0-0.3,0-0.5,0-0.8c0-0.2,0-0.4,0-0.6c0-0.3,0-0.5,0-0.8c0-0.2,0-0.4,0-0.6c0-0.3,0-0.5,0-0.8c0-0.2,0-0.4,0-0.6
		c0-0.3,0-0.5,0-0.8c0-0.4,0-0.9,0-1.3c0-0.5,0-0.9,0-1.4V21.5c0-1.4-1.2-2.6-2.6-2.6L6.6,23.6c-0.2,0-0.4,0-0.6,0.1
		c-0.1,0-0.1,0-0.2,0.1c-0.1,0-0.3,0.1-0.4,0.2c-0.1,0-0.1,0.1-0.2,0.1C5.1,24,5,24.1,4.9,24.2c0,0-0.1,0.1-0.1,0.1
		c-0.1,0.1-0.3,0.3-0.4,0.4c0,0,0,0,0,0h0C4.1,25.2,4,25.7,4,26.2v71c0,1.4,1.2,2.6,2.6,2.6l100.7,6.6c0.1,2,0.1,5-0.2,8.5
		c-0.5,4.9-7.6,10.9-7.7,10.9c0,0,5.2,0.2,10.6-3.4c0.2-0.1,0.3-0.2,0.5-0.4c0,0,0,0-0.1,0.1c0.1-0.1,0.2-0.1,0.3-0.2
		c0.2-0.2,0.4-0.3,0.6-0.5c0.1-0.1,0.2-0.2,0.4-0.4c0.2-0.2,0.3-0.3,0.5-0.5c0.1-0.1,0.2-0.3,0.3-0.4
		C112.4,120,112.6,119.8,112.7,119.6z"/>
	<path class="st7" d="M113.4,118.9c0.1-0.1,0.2-0.3,0.3-0.4c0.1-0.2,0.2-0.4,0.3-0.6c0.1-0.1,0.1-0.3,0.2-0.4
		c0.1-0.2,0.2-0.4,0.3-0.7c0.1-0.2,0.1-0.3,0.2-0.5c0.1-0.2,0.2-0.5,0.2-0.7c0-0.2,0.1-0.3,0.1-0.5c0.1-0.2,0.1-0.5,0.2-0.7
		c0-0.2,0.1-0.3,0.1-0.5c0-0.2,0.1-0.5,0.1-0.7c0-0.2,0-0.4,0.1-0.5c0-0.3,0.1-0.5,0.1-0.8c0-0.2,0-0.4,0-0.5c0-0.3,0-0.5,0.1-0.8
		c0-0.2,0-0.4,0-0.6c0-0.3,0-0.5,0-0.8c0-0.2,0-0.4,0-0.6c0-0.3,0-0.5,0-0.8c0-0.2,0-0.4,0-0.6c0-0.3,0-0.5,0-0.8c0-0.2,0-0.4,0-0.6
		c0-0.3,0-0.5,0-0.8c0-0.4,0-0.9,0-1.3c0-0.5,0-0.9,0-1.4V20.8c0-1.4-1.2-2.6-2.6-2.6L7.3,22.9c-0.2,0-0.4,0-0.6,0.1
		c-0.1,0-0.1,0-0.2,0.1c-0.1,0-0.3,0.1-0.4,0.2c-0.1,0-0.1,0.1-0.2,0.1c-0.1,0.1-0.2,0.2-0.3,0.2c0,0-0.1,0.1-0.1,0.1
		c-0.1,0.1-0.3,0.3-0.4,0.4c0,0,0,0,0,0h0c-0.3,0.4-0.4,0.9-0.4,1.5v71c0,1.4,1.2,2.6,2.6,2.6l100.7,6.6c0.1,2,0.1,5-0.2,8.5
		c-0.5,4.9-7.6,10.9-7.7,10.9c0,0,5.2,0.2,10.6-3.4c0.2-0.1,0.3-0.2,0.5-0.4c0,0,0,0-0.1,0.1c0.1-0.1,0.2-0.1,0.3-0.2
		c0.2-0.2,0.4-0.3,0.6-0.5c0.1-0.1,0.2-0.2,0.4-0.4c0.2-0.2,0.3-0.3,0.5-0.5c0.1-0.1,0.2-0.3,0.3-0.4
		C113.1,119.3,113.3,119.1,113.4,118.9z"/>
	<path class="st8" d="M114.1,118.2c0.1-0.1,0.2-0.3,0.3-0.4c0.1-0.2,0.2-0.4,0.3-0.6c0.1-0.1,0.1-0.3,0.2-0.4
		c0.1-0.2,0.2-0.4,0.3-0.7c0.1-0.2,0.1-0.3,0.2-0.5c0.1-0.2,0.2-0.5,0.2-0.7c0-0.2,0.1-0.3,0.1-0.5c0.1-0.2,0.1-0.5,0.2-0.7
		c0-0.2,0.1-0.3,0.1-0.5c0-0.2,0.1-0.5,0.1-0.7c0-0.2,0-0.4,0.1-0.5c0-0.3,0.1-0.5,0.1-0.8c0-0.2,0-0.4,0-0.5c0-0.3,0-0.5,0.1-0.8
		c0-0.2,0-0.4,0-0.6c0-0.3,0-0.5,0-0.8c0-0.2,0-0.4,0-0.6c0-0.3,0-0.5,0-0.8c0-0.2,0-0.4,0-0.6c0-0.3,0-0.5,0-0.8c0-0.2,0-0.4,0-0.6
		c0-0.3,0-0.5,0-0.8c0-0.4,0-0.9,0-1.3c0-0.5,0-0.9,0-1.4V20c0-1.4-1.2-2.6-2.6-2.6L8,22.2c-0.2,0-0.4,0-0.6,0.1
		c-0.1,0-0.1,0-0.2,0.1c-0.1,0-0.3,0.1-0.4,0.2c-0.1,0-0.1,0.1-0.2,0.1c-0.1,0.1-0.2,0.2-0.3,0.2c0,0-0.1,0.1-0.1,0.1
		c-0.1,0.1-0.3,0.3-0.4,0.4c0,0,0,0,0,0h0c-0.3,0.4-0.4,0.9-0.4,1.5v71c0,1.4,1.2,2.6,2.6,2.6l100.7,6.6c0.1,2,0.1,5-0.2,8.5
		c-0.5,4.9-7.6,10.9-7.7,10.9c0,0,5.2,0.2,10.6-3.4c0.2-0.1,0.3-0.2,0.5-0.4c0,0,0,0-0.1,0.1c0.1-0.1,0.2-0.1,0.3-0.2
		c0.2-0.2,0.4-0.3,0.6-0.5c0.1-0.1,0.2-0.2,0.4-0.4c0.2-0.2,0.3-0.3,0.5-0.5c0.1-0.1,0.2-0.3,0.3-0.4
		C113.8,118.6,114,118.4,114.1,118.2z"/>
	<path class="st9" d="M114.8,117.5c0.1-0.1,0.2-0.3,0.3-0.4c0.1-0.2,0.2-0.4,0.3-0.6c0.1-0.1,0.1-0.3,0.2-0.4
		c0.1-0.2,0.2-0.4,0.3-0.7c0.1-0.2,0.1-0.3,0.2-0.5c0.1-0.2,0.2-0.5,0.2-0.7c0-0.2,0.1-0.3,0.1-0.5c0.1-0.2,0.1-0.5,0.2-0.7
		c0-0.2,0.1-0.3,0.1-0.5c0-0.2,0.1-0.5,0.1-0.7c0-0.2,0-0.4,0.1-0.5c0-0.3,0.1-0.5,0.1-0.8c0-0.2,0-0.4,0-0.5c0-0.3,0-0.5,0.1-0.8
		c0-0.2,0-0.4,0-0.6c0-0.3,0-0.5,0-0.8c0-0.2,0-0.4,0-0.6c0-0.3,0-0.5,0-0.8c0-0.2,0-0.4,0-0.6c0-0.3,0-0.5,0-0.8c0-0.2,0-0.4,0-0.6
		c0-0.3,0-0.5,0-0.8c0-0.4,0-0.9,0-1.3c0-0.5,0-0.9,0-1.4V19.3c0-1.4-1.2-2.6-2.6-2.6L8.7,21.4c-0.2,0-0.4,0-0.6,0.1
		c-0.1,0-0.1,0-0.2,0.1c-0.1,0-0.3,0.1-0.4,0.2c-0.1,0-0.1,0.1-0.2,0.1C7.3,21.9,7.1,22,7,22.1c0,0-0.1,0.1-0.1,0.1
		c-0.1,0.1-0.3,0.3-0.4,0.4c0,0,0,0,0,0h0c-0.3,0.4-0.4,0.9-0.4,1.5v71c0,1.4,1.2,2.6,2.6,2.6l100.7,6.6c0.1,2,0.1,5-0.2,8.5
		c-0.5,4.9-7.6,10.9-7.7,10.9c0,0,5.2,0.2,10.6-3.4c0.2-0.1,0.3-0.2,0.5-0.4c0,0,0,0-0.1,0.1c0.1-0.1,0.2-0.1,0.3-0.2
		c0.2-0.2,0.4-0.3,0.6-0.5c0.1-0.1,0.2-0.2,0.4-0.4c0.2-0.2,0.3-0.3,0.5-0.5c0.1-0.1,0.2-0.3,0.3-0.4
		C114.6,117.9,114.7,117.7,114.8,117.5z"/>
	<path class="st10" d="M115.5,116.8c0.1-0.1,0.2-0.3,0.3-0.4c0.1-0.2,0.2-0.4,0.3-0.6c0.1-0.1,0.1-0.3,0.2-0.4
		c0.1-0.2,0.2-0.4,0.3-0.7c0.1-0.2,0.1-0.3,0.2-0.5c0.1-0.2,0.2-0.5,0.2-0.7c0-0.2,0.1-0.3,0.1-0.5c0.1-0.2,0.1-0.5,0.2-0.7
		c0-0.2,0.1-0.3,0.1-0.5c0-0.2,0.1-0.5,0.1-0.7c0-0.2,0-0.4,0.1-0.5c0-0.3,0.1-0.5,0.1-0.8c0-0.2,0-0.4,0-0.5c0-0.3,0-0.5,0.1-0.8
		c0-0.2,0-0.4,0-0.6c0-0.3,0-0.5,0-0.8c0-0.2,0-0.4,0-0.6c0-0.3,0-0.5,0-0.8c0-0.2,0-0.4,0-0.6c0-0.3,0-0.5,0-0.8c0-0.2,0-0.4,0-0.6
		c0-0.3,0-0.5,0-0.8c0-0.4,0-0.9,0-1.3c0-0.5,0-0.9,0-1.4V18.6c0-1.4-1.2-2.6-2.6-2.6L9.4,20.7c-0.2,0-0.4,0-0.6,0.1
		c-0.1,0-0.1,0-0.2,0.1c-0.1,0-0.3,0.1-0.4,0.2c-0.1,0-0.1,0.1-0.2,0.1c-0.1,0.1-0.2,0.2-0.3,0.2c0,0-0.1,0.1-0.1,0.1
		c-0.1,0.1-0.3,0.3-0.4,0.4c0,0,0,0,0,0h0c-0.3,0.4-0.4,0.9-0.4,1.5v71C6.8,95.8,8,97,9.4,97l100.7,6.6c0.1,2,0.1,5-0.2,8.5
		c-0.5,4.9-7.6,10.9-7.7,10.9c0,0,5.2,0.2,10.6-3.4c0.2-0.1,0.3-0.2,0.5-0.4c0,0,0,0-0.1,0.1c0.1-0.1,0.2-0.1,0.3-0.2
		c0.2-0.2,0.4-0.3,0.6-0.5c0.1-0.1,0.2-0.2,0.4-0.4c0.2-0.2,0.3-0.3,0.5-0.5c0.1-0.1,0.2-0.3,0.3-0.4
		C115.3,117.2,115.4,117,115.5,116.8z"/>
	<path class="st11" d="M116.2,116.1c0.1-0.1,0.2-0.3,0.3-0.4c0.1-0.2,0.2-0.4,0.3-0.6c0.1-0.1,0.1-0.3,0.2-0.4
		c0.1-0.2,0.2-0.4,0.3-0.7c0.1-0.2,0.1-0.3,0.2-0.5c0.1-0.2,0.2-0.5,0.2-0.7c0-0.2,0.1-0.3,0.1-0.5c0.1-0.2,0.1-0.5,0.2-0.7
		c0-0.2,0.1-0.3,0.1-0.5c0-0.2,0.1-0.5,0.1-0.7c0-0.2,0-0.4,0.1-0.5c0-0.3,0.1-0.5,0.1-0.8c0-0.2,0-0.4,0-0.5c0-0.3,0-0.5,0.1-0.8
		c0-0.2,0-0.4,0-0.6c0-0.3,0-0.5,0-0.8c0-0.2,0-0.4,0-0.6c0-0.3,0-0.5,0-0.8c0-0.2,0-0.4,0-0.6c0-0.3,0-0.5,0-0.8c0-0.2,0-0.4,0-0.6
		c0-0.3,0-0.5,0-0.8c0-0.4,0-0.9,0-1.3c0-0.5,0-0.9,0-1.4V17.9c0-1.4-1.2-2.6-2.6-2.6L10.1,20c-0.2,0-0.4,0-0.6,0.1
		c-0.1,0-0.1,0-0.2,0.1c-0.1,0-0.3,0.1-0.4,0.2c-0.1,0-0.1,0.1-0.2,0.1c-0.1,0.1-0.2,0.2-0.3,0.2c0,0-0.1,0.1-0.1,0.1
		C8.2,20.9,8.1,21,8,21.2c0,0,0,0,0,0h0c-0.3,0.4-0.4,0.9-0.4,1.5v71c0,1.4,1.2,2.6,2.6,2.6l100.7,6.6c0.1,2,0.1,5-0.2,8.5
		c-0.5,4.9-7.6,10.9-7.7,10.9c0,0,5.2,0.2,10.6-3.4c0.2-0.1,0.3-0.2,0.5-0.4c0,0,0,0-0.1,0.1c0.1-0.1,0.2-0.1,0.3-0.2
		c0.2-0.2,0.4-0.3,0.6-0.5c0.1-0.1,0.2-0.2,0.4-0.4c0.2-0.2,0.3-0.3,0.5-0.5c0.1-0.1,0.2-0.3,0.3-0.4
		C116,116.5,116.1,116.3,116.2,116.1z"/>
	<path class="st12" d="M117,115.4c0.1-0.1,0.2-0.3,0.3-0.4c0.1-0.2,0.2-0.4,0.3-0.6c0.1-0.1,0.1-0.3,0.2-0.4
		c0.1-0.2,0.2-0.4,0.3-0.7c0.1-0.2,0.1-0.3,0.2-0.5c0.1-0.2,0.2-0.5,0.2-0.7c0-0.2,0.1-0.3,0.1-0.5c0.1-0.2,0.1-0.5,0.2-0.7
		c0-0.2,0.1-0.3,0.1-0.5c0-0.2,0.1-0.5,0.1-0.7c0-0.2,0-0.4,0.1-0.5c0-0.3,0.1-0.5,0.1-0.8c0-0.2,0-0.4,0-0.5c0-0.3,0-0.5,0.1-0.8
		c0-0.2,0-0.4,0-0.6c0-0.3,0-0.5,0-0.8c0-0.2,0-0.4,0-0.6c0-0.3,0-0.5,0-0.8c0-0.2,0-0.4,0-0.6c0-0.3,0-0.5,0-0.8c0-0.2,0-0.4,0-0.6
		c0-0.3,0-0.5,0-0.8c0-0.4,0-0.9,0-1.3c0-0.5,0-0.9,0-1.4V17.2c0-1.4-1.2-2.6-2.6-2.6L10.8,19.3c-0.2,0-0.4,0-0.6,0.1
		c-0.1,0-0.1,0-0.2,0.1c-0.1,0-0.3,0.1-0.4,0.2c-0.1,0-0.1,0.1-0.2,0.1c-0.1,0.1-0.2,0.2-0.3,0.2C9.1,20,9.1,20,9,20
		c-0.1,0.1-0.3,0.3-0.4,0.4c0,0,0,0,0,0h0c-0.3,0.4-0.4,0.9-0.4,1.5v71c0,1.4,1.2,2.6,2.6,2.6l100.7,6.6c0.1,2,0.1,5-0.2,8.5
		c-0.5,4.9-7.6,10.9-7.7,10.9c0,0,5.2,0.2,10.6-3.4c0.2-0.1,0.3-0.2,0.5-0.4c0,0,0,0-0.1,0.1c0.1-0.1,0.2-0.1,0.3-0.2
		c0.2-0.2,0.4-0.3,0.6-0.5c0.1-0.1,0.2-0.2,0.4-0.4c0.2-0.2,0.3-0.3,0.5-0.5c0.1-0.1,0.2-0.3,0.3-0.4
		C116.7,115.7,116.8,115.6,117,115.4z"/>
	<path class="st13" d="M117.7,114.7c0.1-0.1,0.2-0.3,0.3-0.4c0.1-0.2,0.2-0.4,0.3-0.6c0.1-0.1,0.1-0.3,0.2-0.4
		c0.1-0.2,0.2-0.4,0.3-0.7c0.1-0.2,0.1-0.3,0.2-0.5c0.1-0.2,0.2-0.5,0.2-0.7c0-0.2,0.1-0.3,0.1-0.5c0.1-0.2,0.1-0.5,0.2-0.7
		c0-0.2,0.1-0.3,0.1-0.5c0-0.2,0.1-0.5,0.1-0.7c0-0.2,0-0.4,0.1-0.5c0-0.3,0.1-0.5,0.1-0.8c0-0.2,0-0.4,0-0.5c0-0.3,0-0.5,0.1-0.8
		c0-0.2,0-0.4,0-0.6c0-0.3,0-0.5,0-0.8c0-0.2,0-0.4,0-0.6c0-0.3,0-0.5,0-0.8c0-0.2,0-0.4,0-0.6c0-0.3,0-0.5,0-0.8c0-0.2,0-0.4,0-0.6
		c0-0.3,0-0.5,0-0.8c0-0.4,0-0.9,0-1.3c0-0.5,0-0.9,0-1.4V16.5c0-1.4-1.2-2.6-2.6-2.6L11.6,18.6c-0.2,0-0.4,0-0.6,0.1
		c-0.1,0-0.1,0-0.2,0.1c-0.1,0-0.3,0.1-0.4,0.2c-0.1,0-0.1,0.1-0.2,0.1c-0.1,0.1-0.2,0.2-0.3,0.2c0,0-0.1,0.1-0.1,0.1
		c-0.1,0.1-0.3,0.3-0.4,0.4c0,0,0,0,0,0h0c-0.3,0.4-0.4,0.9-0.4,1.5v71c0,1.4,1.2,2.6,2.6,2.6l100.7,6.6c0.1,2,0.1,5-0.2,8.5
		c-0.5,4.9-7.6,10.9-7.7,10.9c0,0,5.2,0.2,10.6-3.4c0.2-0.1,0.3-0.2,0.5-0.4c0,0,0,0-0.1,0.1c0.1-0.1,0.2-0.1,0.3-0.2
		c0.2-0.2,0.4-0.3,0.6-0.5c0.1-0.1,0.2-0.2,0.4-0.4c0.2-0.2,0.3-0.3,0.5-0.5c0.1-0.1,0.2-0.3,0.3-0.4
		C117.4,115,117.5,114.8,117.7,114.7z"/>
	<path class="st14" d="M118.4,113.9c0.1-0.1,0.2-0.3,0.3-0.4c0.1-0.2,0.2-0.4,0.3-0.6c0.1-0.1,0.1-0.3,0.2-0.4
		c0.1-0.2,0.2-0.4,0.3-0.7c0.1-0.2,0.1-0.3,0.2-0.5c0.1-0.2,0.2-0.5,0.2-0.7c0-0.2,0.1-0.3,0.1-0.5c0.1-0.2,0.1-0.5,0.2-0.7
		c0-0.2,0.1-0.3,0.1-0.5c0-0.2,0.1-0.5,0.1-0.7c0-0.2,0-0.4,0.1-0.5c0-0.3,0.1-0.5,0.1-0.8c0-0.2,0-0.4,0-0.5c0-0.3,0-0.5,0.1-0.8
		c0-0.2,0-0.4,0-0.6c0-0.3,0-0.5,0-0.8c0-0.2,0-0.4,0-0.6c0-0.3,0-0.5,0-0.8c0-0.2,0-0.4,0-0.6c0-0.3,0-0.5,0-0.8c0-0.2,0-0.4,0-0.6
		c0-0.3,0-0.5,0-0.8c0-0.4,0-0.9,0-1.3c0-0.5,0-0.9,0-1.4V15.8c0-1.4-1.2-2.6-2.6-2.6L12.3,17.9c-0.2,0-0.4,0-0.6,0.1
		c-0.1,0-0.1,0-0.2,0.1c-0.1,0-0.3,0.1-0.4,0.2c-0.1,0-0.1,0.1-0.2,0.1c-0.1,0.1-0.2,0.2-0.3,0.2c0,0-0.1,0.1-0.1,0.1
		c-0.1,0.1-0.3,0.3-0.4,0.4c0,0,0,0,0,0h0c-0.3,0.4-0.4,0.9-0.4,1.5v71c0,1.4,1.2,2.6,2.6,2.6l100.7,6.6c0.1,2,0.1,5-0.2,8.5
		c-0.5,4.9-7.6,10.9-7.7,10.9c0,0,5.2,0.2,10.6-3.4c0.2-0.1,0.3-0.2,0.5-0.4c0,0,0,0-0.1,0.1c0.1-0.1,0.2-0.1,0.3-0.2
		c0.2-0.2,0.4-0.3,0.6-0.5c0.1-0.1,0.2-0.2,0.4-0.4c0.2-0.2,0.3-0.3,0.5-0.5c0.1-0.1,0.2-0.3,0.3-0.4
		C118.1,114.3,118.3,114.1,118.4,113.9z"/>
	<path class="st15" d="M119.1,113.2c0.1-0.1,0.2-0.3,0.3-0.4c0.1-0.2,0.2-0.4,0.3-0.6c0.1-0.1,0.1-0.3,0.2-0.4
		c0.1-0.2,0.2-0.4,0.3-0.7c0.1-0.2,0.1-0.3,0.2-0.5c0.1-0.2,0.2-0.5,0.2-0.7c0-0.2,0.1-0.3,0.1-0.5c0.1-0.2,0.1-0.5,0.2-0.7
		c0-0.2,0.1-0.3,0.1-0.5c0-0.2,0.1-0.5,0.1-0.7c0-0.2,0-0.4,0.1-0.5c0-0.3,0.1-0.5,0.1-0.8c0-0.2,0-0.4,0-0.5c0-0.3,0-0.5,0.1-0.8
		c0-0.2,0-0.4,0-0.6c0-0.3,0-0.5,0-0.8c0-0.2,0-0.4,0-0.6c0-0.3,0-0.5,0-0.8c0-0.2,0-0.4,0-0.6c0-0.3,0-0.5,0-0.8c0-0.2,0-0.4,0-0.6
		c0-0.3,0-0.5,0-0.8c0-0.4,0-0.9,0-1.3c0-0.5,0-0.9,0-1.4V15.1c0-1.4-1.2-2.6-2.6-2.6L13,17.2c-0.2,0-0.4,0-0.6,0.1
		c-0.1,0-0.1,0-0.2,0.1c-0.1,0-0.3,0.1-0.4,0.2c-0.1,0-0.1,0.1-0.2,0.1c-0.1,0.1-0.2,0.2-0.3,0.2c0,0-0.1,0.1-0.1,0.1
		c-0.1,0.1-0.3,0.3-0.4,0.4c0,0,0,0,0,0h0c-0.3,0.4-0.4,0.9-0.4,1.5v71c0,1.4,1.2,2.6,2.6,2.6l100.7,6.6c0.1,2,0.1,5-0.2,8.5
		c-0.5,4.9-7.6,10.9-7.7,10.9c0,0,5.2,0.2,10.6-3.4c0.2-0.1,0.3-0.2,0.5-0.4c0,0,0,0-0.1,0.1c0.1-0.1,0.2-0.1,0.3-0.2
		c0.2-0.2,0.4-0.3,0.6-0.5c0.1-0.1,0.2-0.2,0.4-0.4c0.2-0.2,0.3-0.3,0.5-0.5c0.1-0.1,0.2-0.3,0.3-0.4
		C118.8,113.6,119,113.4,119.1,113.2z"/>
	<path class="st16" d="M119.8,112.5c0.1-0.1,0.2-0.3,0.3-0.4c0.1-0.2,0.2-0.4,0.3-0.6c0.1-0.1,0.1-0.3,0.2-0.4
		c0.1-0.2,0.2-0.4,0.3-0.7c0.1-0.2,0.1-0.3,0.2-0.5c0.1-0.2,0.2-0.5,0.2-0.7c0-0.2,0.1-0.3,0.1-0.5c0.1-0.2,0.1-0.5,0.2-0.7
		c0-0.2,0.1-0.3,0.1-0.5c0-0.2,0.1-0.5,0.1-0.7c0-0.2,0-0.4,0.1-0.5c0-0.3,0.1-0.5,0.1-0.8c0-0.2,0-0.4,0-0.5c0-0.3,0-0.5,0.1-0.8
		c0-0.2,0-0.4,0-0.6c0-0.3,0-0.5,0-0.8c0-0.2,0-0.4,0-0.6c0-0.3,0-0.5,0-0.8c0-0.2,0-0.4,0-0.6c0-0.3,0-0.5,0-0.8c0-0.2,0-0.4,0-0.6
		c0-0.3,0-0.5,0-0.8c0-0.4,0-0.9,0-1.3c0-0.5,0-0.9,0-1.4V14.4c0-1.4-1.2-2.6-2.6-2.6L13.7,16.5c-0.2,0-0.4,0-0.6,0.1
		c-0.1,0-0.1,0-0.2,0.1c-0.1,0-0.3,0.1-0.4,0.2c-0.1,0-0.1,0.1-0.2,0.1c-0.1,0.1-0.2,0.2-0.3,0.2c0,0-0.1,0.1-0.1,0.1
		c-0.1,0.1-0.3,0.3-0.4,0.4c0,0,0,0,0,0h0c-0.3,0.4-0.4,0.9-0.4,1.5v71c0,1.4,1.2,2.6,2.6,2.6l100.7,6.6c0.1,2,0.1,5-0.2,8.5
		c-0.5,4.9-7.6,10.9-7.7,10.9c0,0,5.2,0.2,10.6-3.4c0.2-0.1,0.3-0.2,0.5-0.4c0,0,0,0-0.1,0.1c0.1-0.1,0.2-0.1,0.3-0.2
		c0.2-0.2,0.4-0.3,0.6-0.5c0.1-0.1,0.2-0.2,0.4-0.4c0.2-0.2,0.3-0.3,0.5-0.5c0.1-0.1,0.2-0.3,0.3-0.4
		C119.5,112.9,119.7,112.7,119.8,112.5z"/>
	<path class="st17" d="M120.5,111.8c0.1-0.1,0.2-0.3,0.3-0.4c0.1-0.2,0.2-0.4,0.3-0.6c0.1-0.1,0.1-0.3,0.2-0.4
		c0.1-0.2,0.2-0.4,0.3-0.7c0.1-0.2,0.1-0.3,0.2-0.5c0.1-0.2,0.2-0.5,0.2-0.7c0-0.2,0.1-0.3,0.1-0.5c0.1-0.2,0.1-0.5,0.2-0.7
		c0-0.2,0.1-0.3,0.1-0.5c0-0.2,0.1-0.5,0.1-0.7c0-0.2,0-0.4,0.1-0.5c0-0.3,0.1-0.5,0.1-0.8c0-0.2,0-0.4,0-0.5c0-0.3,0-0.5,0.1-0.8
		c0-0.2,0-0.4,0-0.6c0-0.3,0-0.5,0-0.8c0-0.2,0-0.4,0-0.6c0-0.3,0-0.5,0-0.8c0-0.2,0-0.4,0-0.6c0-0.3,0-0.5,0-0.8c0-0.2,0-0.4,0-0.6
		c0-0.3,0-0.5,0-0.8c0-0.4,0-0.9,0-1.3c0-0.5,0-0.9,0-1.4V13.6c0-1.4-1.2-2.6-2.6-2.6L14.4,15.7c-0.2,0-0.4,0-0.6,0.1
		c-0.1,0-0.1,0-0.2,0.1c-0.1,0-0.3,0.1-0.4,0.2c-0.1,0-0.1,0.1-0.2,0.1c-0.1,0.1-0.2,0.2-0.3,0.2c0,0-0.1,0.1-0.1,0.1
		c-0.1,0.1-0.3,0.3-0.4,0.4c0,0,0,0,0,0h0c-0.3,0.4-0.4,0.9-0.4,1.5v71c0,1.4,1.2,2.6,2.6,2.6l100.7,6.6c0.1,2,0.1,5-0.2,8.5
		c-0.5,4.9-7.6,10.9-7.7,10.9c0,0,5.2,0.2,10.6-3.4c0.2-0.1,0.3-0.2,0.5-0.4c0,0,0,0-0.1,0.1c0.1-0.1,0.2-0.1,0.3-0.2
		c0.2-0.2,0.4-0.3,0.6-0.5c0.1-0.1,0.2-0.2,0.4-0.4c0.2-0.2,0.3-0.3,0.5-0.5c0.1-0.1,0.2-0.3,0.3-0.4
		C120.2,112.2,120.4,112,120.5,111.8z"/>
	<path class="st18" d="M121.2,111.1c0.1-0.1,0.2-0.3,0.3-0.4c0.1-0.2,0.2-0.4,0.3-0.6c0.1-0.1,0.1-0.3,0.2-0.4
		c0.1-0.2,0.2-0.4,0.3-0.7c0.1-0.2,0.1-0.3,0.2-0.5c0.1-0.2,0.2-0.5,0.2-0.7c0-0.2,0.1-0.3,0.1-0.5c0.1-0.2,0.1-0.5,0.2-0.7
		c0-0.2,0.1-0.3,0.1-0.5c0-0.2,0.1-0.5,0.1-0.7c0-0.2,0-0.4,0.1-0.5c0-0.3,0.1-0.5,0.1-0.8c0-0.2,0-0.4,0-0.5c0-0.3,0-0.5,0.1-0.8
		c0-0.2,0-0.4,0-0.6c0-0.3,0-0.5,0-0.8c0-0.2,0-0.4,0-0.6c0-0.3,0-0.5,0-0.8c0-0.2,0-0.4,0-0.6c0-0.3,0-0.5,0-0.8c0-0.2,0-0.4,0-0.6
		c0-0.3,0-0.5,0-0.8c0-0.4,0-0.9,0-1.3c0-0.5,0-0.9,0-1.4V12.9c0-1.4-1.2-2.6-2.6-2.6L15.1,15c-0.2,0-0.4,0-0.6,0.1
		c-0.1,0-0.1,0-0.2,0.1c-0.1,0-0.3,0.1-0.4,0.2c-0.1,0-0.1,0.1-0.2,0.1c-0.1,0.1-0.2,0.2-0.3,0.2c0,0-0.1,0.1-0.1,0.1
		c-0.1,0.1-0.3,0.3-0.4,0.4c0,0,0,0,0,0h0c-0.3,0.4-0.4,0.9-0.4,1.5v71c0,1.4,1.2,2.6,2.6,2.6l100.7,6.6c0.1,2,0.1,5-0.2,8.5
		c-0.5,4.9-7.6,10.9-7.7,10.9c0,0,5.2,0.2,10.6-3.4c0.2-0.1,0.3-0.2,0.5-0.4c0,0,0,0-0.1,0.1c0.1-0.1,0.2-0.1,0.3-0.2
		c0.2-0.2,0.4-0.3,0.6-0.5c0.1-0.1,0.2-0.2,0.4-0.4c0.2-0.2,0.3-0.3,0.5-0.5c0.1-0.1,0.2-0.3,0.3-0.4
		C121,111.5,121.1,111.3,121.2,111.1z"/>
	<path class="st19" d="M121.9,110.4c0.1-0.1,0.2-0.3,0.3-0.4c0.1-0.2,0.2-0.4,0.3-0.6c0.1-0.1,0.1-0.3,0.2-0.4
		c0.1-0.2,0.2-0.4,0.3-0.7c0.1-0.2,0.1-0.3,0.2-0.5c0.1-0.2,0.2-0.5,0.2-0.7c0-0.2,0.1-0.3,0.1-0.5c0.1-0.2,0.1-0.5,0.2-0.7
		c0-0.2,0.1-0.3,0.1-0.5c0-0.2,0.1-0.5,0.1-0.7c0-0.2,0-0.4,0.1-0.5c0-0.3,0.1-0.5,0.1-0.8c0-0.2,0-0.4,0-0.5c0-0.3,0-0.5,0.1-0.8
		c0-0.2,0-0.4,0-0.6c0-0.3,0-0.5,0-0.8c0-0.2,0-0.4,0-0.6c0-0.3,0-0.5,0-0.8c0-0.2,0-0.4,0-0.6c0-0.3,0-0.5,0-0.8c0-0.2,0-0.4,0-0.6
		c0-0.3,0-0.5,0-0.8c0-0.4,0-0.9,0-1.3c0-0.5,0-0.9,0-1.4V12.2c0-1.4-1.2-2.6-2.6-2.6L15.8,14.3c-0.2,0-0.4,0-0.6,0.1
		c-0.1,0-0.1,0-0.2,0.1c-0.1,0-0.3,0.1-0.4,0.2c-0.1,0-0.1,0.1-0.2,0.1c-0.1,0.1-0.2,0.2-0.3,0.2c0,0-0.1,0.1-0.1,0.1
		c-0.1,0.1-0.3,0.3-0.4,0.4c0,0,0,0,0,0h0c-0.3,0.4-0.4,0.9-0.4,1.5v71c0,1.4,1.2,2.6,2.6,2.6l100.7,6.6c0.1,2,0.1,5-0.2,8.5
		c-0.5,4.9-7.6,10.9-7.7,10.9c0,0,5.2,0.2,10.6-3.4c0.2-0.1,0.3-0.2,0.5-0.4c0,0,0,0-0.1,0.1c0.1-0.1,0.2-0.1,0.3-0.2
		c0.2-0.2,0.4-0.3,0.6-0.5c0.1-0.1,0.2-0.2,0.4-0.4c0.2-0.2,0.3-0.3,0.5-0.5c0.1-0.1,0.2-0.3,0.3-0.4
		C121.7,110.8,121.8,110.6,121.9,110.4z"/>
	<path class="st20" d="M122.6,109.7c0.1-0.1,0.2-0.3,0.3-0.4c0.1-0.2,0.2-0.4,0.3-0.6c0.1-0.1,0.1-0.3,0.2-0.4
		c0.1-0.2,0.2-0.4,0.3-0.7c0.1-0.2,0.1-0.3,0.2-0.5c0.1-0.2,0.2-0.5,0.2-0.7c0-0.2,0.1-0.3,0.1-0.5c0.1-0.2,0.1-0.5,0.2-0.7
		c0-0.2,0.1-0.3,0.1-0.5c0-0.2,0.1-0.5,0.1-0.7c0-0.2,0-0.4,0.1-0.5c0-0.3,0.1-0.5,0.1-0.8c0-0.2,0-0.4,0-0.5c0-0.3,0-0.5,0.1-0.8
		c0-0.2,0-0.4,0-0.6c0-0.3,0-0.5,0-0.8c0-0.2,0-0.4,0-0.6c0-0.3,0-0.5,0-0.8c0-0.2,0-0.4,0-0.6c0-0.3,0-0.5,0-0.8c0-0.2,0-0.4,0-0.6
		c0-0.3,0-0.5,0-0.8c0-0.4,0-0.9,0-1.3c0-0.5,0-0.9,0-1.4V11.5c0-1.4-1.2-2.6-2.6-2.6L16.5,13.6c-0.2,0-0.4,0-0.6,0.1
		c-0.1,0-0.1,0-0.2,0.1c-0.1,0-0.3,0.1-0.4,0.2c-0.1,0-0.1,0.1-0.2,0.1c-0.1,0.1-0.2,0.2-0.3,0.2c0,0-0.1,0.1-0.1,0.1
		c-0.1,0.1-0.3,0.3-0.4,0.4c0,0,0,0,0,0h0c-0.3,0.4-0.4,0.9-0.4,1.5v71c0,1.4,1.2,2.6,2.6,2.6l100.7,6.6c0.1,2,0.1,5-0.2,8.5
		c-0.5,4.9-7.6,10.9-7.7,10.9c0,0,5.2,0.2,10.6-3.4c0.2-0.1,0.3-0.2,0.5-0.4c0,0,0,0-0.1,0.1c0.1-0.1,0.2-0.1,0.3-0.2
		c0.2-0.2,0.4-0.3,0.6-0.5c0.1-0.1,0.2-0.2,0.4-0.4c0.2-0.2,0.3-0.3,0.5-0.5c0.1-0.1,0.2-0.3,0.3-0.4
		C122.4,110.1,122.5,109.9,122.6,109.7z"/>
	<path class="st21" d="M123.4,109c0.1-0.1,0.2-0.3,0.3-0.4c0.1-0.2,0.2-0.4,0.3-0.6c0.1-0.1,0.1-0.3,0.2-0.4
		c0.1-0.2,0.2-0.4,0.3-0.7c0.1-0.2,0.1-0.3,0.2-0.5c0.1-0.2,0.2-0.5,0.2-0.7c0-0.2,0.1-0.3,0.1-0.5c0.1-0.2,0.1-0.5,0.2-0.7
		c0-0.2,0.1-0.3,0.1-0.5c0-0.2,0.1-0.5,0.1-0.7c0-0.2,0-0.4,0.1-0.5c0-0.3,0.1-0.5,0.1-0.8c0-0.2,0-0.4,0-0.5c0-0.3,0-0.5,0.1-0.8
		c0-0.2,0-0.4,0-0.6c0-0.3,0-0.5,0-0.8c0-0.2,0-0.4,0-0.6c0-0.3,0-0.5,0-0.8c0-0.2,0-0.4,0-0.6c0-0.3,0-0.5,0-0.8c0-0.2,0-0.4,0-0.6
		c0-0.3,0-0.5,0-0.8c0-0.4,0-0.9,0-1.3c0-0.5,0-0.9,0-1.4V10.8c0-1.4-1.2-2.6-2.6-2.6L17.3,12.9c-0.2,0-0.4,0-0.6,0.1
		c-0.1,0-0.1,0-0.2,0.1c-0.1,0-0.3,0.1-0.4,0.2c-0.1,0-0.1,0.1-0.2,0.1c-0.1,0.1-0.2,0.2-0.3,0.2c0,0-0.1,0.1-0.1,0.1
		c-0.1,0.1-0.3,0.3-0.4,0.4c0,0,0,0,0,0h0c-0.3,0.4-0.4,0.9-0.4,1.5v71c0,1.4,1.2,2.6,2.6,2.6l100.7,6.6c0.1,2,0.1,5-0.2,8.5
		c-0.5,4.9-7.6,10.9-7.7,10.9c0,0,5.2,0.2,10.6-3.4c0.2-0.1,0.3-0.2,0.5-0.4c0,0,0,0-0.1,0.1c0.1-0.1,0.2-0.1,0.3-0.2
		c0.2-0.2,0.4-0.3,0.6-0.5c0.1-0.1,0.2-0.2,0.4-0.4c0.2-0.2,0.3-0.3,0.5-0.5c0.1-0.1,0.2-0.3,0.3-0.4
		C123.1,109.3,123.2,109.2,123.4,109z"/>
	<path class="st22" d="M124.1,108.2c0.1-0.1,0.2-0.3,0.3-0.4c0.1-0.2,0.2-0.4,0.3-0.6c0.1-0.1,0.1-0.3,0.2-0.4
		c0.1-0.2,0.2-0.4,0.3-0.7c0.1-0.2,0.1-0.3,0.2-0.5c0.1-0.2,0.2-0.5,0.2-0.7c0-0.2,0.1-0.3,0.1-0.5c0.1-0.2,0.1-0.5,0.2-0.7
		c0-0.2,0.1-0.3,0.1-0.5c0-0.2,0.1-0.5,0.1-0.7c0-0.2,0-0.4,0.1-0.5c0-0.3,0.1-0.5,0.1-0.8c0-0.2,0-0.4,0-0.5c0-0.3,0-0.5,0.1-0.8
		c0-0.2,0-0.4,0-0.6c0-0.3,0-0.5,0-0.8c0-0.2,0-0.4,0-0.6c0-0.3,0-0.5,0-0.8c0-0.2,0-0.4,0-0.6c0-0.3,0-0.5,0-0.8c0-0.2,0-0.4,0-0.6
		c0-0.3,0-0.5,0-0.8c0-0.4,0-0.9,0-1.3c0-0.5,0-0.9,0-1.4V10.1c0-1.4-1.2-2.6-2.6-2.6L18,12.2c-0.2,0-0.4,0-0.6,0.1
		c-0.1,0-0.1,0-0.2,0.1c-0.1,0-0.3,0.1-0.4,0.2c-0.1,0-0.1,0.1-0.2,0.1c-0.1,0.1-0.2,0.2-0.3,0.2c0,0-0.1,0.1-0.1,0.1
		c-0.1,0.1-0.3,0.3-0.4,0.4c0,0,0,0,0,0h0c-0.3,0.4-0.4,0.9-0.4,1.5v71c0,1.4,1.2,2.6,2.6,2.6l100.7,6.6c0.1,2,0.1,5-0.2,8.5
		c-0.5,4.9-7.6,10.9-7.7,10.9c0,0,5.2,0.2,10.6-3.4c0.2-0.1,0.3-0.2,0.5-0.4c0,0,0,0-0.1,0.1c0.1-0.1,0.2-0.1,0.3-0.2
		c0.2-0.2,0.4-0.3,0.6-0.5c0.1-0.1,0.2-0.2,0.4-0.4c0.2-0.2,0.3-0.3,0.5-0.5c0.1-0.1,0.2-0.3,0.3-0.4
		C123.8,108.6,123.9,108.4,124.1,108.2z"/>
	<path class="st23" d="M124.8,107.5c0.1-0.1,0.2-0.3,0.3-0.4c0.1-0.2,0.2-0.4,0.3-0.6c0.1-0.1,0.1-0.3,0.2-0.4
		c0.1-0.2,0.2-0.4,0.3-0.7c0.1-0.2,0.1-0.3,0.2-0.5c0.1-0.2,0.2-0.5,0.2-0.7c0-0.2,0.1-0.3,0.1-0.5c0.1-0.2,0.1-0.5,0.2-0.7
		c0-0.2,0.1-0.3,0.1-0.5c0-0.2,0.1-0.5,0.1-0.7c0-0.2,0-0.4,0.1-0.5c0-0.3,0.1-0.5,0.1-0.8c0-0.2,0-0.4,0-0.5c0-0.3,0-0.5,0.1-0.8
		c0-0.2,0-0.4,0-0.6c0-0.3,0-0.5,0-0.8c0-0.2,0-0.4,0-0.6c0-0.3,0-0.5,0-0.8c0-0.2,0-0.4,0-0.6c0-0.3,0-0.5,0-0.8c0-0.2,0-0.4,0-0.6
		c0-0.3,0-0.5,0-0.8c0-0.4,0-0.9,0-1.3c0-0.5,0-0.9,0-1.4V9.4c0-1.4-1.2-2.6-2.6-2.6L18.7,11.5c-0.2,0-0.4,0-0.6,0.1
		c-0.1,0-0.1,0-0.2,0.1c-0.1,0-0.3,0.1-0.4,0.2c-0.1,0-0.1,0.1-0.2,0.1c-0.1,0.1-0.2,0.2-0.3,0.2c0,0-0.1,0.1-0.1,0.1
		c-0.1,0.1-0.3,0.3-0.4,0.4c0,0,0,0,0,0h0c-0.3,0.4-0.4,0.9-0.4,1.5v71c0,1.4,1.2,2.6,2.6,2.6l100.7,6.6c0.1,2,0.1,5-0.2,8.5
		c-0.5,4.9-7.6,10.9-7.7,10.9c0,0,5.2,0.2,10.6-3.4c0.2-0.1,0.3-0.2,0.5-0.4c0,0,0,0-0.1,0.1c0.1-0.1,0.2-0.1,0.3-0.2
		c0.2-0.2,0.4-0.3,0.6-0.5c0.1-0.1,0.2-0.2,0.4-0.4c0.2-0.2,0.3-0.3,0.5-0.5c0.1-0.1,0.2-0.3,0.3-0.4
		C124.5,107.9,124.7,107.7,124.8,107.5z"/>
	<path class="st24" d="M125.5,106.8c0.1-0.1,0.2-0.3,0.3-0.4c0.1-0.2,0.2-0.4,0.3-0.6c0.1-0.1,0.1-0.3,0.2-0.4
		c0.1-0.2,0.2-0.4,0.3-0.7c0.1-0.2,0.1-0.3,0.2-0.5c0.1-0.2,0.2-0.5,0.2-0.7c0-0.2,0.1-0.3,0.1-0.5c0.1-0.2,0.1-0.5,0.2-0.7
		c0-0.2,0.1-0.3,0.1-0.5c0-0.2,0.1-0.5,0.1-0.7c0-0.2,0-0.4,0.1-0.5c0-0.3,0.1-0.5,0.1-0.8c0-0.2,0-0.4,0-0.5c0-0.3,0-0.5,0.1-0.8
		c0-0.2,0-0.4,0-0.6c0-0.3,0-0.5,0-0.8c0-0.2,0-0.4,0-0.6c0-0.3,0-0.5,0-0.8c0-0.2,0-0.4,0-0.6c0-0.3,0-0.5,0-0.8c0-0.2,0-0.4,0-0.6
		c0-0.3,0-0.5,0-0.8c0-0.4,0-0.9,0-1.3c0-0.5,0-0.9,0-1.4V8.7c0-1.4-1.2-2.6-2.6-2.6L19.4,10.8c-0.2,0-0.4,0-0.6,0.1
		c-0.1,0-0.1,0-0.2,0.1c-0.1,0-0.3,0.1-0.4,0.2c-0.1,0-0.1,0.1-0.2,0.1c-0.1,0.1-0.2,0.2-0.3,0.2c0,0-0.1,0.1-0.1,0.1
		c-0.1,0.1-0.3,0.3-0.4,0.4c0,0,0,0,0,0h0c-0.3,0.4-0.4,0.9-0.4,1.5v71c0,1.4,1.2,2.6,2.6,2.6l100.7,6.6c0.1,2,0.1,5-0.2,8.5
		c-0.5,4.9-7.6,10.9-7.7,10.9c0,0,5.2,0.2,10.6-3.4c0.2-0.1,0.3-0.2,0.5-0.4c0,0,0,0-0.1,0.1c0.1-0.1,0.2-0.1,0.3-0.2
		c0.2-0.2,0.4-0.3,0.6-0.5c0.1-0.1,0.2-0.2,0.4-0.4c0.2-0.2,0.3-0.3,0.5-0.5c0.1-0.1,0.2-0.3,0.3-0.4
		C125.2,107.2,125.4,107,125.5,106.8z"/>
	<path class="st25" d="M126.2,106.1c0.1-0.1,0.2-0.3,0.3-0.4c0.1-0.2,0.2-0.4,0.3-0.6c0.1-0.1,0.1-0.3,0.2-0.4
		c0.1-0.2,0.2-0.4,0.3-0.7c0.1-0.2,0.1-0.3,0.2-0.5c0.1-0.2,0.2-0.5,0.2-0.7c0-0.2,0.1-0.3,0.1-0.5c0.1-0.2,0.1-0.5,0.2-0.7
		c0-0.2,0.1-0.3,0.1-0.5c0-0.2,0.1-0.5,0.1-0.7c0-0.2,0-0.4,0.1-0.5c0-0.3,0.1-0.5,0.1-0.8c0-0.2,0-0.4,0-0.5c0-0.3,0-0.5,0.1-0.8
		c0-0.2,0-0.4,0-0.6c0-0.3,0-0.5,0-0.8c0-0.2,0-0.4,0-0.6c0-0.3,0-0.5,0-0.8c0-0.2,0-0.4,0-0.6c0-0.3,0-0.5,0-0.8c0-0.2,0-0.4,0-0.6
		c0-0.3,0-0.5,0-0.8c0-0.4,0-0.9,0-1.3c0-0.5,0-0.9,0-1.4V7.9c0-1.4-1.2-2.6-2.6-2.6L20.1,10.1c-0.2,0-0.4,0-0.6,0.1
		c-0.1,0-0.1,0-0.2,0.1c-0.1,0-0.3,0.1-0.4,0.2c-0.1,0-0.1,0.1-0.2,0.1c-0.1,0.1-0.2,0.2-0.3,0.2c0,0-0.1,0.1-0.1,0.1
		c-0.1,0.1-0.3,0.3-0.4,0.4c0,0,0,0,0,0h0c-0.3,0.4-0.4,0.9-0.4,1.5v71c0,1.4,1.2,2.6,2.6,2.6l100.7,6.6c0.1,2,0.1,5-0.2,8.5
		c-0.5,4.9-7.6,10.9-7.7,10.9c0,0,5.2,0.2,10.6-3.4c0.2-0.1,0.3-0.2,0.5-0.4c0,0,0,0-0.1,0.1c0.1-0.1,0.2-0.1,0.3-0.2
		c0.2-0.2,0.4-0.3,0.6-0.5c0.1-0.1,0.2-0.2,0.4-0.4c0.2-0.2,0.3-0.3,0.5-0.5c0.1-0.1,0.2-0.3,0.3-0.4
		C125.9,106.5,126.1,106.3,126.2,106.1z"/>
	<path class="st26" d="M126.9,105.4c0.1-0.1,0.2-0.3,0.3-0.4c0.1-0.2,0.2-0.4,0.3-0.6c0.1-0.1,0.1-0.3,0.2-0.4
		c0.1-0.2,0.2-0.4,0.3-0.7c0.1-0.2,0.1-0.3,0.2-0.5c0.1-0.2,0.2-0.5,0.2-0.7c0-0.2,0.1-0.3,0.1-0.5c0.1-0.2,0.1-0.5,0.2-0.7
		c0-0.2,0.1-0.3,0.1-0.5c0-0.2,0.1-0.5,0.1-0.7c0-0.2,0-0.4,0.1-0.5c0-0.3,0.1-0.5,0.1-0.8c0-0.2,0-0.4,0-0.5c0-0.3,0-0.5,0.1-0.8
		c0-0.2,0-0.4,0-0.6c0-0.3,0-0.5,0-0.8c0-0.2,0-0.4,0-0.6c0-0.3,0-0.5,0-0.8c0-0.2,0-0.4,0-0.6c0-0.3,0-0.5,0-0.8c0-0.2,0-0.4,0-0.6
		c0-0.3,0-0.5,0-0.8c0-0.4,0-0.9,0-1.3c0-0.5,0-0.9,0-1.4V7.2c0-1.4-1.2-2.6-2.6-2.6L20.8,9.3c-0.2,0-0.4,0-0.6,0.1
		c-0.1,0-0.1,0-0.2,0.1c-0.1,0-0.3,0.1-0.4,0.2c-0.1,0-0.1,0.1-0.2,0.1c-0.1,0.1-0.2,0.2-0.3,0.2c0,0-0.1,0.1-0.1,0.1
		c-0.1,0.1-0.3,0.3-0.4,0.4c0,0,0,0,0,0h0c-0.3,0.4-0.4,0.9-0.4,1.5v71c0,1.4,1.2,2.6,2.6,2.6l100.7,6.6c0.1,2,0.1,5-0.2,8.5
		c-0.5,4.9-7.6,10.9-7.7,10.9c0,0,5.2,0.2,10.6-3.4c0.2-0.1,0.3-0.2,0.5-0.4c0,0,0,0-0.1,0.1c0.1-0.1,0.2-0.1,0.3-0.2
		c0.2-0.2,0.4-0.3,0.6-0.5c0.1-0.1,0.2-0.2,0.4-0.4c0.2-0.2,0.3-0.3,0.5-0.5c0.1-0.1,0.2-0.3,0.3-0.4
		C126.7,105.8,126.8,105.6,126.9,105.4z"/>
	<path class="st27" d="M127.6,104.7c0.1-0.1,0.2-0.3,0.3-0.4c0.1-0.2,0.2-0.4,0.3-0.6c0.1-0.1,0.1-0.3,0.2-0.4
		c0.1-0.2,0.2-0.4,0.3-0.7c0.1-0.2,0.1-0.3,0.2-0.5c0.1-0.2,0.2-0.5,0.2-0.7c0-0.2,0.1-0.3,0.1-0.5c0.1-0.2,0.1-0.5,0.2-0.7
		c0-0.2,0.1-0.3,0.1-0.5c0-0.2,0.1-0.5,0.1-0.7c0-0.2,0-0.4,0.1-0.5c0-0.3,0.1-0.5,0.1-0.8c0-0.2,0-0.4,0-0.5c0-0.3,0-0.5,0.1-0.8
		c0-0.2,0-0.4,0-0.6c0-0.3,0-0.5,0-0.8c0-0.2,0-0.4,0-0.6c0-0.3,0-0.5,0-0.8c0-0.2,0-0.4,0-0.6c0-0.3,0-0.5,0-0.8c0-0.2,0-0.4,0-0.6
		c0-0.3,0-0.5,0-0.8c0-0.4,0-0.9,0-1.3c0-0.5,0-0.9,0-1.4V6.5c0-1.4-1.2-2.6-2.6-2.6L21.5,8.6c-0.2,0-0.4,0-0.6,0.1
		c-0.1,0-0.1,0-0.2,0.1c-0.1,0-0.3,0.1-0.4,0.2c-0.1,0-0.1,0.1-0.2,0.1c-0.1,0.1-0.2,0.2-0.3,0.2c0,0-0.1,0.1-0.1,0.1
		c-0.1,0.1-0.3,0.3-0.4,0.4c0,0,0,0,0,0h0c-0.3,0.4-0.4,0.9-0.4,1.5v71c0,1.4,1.2,2.6,2.6,2.6l100.7,6.6c0.1,2,0.1,5-0.2,8.5
		c-0.5,4.9-7.6,10.9-7.7,10.9c0,0,5.2,0.2,10.6-3.4c0.2-0.1,0.3-0.2,0.5-0.4c0,0,0,0-0.1,0.1c0.1-0.1,0.2-0.1,0.3-0.2
		c0.2-0.2,0.4-0.3,0.6-0.5c0.1-0.1,0.2-0.2,0.4-0.4c0.2-0.2,0.3-0.3,0.5-0.5c0.1-0.1,0.2-0.3,0.3-0.4
		C127.4,105.1,127.5,104.9,127.6,104.7z"/>
	<path class="st28" d="M128.3,104c0.1-0.1,0.2-0.3,0.3-0.4c0.1-0.2,0.2-0.4,0.3-0.6c0.1-0.1,0.1-0.3,0.2-0.4
		c0.1-0.2,0.2-0.4,0.3-0.7c0.1-0.2,0.1-0.3,0.2-0.5c0.1-0.2,0.2-0.5,0.2-0.7c0-0.2,0.1-0.3,0.1-0.5c0.1-0.2,0.1-0.5,0.2-0.7
		c0-0.2,0.1-0.3,0.1-0.5c0-0.2,0.1-0.5,0.1-0.7c0-0.2,0-0.4,0.1-0.5c0-0.3,0.1-0.5,0.1-0.8c0-0.2,0-0.4,0-0.5c0-0.3,0-0.5,0.1-0.8
		c0-0.2,0-0.4,0-0.6c0-0.3,0-0.5,0-0.8c0-0.2,0-0.4,0-0.6c0-0.3,0-0.5,0-0.8c0-0.2,0-0.4,0-0.6c0-0.3,0-0.5,0-0.8c0-0.2,0-0.4,0-0.6
		c0-0.3,0-0.5,0-0.8c0-0.4,0-0.9,0-1.3c0-0.5,0-0.9,0-1.4V5.8c0-1.4-1.2-2.6-2.6-2.6L22.2,7.9c-0.2,0-0.4,0-0.6,0.1
		c-0.1,0-0.1,0-0.2,0.1c-0.1,0-0.3,0.1-0.4,0.2c-0.1,0-0.1,0.1-0.2,0.1c-0.1,0.1-0.2,0.2-0.3,0.2c0,0-0.1,0.1-0.1,0.1
		c-0.1,0.1-0.3,0.3-0.4,0.4c0,0,0,0,0,0h0c-0.3,0.4-0.4,0.9-0.4,1.5v71c0,1.4,1.2,2.6,2.6,2.6l100.7,6.6c0.1,2,0.1,5-0.2,8.5
		c-0.5,4.9-7.6,10.9-7.7,10.9c0,0,5.2,0.2,10.6-3.4c0.2-0.1,0.3-0.2,0.5-0.4c0,0,0,0-0.1,0.1c0.1-0.1,0.2-0.1,0.3-0.2
		c0.2-0.2,0.4-0.3,0.6-0.5c0.1-0.1,0.2-0.2,0.4-0.4c0.2-0.2,0.3-0.3,0.5-0.5c0.1-0.1,0.2-0.3,0.3-0.4
		C128.1,104.4,128.2,104.2,128.3,104z"/>
	<path class="st29" d="M129.1,103.3c0.1-0.1,0.2-0.3,0.3-0.4c0.1-0.2,0.2-0.4,0.3-0.6c0.1-0.1,0.1-0.3,0.2-0.4
		c0.1-0.2,0.2-0.4,0.3-0.7c0.1-0.2,0.1-0.3,0.2-0.5c0.1-0.2,0.2-0.5,0.2-0.7c0-0.2,0.1-0.3,0.1-0.5c0.1-0.2,0.1-0.5,0.2-0.7
		c0-0.2,0.1-0.3,0.1-0.5c0-0.2,0.1-0.5,0.1-0.7c0-0.2,0-0.4,0.1-0.5c0-0.3,0.1-0.5,0.1-0.8c0-0.2,0-0.4,0-0.5c0-0.3,0-0.5,0.1-0.8
		c0-0.2,0-0.4,0-0.6c0-0.3,0-0.5,0-0.8c0-0.2,0-0.4,0-0.6c0-0.3,0-0.5,0-0.8c0-0.2,0-0.4,0-0.6c0-0.3,0-0.5,0-0.8c0-0.2,0-0.4,0-0.6
		c0-0.3,0-0.5,0-0.8c0-0.4,0-0.9,0-1.3c0-0.5,0-0.9,0-1.4V5.1c0-1.4-1.2-2.6-2.6-2.6L22.9,7.2c-0.2,0-0.4,0-0.6,0.1
		c-0.1,0-0.1,0-0.2,0.1c-0.1,0-0.3,0.1-0.4,0.2c-0.1,0-0.1,0.1-0.2,0.1c-0.1,0.1-0.2,0.2-0.3,0.2c0,0-0.1,0.1-0.1,0.1
		c-0.1,0.1-0.3,0.3-0.4,0.4c0,0,0,0,0,0h0c-0.3,0.4-0.4,0.9-0.4,1.5v71c0,1.4,1.2,2.6,2.6,2.6l100.7,6.6c0.1,2,0.1,5-0.2,8.5
		c-0.5,4.9-7.6,10.9-7.7,10.9c0,0,5.2,0.2,10.6-3.4c0.2-0.1,0.3-0.2,0.5-0.4c0,0,0,0-0.1,0.1c0.1-0.1,0.2-0.1,0.3-0.2
		c0.2-0.2,0.4-0.3,0.6-0.5c0.1-0.1,0.2-0.2,0.4-0.4c0.2-0.2,0.3-0.3,0.5-0.5c0.1-0.1,0.2-0.3,0.3-0.4
		C128.8,103.7,128.9,103.5,129.1,103.3z"/>
	<path class="st30" d="M129.8,102.6c0.1-0.1,0.2-0.3,0.3-0.4c0.1-0.2,0.2-0.4,0.3-0.6c0.1-0.1,0.1-0.3,0.2-0.4
		c0.1-0.2,0.2-0.4,0.3-0.7c0.1-0.2,0.1-0.3,0.2-0.5c0.1-0.2,0.2-0.5,0.2-0.7c0-0.2,0.1-0.3,0.1-0.5c0.1-0.2,0.1-0.5,0.2-0.7
		c0-0.2,0.1-0.3,0.1-0.5c0-0.2,0.1-0.5,0.1-0.7c0-0.2,0-0.4,0.1-0.5c0-0.3,0.1-0.5,0.1-0.8c0-0.2,0-0.4,0-0.5c0-0.3,0-0.5,0.1-0.8
		c0-0.2,0-0.4,0-0.6c0-0.3,0-0.5,0-0.8c0-0.2,0-0.4,0-0.6c0-0.3,0-0.5,0-0.8c0-0.2,0-0.4,0-0.6c0-0.3,0-0.5,0-0.8c0-0.2,0-0.4,0-0.6
		c0-0.3,0-0.5,0-0.8c0-0.4,0-0.9,0-1.3c0-0.5,0-0.9,0-1.4V4.4c0-1.4-1.2-2.6-2.6-2.6L23.7,6.5c-0.2,0-0.4,0-0.6,0.1
		c-0.1,0-0.1,0-0.2,0.1c-0.1,0-0.3,0.1-0.4,0.2c-0.1,0-0.1,0.1-0.2,0.1C22.2,7,22.1,7,22,7.1c0,0-0.1,0.1-0.1,0.1
		c-0.1,0.1-0.3,0.3-0.4,0.4c0,0,0,0,0,0h0C21.2,8.1,21,8.6,21,9.1v71c0,1.4,1.2,2.6,2.6,2.6l100.7,6.6c0.1,2,0.1,5-0.2,8.5
		c-0.5,4.9-7.6,10.9-7.7,10.9c0,0,5.2,0.2,10.6-3.4c0.2-0.1,0.3-0.2,0.5-0.4c0,0,0,0-0.1,0.1c0.1-0.1,0.2-0.1,0.3-0.2
		c0.2-0.2,0.4-0.3,0.6-0.5c0.1-0.1,0.2-0.2,0.4-0.4c0.2-0.2,0.3-0.3,0.5-0.5c0.1-0.1,0.2-0.3,0.3-0.4
		C129.5,102.9,129.6,102.8,129.8,102.6z"/>
	<path class="st31" d="M130.5,101.8c0.1-0.1,0.2-0.3,0.3-0.4c0.1-0.2,0.2-0.4,0.3-0.6c0.1-0.1,0.1-0.3,0.2-0.4
		c0.1-0.2,0.2-0.4,0.3-0.7c0.1-0.2,0.1-0.3,0.2-0.5c0.1-0.2,0.2-0.5,0.2-0.7c0-0.2,0.1-0.3,0.1-0.5c0.1-0.2,0.1-0.5,0.2-0.7
		c0-0.2,0.1-0.3,0.1-0.5c0-0.2,0.1-0.5,0.1-0.7c0-0.2,0-0.4,0.1-0.5c0-0.3,0.1-0.5,0.1-0.8c0-0.2,0-0.4,0-0.5c0-0.3,0-0.5,0.1-0.8
		c0-0.2,0-0.4,0-0.6c0-0.3,0-0.5,0-0.8c0-0.2,0-0.4,0-0.6c0-0.3,0-0.5,0-0.8c0-0.2,0-0.4,0-0.6c0-0.3,0-0.5,0-0.8c0-0.2,0-0.4,0-0.6
		c0-0.3,0-0.5,0-0.8c0-0.4,0-0.9,0-1.3c0-0.5,0-0.9,0-1.4V3.7c0-1.4-1.2-2.6-2.6-2.6L24.4,5.8c-0.2,0-0.4,0-0.6,0.1
		c-0.1,0-0.1,0-0.2,0.1c-0.1,0-0.3,0.1-0.4,0.2c-0.1,0-0.1,0.1-0.2,0.1c-0.1,0.1-0.2,0.2-0.3,0.2c0,0-0.1,0.1-0.1,0.1
		c-0.1,0.1-0.3,0.3-0.4,0.4c0,0,0,0,0,0h0c-0.3,0.4-0.4,0.9-0.4,1.5v71c0,1.4,1.2,2.6,2.6,2.6L125,88.7c0.1,2,0.1,5-0.2,8.5
		c-0.5,4.9-7.6,10.9-7.7,10.9c0,0,5.2,0.2,10.6-3.4c0.2-0.1,0.3-0.2,0.5-0.4c0,0,0,0-0.1,0.1c0.1-0.1,0.2-0.1,0.3-0.2
		c0.2-0.2,0.4-0.3,0.6-0.5c0.1-0.1,0.2-0.2,0.4-0.4c0.2-0.2,0.3-0.3,0.5-0.5c0.1-0.1,0.2-0.3,0.3-0.4
		C130.2,102.2,130.3,102,130.5,101.8z"/>
	<path class="st32" d="M131.2,101.1c0.1-0.1,0.2-0.3,0.3-0.4c0.1-0.2,0.2-0.4,0.3-0.6c0.1-0.1,0.1-0.3,0.2-0.4
		c0.1-0.2,0.2-0.4,0.3-0.7c0.1-0.2,0.1-0.3,0.2-0.5c0.1-0.2,0.2-0.5,0.2-0.7c0-0.2,0.1-0.3,0.1-0.5c0.1-0.2,0.1-0.5,0.2-0.7
		c0-0.2,0.1-0.3,0.1-0.5c0-0.2,0.1-0.5,0.1-0.7c0-0.2,0-0.4,0.1-0.5c0-0.3,0.1-0.5,0.1-0.8c0-0.2,0-0.4,0-0.5c0-0.3,0-0.5,0.1-0.8
		c0-0.2,0-0.4,0-0.6c0-0.3,0-0.5,0-0.8c0-0.2,0-0.4,0-0.6c0-0.3,0-0.5,0-0.8c0-0.2,0-0.4,0-0.6c0-0.3,0-0.5,0-0.8c0-0.2,0-0.4,0-0.6
		c0-0.3,0-0.5,0-0.8c0-0.4,0-0.9,0-1.3c0-0.5,0-0.9,0-1.4V3c0-1.4-1.2-2.6-2.6-2.6L25.1,5.1c-0.2,0-0.4,0-0.6,0.1
		c-0.1,0-0.1,0-0.2,0.1c-0.1,0-0.3,0.1-0.4,0.2c-0.1,0-0.1,0.1-0.2,0.1c-0.1,0.1-0.2,0.2-0.3,0.2c0,0-0.1,0.1-0.1,0.1
		c-0.1,0.1-0.3,0.3-0.4,0.4c0,0,0,0,0,0h0c-0.3,0.4-0.4,0.9-0.4,1.5v71c0,1.4,1.2,2.6,2.6,2.6L125.7,88c0.1,2,0.1,5-0.2,8.5
		c-0.5,4.9-7.6,10.9-7.7,10.9c0,0,5.2,0.2,10.6-3.4c0.2-0.1,0.3-0.2,0.5-0.4c0,0,0,0-0.1,0.1c0.1-0.1,0.2-0.1,0.3-0.2
		c0.2-0.2,0.4-0.3,0.6-0.5c0.1-0.1,0.2-0.2,0.4-0.4c0.2-0.2,0.3-0.3,0.5-0.5c0.1-0.1,0.2-0.3,0.3-0.4
		C130.9,101.5,131.1,101.3,131.2,101.1z"/>
</g>
<g>
	<radialGradient id="SVGID_1_" cx="109.4635" cy="-0.4562" r="143.1321" gradientUnits="userSpaceOnUse">
		<stop  offset="0" style="stop-color:#FFFFFF"/>
		<stop  offset="1" style="stop-color:#969494"/>
	</radialGradient>
	<path class="st33" d="M133.4,84.6V3c0-1.4-1.2-2.6-2.6-2.6L25.1,5.1c-1.4,0-2.6,1.2-2.6,2.6v71c0,1.4,1.2,2.6,2.6,2.6L125.7,88
		c0.1,2,0.1,5-0.2,8.5c-0.6,6.6-8,11.1-8,11.1s4.8,0.5,10.9-3.6C134.3,100.1,133.5,91.9,133.4,84.6z"/>
	<g>
		<path class="st34" d="M117.5,107.6c0,0,0.1,0,0.2,0c0.4-0.3,1-0.8,1.5-1.3C118.2,107.1,117.5,107.6,117.5,107.6z"/>
		<path class="st34" d="M133.4,84.6V3c0-1.4-1.2-2.6-2.6-2.6L25.1,5.1c-0.9,0-1.7,0.5-2.2,1.2C23.2,6.1,23.6,6,24,6l105.7-4.7
			c1.4,0,2.6,1.2,2.6,2.6v81.6c0.1,6.6,0.7,13.9-3.5,18.1C134.2,99.7,133.5,91.7,133.4,84.6z"/>
	</g>
</g>
<g>
	<path class="st35" d="M93.8,33.3c-1.1-8.4-6.1-16.5-14.9-18.1c-1.7-0.3-3.3-0.3-4.9,0c0.1,0,0.1,0,0.2,0
		c8.8,1.6,13.8,9.7,14.9,18.1c0.6,4.4,0.4,9-0.3,13.4c-1.8,11.8-9.9,23.2-18,25.2c9.3,2.5,20.7-11.1,22.8-25.2
		C94.2,42.3,94.4,37.7,93.8,33.3z"/>
	<path class="st36" d="M68.9,15.2c1.7-0.3,3.4-0.3,5.2,0c8.8,1.6,13.8,9.7,14.9,18.1c0.6,4.4,0.4,9-0.3,13.4
		c-2.2,14.4-13.9,28.4-23.4,25c-9.5-3.3-0.8-18.6-5.8-25.5c-3.4-4.8-5.3-11.2-4.2-17.1C56.7,22.3,62.3,16.5,68.9,15.2z"/>
	<path class="st37" d="M68.3,70.2c-0.8,0-1.5-0.1-2.3-0.4c-3.7-1.3-3.6-5.2-3.1-11.5c0.4-4.8,0.8-9.7-1.8-13.3
		c-3.3-4.7-4.8-10.7-3.8-15.6c1.2-6.1,6.2-11.2,12-12.3C70,17,70.8,17,71.6,17c0.7,0,1.5,0.1,2.2,0.2c3.7,0.7,6.7,2.6,9.1,5.8
		c2.2,2.8,3.6,6.6,4.2,10.6c0.5,3.9,0.4,8.2-0.3,12.8c-0.9,5.9-3.5,12-7.2,16.7C75.9,67.6,71.8,70.2,68.3,70.2z"/>
	<path class="st36" d="M71.3,24c1.3-0.7,2.9-0.8,4.5-0.2c3.4,1.4,5.5,5,6.6,8.4c1.2,3.8,0.8,8.7-2.3,11.5c-2,1.8-4.9,2.2-7,0.5
		c-2.8-2.2-1.3-5.4-2.1-8.4c-0.9-3.2-3.7-6.1-1.9-9.6C69.6,25.2,70.4,24.5,71.3,24z"/>
	<path class="st36" d="M63.2,38.3c0.6-0.3,1.3-0.4,2.1-0.1c1.6,0.6,2.5,2.3,3,3.8c0.5,1.7,0.4,4-1,5.3c-0.9,0.8-2.2,1-3.2,0.2
		c-1.3-1-0.6-2.5-1-3.8c-0.4-1.5-1.7-2.8-0.9-4.4C62.4,38.9,62.8,38.6,63.2,38.3z"/>
</g>
</svg>
