<?xml version="1.0" encoding="utf-8"?>
<!-- Generator: Adobe Illustrator 20.1.0, SVG Export Plug-In . SVG Version: 6.00 Build 0)  -->
<svg version="1.1" id="Layer_1" xmlns="http://www.w3.org/2000/svg" xmlns:xlink="http://www.w3.org/1999/xlink" x="0px" y="0px"
	 viewBox="0 0 130 130" style="enable-background:new 0 0 130 130;" xml:space="preserve">
<style type="text/css">
	.st0{opacity:0.58;}
	.st1{opacity:0;fill:#756937;}
	.st2{opacity:2.500000e-02;fill:#756937;}
	.st3{opacity:5.000000e-02;fill:#756937;}
	.st4{opacity:7.500000e-02;fill:#756937;}
	.st5{opacity:0.1;fill:#756937;}
	.st6{opacity:0.125;fill:#756937;}
	.st7{opacity:0.15;fill:#756937;}
	.st8{opacity:0.175;fill:#756937;}
	.st9{opacity:0.2;fill:#756937;}
	.st10{opacity:0.225;fill:#756937;}
	.st11{opacity:0.25;fill:#756937;}
	.st12{opacity:0.275;fill:#756937;}
	.st13{opacity:0.3;fill:#756937;}
	.st14{opacity:0.325;fill:#756937;}
	.st15{opacity:0.35;fill:#756937;}
	.st16{opacity:0.375;fill:#756937;}
	.st17{opacity:0.4;fill:#756937;}
	.st18{opacity:0.425;fill:#756937;}
	.st19{opacity:0.45;fill:#756937;}
	.st20{opacity:0.475;fill:#756937;}
	.st21{opacity:0.5;fill:#756937;}
	.st22{opacity:0.525;fill:#756937;}
	.st23{opacity:0.55;fill:#756937;}
	.st24{opacity:0.575;fill:#756937;}
	.st25{opacity:0.6;fill:#756937;}
	.st26{opacity:0.625;fill:#756937;}
	.st27{opacity:0.65;fill:#756937;}
	.st28{opacity:0.675;fill:#756937;}
	.st29{opacity:0.7;fill:#756937;}
	.st30{opacity:0.725;fill:#756937;}
	.st31{opacity:0.75;fill:#756937;}
	.st32{opacity:0.775;fill:#756937;}
	.st33{opacity:0.8;fill:#756937;}
	.st34{opacity:0.825;fill:#756937;}
	.st35{opacity:0.85;fill:#756937;}
	.st36{opacity:0.875;fill:#756937;}
	.st37{opacity:0.9;fill:#756937;}
	.st38{opacity:0.925;fill:#756937;}
	.st39{opacity:0.95;fill:#756937;}
	.st40{opacity:0.975;fill:#756937;}
	.st41{fill:#756937;}
	.st42{fill:url(#SVGID_1_);}
	.st43{fill:#FFFFFF;}
	.st44{opacity:0.3;}
	.st45{fill:#6E6B6B;}
</style>
<g class="st0">
	<path class="st1" d="M95.7,115.7c0.1-0.1,0.1-0.2,0.2-0.3c0.3-0.4,0.5-0.8,0.8-1.2c0.1-0.1,0.1-0.2,0.2-0.3
		c0.3-0.4,0.5-0.8,0.7-1.2c0.1-0.1,0.1-0.2,0.2-0.3c0.3-0.5,0.5-0.9,0.7-1.4c0,0,0-0.1,0.1-0.1c0.5-1.1,1-2.2,1.4-3.3
		c0-0.1,0.1-0.3,0.1-0.4c0.1-0.4,0.3-0.8,0.4-1.3c0.1-0.2,0.1-0.4,0.2-0.6c0.1-0.4,0.2-0.7,0.3-1.1c0.1-0.2,0.1-0.4,0.2-0.6
		c0.1-0.4,0.2-0.7,0.2-1.1c0-0.2,0.1-0.5,0.1-0.7c0.1-0.4,0.1-0.7,0.2-1.1c0-0.2,0.1-0.4,0.1-0.7c0-0.4,0.1-0.8,0.1-1.2
		c0-0.2,0-0.4,0-0.6c0-0.6,0.1-1.2,0.1-1.8v-35c0-18.3-14.8-33.1-33.1-33.1h-35c-0.6,0-1.1,0-1.7,0c-0.2,0-0.4,0-0.6,0
		c-0.3,0-0.7,0-1,0.1c-0.2,0-0.5,0.1-0.7,0.1c-0.3,0-0.6,0.1-0.9,0.1c-0.3,0-0.5,0.1-0.8,0.1s-0.5,0.1-0.8,0.1
		C27,29,26.8,29,26.5,29.1c-0.2,0.1-0.5,0.1-0.7,0.2c-0.3,0.1-0.6,0.2-0.9,0.2c-0.2,0.1-0.4,0.1-0.6,0.2c-0.3,0.1-0.6,0.2-0.9,0.3
		c-0.2,0.1-0.4,0.1-0.6,0.2c-0.3,0.1-0.6,0.2-0.9,0.4c-0.2,0.1-0.3,0.1-0.5,0.2c-0.3,0.1-0.6,0.3-1,0.4c-0.1,0.1-0.3,0.1-0.4,0.2
		c-0.3,0.2-0.7,0.3-1,0.5c-0.1,0.1-0.3,0.1-0.4,0.2c-0.3,0.2-0.7,0.4-1,0.6c-0.1,0.1-0.2,0.1-0.3,0.2c-0.3,0.2-0.7,0.4-1,0.6
		c-0.1,0.1-0.2,0.1-0.3,0.2c-0.4,0.2-0.7,0.5-1,0.7c-0.1,0-0.1,0.1-0.2,0.1c-0.4,0.3-0.7,0.5-1.1,0.8c0,0-0.1,0.1-0.1,0.1
		c-0.4,0.3-0.7,0.6-1.1,0.9c0,0-0.1,0-0.1,0.1c-0.4,0.3-0.7,0.6-1.1,1c0,0,0,0,0,0c0,0,0,0,0,0c-6.5,6-10.6,14.7-10.6,24.2v35
		c0,10.3,4.7,19.5,12.1,25.6l11.2,6c3.1,1,6.4,1.5,9.8,1.5h35c7.9,0,15.1-2.7,20.8-7.3c0,0,0,0,0,0c0,0,0,0,0,0
		c1.9-1.5,3.6-3.2,5.1-5.1c0-0.1,0.1-0.1,0.1-0.2C95.1,116.5,95.4,116.1,95.7,115.7z"/>
	<path class="st2" d="M96.4,115c0.1-0.1,0.1-0.2,0.2-0.3c0.3-0.4,0.5-0.8,0.8-1.2c0.1-0.1,0.1-0.2,0.2-0.3c0.3-0.4,0.5-0.8,0.7-1.2
		c0.1-0.1,0.1-0.2,0.2-0.3c0.3-0.5,0.5-0.9,0.7-1.4c0,0,0-0.1,0.1-0.1c0.5-1.1,1-2.2,1.4-3.3c0-0.1,0.1-0.3,0.1-0.4
		c0.1-0.4,0.3-0.8,0.4-1.3c0.1-0.2,0.1-0.4,0.2-0.6c0.1-0.4,0.2-0.7,0.3-1.1c0.1-0.2,0.1-0.4,0.2-0.6c0.1-0.4,0.2-0.7,0.2-1.1
		c0-0.2,0.1-0.5,0.1-0.7c0.1-0.4,0.1-0.7,0.2-1.1c0-0.2,0.1-0.4,0.1-0.7c0-0.4,0.1-0.8,0.1-1.2c0-0.2,0-0.4,0-0.6
		c0-0.6,0.1-1.2,0.1-1.8v-35c0-18.3-14.8-33.1-33.1-33.1h-35c-0.6,0-1.1,0-1.7,0c-0.2,0-0.4,0-0.6,0c-0.3,0-0.7,0-1,0.1
		c-0.2,0-0.5,0.1-0.7,0.1c-0.3,0-0.6,0.1-0.9,0.1c-0.3,0-0.5,0.1-0.8,0.1c-0.3,0-0.5,0.1-0.8,0.1c-0.3,0.1-0.6,0.1-0.8,0.2
		c-0.2,0.1-0.5,0.1-0.7,0.2c-0.3,0.1-0.6,0.2-0.9,0.2c-0.2,0.1-0.4,0.1-0.6,0.2c-0.3,0.1-0.6,0.2-0.9,0.3c-0.2,0.1-0.4,0.1-0.6,0.2
		c-0.3,0.1-0.6,0.2-0.9,0.4c-0.2,0.1-0.3,0.1-0.5,0.2c-0.3,0.1-0.6,0.3-1,0.4c-0.1,0.1-0.3,0.1-0.4,0.2c-0.3,0.2-0.7,0.3-1,0.5
		c-0.1,0.1-0.3,0.1-0.4,0.2c-0.3,0.2-0.7,0.4-1,0.6C18.1,31.9,18,32,17.9,32c-0.3,0.2-0.7,0.4-1,0.6c-0.1,0.1-0.2,0.1-0.3,0.2
		c-0.4,0.2-0.7,0.5-1,0.7c-0.1,0-0.1,0.1-0.2,0.1c-0.4,0.3-0.7,0.5-1.1,0.8c0,0-0.1,0.1-0.1,0.1c-0.4,0.3-0.7,0.6-1.1,0.9
		c0,0-0.1,0-0.1,0.1c-0.4,0.3-0.7,0.6-1.1,1c0,0,0,0,0,0c0,0,0,0,0,0c-6.5,6-10.6,14.7-10.6,24.2v35c0,10.3,4.7,19.5,12.1,25.6
		l11.2,6c3.1,1,6.4,1.5,9.8,1.5h35c7.9,0,15.1-2.7,20.8-7.3c0,0,0,0,0,0c0,0,0,0,0,0c1.8-1.6,3.6-3.2,5.1-5.1c0-0.1,0.1-0.1,0.1-0.2
		C95.8,115.8,96.1,115.4,96.4,115z"/>
	<path class="st3" d="M97.1,114.3c0.1-0.1,0.1-0.2,0.2-0.3c0.3-0.4,0.5-0.8,0.8-1.2c0.1-0.1,0.1-0.2,0.2-0.3
		c0.3-0.4,0.5-0.8,0.7-1.2c0.1-0.1,0.1-0.2,0.2-0.3c0.3-0.5,0.5-0.9,0.7-1.4c0,0,0-0.1,0.1-0.1c0.5-1.1,1-2.2,1.4-3.3
		c0-0.1,0.1-0.3,0.1-0.4c0.1-0.4,0.3-0.8,0.4-1.3c0.1-0.2,0.1-0.4,0.2-0.6c0.1-0.4,0.2-0.7,0.3-1.1c0.1-0.2,0.1-0.4,0.2-0.6
		c0.1-0.4,0.2-0.7,0.2-1.1c0-0.2,0.1-0.5,0.1-0.7c0.1-0.4,0.1-0.7,0.2-1.1c0-0.2,0.1-0.4,0.1-0.7c0-0.4,0.1-0.8,0.1-1.2
		c0-0.2,0-0.4,0-0.6c0-0.6,0.1-1.2,0.1-1.8V60c0-18.3-14.8-33.1-33.1-33.1h-35c-0.6,0-1.1,0-1.7,0c-0.2,0-0.4,0-0.6,0
		c-0.3,0-0.7,0-1,0.1c-0.2,0-0.5,0.1-0.7,0.1c-0.3,0-0.6,0.1-0.9,0.1c-0.3,0-0.5,0.1-0.8,0.1c-0.3,0-0.5,0.1-0.8,0.1
		c-0.3,0.1-0.6,0.1-0.8,0.2c-0.2,0.1-0.5,0.1-0.7,0.2c-0.3,0.1-0.6,0.2-0.9,0.2c-0.2,0.1-0.4,0.1-0.6,0.2c-0.3,0.1-0.6,0.2-0.9,0.3
		c-0.2,0.1-0.4,0.1-0.6,0.2c-0.3,0.1-0.6,0.2-0.9,0.4c-0.2,0.1-0.3,0.1-0.5,0.2c-0.3,0.1-0.6,0.3-1,0.4c-0.1,0.1-0.3,0.1-0.4,0.2
		c-0.3,0.2-0.7,0.3-1,0.5c-0.1,0.1-0.3,0.1-0.4,0.2c-0.3,0.2-0.7,0.4-1,0.6c-0.1,0.1-0.2,0.1-0.3,0.2c-0.3,0.2-0.7,0.4-1,0.6
		c-0.1,0.1-0.2,0.1-0.3,0.2c-0.4,0.2-0.7,0.5-1,0.7c-0.1,0-0.1,0.1-0.2,0.1c-0.4,0.3-0.7,0.5-1.1,0.8c0,0-0.1,0.1-0.1,0.1
		c-0.4,0.3-0.7,0.6-1.1,0.9c0,0-0.1,0-0.1,0.1c-0.4,0.3-0.7,0.6-1.1,1c0,0,0,0,0,0c0,0,0,0,0,0C6.2,41.8,2.1,50.4,2.1,60v35
		c0,10.3,4.7,19.5,12.1,25.6l11.2,6c3.1,1,6.4,1.5,9.8,1.5h35c7.9,0,15.1-2.7,20.8-7.3c0,0,0,0,0,0c0,0,0,0,0,0
		c1.8-1.6,3.6-3.2,5.1-5.1c0-0.1,0.1-0.1,0.1-0.2C96.5,115.1,96.8,114.7,97.1,114.3z"/>
	<path class="st4" d="M97.8,113.6c0.1-0.1,0.1-0.2,0.2-0.3c0.3-0.4,0.5-0.8,0.8-1.2c0.1-0.1,0.1-0.2,0.2-0.3
		c0.3-0.4,0.5-0.8,0.7-1.2c0.1-0.1,0.1-0.2,0.2-0.3c0.3-0.5,0.5-0.9,0.7-1.4c0,0,0-0.1,0.1-0.1c0.5-1.1,1-2.2,1.4-3.3
		c0-0.1,0.1-0.3,0.1-0.4c0.1-0.4,0.3-0.8,0.4-1.3c0.1-0.2,0.1-0.4,0.2-0.6c0.1-0.4,0.2-0.7,0.3-1.1c0.1-0.2,0.1-0.4,0.2-0.6
		c0.1-0.4,0.2-0.7,0.2-1.1c0-0.2,0.1-0.5,0.1-0.7c0.1-0.4,0.1-0.7,0.2-1.1c0-0.2,0.1-0.4,0.1-0.7c0-0.4,0.1-0.8,0.1-1.2
		c0-0.2,0-0.4,0-0.6c0-0.6,0.1-1.2,0.1-1.8v-35c0-18.3-14.8-33.1-33.1-33.1h-35c-0.6,0-1.1,0-1.7,0c-0.2,0-0.4,0-0.6,0
		c-0.3,0-0.7,0-1,0.1c-0.2,0-0.5,0.1-0.7,0.1c-0.3,0-0.6,0.1-0.9,0.1c-0.3,0-0.5,0.1-0.8,0.1c-0.3,0-0.5,0.1-0.8,0.1
		c-0.3,0.1-0.6,0.1-0.8,0.2c-0.2,0.1-0.5,0.1-0.7,0.2c-0.3,0.1-0.6,0.2-0.9,0.2c-0.2,0.1-0.4,0.1-0.6,0.2c-0.3,0.1-0.6,0.2-0.9,0.3
		c-0.2,0.1-0.4,0.1-0.6,0.2c-0.3,0.1-0.6,0.2-0.9,0.4c-0.2,0.1-0.3,0.1-0.5,0.2c-0.3,0.1-0.6,0.3-1,0.4c-0.1,0.1-0.3,0.1-0.4,0.2
		c-0.3,0.2-0.7,0.3-1,0.5c-0.1,0.1-0.3,0.1-0.4,0.2c-0.3,0.2-0.7,0.4-1,0.6c-0.1,0.1-0.2,0.1-0.3,0.2c-0.3,0.2-0.7,0.4-1,0.6
		c-0.1,0.1-0.2,0.1-0.3,0.2c-0.4,0.2-0.7,0.5-1,0.7c-0.1,0-0.1,0.1-0.2,0.1c-0.4,0.3-0.7,0.5-1.1,0.8c0,0-0.1,0.1-0.1,0.1
		c-0.4,0.3-0.7,0.6-1.1,0.9c0,0-0.1,0-0.1,0.1c-0.4,0.3-0.7,0.6-1.1,1c0,0,0,0,0,0c0,0,0,0,0,0c-6.5,6-10.6,14.7-10.6,24.2v35
		c0,10.3,4.7,19.5,12.1,25.6l11.2,6c3.1,1,6.4,1.5,9.8,1.5h35c7.9,0,15.1-2.7,20.8-7.3c0,0,0,0,0,0c0,0,0,0,0,0
		c1.8-1.6,3.6-3.2,5.1-5.1c0-0.1,0.1-0.1,0.1-0.2C97.2,114.4,97.5,114,97.8,113.6z"/>
	<path class="st5" d="M98.5,112.9c0.1-0.1,0.1-0.2,0.2-0.3c0.3-0.4,0.5-0.8,0.8-1.2c0.1-0.1,0.1-0.2,0.2-0.3
		c0.3-0.4,0.5-0.8,0.7-1.2c0.1-0.1,0.1-0.2,0.2-0.3c0.3-0.5,0.5-0.9,0.7-1.4c0,0,0-0.1,0.1-0.1c0.5-1.1,1-2.2,1.4-3.3
		c0-0.1,0.1-0.3,0.1-0.4c0.1-0.4,0.3-0.8,0.4-1.3c0.1-0.2,0.1-0.4,0.2-0.6c0.1-0.4,0.2-0.7,0.3-1.1c0.1-0.2,0.1-0.4,0.2-0.6
		c0.1-0.4,0.2-0.7,0.2-1.1c0-0.2,0.1-0.5,0.1-0.7c0.1-0.4,0.1-0.7,0.2-1.1c0-0.2,0.1-0.4,0.1-0.7c0-0.4,0.1-0.8,0.1-1.2
		c0-0.2,0-0.4,0-0.6c0-0.6,0.1-1.2,0.1-1.8v-35c0-18.3-14.8-33.1-33.1-33.1h-35c-0.6,0-1.1,0-1.7,0c-0.2,0-0.4,0-0.6,0
		c-0.3,0-0.7,0-1,0.1c-0.2,0-0.5,0.1-0.7,0.1c-0.3,0-0.6,0.1-0.9,0.1c-0.3,0-0.5,0.1-0.8,0.1c-0.3,0-0.5,0.1-0.8,0.1
		c-0.3,0.1-0.6,0.1-0.8,0.2c-0.2,0.1-0.5,0.1-0.7,0.2c-0.3,0.1-0.6,0.2-0.9,0.2c-0.2,0.1-0.4,0.1-0.6,0.2c-0.3,0.1-0.6,0.2-0.9,0.3
		c-0.2,0.1-0.4,0.1-0.6,0.2c-0.3,0.1-0.6,0.2-0.9,0.4c-0.2,0.1-0.3,0.1-0.5,0.2c-0.3,0.1-0.6,0.3-1,0.4c-0.1,0.1-0.3,0.1-0.4,0.2
		c-0.3,0.2-0.7,0.3-1,0.5c-0.1,0.1-0.3,0.1-0.4,0.2c-0.3,0.2-0.7,0.4-1,0.6c-0.1,0.1-0.2,0.1-0.3,0.2c-0.3,0.2-0.7,0.4-1,0.6
		c-0.1,0.1-0.2,0.1-0.3,0.2c-0.4,0.2-0.7,0.5-1,0.7c-0.1,0-0.1,0.1-0.2,0.1c-0.4,0.3-0.7,0.5-1.1,0.8c0,0-0.1,0.1-0.1,0.1
		c-0.4,0.3-0.7,0.6-1.1,0.9c0,0-0.1,0-0.1,0.1c-0.4,0.3-0.8,0.6-1.1,1c0,0,0,0,0,0c0,0,0,0,0,0C7.6,40.4,3.5,49,3.5,58.6v35
		c0,10.3,4.7,19.5,12.1,25.6l11.2,6c3.1,1,6.4,1.5,9.8,1.5h35c7.9,0,15.1-2.7,20.8-7.3c0,0,0,0,0,0c0,0,0,0,0,0
		c1.8-1.6,3.6-3.2,5.1-5.1c0-0.1,0.1-0.1,0.1-0.2C97.9,113.7,98.2,113.3,98.5,112.9z"/>
	<path class="st6" d="M99.2,112.2c0.1-0.1,0.1-0.2,0.2-0.3c0.3-0.4,0.5-0.8,0.8-1.2c0.1-0.1,0.1-0.2,0.2-0.3
		c0.3-0.4,0.5-0.8,0.7-1.2c0.1-0.1,0.1-0.2,0.2-0.3c0.3-0.5,0.5-0.9,0.7-1.4c0,0,0-0.1,0.1-0.1c0.5-1.1,1-2.2,1.4-3.3
		c0-0.1,0.1-0.3,0.1-0.4c0.1-0.4,0.3-0.8,0.4-1.3c0.1-0.2,0.1-0.4,0.2-0.6c0.1-0.4,0.2-0.7,0.3-1.1c0.1-0.2,0.1-0.4,0.2-0.6
		c0.1-0.4,0.2-0.7,0.2-1.1c0-0.2,0.1-0.5,0.1-0.7c0.1-0.4,0.1-0.7,0.2-1.1c0-0.2,0.1-0.4,0.1-0.7c0-0.4,0.1-0.8,0.1-1.2
		c0-0.2,0-0.4,0-0.6c0-0.6,0.1-1.2,0.1-1.8v-35c0-18.3-14.8-33.1-33.1-33.1h-35c-0.6,0-1.1,0-1.7,0c-0.2,0-0.4,0-0.6,0
		c-0.3,0-0.7,0-1,0.1c-0.2,0-0.5,0.1-0.7,0.1c-0.3,0-0.6,0.1-0.9,0.1c-0.3,0-0.5,0.1-0.8,0.1c-0.3,0-0.5,0.1-0.8,0.1
		c-0.3,0.1-0.6,0.1-0.8,0.2c-0.2,0.1-0.5,0.1-0.7,0.2c-0.3,0.1-0.6,0.2-0.9,0.2c-0.2,0.1-0.4,0.1-0.6,0.2c-0.3,0.1-0.6,0.2-0.9,0.3
		c-0.2,0.1-0.4,0.1-0.6,0.2c-0.3,0.1-0.6,0.2-0.9,0.4c-0.2,0.1-0.3,0.1-0.5,0.2c-0.3,0.1-0.6,0.3-1,0.4c-0.1,0.1-0.3,0.1-0.4,0.2
		c-0.3,0.2-0.7,0.3-1,0.5c-0.1,0.1-0.3,0.1-0.4,0.2c-0.3,0.2-0.7,0.4-1,0.6c-0.1,0.1-0.2,0.1-0.3,0.2c-0.3,0.2-0.7,0.4-1,0.6
		c-0.1,0.1-0.2,0.1-0.3,0.2c-0.4,0.2-0.7,0.5-1,0.7c-0.1,0-0.1,0.1-0.2,0.1c-0.4,0.3-0.7,0.5-1.1,0.8c0,0-0.1,0.1-0.1,0.1
		c-0.4,0.3-0.7,0.6-1.1,0.9c0,0-0.1,0-0.1,0.1c-0.4,0.3-0.8,0.6-1.1,1c0,0,0,0,0,0c0,0,0,0,0,0c-6.5,6-10.6,14.7-10.6,24.2v35
		c0,10.3,4.7,19.5,12.1,25.6l11.2,6c3.1,1,6.4,1.5,9.8,1.5h35c7.9,0,15.1-2.7,20.8-7.3c0,0,0,0,0,0c0,0,0,0,0,0
		c1.8-1.6,3.6-3.2,5.1-5.1c0-0.1,0.1-0.1,0.1-0.2C98.6,113,98.9,112.6,99.2,112.2z"/>
	<path class="st7" d="M99.9,111.5c0.1-0.1,0.1-0.2,0.2-0.3c0.3-0.4,0.5-0.8,0.8-1.2c0.1-0.1,0.1-0.2,0.2-0.3
		c0.3-0.4,0.5-0.8,0.7-1.2c0.1-0.1,0.1-0.2,0.2-0.3c0.3-0.5,0.5-0.9,0.7-1.4c0,0,0-0.1,0.1-0.1c0.5-1.1,1-2.2,1.4-3.3
		c0-0.1,0.1-0.3,0.1-0.4c0.1-0.4,0.3-0.8,0.4-1.3c0.1-0.2,0.1-0.4,0.2-0.6c0.1-0.4,0.2-0.7,0.3-1.1c0.1-0.2,0.1-0.4,0.2-0.6
		c0.1-0.4,0.2-0.7,0.2-1.1c0-0.2,0.1-0.5,0.1-0.7c0.1-0.4,0.1-0.7,0.2-1.1c0-0.2,0.1-0.4,0.1-0.7c0-0.4,0.1-0.8,0.1-1.2
		c0-0.2,0-0.4,0-0.6c0-0.6,0.1-1.2,0.1-1.8v-35c0-18.3-14.8-33.1-33.1-33.1H38c-0.6,0-1.1,0-1.7,0c-0.2,0-0.4,0-0.6,0
		c-0.3,0-0.7,0-1,0.1c-0.2,0-0.5,0.1-0.7,0.1c-0.3,0-0.6,0.1-0.9,0.1c-0.3,0-0.5,0.1-0.8,0.1c-0.3,0-0.5,0.1-0.8,0.1
		c-0.3,0.1-0.6,0.1-0.8,0.2c-0.2,0.1-0.5,0.1-0.7,0.2c-0.3,0.1-0.6,0.2-0.9,0.2c-0.2,0.1-0.4,0.1-0.6,0.2c-0.3,0.1-0.6,0.2-0.9,0.3
		c-0.2,0.1-0.4,0.1-0.6,0.2c-0.3,0.1-0.6,0.2-0.9,0.4c-0.2,0.1-0.3,0.1-0.5,0.2c-0.3,0.1-0.6,0.3-1,0.4c-0.1,0.1-0.3,0.1-0.4,0.2
		c-0.3,0.2-0.7,0.3-1,0.5c-0.1,0.1-0.3,0.1-0.4,0.2c-0.3,0.2-0.7,0.4-1,0.6c-0.1,0.1-0.2,0.1-0.3,0.2c-0.3,0.2-0.7,0.4-1,0.6
		c-0.1,0.1-0.2,0.1-0.3,0.2c-0.4,0.2-0.7,0.5-1,0.7c-0.1,0-0.1,0.1-0.2,0.1c-0.4,0.3-0.7,0.5-1.1,0.8c0,0-0.1,0.1-0.1,0.1
		c-0.4,0.3-0.7,0.6-1.1,0.9c0,0-0.1,0-0.1,0.1c-0.4,0.3-0.8,0.6-1.1,1c0,0,0,0,0,0c0,0,0,0,0,0C9,39,4.9,47.6,4.9,57.2v35
		c0,10.3,4.7,19.5,12.1,25.6l11.2,6c3.1,1,6.4,1.5,9.8,1.5h35c7.9,0,15.1-2.7,20.8-7.3c0,0,0,0,0,0c0,0,0,0,0,0
		c1.8-1.6,3.6-3.2,5.1-5.1c0-0.1,0.1-0.1,0.1-0.2C99.3,112.3,99.6,111.9,99.9,111.5z"/>
	<path class="st8" d="M100.6,110.8c0.1-0.1,0.1-0.2,0.2-0.3c0.3-0.4,0.5-0.8,0.8-1.2c0.1-0.1,0.1-0.2,0.2-0.3
		c0.3-0.4,0.5-0.8,0.7-1.2c0.1-0.1,0.1-0.2,0.2-0.3c0.3-0.5,0.5-0.9,0.7-1.4c0,0,0-0.1,0.1-0.1c0.5-1.1,1-2.2,1.4-3.3
		c0-0.1,0.1-0.3,0.1-0.4c0.1-0.4,0.3-0.8,0.4-1.3c0.1-0.2,0.1-0.4,0.2-0.6c0.1-0.4,0.2-0.7,0.3-1.1c0.1-0.2,0.1-0.4,0.2-0.6
		c0.1-0.4,0.2-0.7,0.2-1.1c0-0.2,0.1-0.5,0.1-0.7c0.1-0.4,0.1-0.7,0.2-1.1c0-0.2,0.1-0.4,0.1-0.7c0-0.4,0.1-0.8,0.1-1.2
		c0-0.2,0-0.4,0-0.6c0-0.6,0.1-1.2,0.1-1.8v-35c0-18.3-14.8-33.1-33.1-33.1h-35c-0.6,0-1.1,0-1.7,0c-0.2,0-0.4,0-0.6,0
		c-0.3,0-0.7,0-1,0.1c-0.2,0-0.5,0.1-0.7,0.1c-0.3,0-0.6,0.1-0.9,0.1c-0.3,0-0.5,0.1-0.8,0.1c-0.3,0-0.5,0.1-0.8,0.1
		c-0.3,0.1-0.6,0.1-0.8,0.2c-0.2,0.1-0.5,0.1-0.7,0.2c-0.3,0.1-0.6,0.2-0.9,0.2c-0.2,0.1-0.4,0.1-0.6,0.2c-0.3,0.1-0.6,0.2-0.9,0.3
		c-0.2,0.1-0.4,0.1-0.6,0.2c-0.3,0.1-0.6,0.2-0.9,0.4c-0.2,0.1-0.3,0.1-0.5,0.2c-0.3,0.1-0.6,0.3-1,0.4c-0.1,0.1-0.3,0.1-0.4,0.2
		c-0.3,0.2-0.7,0.3-1,0.5c-0.1,0.1-0.3,0.1-0.4,0.2c-0.3,0.2-0.7,0.4-1,0.6c-0.1,0.1-0.2,0.1-0.3,0.2c-0.3,0.2-0.7,0.4-1,0.6
		c-0.1,0.1-0.2,0.1-0.3,0.2c-0.4,0.2-0.7,0.5-1,0.7c-0.1,0-0.1,0.1-0.2,0.1c-0.4,0.3-0.7,0.5-1.1,0.8c0,0-0.1,0.1-0.1,0.1
		c-0.4,0.3-0.7,0.6-1.1,0.9c0,0-0.1,0-0.1,0.1c-0.4,0.3-0.8,0.6-1.1,1c0,0,0,0,0,0c0,0,0,0,0,0c-6.5,6-10.6,14.7-10.6,24.2v35
		c0,10.3,4.7,19.5,12.1,25.6l11.2,6c3.1,1,6.4,1.5,9.8,1.5h35c7.9,0,15.1-2.7,20.8-7.3c0,0,0,0,0,0c0,0,0,0,0,0
		c1.8-1.6,3.6-3.2,5.1-5.1c0-0.1,0.1-0.1,0.1-0.2C100,111.6,100.3,111.2,100.6,110.8z"/>
	<path class="st9" d="M101.3,110.1c0.1-0.1,0.1-0.2,0.2-0.3c0.3-0.4,0.5-0.8,0.8-1.2c0.1-0.1,0.1-0.2,0.2-0.3
		c0.3-0.4,0.5-0.8,0.7-1.2c0.1-0.1,0.1-0.2,0.2-0.3c0.3-0.5,0.5-0.9,0.7-1.4c0,0,0-0.1,0.1-0.1c0.5-1.1,1-2.2,1.4-3.3
		c0-0.1,0.1-0.3,0.1-0.4c0.1-0.4,0.3-0.8,0.4-1.3c0.1-0.2,0.1-0.4,0.2-0.6c0.1-0.4,0.2-0.7,0.3-1.1c0.1-0.2,0.1-0.4,0.2-0.6
		c0.1-0.4,0.2-0.7,0.2-1.1c0-0.2,0.1-0.5,0.1-0.7c0.1-0.4,0.1-0.7,0.2-1.1c0-0.2,0.1-0.4,0.1-0.7c0-0.4,0.1-0.8,0.1-1.2
		c0-0.2,0-0.4,0-0.6c0-0.6,0.1-1.2,0.1-1.8v-35c0-18.3-14.8-33.1-33.1-33.1h-35c-0.6,0-1.1,0-1.7,0c-0.2,0-0.4,0-0.6,0
		c-0.3,0-0.7,0-1,0.1c-0.2,0-0.5,0.1-0.7,0.1c-0.3,0-0.6,0.1-0.9,0.1c-0.3,0-0.5,0.1-0.8,0.1c-0.3,0-0.5,0.1-0.8,0.1
		c-0.3,0.1-0.6,0.1-0.8,0.2c-0.2,0.1-0.5,0.1-0.7,0.2c-0.3,0.1-0.6,0.2-0.9,0.2c-0.2,0.1-0.4,0.1-0.6,0.2c-0.3,0.1-0.6,0.2-0.9,0.3
		c-0.2,0.1-0.4,0.1-0.6,0.2c-0.3,0.1-0.6,0.2-0.9,0.4c-0.2,0.1-0.3,0.1-0.5,0.2c-0.3,0.1-0.6,0.3-1,0.4c-0.1,0.1-0.3,0.1-0.4,0.2
		c-0.3,0.2-0.7,0.3-1,0.5c-0.1,0.1-0.3,0.1-0.4,0.2c-0.3,0.2-0.7,0.4-1,0.6c-0.1,0.1-0.2,0.1-0.3,0.2c-0.3,0.2-0.7,0.4-1,0.6
		c-0.1,0.1-0.2,0.1-0.3,0.2c-0.4,0.2-0.7,0.5-1,0.7c-0.1,0-0.1,0.1-0.2,0.1c-0.4,0.3-0.7,0.5-1.1,0.8c0,0-0.1,0.1-0.1,0.1
		c-0.4,0.3-0.7,0.6-1.1,0.9c0,0-0.1,0-0.1,0.1c-0.4,0.3-0.8,0.6-1.1,1c0,0,0,0,0,0c0,0,0,0,0,0c-6.5,6-10.6,14.7-10.6,24.2v35
		c0,10.3,4.7,19.5,12.1,25.6l11.2,6c3.1,1,6.4,1.5,9.8,1.5h35c7.9,0,15.1-2.7,20.8-7.3c0,0,0,0,0,0c0,0,0,0,0,0
		c1.8-1.6,3.6-3.2,5.1-5.1c0-0.1,0.1-0.1,0.1-0.2C100.7,110.9,101,110.5,101.3,110.1z"/>
	<path class="st10" d="M102,109.4c0.1-0.1,0.1-0.2,0.2-0.3c0.3-0.4,0.5-0.8,0.8-1.2c0.1-0.1,0.1-0.2,0.2-0.3
		c0.3-0.4,0.5-0.8,0.7-1.2c0.1-0.1,0.1-0.2,0.2-0.3c0.3-0.5,0.5-0.9,0.7-1.4c0,0,0-0.1,0.1-0.1c0.5-1.1,1-2.2,1.4-3.3
		c0-0.1,0.1-0.3,0.1-0.4c0.1-0.4,0.3-0.8,0.4-1.3c0.1-0.2,0.1-0.4,0.2-0.6c0.1-0.4,0.2-0.7,0.3-1.1c0.1-0.2,0.1-0.4,0.2-0.6
		c0.1-0.4,0.2-0.7,0.2-1.1c0-0.2,0.1-0.5,0.1-0.7c0.1-0.4,0.1-0.7,0.2-1.1c0-0.2,0.1-0.4,0.1-0.7c0-0.4,0.1-0.8,0.1-1.2
		c0-0.2,0-0.4,0-0.6c0-0.6,0.1-1.2,0.1-1.8v-35c0-18.3-14.8-33.1-33.1-33.1h-35c-0.6,0-1.1,0-1.7,0c-0.2,0-0.4,0-0.6,0
		c-0.3,0-0.7,0-1,0.1c-0.2,0-0.5,0.1-0.7,0.1c-0.3,0-0.6,0.1-0.9,0.1c-0.3,0-0.5,0.1-0.8,0.1c-0.3,0-0.5,0.1-0.8,0.1
		c-0.3,0.1-0.6,0.1-0.8,0.2c-0.2,0.1-0.5,0.1-0.7,0.2c-0.3,0.1-0.6,0.2-0.9,0.2c-0.2,0.1-0.4,0.1-0.6,0.2c-0.3,0.1-0.6,0.2-0.9,0.3
		c-0.2,0.1-0.4,0.1-0.6,0.2c-0.3,0.1-0.6,0.2-0.9,0.4c-0.2,0.1-0.3,0.1-0.5,0.2c-0.3,0.1-0.6,0.3-1,0.4c-0.1,0.1-0.3,0.1-0.4,0.2
		c-0.3,0.2-0.7,0.3-1,0.5c-0.1,0.1-0.3,0.1-0.4,0.2c-0.3,0.2-0.7,0.4-1,0.6c-0.1,0.1-0.2,0.1-0.3,0.2c-0.3,0.2-0.7,0.4-1,0.6
		c-0.1,0.1-0.2,0.1-0.3,0.2c-0.4,0.2-0.7,0.5-1,0.7c-0.1,0-0.1,0.1-0.2,0.1c-0.4,0.3-0.7,0.5-1.1,0.8c0,0-0.1,0.1-0.1,0.1
		c-0.4,0.3-0.7,0.6-1.1,0.9c0,0-0.1,0-0.1,0.1c-0.4,0.3-0.8,0.6-1.1,1c0,0,0,0,0,0c0,0,0,0,0,0C11.1,36.9,7,45.5,7,55.1v35
		c0,10.3,4.7,19.5,12.1,25.6l11.2,6c3.1,1,6.4,1.5,9.8,1.5h35c7.9,0,15.1-2.7,20.8-7.3c0,0,0,0,0,0c0,0,0,0,0,0
		c1.8-1.6,3.6-3.2,5.1-5.1c0-0.1,0.1-0.1,0.1-0.2C101.4,110.2,101.7,109.8,102,109.4z"/>
	<path class="st11" d="M102.7,108.7c0.1-0.1,0.1-0.2,0.2-0.3c0.3-0.4,0.5-0.8,0.8-1.2c0.1-0.1,0.1-0.2,0.2-0.3
		c0.3-0.4,0.5-0.8,0.7-1.2c0.1-0.1,0.1-0.2,0.2-0.3c0.3-0.5,0.5-0.9,0.7-1.4c0,0,0-0.1,0.1-0.1c0.5-1.1,1-2.2,1.4-3.3
		c0-0.1,0.1-0.3,0.1-0.4c0.1-0.4,0.3-0.8,0.4-1.3c0.1-0.2,0.1-0.4,0.2-0.6c0.1-0.4,0.2-0.7,0.3-1.1c0.1-0.2,0.1-0.4,0.2-0.6
		c0.1-0.4,0.2-0.7,0.2-1.1c0-0.2,0.1-0.5,0.1-0.7c0.1-0.4,0.1-0.7,0.2-1.1c0-0.2,0.1-0.4,0.1-0.7c0-0.4,0.1-0.8,0.1-1.2
		c0-0.2,0-0.4,0-0.6c0-0.6,0.1-1.2,0.1-1.8v-35c0-18.3-14.8-33.1-33.1-33.1h-35c-0.6,0-1.1,0-1.7,0c-0.2,0-0.4,0-0.6,0
		c-0.3,0-0.7,0-1,0.1c-0.2,0-0.5,0.1-0.7,0.1c-0.3,0-0.6,0.1-0.9,0.1c-0.3,0-0.5,0.1-0.8,0.1c-0.3,0-0.5,0.1-0.8,0.1
		c-0.3,0.1-0.6,0.1-0.8,0.2c-0.2,0.1-0.5,0.1-0.7,0.2c-0.3,0.1-0.6,0.2-0.9,0.2c-0.2,0.1-0.4,0.1-0.6,0.2c-0.3,0.1-0.6,0.2-0.9,0.3
		c-0.2,0.1-0.4,0.1-0.6,0.2c-0.3,0.1-0.6,0.2-0.9,0.4c-0.2,0.1-0.3,0.1-0.5,0.2c-0.3,0.1-0.6,0.3-1,0.4c-0.1,0.1-0.3,0.1-0.4,0.2
		c-0.3,0.2-0.7,0.3-1,0.5c-0.1,0.1-0.3,0.1-0.4,0.2c-0.3,0.2-0.7,0.4-1,0.6c-0.1,0.1-0.2,0.1-0.3,0.2c-0.3,0.2-0.7,0.4-1,0.6
		c-0.1,0.1-0.2,0.1-0.3,0.2c-0.4,0.2-0.7,0.5-1,0.7c-0.1,0-0.1,0.1-0.2,0.1c-0.4,0.3-0.7,0.5-1.1,0.8c0,0-0.1,0.1-0.1,0.1
		c-0.4,0.3-0.7,0.6-1.1,0.9c0,0-0.1,0-0.1,0.1c-0.4,0.3-0.8,0.6-1.1,1c0,0,0,0,0,0c0,0,0,0,0,0c-6.5,6-10.6,14.7-10.6,24.2v35
		c0,10.3,4.7,19.5,12.1,25.6l11.2,6c3.1,1,6.4,1.5,9.8,1.5h35c7.9,0,15.1-2.7,20.8-7.3c0,0,0,0,0,0c0,0,0,0,0,0
		c1.8-1.6,3.6-3.2,5.1-5.1c0-0.1,0.1-0.1,0.1-0.2C102.1,109.5,102.4,109.1,102.7,108.7z"/>
	<path class="st12" d="M103.4,108c0.1-0.1,0.1-0.2,0.2-0.3c0.3-0.4,0.5-0.8,0.8-1.2c0.1-0.1,0.1-0.2,0.2-0.3
		c0.3-0.4,0.5-0.8,0.7-1.2c0.1-0.1,0.1-0.2,0.2-0.3c0.3-0.5,0.5-0.9,0.7-1.4c0,0,0-0.1,0.1-0.1c0.5-1.1,1-2.2,1.4-3.3
		c0-0.1,0.1-0.3,0.1-0.4c0.1-0.4,0.3-0.8,0.4-1.3c0.1-0.2,0.1-0.4,0.2-0.6c0.1-0.4,0.2-0.7,0.3-1.1c0.1-0.2,0.1-0.4,0.2-0.6
		c0.1-0.4,0.2-0.7,0.2-1.1c0-0.2,0.1-0.5,0.1-0.7c0.1-0.4,0.1-0.7,0.2-1.1c0-0.2,0.1-0.4,0.1-0.7c0-0.4,0.1-0.8,0.1-1.2
		c0-0.2,0-0.4,0-0.6c0-0.6,0.1-1.2,0.1-1.8v-35c0-18.3-14.8-33.1-33.1-33.1h-35c-0.6,0-1.1,0-1.7,0c-0.2,0-0.4,0-0.6,0
		c-0.3,0-0.7,0-1,0.1c-0.2,0-0.5,0.1-0.7,0.1c-0.3,0-0.6,0.1-0.9,0.1c-0.3,0-0.5,0.1-0.8,0.1c-0.3,0-0.5,0.1-0.8,0.1
		c-0.3,0.1-0.6,0.1-0.8,0.2c-0.2,0.1-0.5,0.1-0.7,0.2c-0.3,0.1-0.6,0.2-0.9,0.2c-0.2,0.1-0.4,0.1-0.6,0.2c-0.3,0.1-0.6,0.2-0.9,0.3
		c-0.2,0.1-0.4,0.1-0.6,0.2c-0.3,0.1-0.6,0.2-0.9,0.4c-0.2,0.1-0.3,0.1-0.5,0.2c-0.3,0.1-0.6,0.3-1,0.4c-0.1,0.1-0.3,0.1-0.4,0.2
		c-0.3,0.2-0.7,0.3-1,0.5c-0.1,0.1-0.3,0.1-0.4,0.2c-0.3,0.2-0.7,0.4-1,0.6C25.1,24.9,25,25,24.9,25c-0.3,0.2-0.7,0.4-1,0.6
		c-0.1,0.1-0.2,0.1-0.3,0.2c-0.4,0.2-0.7,0.5-1,0.7c-0.1,0-0.1,0.1-0.2,0.1c-0.4,0.3-0.7,0.5-1.1,0.8c0,0-0.1,0.1-0.1,0.1
		c-0.4,0.3-0.7,0.6-1.1,0.9c0,0-0.1,0-0.1,0.1c-0.4,0.3-0.8,0.6-1.1,1c0,0,0,0,0,0c0,0,0,0,0,0c-6.5,6-10.6,14.7-10.6,24.2v35
		c0,10.3,4.7,19.5,12.1,25.6l11.2,6c3.1,1,6.4,1.5,9.8,1.5h35c7.9,0,15.1-2.7,20.8-7.3c0,0,0,0,0,0c0,0,0,0,0,0
		c1.8-1.6,3.6-3.2,5.1-5.1c0-0.1,0.1-0.1,0.1-0.2C102.8,108.8,103.1,108.4,103.4,108z"/>
	<path class="st13" d="M104.1,107.3c0.1-0.1,0.1-0.2,0.2-0.3c0.3-0.4,0.5-0.8,0.8-1.2c0.1-0.1,0.1-0.2,0.2-0.3
		c0.3-0.4,0.5-0.8,0.7-1.2c0.1-0.1,0.1-0.2,0.2-0.3c0.3-0.5,0.5-0.9,0.7-1.4c0,0,0-0.1,0.1-0.1c0.5-1.1,1-2.2,1.4-3.3
		c0-0.1,0.1-0.3,0.1-0.4c0.1-0.4,0.3-0.8,0.4-1.3c0.1-0.2,0.1-0.4,0.2-0.6c0.1-0.4,0.2-0.7,0.3-1.1c0.1-0.2,0.1-0.4,0.2-0.6
		c0.1-0.4,0.2-0.7,0.2-1.1c0-0.2,0.1-0.5,0.1-0.7c0.1-0.4,0.1-0.7,0.2-1.1c0-0.2,0.1-0.4,0.1-0.7c0-0.4,0.1-0.8,0.1-1.2
		c0-0.2,0-0.4,0-0.6c0-0.6,0.1-1.2,0.1-1.8V53c0-18.3-14.8-33.1-33.1-33.1h-35c-0.6,0-1.1,0-1.7,0c-0.2,0-0.4,0-0.6,0
		c-0.3,0-0.7,0-1,0.1c-0.2,0-0.5,0.1-0.7,0.1c-0.3,0-0.6,0.1-0.9,0.1c-0.3,0-0.5,0.1-0.8,0.1c-0.3,0-0.5,0.1-0.8,0.1
		c-0.3,0.1-0.6,0.1-0.8,0.2c-0.2,0.1-0.5,0.1-0.7,0.2c-0.3,0.1-0.6,0.2-0.9,0.2c-0.2,0.1-0.4,0.1-0.6,0.2c-0.3,0.1-0.6,0.2-0.9,0.3
		c-0.2,0.1-0.4,0.1-0.6,0.2c-0.3,0.1-0.6,0.2-0.9,0.4c-0.2,0.1-0.3,0.1-0.5,0.2c-0.3,0.1-0.6,0.3-1,0.4c-0.1,0.1-0.3,0.1-0.4,0.2
		c-0.3,0.2-0.7,0.3-1,0.5c-0.1,0.1-0.3,0.1-0.4,0.2c-0.3,0.2-0.7,0.4-1,0.6c-0.1,0.1-0.2,0.1-0.3,0.2c-0.3,0.2-0.7,0.4-1,0.6
		c-0.1,0.1-0.2,0.1-0.3,0.2c-0.4,0.2-0.7,0.5-1,0.7c-0.1,0-0.1,0.1-0.2,0.1c-0.4,0.3-0.7,0.5-1.1,0.8c0,0-0.1,0.1-0.1,0.1
		c-0.4,0.3-0.7,0.6-1.1,0.9c0,0-0.1,0-0.1,0.1c-0.4,0.3-0.8,0.6-1.1,1c0,0,0,0,0,0c0,0,0,0,0,0C13.2,34.8,9.1,43.4,9.1,53v35
		c0,10.3,4.7,19.5,12.1,25.6l11.2,6c3.1,1,6.4,1.5,9.8,1.5h35c7.9,0,15.1-2.7,20.8-7.3c0,0,0,0,0,0c0,0,0,0,0,0
		c1.8-1.6,3.6-3.2,5.1-5.1c0-0.1,0.1-0.1,0.1-0.2C103.5,108.1,103.8,107.7,104.1,107.3z"/>
	<path class="st14" d="M104.8,106.6c0.1-0.1,0.1-0.2,0.2-0.3c0.3-0.4,0.5-0.8,0.8-1.2c0.1-0.1,0.1-0.2,0.2-0.3
		c0.3-0.4,0.5-0.8,0.7-1.2c0.1-0.1,0.1-0.2,0.2-0.3c0.3-0.5,0.5-0.9,0.7-1.4c0,0,0-0.1,0.1-0.1c0.5-1.1,1-2.2,1.4-3.3
		c0-0.1,0.1-0.3,0.1-0.4c0.1-0.4,0.3-0.8,0.4-1.3c0.1-0.2,0.1-0.4,0.2-0.6c0.1-0.4,0.2-0.7,0.3-1.1c0.1-0.2,0.1-0.4,0.2-0.6
		c0.1-0.4,0.2-0.7,0.2-1.1c0-0.2,0.1-0.5,0.1-0.7c0.1-0.4,0.1-0.7,0.2-1.1c0-0.2,0.1-0.4,0.1-0.7c0-0.4,0.1-0.8,0.1-1.2
		c0-0.2,0-0.4,0-0.6c0-0.6,0.1-1.2,0.1-1.8v-35c0-18.3-14.8-33.1-33.1-33.1h-35c-0.6,0-1.1,0-1.7,0c-0.2,0-0.4,0-0.6,0
		c-0.3,0-0.7,0-1,0.1c-0.2,0-0.5,0.1-0.7,0.1c-0.3,0-0.6,0.1-0.9,0.1c-0.3,0-0.5,0.1-0.8,0.1c-0.3,0-0.5,0.1-0.8,0.1
		c-0.3,0.1-0.6,0.1-0.8,0.2c-0.2,0.1-0.5,0.1-0.7,0.2c-0.3,0.1-0.6,0.2-0.9,0.2c-0.2,0.1-0.4,0.1-0.6,0.2c-0.3,0.1-0.6,0.2-0.9,0.3
		c-0.2,0.1-0.4,0.1-0.6,0.2c-0.3,0.1-0.6,0.2-0.9,0.4c-0.2,0.1-0.3,0.1-0.5,0.2c-0.3,0.1-0.6,0.3-1,0.4c-0.1,0.1-0.3,0.1-0.4,0.2
		c-0.3,0.2-0.7,0.3-1,0.5c-0.1,0.1-0.3,0.1-0.4,0.2c-0.3,0.2-0.7,0.4-1,0.6c-0.1,0.1-0.2,0.1-0.3,0.2c-0.3,0.2-0.7,0.4-1,0.6
		c-0.1,0.1-0.2,0.1-0.3,0.2c-0.4,0.2-0.7,0.5-1,0.7c-0.1,0-0.1,0.1-0.2,0.1c-0.4,0.3-0.7,0.5-1.1,0.8c0,0-0.1,0.1-0.1,0.1
		c-0.4,0.3-0.7,0.6-1.1,0.9c0,0-0.1,0-0.1,0.1c-0.4,0.3-0.8,0.6-1.1,1c0,0,0,0,0,0c0,0,0,0,0,0c-6.5,6-10.6,14.7-10.6,24.2v35
		c0,10.3,4.7,19.5,12.1,25.6l11.2,6c3.1,1,6.4,1.5,9.8,1.5h35c7.9,0,15.1-2.7,20.8-7.3c0,0,0,0,0,0c0,0,0,0,0,0
		c1.8-1.6,3.6-3.2,5.1-5.1c0-0.1,0.1-0.1,0.1-0.2C104.2,107.4,104.5,107,104.8,106.6z"/>
	<path class="st15" d="M105.5,105.9c0.1-0.1,0.1-0.2,0.2-0.3c0.3-0.4,0.5-0.8,0.8-1.2c0.1-0.1,0.1-0.2,0.2-0.3
		c0.3-0.4,0.5-0.8,0.7-1.2c0.1-0.1,0.1-0.2,0.2-0.3c0.3-0.5,0.5-0.9,0.7-1.4c0,0,0-0.1,0.1-0.1c0.5-1.1,1-2.2,1.4-3.3
		c0-0.1,0.1-0.3,0.1-0.4c0.1-0.4,0.3-0.8,0.4-1.3c0.1-0.2,0.1-0.4,0.2-0.6c0.1-0.4,0.2-0.7,0.3-1.1c0.1-0.2,0.1-0.4,0.2-0.6
		c0.1-0.4,0.2-0.7,0.2-1.1c0-0.2,0.1-0.5,0.1-0.7c0.1-0.4,0.1-0.7,0.2-1.1c0-0.2,0.1-0.4,0.1-0.7c0-0.4,0.1-0.8,0.1-1.2
		c0-0.2,0-0.4,0-0.6c0-0.6,0.1-1.2,0.1-1.8v-35c0-18.3-14.8-33.1-33.1-33.1h-35c-0.6,0-1.1,0-1.7,0c-0.2,0-0.4,0-0.6,0
		c-0.3,0-0.7,0-1,0.1c-0.2,0-0.5,0.1-0.7,0.1c-0.3,0-0.6,0.1-0.9,0.1c-0.3,0-0.5,0.1-0.8,0.1c-0.3,0-0.5,0.1-0.8,0.1
		c-0.3,0.1-0.6,0.1-0.8,0.2c-0.2,0.1-0.5,0.1-0.7,0.2c-0.3,0.1-0.6,0.2-0.9,0.2c-0.2,0.1-0.4,0.1-0.6,0.2c-0.3,0.1-0.6,0.2-0.9,0.3
		c-0.2,0.1-0.4,0.1-0.6,0.2c-0.3,0.1-0.6,0.2-0.9,0.4c-0.2,0.1-0.3,0.1-0.5,0.2c-0.3,0.1-0.6,0.3-1,0.4c-0.1,0.1-0.3,0.1-0.4,0.2
		c-0.3,0.2-0.7,0.3-1,0.5c-0.1,0.1-0.3,0.1-0.4,0.2c-0.3,0.2-0.7,0.4-1,0.6c-0.1,0.1-0.2,0.1-0.3,0.2c-0.3,0.2-0.7,0.4-1,0.6
		c-0.1,0.1-0.2,0.1-0.3,0.2c-0.4,0.2-0.7,0.5-1,0.7c-0.1,0-0.1,0.1-0.2,0.1c-0.4,0.3-0.7,0.5-1.1,0.8c0,0-0.1,0.1-0.1,0.1
		c-0.4,0.3-0.7,0.6-1.1,0.9c0,0-0.1,0-0.1,0.1c-0.4,0.3-0.8,0.6-1.1,1c0,0,0,0,0,0c0,0,0,0,0,0c-6.5,6-10.6,14.7-10.6,24.2v35
		c0,10.3,4.7,19.5,12.1,25.6l11.2,6c3.1,1,6.4,1.5,9.8,1.5h35c7.9,0,15.1-2.7,20.8-7.3c0,0,0,0,0,0c0,0,0,0,0,0
		c1.8-1.6,3.6-3.2,5.1-5.1c0-0.1,0.1-0.1,0.1-0.2C104.9,106.7,105.2,106.3,105.5,105.9z"/>
	<path class="st16" d="M106.2,105.2c0.1-0.1,0.1-0.2,0.2-0.3c0.3-0.4,0.5-0.8,0.8-1.2c0.1-0.1,0.1-0.2,0.2-0.3
		c0.3-0.4,0.5-0.8,0.7-1.2c0.1-0.1,0.1-0.2,0.2-0.3c0.3-0.5,0.5-0.9,0.7-1.4c0,0,0-0.1,0.1-0.1c0.5-1.1,1-2.2,1.4-3.3
		c0-0.1,0.1-0.3,0.1-0.4c0.1-0.4,0.3-0.8,0.4-1.3c0.1-0.2,0.1-0.4,0.2-0.6c0.1-0.4,0.2-0.7,0.3-1.1c0.1-0.2,0.1-0.4,0.2-0.6
		c0.1-0.4,0.2-0.7,0.2-1.1c0-0.2,0.1-0.5,0.1-0.7c0.1-0.4,0.1-0.7,0.2-1.1c0-0.2,0.1-0.4,0.1-0.7c0-0.4,0.1-0.8,0.1-1.2
		c0-0.2,0-0.4,0-0.6c0-0.6,0.1-1.2,0.1-1.8v-35c0-18.3-14.8-33.1-33.1-33.1h-35c-0.6,0-1.1,0-1.7,0c-0.2,0-0.4,0-0.6,0
		c-0.3,0-0.7,0-1,0.1c-0.2,0-0.5,0.1-0.7,0.1c-0.3,0-0.6,0.1-0.9,0.1c-0.3,0-0.5,0.1-0.8,0.1c-0.3,0-0.5,0.1-0.8,0.1
		c-0.3,0.1-0.6,0.1-0.8,0.2c-0.2,0.1-0.5,0.1-0.7,0.2c-0.3,0.1-0.6,0.2-0.9,0.2c-0.2,0.1-0.4,0.1-0.6,0.2c-0.3,0.1-0.6,0.2-0.9,0.3
		c-0.2,0.1-0.4,0.1-0.6,0.2c-0.3,0.1-0.6,0.2-0.9,0.4c-0.2,0.1-0.3,0.1-0.5,0.2c-0.3,0.1-0.6,0.3-1,0.4c-0.1,0.1-0.3,0.1-0.4,0.2
		c-0.3,0.2-0.7,0.3-1,0.5c-0.1,0.1-0.3,0.1-0.4,0.2c-0.3,0.2-0.7,0.4-1,0.6c-0.1,0.1-0.2,0.1-0.3,0.2c-0.3,0.2-0.7,0.4-1,0.6
		c-0.1,0.1-0.2,0.1-0.3,0.2c-0.4,0.2-0.7,0.5-1,0.7c-0.1,0-0.1,0.1-0.2,0.1c-0.4,0.3-0.7,0.5-1.1,0.8c0,0-0.1,0.1-0.1,0.1
		c-0.4,0.3-0.7,0.6-1.1,0.9c0,0-0.1,0-0.1,0.1c-0.4,0.3-0.8,0.6-1.1,1c0,0,0,0,0,0c0,0,0,0,0,0c-6.5,6-10.6,14.7-10.6,24.2v35
		c0,10.3,4.7,19.5,12.1,25.6l11.2,6c3.1,1,6.4,1.5,9.8,1.5h35c7.9,0,15.1-2.7,20.8-7.3c0,0,0,0,0,0c0,0,0,0,0,0
		c1.8-1.6,3.6-3.2,5.1-5.1c0-0.1,0.1-0.1,0.1-0.2C105.6,106,105.9,105.6,106.2,105.2z"/>
	<path class="st17" d="M106.9,104.5c0.1-0.1,0.1-0.2,0.2-0.3c0.3-0.4,0.5-0.8,0.8-1.2c0.1-0.1,0.1-0.2,0.2-0.3
		c0.3-0.4,0.5-0.8,0.7-1.2c0.1-0.1,0.1-0.2,0.2-0.3c0.3-0.5,0.5-0.9,0.7-1.4c0,0,0-0.1,0.1-0.1c0.5-1.1,1-2.2,1.4-3.3
		c0-0.1,0.1-0.3,0.1-0.4c0.1-0.4,0.3-0.8,0.4-1.3c0.1-0.2,0.1-0.4,0.2-0.6c0.1-0.4,0.2-0.7,0.3-1.1c0.1-0.2,0.1-0.4,0.2-0.6
		c0.1-0.4,0.2-0.7,0.2-1.1c0-0.2,0.1-0.5,0.1-0.7c0.1-0.4,0.1-0.7,0.2-1.1c0-0.2,0.1-0.4,0.1-0.7c0-0.4,0.1-0.8,0.1-1.2
		c0-0.2,0-0.4,0-0.6c0-0.6,0.1-1.2,0.1-1.8v-35c0-18.3-14.8-33.1-33.1-33.1H45c-0.6,0-1.1,0-1.7,0c-0.2,0-0.4,0-0.6,0
		c-0.3,0-0.7,0-1,0.1c-0.2,0-0.5,0.1-0.7,0.1c-0.3,0-0.6,0.1-0.9,0.1c-0.3,0-0.5,0.1-0.8,0.1c-0.3,0-0.5,0.1-0.8,0.1
		c-0.3,0.1-0.6,0.1-0.8,0.2C37.5,17.9,37.2,18,37,18c-0.3,0.1-0.6,0.2-0.9,0.2c-0.2,0.1-0.4,0.1-0.6,0.2c-0.3,0.1-0.6,0.2-0.9,0.3
		c-0.2,0.1-0.4,0.1-0.6,0.2c-0.3,0.1-0.6,0.2-0.9,0.4c-0.2,0.1-0.3,0.1-0.5,0.2c-0.3,0.1-0.6,0.3-1,0.4c-0.1,0.1-0.3,0.1-0.4,0.2
		c-0.3,0.2-0.7,0.3-1,0.5c-0.1,0.1-0.3,0.1-0.4,0.2c-0.3,0.2-0.7,0.4-1,0.6c-0.1,0.1-0.2,0.1-0.3,0.2c-0.3,0.2-0.7,0.4-1,0.6
		c-0.1,0.1-0.2,0.1-0.3,0.2c-0.4,0.2-0.7,0.5-1,0.7c-0.1,0-0.1,0.1-0.2,0.1c-0.4,0.3-0.7,0.5-1.1,0.8c0,0-0.1,0.1-0.1,0.1
		c-0.4,0.3-0.7,0.6-1.1,0.9c0,0-0.1,0-0.1,0.1c-0.4,0.3-0.8,0.6-1.1,1c0,0,0,0,0,0c0,0,0,0,0,0C16,32,11.9,40.6,11.9,50.2v35
		c0,10.3,4.7,19.5,12.1,25.6l11.2,6c3.1,1,6.4,1.5,9.8,1.5h35c7.9,0,15.1-2.7,20.8-7.3c0,0,0,0,0,0c0,0,0,0,0,0
		c1.8-1.6,3.6-3.2,5.1-5.1c0-0.1,0.1-0.1,0.1-0.2C106.3,105.3,106.6,104.9,106.9,104.5z"/>
	<path class="st18" d="M107.6,103.8c0.1-0.1,0.1-0.2,0.2-0.3c0.3-0.4,0.5-0.8,0.8-1.2c0.1-0.1,0.1-0.2,0.2-0.3
		c0.3-0.4,0.5-0.8,0.7-1.2c0.1-0.1,0.1-0.2,0.2-0.3c0.3-0.5,0.5-0.9,0.7-1.4c0,0,0-0.1,0.1-0.1c0.5-1.1,1-2.2,1.4-3.3
		c0-0.1,0.1-0.3,0.1-0.4c0.1-0.4,0.3-0.8,0.4-1.3c0.1-0.2,0.1-0.4,0.2-0.6c0.1-0.4,0.2-0.7,0.3-1.1c0.1-0.2,0.1-0.4,0.2-0.6
		c0.1-0.4,0.2-0.7,0.2-1.1c0-0.2,0.1-0.5,0.1-0.7c0.1-0.4,0.1-0.7,0.2-1.1c0-0.2,0.1-0.4,0.1-0.7c0-0.4,0.1-0.8,0.1-1.2
		c0-0.2,0-0.4,0-0.6c0-0.6,0.1-1.2,0.1-1.8v-35c0-18.3-14.8-33.1-33.1-33.1h-35c-0.6,0-1.1,0-1.7,0c-0.2,0-0.4,0-0.6,0
		c-0.3,0-0.7,0-1,0.1c-0.2,0-0.5,0.1-0.7,0.1c-0.3,0-0.6,0.1-0.9,0.1c-0.3,0-0.5,0.1-0.8,0.1c-0.3,0-0.5,0.1-0.8,0.1
		c-0.3,0.1-0.6,0.1-0.8,0.2c-0.2,0.1-0.5,0.1-0.7,0.2c-0.3,0.1-0.6,0.2-0.9,0.2c-0.2,0.1-0.4,0.1-0.6,0.2c-0.3,0.1-0.6,0.2-0.9,0.3
		c-0.2,0.1-0.4,0.1-0.6,0.2c-0.3,0.1-0.6,0.2-0.9,0.4c-0.2,0.1-0.3,0.1-0.5,0.2c-0.3,0.1-0.6,0.3-1,0.4c-0.1,0.1-0.3,0.1-0.4,0.2
		c-0.3,0.2-0.7,0.3-1,0.5c-0.1,0.1-0.3,0.1-0.4,0.2c-0.3,0.2-0.7,0.4-1,0.6c-0.1,0.1-0.2,0.1-0.3,0.2c-0.3,0.2-0.7,0.4-1,0.6
		c-0.1,0.1-0.2,0.1-0.3,0.2c-0.4,0.2-0.7,0.5-1,0.7c-0.1,0-0.1,0.1-0.2,0.1c-0.4,0.3-0.7,0.5-1.1,0.8c0,0-0.1,0.1-0.1,0.1
		c-0.4,0.3-0.7,0.6-1.1,0.9c0,0-0.1,0-0.1,0.1c-0.4,0.3-0.8,0.6-1.1,1c0,0,0,0,0,0c0,0,0,0,0,0c-6.5,6-10.6,14.7-10.6,24.2v35
		c0,10.3,4.7,19.5,12.1,25.6l11.2,6c3.1,1,6.4,1.5,9.8,1.5h35c7.9,0,15.1-2.7,20.8-7.3c0,0,0,0,0,0c0,0,0,0,0,0
		c1.8-1.6,3.6-3.2,5.1-5.1c0-0.1,0.1-0.1,0.1-0.2C107,104.6,107.3,104.2,107.6,103.8z"/>
	<path class="st19" d="M108.3,103.1c0.1-0.1,0.1-0.2,0.2-0.3c0.3-0.4,0.5-0.8,0.8-1.2c0.1-0.1,0.1-0.2,0.2-0.3
		c0.3-0.4,0.5-0.8,0.7-1.2c0.1-0.1,0.1-0.2,0.2-0.3c0.3-0.5,0.5-0.9,0.7-1.4c0,0,0-0.1,0.1-0.1c0.5-1.1,1-2.2,1.4-3.3
		c0-0.1,0.1-0.3,0.1-0.4c0.1-0.4,0.3-0.8,0.4-1.3c0.1-0.2,0.1-0.4,0.2-0.6c0.1-0.4,0.2-0.7,0.3-1.1c0.1-0.2,0.1-0.4,0.2-0.6
		c0.1-0.4,0.2-0.7,0.2-1.1c0-0.2,0.1-0.5,0.1-0.7c0.1-0.4,0.1-0.7,0.2-1.1c0-0.2,0.1-0.4,0.1-0.7c0-0.4,0.1-0.8,0.1-1.2
		c0-0.2,0-0.4,0-0.6c0-0.6,0.1-1.2,0.1-1.8v-35c0-18.3-14.8-33.1-33.1-33.1h-35c-0.6,0-1.1,0-1.7,0c-0.2,0-0.4,0-0.6,0
		c-0.3,0-0.7,0-1,0.1c-0.2,0-0.5,0.1-0.7,0.1c-0.3,0-0.6,0.1-0.9,0.1c-0.3,0-0.5,0.1-0.8,0.1c-0.3,0-0.5,0.1-0.8,0.1
		c-0.3,0.1-0.6,0.1-0.8,0.2c-0.2,0.1-0.5,0.1-0.7,0.2c-0.3,0.1-0.6,0.2-0.9,0.2c-0.2,0.1-0.4,0.1-0.6,0.2c-0.3,0.1-0.6,0.2-0.9,0.3
		c-0.2,0.1-0.4,0.1-0.6,0.2c-0.3,0.1-0.6,0.2-0.9,0.4c-0.2,0.1-0.3,0.1-0.5,0.2c-0.3,0.1-0.6,0.3-1,0.4c-0.1,0.1-0.3,0.1-0.4,0.2
		c-0.3,0.2-0.7,0.3-1,0.5c-0.1,0.1-0.3,0.1-0.4,0.2c-0.3,0.2-0.7,0.4-1,0.6c-0.1,0.1-0.2,0.1-0.3,0.2c-0.3,0.2-0.7,0.4-1,0.6
		c-0.1,0.1-0.2,0.1-0.3,0.2c-0.4,0.2-0.7,0.5-1,0.7c-0.1,0-0.1,0.1-0.2,0.1c-0.4,0.3-0.7,0.5-1.1,0.8c0,0-0.1,0.1-0.1,0.1
		c-0.4,0.3-0.7,0.6-1.1,0.9c0,0-0.1,0-0.1,0.1c-0.4,0.3-0.8,0.6-1.1,1c0,0,0,0,0,0c0,0,0,0,0,0c-6.5,6-10.6,14.7-10.6,24.2v35
		c0,10.3,4.7,19.5,12.1,25.6l11.2,6c3.1,1,6.4,1.5,9.8,1.5h35c7.9,0,15.1-2.7,20.8-7.3c0,0,0,0,0,0c0,0,0,0,0,0
		c1.8-1.6,3.6-3.2,5.1-5.1c0-0.1,0.1-0.1,0.1-0.2C107.7,103.9,108,103.5,108.3,103.1z"/>
	<path class="st20" d="M109,102.4c0.1-0.1,0.1-0.2,0.2-0.3c0.3-0.4,0.5-0.8,0.8-1.2c0.1-0.1,0.1-0.2,0.2-0.3
		c0.3-0.4,0.5-0.8,0.7-1.2c0.1-0.1,0.1-0.2,0.2-0.3c0.3-0.5,0.5-0.9,0.7-1.4c0,0,0-0.1,0.1-0.1c0.5-1.1,1-2.2,1.4-3.3
		c0-0.1,0.1-0.3,0.1-0.4c0.1-0.4,0.3-0.8,0.4-1.3c0.1-0.2,0.1-0.4,0.2-0.6c0.1-0.4,0.2-0.7,0.3-1.1c0.1-0.2,0.1-0.4,0.2-0.6
		c0.1-0.4,0.2-0.7,0.2-1.1c0-0.2,0.1-0.5,0.1-0.7c0.1-0.4,0.1-0.7,0.2-1.1c0-0.2,0.1-0.4,0.1-0.7c0-0.4,0.1-0.8,0.1-1.2
		c0-0.2,0-0.4,0-0.6c0-0.6,0.1-1.2,0.1-1.8v-35c0-18.3-14.8-33.1-33.1-33.1h-35c-0.6,0-1.1,0-1.7,0c-0.2,0-0.4,0-0.6,0
		c-0.3,0-0.7,0-1,0.1c-0.2,0-0.5,0.1-0.7,0.1c-0.3,0-0.6,0.1-0.9,0.1c-0.3,0-0.5,0.1-0.8,0.1c-0.3,0-0.5,0.1-0.8,0.1
		c-0.3,0.1-0.6,0.1-0.8,0.2c-0.2,0.1-0.5,0.1-0.7,0.2c-0.3,0.1-0.6,0.2-0.9,0.2c-0.2,0.1-0.4,0.1-0.6,0.2c-0.3,0.1-0.6,0.2-0.9,0.3
		c-0.2,0.1-0.4,0.1-0.6,0.2c-0.3,0.1-0.6,0.2-0.9,0.4c-0.2,0.1-0.3,0.1-0.5,0.2c-0.3,0.1-0.6,0.3-1,0.4c-0.1,0.1-0.3,0.1-0.4,0.2
		c-0.3,0.2-0.7,0.3-1,0.5c-0.1,0.1-0.3,0.1-0.4,0.2c-0.3,0.2-0.7,0.4-1,0.6c-0.1,0.1-0.2,0.1-0.3,0.2c-0.3,0.2-0.7,0.4-1,0.6
		c-0.1,0.1-0.2,0.1-0.3,0.2c-0.4,0.2-0.7,0.5-1,0.7c-0.1,0-0.1,0.1-0.2,0.1c-0.4,0.3-0.7,0.5-1.1,0.8c0,0-0.1,0.1-0.1,0.1
		c-0.4,0.3-0.7,0.6-1.1,0.9c0,0-0.1,0-0.1,0.1c-0.4,0.3-0.8,0.6-1.1,1c0,0,0,0,0,0c0,0,0,0,0,0C18.1,29.9,14,38.5,14,48.1v35
		c0,10.3,4.7,19.5,12.1,25.6l11.2,6c3.1,1,6.4,1.5,9.8,1.5h35c7.9,0,15.1-2.7,20.8-7.3c0,0,0,0,0,0c0,0,0,0,0,0
		c1.8-1.6,3.6-3.2,5.1-5.1c0-0.1,0.1-0.1,0.1-0.2C108.4,103.2,108.7,102.8,109,102.4z"/>
	<path class="st21" d="M109.7,101.7c0.1-0.1,0.1-0.2,0.2-0.3c0.3-0.4,0.5-0.8,0.8-1.2c0.1-0.1,0.1-0.2,0.2-0.3
		c0.3-0.4,0.5-0.8,0.7-1.2c0.1-0.1,0.1-0.2,0.2-0.3c0.3-0.5,0.5-0.9,0.7-1.4c0,0,0-0.1,0.1-0.1c0.5-1.1,1-2.2,1.4-3.3
		c0-0.1,0.1-0.3,0.1-0.4c0.1-0.4,0.3-0.8,0.4-1.3c0.1-0.2,0.1-0.4,0.2-0.6c0.1-0.4,0.2-0.7,0.3-1.1c0.1-0.2,0.1-0.4,0.2-0.6
		c0.1-0.4,0.2-0.7,0.2-1.1c0-0.2,0.1-0.5,0.1-0.7c0.1-0.4,0.1-0.7,0.2-1.1c0-0.2,0.1-0.4,0.1-0.7c0-0.4,0.1-0.8,0.1-1.2
		c0-0.2,0-0.4,0-0.6c0-0.6,0.1-1.2,0.1-1.8v-35c0-18.3-14.8-33.1-33.1-33.1h-35c-0.6,0-1.1,0-1.7,0c-0.2,0-0.4,0-0.6,0
		c-0.3,0-0.7,0-1,0.1c-0.2,0-0.5,0.1-0.7,0.1c-0.3,0-0.6,0.1-0.9,0.1c-0.3,0-0.5,0.1-0.8,0.1c-0.3,0-0.5,0.1-0.8,0.1
		c-0.3,0.1-0.6,0.1-0.8,0.2c-0.2,0.1-0.5,0.1-0.7,0.2c-0.3,0.1-0.6,0.2-0.9,0.2c-0.2,0.1-0.4,0.1-0.6,0.2c-0.3,0.1-0.6,0.2-0.9,0.3
		c-0.2,0.1-0.4,0.1-0.6,0.2c-0.3,0.1-0.6,0.2-0.9,0.4c-0.2,0.1-0.3,0.1-0.5,0.2c-0.3,0.1-0.6,0.3-1,0.4c-0.1,0.1-0.3,0.1-0.4,0.2
		c-0.3,0.2-0.7,0.3-1,0.5c-0.1,0.1-0.3,0.1-0.4,0.2c-0.3,0.2-0.7,0.4-1,0.6c-0.1,0.1-0.2,0.1-0.3,0.2c-0.3,0.2-0.7,0.4-1,0.6
		c-0.1,0.1-0.2,0.1-0.3,0.2c-0.4,0.2-0.7,0.5-1,0.7c-0.1,0-0.1,0.1-0.2,0.1c-0.4,0.3-0.7,0.5-1.1,0.8c0,0-0.1,0.1-0.1,0.1
		c-0.4,0.3-0.7,0.6-1.1,0.9c0,0-0.1,0-0.1,0.1c-0.4,0.3-0.8,0.6-1.1,1c0,0,0,0,0,0c0,0,0,0,0,0c-6.5,6-10.6,14.7-10.6,24.2v35
		c0,10.3,4.7,19.5,12.1,25.6l11.2,6c3.1,1,6.4,1.5,9.8,1.5h35c7.9,0,15.1-2.7,20.8-7.3c0,0,0,0,0,0c0,0,0,0,0,0
		c1.8-1.6,3.6-3.2,5.1-5.1c0-0.1,0.1-0.1,0.1-0.2C109.1,102.5,109.4,102.1,109.7,101.7z"/>
	<path class="st22" d="M110.4,101c0.1-0.1,0.1-0.2,0.2-0.3c0.3-0.4,0.5-0.8,0.8-1.2c0.1-0.1,0.1-0.2,0.2-0.3
		c0.3-0.4,0.5-0.8,0.7-1.2c0.1-0.1,0.1-0.2,0.2-0.3c0.3-0.5,0.5-0.9,0.7-1.4c0,0,0-0.1,0.1-0.1c0.5-1.1,1-2.2,1.4-3.3
		c0-0.1,0.1-0.3,0.1-0.4c0.1-0.4,0.3-0.8,0.4-1.3c0.1-0.2,0.1-0.4,0.2-0.6c0.1-0.4,0.2-0.7,0.3-1.1c0.1-0.2,0.1-0.4,0.2-0.6
		c0.1-0.4,0.2-0.7,0.2-1.1c0-0.2,0.1-0.5,0.1-0.7c0.1-0.4,0.1-0.7,0.2-1.1c0-0.2,0.1-0.4,0.1-0.7c0-0.4,0.1-0.8,0.1-1.2
		c0-0.2,0-0.4,0-0.6c0-0.6,0.1-1.2,0.1-1.8v-35c0-18.3-14.8-33.1-33.1-33.1h-35c-0.6,0-1.1,0-1.7,0c-0.2,0-0.4,0-0.6,0
		c-0.3,0-0.7,0-1,0.1c-0.2,0-0.5,0.1-0.7,0.1c-0.3,0-0.6,0.1-0.9,0.1c-0.3,0-0.5,0.1-0.8,0.1c-0.3,0-0.5,0.1-0.8,0.1
		c-0.3,0.1-0.6,0.1-0.8,0.2c-0.2,0.1-0.5,0.1-0.7,0.2c-0.3,0.1-0.6,0.2-0.9,0.2c-0.2,0.1-0.4,0.1-0.6,0.2c-0.3,0.1-0.6,0.2-0.9,0.3
		c-0.2,0.1-0.4,0.1-0.6,0.2c-0.3,0.1-0.6,0.2-0.9,0.4c-0.2,0.1-0.3,0.1-0.5,0.2c-0.3,0.1-0.6,0.3-1,0.4c-0.1,0.1-0.3,0.1-0.4,0.2
		c-0.3,0.2-0.7,0.3-1,0.5c-0.1,0.1-0.3,0.1-0.4,0.2c-0.3,0.2-0.7,0.4-1,0.6C32.1,17.9,32,18,31.9,18c-0.3,0.2-0.7,0.4-1,0.6
		c-0.1,0.1-0.2,0.1-0.3,0.2c-0.4,0.2-0.7,0.5-1,0.7c-0.1,0-0.1,0.1-0.2,0.1c-0.4,0.3-0.7,0.5-1.1,0.8c0,0-0.1,0.1-0.1,0.1
		c-0.4,0.3-0.7,0.6-1.1,0.9c0,0-0.1,0-0.1,0.1c-0.4,0.3-0.8,0.6-1.1,1c0,0,0,0,0,0c0,0,0,0,0,0c-6.5,6-10.6,14.7-10.6,24.2v35
		c0,10.3,4.7,19.5,12.1,25.6l11.2,6c3.1,1,6.4,1.5,9.8,1.5h35c7.9,0,15.1-2.7,20.8-7.3c0,0,0,0,0,0c0,0,0,0,0,0
		c1.8-1.6,3.6-3.2,5.1-5.1c0-0.1,0.1-0.1,0.1-0.2C109.8,101.8,110.1,101.4,110.4,101z"/>
	<path class="st23" d="M111.1,100.3c0.1-0.1,0.1-0.2,0.2-0.3c0.3-0.4,0.5-0.8,0.8-1.2c0.1-0.1,0.1-0.2,0.2-0.3
		c0.3-0.4,0.5-0.8,0.7-1.2c0.1-0.1,0.1-0.2,0.2-0.3c0.3-0.5,0.5-0.9,0.7-1.4c0,0,0-0.1,0.1-0.1c0.5-1.1,1-2.2,1.4-3.3
		c0-0.1,0.1-0.3,0.1-0.4c0.1-0.4,0.3-0.8,0.4-1.3c0.1-0.2,0.1-0.4,0.2-0.6c0.1-0.4,0.2-0.7,0.3-1.1c0.1-0.2,0.1-0.4,0.2-0.6
		c0.1-0.4,0.2-0.7,0.2-1.1c0-0.2,0.1-0.5,0.1-0.7c0.1-0.4,0.1-0.7,0.2-1.1c0-0.2,0.1-0.4,0.1-0.7c0-0.4,0.1-0.8,0.1-1.2
		c0-0.2,0-0.4,0-0.6c0-0.6,0.1-1.2,0.1-1.8V46c0-18.3-14.8-33.1-33.1-33.1h-35c-0.6,0-1.1,0-1.7,0c-0.2,0-0.4,0-0.6,0
		c-0.3,0-0.7,0-1,0.1c-0.2,0-0.5,0.1-0.7,0.1c-0.3,0-0.6,0.1-0.9,0.1c-0.3,0-0.5,0.1-0.8,0.1c-0.3,0-0.5,0.1-0.8,0.1
		c-0.3,0.1-0.6,0.1-0.8,0.2c-0.2,0.1-0.5,0.1-0.7,0.2c-0.3,0.1-0.6,0.2-0.9,0.2c-0.2,0.1-0.4,0.1-0.6,0.2c-0.3,0.1-0.6,0.2-0.9,0.3
		c-0.2,0.1-0.4,0.1-0.6,0.2c-0.3,0.1-0.6,0.2-0.9,0.4c-0.2,0.1-0.3,0.1-0.5,0.2c-0.3,0.1-0.6,0.3-1,0.4c-0.1,0.1-0.3,0.1-0.4,0.2
		c-0.3,0.2-0.7,0.3-1,0.5c-0.1,0.1-0.3,0.1-0.4,0.2c-0.3,0.2-0.7,0.4-1,0.6c-0.1,0.1-0.2,0.1-0.3,0.2c-0.3,0.2-0.7,0.4-1,0.6
		c-0.1,0.1-0.2,0.1-0.3,0.2c-0.4,0.2-0.7,0.5-1,0.7c-0.1,0-0.1,0.1-0.2,0.1c-0.4,0.3-0.7,0.5-1.1,0.8c0,0-0.1,0.1-0.1,0.1
		c-0.4,0.3-0.7,0.6-1.1,0.9c0,0-0.1,0-0.1,0.1c-0.4,0.3-0.8,0.6-1.1,1c0,0,0,0,0,0c0,0,0,0,0,0c-6.5,6-10.6,14.7-10.6,24.2v35
		c0,10.3,4.7,19.5,12.1,25.6l11.2,6c3.1,1,6.4,1.5,9.8,1.5h35c7.9,0,15.1-2.7,20.8-7.3c0,0,0,0,0,0c0,0,0,0,0,0
		c1.8-1.6,3.6-3.2,5.1-5.1c0-0.1,0.1-0.1,0.1-0.2C110.5,101.1,110.8,100.7,111.1,100.3z"/>
	<path class="st24" d="M111.8,99.6c0.1-0.1,0.1-0.2,0.2-0.3c0.3-0.4,0.5-0.8,0.8-1.2c0.1-0.1,0.1-0.2,0.2-0.3
		c0.3-0.4,0.5-0.8,0.7-1.2c0.1-0.1,0.1-0.2,0.2-0.3c0.3-0.5,0.5-0.9,0.7-1.4c0,0,0-0.1,0.1-0.1c0.5-1.1,1-2.2,1.4-3.3
		c0-0.1,0.1-0.3,0.1-0.4c0.1-0.4,0.3-0.8,0.4-1.3c0.1-0.2,0.1-0.4,0.2-0.6c0.1-0.4,0.2-0.7,0.3-1.1c0.1-0.2,0.1-0.4,0.2-0.6
		c0.1-0.4,0.2-0.7,0.2-1.1c0-0.2,0.1-0.5,0.1-0.7c0.1-0.4,0.1-0.7,0.2-1.1c0-0.2,0.1-0.4,0.1-0.7c0-0.4,0.1-0.8,0.1-1.2
		c0-0.2,0-0.4,0-0.6c0-0.6,0.1-1.2,0.1-1.8v-35c0-18.3-14.8-33.1-33.1-33.1h-35c-0.6,0-1.1,0-1.7,0c-0.2,0-0.4,0-0.6,0
		c-0.3,0-0.7,0-1,0.1c-0.2,0-0.5,0.1-0.7,0.1c-0.3,0-0.6,0.1-0.9,0.1c-0.3,0-0.5,0.1-0.8,0.1c-0.3,0-0.5,0.1-0.8,0.1
		c-0.3,0.1-0.6,0.1-0.8,0.2c-0.2,0.1-0.5,0.1-0.7,0.2c-0.3,0.1-0.6,0.2-0.9,0.2c-0.2,0.1-0.4,0.1-0.6,0.2c-0.3,0.1-0.6,0.2-0.9,0.3
		c-0.2,0.1-0.4,0.1-0.6,0.2c-0.3,0.1-0.6,0.2-0.9,0.4c-0.2,0.1-0.3,0.1-0.5,0.2c-0.3,0.1-0.6,0.3-1,0.4c-0.1,0.1-0.3,0.1-0.4,0.2
		c-0.3,0.2-0.7,0.3-1,0.5c-0.1,0.1-0.3,0.1-0.4,0.2c-0.3,0.2-0.7,0.4-1,0.6c-0.1,0.1-0.2,0.1-0.3,0.2c-0.3,0.2-0.7,0.4-1,0.6
		c-0.1,0.1-0.2,0.1-0.3,0.2c-0.4,0.2-0.7,0.5-1,0.7c-0.1,0-0.1,0.1-0.2,0.1c-0.4,0.3-0.7,0.5-1.1,0.8c0,0-0.1,0.1-0.1,0.1
		c-0.4,0.3-0.7,0.6-1.1,0.9c0,0-0.1,0-0.1,0.1c-0.4,0.3-0.8,0.6-1.1,1c0,0,0,0,0,0c0,0,0,0,0,0c-6.5,6-10.6,14.7-10.6,24.2v35
		c0,10.3,4.7,19.5,12.1,25.6l11.2,6c3.1,1,6.4,1.5,9.8,1.5h35c7.9,0,15.1-2.7,20.8-7.3c0,0,0,0,0,0c0,0,0,0,0,0
		c1.8-1.6,3.6-3.2,5.1-5.1c0-0.1,0.1-0.1,0.1-0.2C111.2,100.4,111.5,100,111.8,99.6z"/>
	<path class="st25" d="M112.5,98.9c0.1-0.1,0.1-0.2,0.2-0.3c0.3-0.4,0.5-0.8,0.8-1.2c0.1-0.1,0.1-0.2,0.2-0.3
		c0.3-0.4,0.5-0.8,0.7-1.2c0.1-0.1,0.1-0.2,0.2-0.3c0.3-0.5,0.5-0.9,0.7-1.4c0,0,0-0.1,0.1-0.1c0.5-1.1,1-2.2,1.4-3.3
		c0-0.1,0.1-0.3,0.1-0.4c0.1-0.4,0.3-0.8,0.4-1.3c0.1-0.2,0.1-0.4,0.2-0.6c0.1-0.4,0.2-0.7,0.3-1.1c0.1-0.2,0.1-0.4,0.2-0.6
		c0.1-0.4,0.2-0.7,0.2-1.1c0-0.2,0.1-0.5,0.1-0.7c0.1-0.4,0.1-0.7,0.2-1.1c0-0.2,0.1-0.4,0.1-0.7c0-0.4,0.1-0.8,0.1-1.2
		c0-0.2,0-0.4,0-0.6c0-0.6,0.1-1.2,0.1-1.8v-35c0-18.3-14.8-33.1-33.1-33.1h-35c-0.6,0-1.1,0-1.7,0c-0.2,0-0.4,0-0.6,0
		c-0.3,0-0.7,0-1,0.1c-0.2,0-0.5,0.1-0.7,0.1c-0.3,0-0.6,0.1-0.9,0.1c-0.3,0-0.5,0.1-0.8,0.1c-0.3,0-0.5,0.1-0.8,0.1
		c-0.3,0.1-0.6,0.1-0.8,0.2c-0.2,0.1-0.5,0.1-0.7,0.2c-0.3,0.1-0.6,0.2-0.9,0.2c-0.2,0.1-0.4,0.1-0.6,0.2c-0.3,0.1-0.6,0.2-0.9,0.3
		c-0.2,0.1-0.4,0.1-0.6,0.2c-0.3,0.1-0.6,0.2-0.9,0.4c-0.2,0.1-0.3,0.1-0.5,0.2c-0.3,0.1-0.6,0.3-1,0.4c-0.1,0.1-0.3,0.1-0.4,0.2
		c-0.3,0.2-0.7,0.3-1,0.5c-0.1,0.1-0.3,0.1-0.4,0.2c-0.3,0.2-0.7,0.4-1,0.6c-0.1,0.1-0.2,0.1-0.3,0.2c-0.3,0.2-0.7,0.4-1,0.6
		c-0.1,0.1-0.2,0.1-0.3,0.2c-0.4,0.2-0.7,0.5-1,0.7c-0.1,0-0.1,0.1-0.2,0.1c-0.4,0.3-0.7,0.5-1.1,0.8c0,0-0.1,0.1-0.1,0.1
		c-0.4,0.3-0.7,0.6-1.1,0.9c0,0-0.1,0-0.1,0.1c-0.4,0.3-0.8,0.6-1.1,1c0,0,0,0,0,0c0,0,0,0,0,0c-6.5,6-10.6,14.7-10.6,24.2v35
		c0,10.3,4.7,19.5,12.1,25.6l11.2,6c3.1,1,6.4,1.5,9.8,1.5h35c7.9,0,15.1-2.7,20.8-7.3c0,0,0,0,0,0c0,0,0,0,0,0
		c1.8-1.6,3.6-3.2,5.1-5.1c0-0.1,0.1-0.1,0.1-0.2C111.9,99.7,112.2,99.3,112.5,98.9z"/>
	<path class="st26" d="M113.2,98.2c0.1-0.1,0.1-0.2,0.2-0.3c0.3-0.4,0.5-0.8,0.8-1.2c0.1-0.1,0.1-0.2,0.2-0.3
		c0.3-0.4,0.5-0.8,0.7-1.2c0.1-0.1,0.1-0.2,0.2-0.3c0.3-0.5,0.5-0.9,0.7-1.4c0,0,0-0.1,0.1-0.1c0.5-1.1,1-2.2,1.4-3.3
		c0-0.1,0.1-0.3,0.1-0.4c0.1-0.4,0.3-0.8,0.4-1.3c0.1-0.2,0.1-0.4,0.2-0.6c0.1-0.4,0.2-0.7,0.3-1.1c0.1-0.2,0.1-0.4,0.2-0.6
		c0.1-0.4,0.2-0.7,0.2-1.1c0-0.2,0.1-0.5,0.1-0.7c0.1-0.4,0.1-0.7,0.2-1.1c0-0.2,0.1-0.4,0.1-0.7c0-0.4,0.1-0.8,0.1-1.2
		c0-0.2,0-0.4,0-0.6c0-0.6,0.1-1.2,0.1-1.8v-35c0-18.3-14.8-33.1-33.1-33.1h-35c-0.6,0-1.1,0-1.7,0c-0.2,0-0.4,0-0.6,0
		c-0.3,0-0.7,0-1,0.1c-0.2,0-0.5,0.1-0.7,0.1c-0.3,0-0.6,0.1-0.9,0.1c-0.3,0-0.5,0.1-0.8,0.1c-0.3,0-0.5,0.1-0.8,0.1
		c-0.3,0.1-0.6,0.1-0.8,0.2c-0.2,0.1-0.5,0.1-0.7,0.2c-0.3,0.1-0.6,0.2-0.9,0.2c-0.2,0.1-0.4,0.1-0.6,0.2c-0.3,0.1-0.6,0.2-0.9,0.3
		c-0.2,0.1-0.4,0.1-0.6,0.2c-0.3,0.1-0.6,0.2-0.9,0.4c-0.2,0.1-0.3,0.1-0.5,0.2c-0.3,0.1-0.6,0.3-1,0.4c-0.1,0.1-0.3,0.1-0.4,0.2
		c-0.3,0.2-0.7,0.3-1,0.5c-0.1,0.1-0.3,0.1-0.4,0.2c-0.3,0.2-0.7,0.4-1,0.6c-0.1,0.1-0.2,0.1-0.3,0.2c-0.3,0.2-0.7,0.4-1,0.6
		c-0.1,0.1-0.2,0.1-0.3,0.2c-0.4,0.2-0.7,0.5-1,0.7c-0.1,0-0.1,0.1-0.2,0.1c-0.4,0.3-0.7,0.5-1.1,0.8c0,0-0.1,0.1-0.1,0.1
		c-0.4,0.3-0.7,0.6-1.1,0.9c0,0-0.1,0-0.1,0.1c-0.4,0.3-0.8,0.6-1.1,1c0,0,0,0,0,0c0,0,0,0,0,0c-6.5,6-10.6,14.7-10.6,24.2v35
		c0,10.3,4.7,19.5,12.1,25.6l11.2,6c3.1,1,6.4,1.5,9.8,1.5h35c7.9,0,15.1-2.7,20.8-7.3c0,0,0,0,0,0c0,0,0,0,0,0
		c1.8-1.6,3.6-3.2,5.1-5.1c0-0.1,0.1-0.1,0.1-0.2C112.6,99,112.9,98.6,113.2,98.2z"/>
	<path class="st27" d="M113.9,97.5c0.1-0.1,0.1-0.2,0.2-0.3c0.3-0.4,0.5-0.8,0.8-1.2c0.1-0.1,0.1-0.2,0.2-0.3
		c0.3-0.4,0.5-0.8,0.7-1.2c0.1-0.1,0.1-0.2,0.2-0.3c0.3-0.5,0.5-0.9,0.7-1.4c0,0,0-0.1,0.1-0.1c0.5-1.1,1-2.2,1.4-3.3
		c0-0.1,0.1-0.3,0.1-0.4c0.1-0.4,0.3-0.8,0.4-1.3c0.1-0.2,0.1-0.4,0.2-0.6c0.1-0.4,0.2-0.7,0.3-1.1c0.1-0.2,0.1-0.4,0.2-0.6
		c0.1-0.4,0.2-0.7,0.2-1.1c0-0.2,0.1-0.5,0.1-0.7c0.1-0.4,0.1-0.7,0.2-1.1c0-0.2,0.1-0.4,0.1-0.7c0-0.4,0.1-0.8,0.1-1.2
		c0-0.2,0-0.4,0-0.6c0-0.6,0.1-1.2,0.1-1.8v-35c0-18.3-14.8-33.1-33.1-33.1H52c-0.6,0-1.1,0-1.7,0c-0.2,0-0.4,0-0.6,0
		c-0.3,0-0.7,0-1,0.1c-0.2,0-0.5,0.1-0.7,0.1c-0.3,0-0.6,0.1-0.9,0.1c-0.3,0-0.5,0.1-0.8,0.1c-0.3,0-0.5,0.1-0.8,0.1
		c-0.3,0.1-0.6,0.1-0.8,0.2C44.5,10.9,44.2,11,44,11c-0.3,0.1-0.6,0.2-0.9,0.2c-0.2,0.1-0.4,0.1-0.6,0.2c-0.3,0.1-0.6,0.2-0.9,0.3
		c-0.2,0.1-0.4,0.1-0.6,0.2c-0.3,0.1-0.6,0.2-0.9,0.4c-0.2,0.1-0.3,0.1-0.5,0.2c-0.3,0.1-0.6,0.3-1,0.4c-0.1,0.1-0.3,0.1-0.4,0.2
		c-0.3,0.2-0.7,0.3-1,0.5c-0.1,0.1-0.3,0.1-0.4,0.2c-0.3,0.2-0.7,0.4-1,0.6c-0.1,0.1-0.2,0.1-0.3,0.2c-0.3,0.2-0.7,0.4-1,0.6
		c-0.1,0.1-0.2,0.1-0.3,0.2c-0.4,0.2-0.7,0.5-1,0.7c-0.1,0-0.1,0.1-0.2,0.1c-0.4,0.3-0.7,0.5-1.1,0.8c0,0-0.1,0.1-0.1,0.1
		c-0.4,0.3-0.7,0.6-1.1,0.9c0,0-0.1,0-0.1,0.1c-0.4,0.3-0.8,0.6-1.1,1c0,0,0,0,0,0c0,0,0,0,0,0C23,25,18.9,33.6,18.9,43.2v35
		c0,10.3,4.7,19.5,12.1,25.6l11.2,6c3.1,1,6.4,1.5,9.8,1.5h35c7.9,0,15.1-2.7,20.8-7.3c0,0,0,0,0,0c0,0,0,0,0,0
		c1.8-1.6,3.6-3.2,5.1-5.1c0-0.1,0.1-0.1,0.1-0.2C113.3,98.3,113.6,97.9,113.9,97.5z"/>
	<path class="st28" d="M114.6,96.8c0.1-0.1,0.1-0.2,0.2-0.3c0.3-0.4,0.5-0.8,0.8-1.2c0.1-0.1,0.1-0.2,0.2-0.3
		c0.3-0.4,0.5-0.8,0.7-1.2c0.1-0.1,0.1-0.2,0.2-0.3c0.3-0.5,0.5-0.9,0.7-1.4c0,0,0-0.1,0.1-0.1c0.5-1.1,1-2.2,1.4-3.3
		c0-0.1,0.1-0.3,0.1-0.4c0.1-0.4,0.3-0.8,0.4-1.3c0.1-0.2,0.1-0.4,0.2-0.6c0.1-0.4,0.2-0.7,0.3-1.1c0.1-0.2,0.1-0.4,0.2-0.6
		c0.1-0.4,0.2-0.7,0.2-1.1c0-0.2,0.1-0.5,0.1-0.7c0.1-0.4,0.1-0.7,0.2-1.1c0-0.2,0.1-0.4,0.1-0.7c0-0.4,0.1-0.8,0.1-1.2
		c0-0.2,0-0.4,0-0.6c0-0.6,0.1-1.2,0.1-1.8v-35c0-18.3-14.8-33.1-33.1-33.1h-35c-0.6,0-1.1,0-1.7,0c-0.2,0-0.4,0-0.6,0
		c-0.3,0-0.7,0-1,0.1c-0.2,0-0.5,0.1-0.7,0.1c-0.3,0-0.6,0.1-0.9,0.1c-0.3,0-0.5,0.1-0.8,0.1c-0.3,0-0.5,0.1-0.8,0.1
		c-0.3,0.1-0.6,0.1-0.8,0.2c-0.2,0.1-0.5,0.1-0.7,0.2c-0.3,0.1-0.6,0.2-0.9,0.2c-0.2,0.1-0.4,0.1-0.6,0.2c-0.3,0.1-0.6,0.2-0.9,0.3
		c-0.2,0.1-0.4,0.1-0.6,0.2c-0.3,0.1-0.6,0.2-0.9,0.4c-0.2,0.1-0.3,0.1-0.5,0.2c-0.3,0.1-0.6,0.3-1,0.4c-0.1,0.1-0.3,0.1-0.4,0.2
		c-0.3,0.2-0.7,0.3-1,0.5c-0.1,0.1-0.3,0.1-0.4,0.2c-0.3,0.2-0.7,0.4-1,0.6c-0.1,0.1-0.2,0.1-0.3,0.2c-0.3,0.2-0.7,0.4-1,0.6
		c-0.1,0.1-0.2,0.1-0.3,0.2c-0.4,0.2-0.7,0.5-1,0.7c-0.1,0-0.1,0.1-0.2,0.1c-0.4,0.3-0.7,0.5-1.1,0.8c0,0-0.1,0.1-0.1,0.1
		c-0.4,0.3-0.7,0.6-1.1,0.9c0,0-0.1,0-0.1,0.1c-0.4,0.3-0.8,0.6-1.1,1c0,0,0,0,0,0c0,0,0,0,0,0c-6.5,6-10.6,14.7-10.6,24.2v35
		c0,10.3,4.7,19.5,12.1,25.6l11.2,6c3.1,1,6.4,1.5,9.8,1.5h35c7.9,0,15.1-2.7,20.8-7.3c0,0,0,0,0,0c0,0,0,0,0,0
		c1.8-1.6,3.6-3.2,5.1-5.1c0-0.1,0.1-0.1,0.1-0.2C114,97.6,114.3,97.2,114.6,96.8z"/>
	<path class="st29" d="M115.3,96.1c0.1-0.1,0.1-0.2,0.2-0.3c0.3-0.4,0.5-0.8,0.8-1.2c0.1-0.1,0.1-0.2,0.2-0.3
		c0.3-0.4,0.5-0.8,0.7-1.2c0.1-0.1,0.1-0.2,0.2-0.3c0.3-0.5,0.5-0.9,0.7-1.4c0,0,0-0.1,0.1-0.1c0.5-1.1,1-2.2,1.4-3.3
		c0-0.1,0.1-0.3,0.1-0.4c0.1-0.4,0.3-0.8,0.4-1.3c0.1-0.2,0.1-0.4,0.2-0.6c0.1-0.4,0.2-0.7,0.3-1.1c0.1-0.2,0.1-0.4,0.2-0.6
		c0.1-0.4,0.2-0.7,0.2-1.1c0-0.2,0.1-0.5,0.1-0.7c0.1-0.4,0.1-0.7,0.2-1.1c0-0.2,0.1-0.4,0.1-0.7c0-0.4,0.1-0.8,0.1-1.2
		c0-0.2,0-0.4,0-0.6c0-0.6,0.1-1.2,0.1-1.8v-35c0-18.3-14.8-33.1-33.1-33.1h-35c-0.6,0-1.1,0-1.7,0c-0.2,0-0.4,0-0.6,0
		c-0.3,0-0.7,0-1,0.1c-0.2,0-0.5,0.1-0.7,0.1c-0.3,0-0.6,0.1-0.9,0.1c-0.3,0-0.5,0.1-0.8,0.1c-0.3,0-0.5,0.1-0.8,0.1
		c-0.3,0.1-0.6,0.1-0.8,0.2c-0.2,0.1-0.5,0.1-0.7,0.2c-0.3,0.1-0.6,0.2-0.9,0.2c-0.2,0.1-0.4,0.1-0.6,0.2c-0.3,0.1-0.6,0.2-0.9,0.3
		c-0.2,0.1-0.4,0.1-0.6,0.2c-0.3,0.1-0.6,0.2-0.9,0.4c-0.2,0.1-0.3,0.1-0.5,0.2c-0.3,0.1-0.6,0.3-1,0.4c-0.1,0.1-0.3,0.1-0.4,0.2
		c-0.3,0.2-0.7,0.3-1,0.5c-0.1,0.1-0.3,0.1-0.4,0.2c-0.3,0.2-0.7,0.4-1,0.6c-0.1,0.1-0.2,0.1-0.3,0.2c-0.3,0.2-0.7,0.4-1,0.6
		c-0.1,0.1-0.2,0.1-0.3,0.2c-0.4,0.2-0.7,0.5-1,0.7c-0.1,0-0.1,0.1-0.2,0.1c-0.4,0.3-0.7,0.5-1.1,0.8c0,0-0.1,0.1-0.1,0.1
		c-0.4,0.3-0.7,0.6-1.1,0.9c0,0-0.1,0-0.1,0.1c-0.4,0.3-0.8,0.6-1.1,1c0,0,0,0,0,0c0,0,0,0,0,0c-6.5,6-10.6,14.7-10.6,24.2v35
		c0,10.3,4.7,19.5,12.1,25.6l11.2,6c3.1,1,6.4,1.5,9.8,1.5h35c7.9,0,15.1-2.7,20.8-7.3c0,0,0,0,0,0c0,0,0,0,0,0
		c1.8-1.6,3.6-3.2,5.1-5.1c0-0.1,0.1-0.1,0.1-0.2C114.7,96.9,115,96.5,115.3,96.1z"/>
	<path class="st30" d="M116,95.4c0.1-0.1,0.1-0.2,0.2-0.3c0.3-0.4,0.5-0.8,0.8-1.2c0.1-0.1,0.1-0.2,0.2-0.3c0.3-0.4,0.5-0.8,0.7-1.2
		c0.1-0.1,0.1-0.2,0.2-0.3c0.3-0.5,0.5-0.9,0.7-1.4c0,0,0-0.1,0.1-0.1c0.5-1.1,1-2.2,1.4-3.3c0-0.1,0.1-0.3,0.1-0.4
		c0.1-0.4,0.3-0.8,0.4-1.3c0.1-0.2,0.1-0.4,0.2-0.6c0.1-0.4,0.2-0.7,0.3-1.1c0.1-0.2,0.1-0.4,0.2-0.6c0.1-0.4,0.2-0.7,0.2-1.1
		c0-0.2,0.1-0.5,0.1-0.7c0.1-0.4,0.1-0.7,0.2-1.1c0-0.2,0.1-0.4,0.1-0.7c0-0.4,0.1-0.8,0.1-1.2c0-0.2,0-0.4,0-0.6
		c0-0.6,0.1-1.2,0.1-1.8v-35C122.3,22.8,107.4,8,89.1,8h-35c-0.6,0-1.1,0-1.7,0c-0.2,0-0.4,0-0.6,0c-0.3,0-0.7,0-1,0.1
		c-0.2,0-0.5,0.1-0.7,0.1c-0.3,0-0.6,0.1-0.9,0.1c-0.3,0-0.5,0.1-0.8,0.1c-0.3,0-0.5,0.1-0.8,0.1c-0.3,0.1-0.6,0.1-0.8,0.2
		c-0.2,0.1-0.5,0.1-0.7,0.2c-0.3,0.1-0.6,0.2-0.9,0.2c-0.2,0.1-0.4,0.1-0.6,0.2c-0.3,0.1-0.6,0.2-0.9,0.3c-0.2,0.1-0.4,0.1-0.6,0.2
		c-0.3,0.1-0.6,0.2-0.9,0.4c-0.2,0.1-0.3,0.1-0.5,0.2c-0.3,0.1-0.6,0.3-1,0.4c-0.1,0.1-0.3,0.1-0.4,0.2c-0.3,0.2-0.7,0.3-1,0.5
		c-0.1,0.1-0.3,0.1-0.4,0.2c-0.3,0.2-0.7,0.4-1,0.6c-0.1,0.1-0.2,0.1-0.3,0.2c-0.3,0.2-0.7,0.4-1,0.6c-0.1,0.1-0.2,0.1-0.3,0.2
		c-0.4,0.2-0.7,0.5-1,0.7c-0.1,0-0.1,0.1-0.2,0.1c-0.4,0.3-0.7,0.5-1.1,0.8c0,0-0.1,0.1-0.1,0.1c-0.4,0.3-0.7,0.6-1.1,0.9
		c0,0-0.1,0-0.1,0.1c-0.4,0.3-0.8,0.6-1.1,1c0,0,0,0,0,0c0,0,0,0,0,0C25.1,22.9,21,31.5,21,41.1v35c0,10.3,4.7,19.5,12.1,25.6
		l11.2,6c3.1,1,6.4,1.5,9.8,1.5h35c7.9,0,15.1-2.7,20.8-7.3c0,0,0,0,0,0c0,0,0,0,0,0c1.8-1.6,3.6-3.2,5.1-5.1c0-0.1,0.1-0.1,0.1-0.2
		C115.4,96.2,115.7,95.8,116,95.4z"/>
	<path class="st31" d="M116.7,94.7c0.1-0.1,0.1-0.2,0.2-0.3c0.3-0.4,0.5-0.8,0.8-1.2c0.1-0.1,0.1-0.2,0.2-0.3
		c0.3-0.4,0.5-0.8,0.7-1.2c0.1-0.1,0.1-0.2,0.2-0.3c0.3-0.5,0.5-0.9,0.7-1.4c0,0,0-0.1,0.1-0.1c0.5-1.1,1-2.2,1.4-3.3
		c0-0.1,0.1-0.3,0.1-0.4c0.1-0.4,0.3-0.8,0.4-1.3c0.1-0.2,0.1-0.4,0.2-0.6c0.1-0.4,0.2-0.7,0.3-1.1c0.1-0.2,0.1-0.4,0.2-0.6
		c0.1-0.4,0.2-0.7,0.2-1.1c0-0.2,0.1-0.5,0.1-0.7c0.1-0.4,0.1-0.7,0.2-1.1c0-0.2,0.1-0.4,0.1-0.7c0-0.4,0.1-0.8,0.1-1.2
		c0-0.2,0-0.4,0-0.6c0-0.6,0.1-1.2,0.1-1.8v-35c0-18.3-14.8-33.1-33.1-33.1h-35c-0.6,0-1.1,0-1.7,0c-0.2,0-0.4,0-0.6,0
		c-0.3,0-0.7,0-1,0.1c-0.2,0-0.5,0.1-0.7,0.1c-0.3,0-0.6,0.1-0.9,0.1c-0.3,0-0.5,0.1-0.8,0.1c-0.3,0-0.5,0.1-0.8,0.1
		c-0.3,0.1-0.6,0.1-0.8,0.2c-0.2,0.1-0.5,0.1-0.7,0.2c-0.3,0.1-0.6,0.2-0.9,0.2c-0.2,0.1-0.4,0.1-0.6,0.2C45,8.8,44.7,8.9,44.4,9
		C44.2,9,44,9.1,43.8,9.1c-0.3,0.1-0.6,0.2-0.9,0.4c-0.2,0.1-0.3,0.1-0.5,0.2c-0.3,0.1-0.6,0.3-1,0.4c-0.1,0.1-0.3,0.1-0.4,0.2
		c-0.3,0.2-0.7,0.3-1,0.5c-0.1,0.1-0.3,0.1-0.4,0.2c-0.3,0.2-0.7,0.4-1,0.6c-0.1,0.1-0.2,0.1-0.3,0.2c-0.3,0.2-0.7,0.4-1,0.6
		c-0.1,0.1-0.2,0.1-0.3,0.2c-0.4,0.2-0.7,0.5-1,0.7c-0.1,0-0.1,0.1-0.2,0.1c-0.4,0.3-0.7,0.5-1.1,0.8c0,0-0.1,0.1-0.1,0.1
		c-0.4,0.3-0.7,0.6-1.1,0.9c0,0-0.1,0-0.1,0.1c-0.4,0.3-0.8,0.6-1.1,1c0,0,0,0,0,0c0,0,0,0,0,0c-6.5,6-10.6,14.7-10.6,24.2v35
		c0,10.3,4.7,19.5,12.1,25.6l11.2,6c3.1,1,6.4,1.5,9.8,1.5h35c7.9,0,15.1-2.7,20.8-7.3c0,0,0,0,0,0c0,0,0,0,0,0
		c1.8-1.6,3.6-3.2,5.1-5.1c0-0.1,0.1-0.1,0.1-0.2C116.1,95.5,116.4,95.1,116.7,94.7z"/>
	<path class="st32" d="M117.4,94c0.1-0.1,0.1-0.2,0.2-0.3c0.3-0.4,0.5-0.8,0.8-1.2c0.1-0.1,0.1-0.2,0.2-0.3c0.3-0.4,0.5-0.8,0.7-1.2
		c0.1-0.1,0.1-0.2,0.2-0.3c0.3-0.5,0.5-0.9,0.7-1.4c0,0,0-0.1,0.1-0.1c0.5-1.1,1-2.2,1.4-3.3c0-0.1,0.1-0.3,0.1-0.4
		c0.1-0.4,0.3-0.8,0.4-1.3c0.1-0.2,0.1-0.4,0.2-0.6c0.1-0.4,0.2-0.7,0.3-1.1c0.1-0.2,0.1-0.4,0.2-0.6c0.1-0.4,0.2-0.7,0.2-1.1
		c0-0.2,0.1-0.5,0.1-0.7c0.1-0.4,0.1-0.7,0.2-1.1c0-0.2,0.1-0.4,0.1-0.7c0-0.4,0.1-0.8,0.1-1.2c0-0.2,0-0.4,0-0.6
		c0-0.6,0.1-1.2,0.1-1.8v-35c0-18.3-14.8-33.1-33.1-33.1h-35c-0.6,0-1.1,0-1.7,0c-0.2,0-0.4,0-0.6,0c-0.3,0-0.7,0-1,0.1
		c-0.2,0-0.5,0.1-0.7,0.1c-0.3,0-0.6,0.1-0.9,0.1C50.4,7,50.1,7,49.8,7c-0.3,0-0.5,0.1-0.8,0.1c-0.3,0.1-0.6,0.1-0.8,0.2
		c-0.2,0.1-0.5,0.1-0.7,0.2c-0.3,0.1-0.6,0.2-0.9,0.2C46.4,7.8,46.2,7.9,46,8c-0.3,0.1-0.6,0.2-0.9,0.3c-0.2,0.1-0.4,0.1-0.6,0.2
		c-0.3,0.1-0.6,0.2-0.9,0.4C43.4,8.9,43.2,8.9,43,9c-0.3,0.1-0.6,0.3-1,0.4c-0.1,0.1-0.3,0.1-0.4,0.2c-0.3,0.2-0.7,0.3-1,0.5
		c-0.1,0.1-0.3,0.1-0.4,0.2c-0.3,0.2-0.7,0.4-1,0.6C39.1,10.9,39,11,38.9,11c-0.3,0.2-0.7,0.4-1,0.6c-0.1,0.1-0.2,0.1-0.3,0.2
		c-0.4,0.2-0.7,0.5-1,0.7c-0.1,0-0.1,0.1-0.2,0.1c-0.4,0.3-0.7,0.5-1.1,0.8c0,0-0.1,0.1-0.1,0.1c-0.4,0.3-0.7,0.6-1.1,0.9
		c0,0-0.1,0-0.1,0.1c-0.4,0.3-0.8,0.6-1.1,1c0,0,0,0,0,0c0,0,0,0,0,0c-6.5,6-10.6,14.7-10.6,24.2v35c0,10.3,4.7,19.5,12.1,25.6
		l11.2,6c3.1,1,6.4,1.5,9.8,1.5h35c7.9,0,15.1-2.7,20.8-7.3c0,0,0,0,0,0c0,0,0,0,0,0c1.8-1.6,3.6-3.2,5.1-5.1c0-0.1,0.1-0.1,0.1-0.2
		C116.8,94.8,117.1,94.4,117.4,94z"/>
	<path class="st33" d="M118.1,93.3c0.1-0.1,0.1-0.2,0.2-0.3c0.3-0.4,0.5-0.8,0.8-1.2c0.1-0.1,0.1-0.2,0.2-0.3
		c0.3-0.4,0.5-0.8,0.7-1.2c0.1-0.1,0.1-0.2,0.2-0.3c0.3-0.5,0.5-0.9,0.7-1.4c0,0,0-0.1,0.1-0.1c0.5-1.1,1-2.2,1.4-3.3
		c0-0.1,0.1-0.3,0.1-0.4c0.1-0.4,0.3-0.8,0.4-1.3c0.1-0.2,0.1-0.4,0.2-0.6c0.1-0.4,0.2-0.7,0.3-1.1c0.1-0.2,0.1-0.4,0.2-0.6
		c0.1-0.4,0.2-0.7,0.2-1.1c0-0.2,0.1-0.5,0.1-0.7c0.1-0.4,0.1-0.7,0.2-1.1c0-0.2,0.1-0.4,0.1-0.7c0-0.4,0.1-0.8,0.1-1.2
		c0-0.2,0-0.4,0-0.6c0-0.6,0.1-1.2,0.1-1.8V39c0-18.3-14.8-33.1-33.1-33.1h-35c-0.6,0-1.1,0-1.7,0c-0.2,0-0.4,0-0.6,0
		c-0.3,0-0.7,0-1,0.1c-0.2,0-0.5,0.1-0.7,0.1c-0.3,0-0.6,0.1-0.9,0.1c-0.3,0-0.5,0.1-0.8,0.1c-0.3,0-0.5,0.1-0.8,0.1
		c-0.3,0.1-0.6,0.1-0.8,0.2c-0.2,0.1-0.5,0.1-0.7,0.2c-0.3,0.1-0.6,0.2-0.9,0.2c-0.2,0.1-0.4,0.1-0.6,0.2c-0.3,0.1-0.6,0.2-0.9,0.3
		c-0.2,0.1-0.4,0.1-0.6,0.2c-0.3,0.1-0.6,0.2-0.9,0.4c-0.2,0.1-0.3,0.1-0.5,0.2c-0.3,0.1-0.6,0.3-1,0.4c-0.1,0.1-0.3,0.1-0.4,0.2
		c-0.3,0.2-0.7,0.3-1,0.5c-0.1,0.1-0.3,0.1-0.4,0.2c-0.3,0.2-0.7,0.4-1,0.6c-0.1,0.1-0.2,0.1-0.3,0.2c-0.3,0.2-0.7,0.4-1,0.6
		c-0.1,0.1-0.2,0.1-0.3,0.2c-0.4,0.2-0.7,0.5-1,0.7c-0.1,0-0.1,0.1-0.2,0.1c-0.4,0.3-0.7,0.5-1.1,0.8c0,0-0.1,0.1-0.1,0.1
		c-0.4,0.3-0.7,0.6-1.1,0.9c0,0-0.1,0-0.1,0.1c-0.4,0.3-0.8,0.6-1.1,1c0,0,0,0,0,0c0,0,0,0,0,0c-6.5,6-10.6,14.7-10.6,24.2v35
		c0,10.3,4.7,19.5,12.1,25.6l11.2,6c3.1,1,6.4,1.5,9.8,1.5h35c7.9,0,15.1-2.7,20.8-7.3c0,0,0,0,0,0c0,0,0,0,0,0
		c1.8-1.6,3.6-3.2,5.1-5.1c0-0.1,0.1-0.1,0.1-0.2C117.5,94.1,117.8,93.7,118.1,93.3z"/>
	<path class="st34" d="M118.8,92.6c0.1-0.1,0.1-0.2,0.2-0.3c0.3-0.4,0.5-0.8,0.8-1.2c0.1-0.1,0.1-0.2,0.2-0.3
		c0.3-0.4,0.5-0.8,0.7-1.2c0.1-0.1,0.1-0.2,0.2-0.3c0.3-0.5,0.5-0.9,0.7-1.4c0,0,0-0.1,0.1-0.1c0.5-1.1,1-2.2,1.4-3.3
		c0-0.1,0.1-0.3,0.1-0.4c0.1-0.4,0.3-0.8,0.4-1.3c0.1-0.2,0.1-0.4,0.2-0.6c0.1-0.4,0.2-0.7,0.3-1.1c0.1-0.2,0.1-0.4,0.2-0.6
		c0.1-0.4,0.2-0.7,0.2-1.1c0-0.2,0.1-0.5,0.1-0.7c0.1-0.4,0.1-0.7,0.2-1.1c0-0.2,0.1-0.4,0.1-0.7c0-0.4,0.1-0.8,0.1-1.2
		c0-0.2,0-0.4,0-0.6c0-0.6,0.1-1.2,0.1-1.8v-35C125.1,20,110.2,5.1,92,5.1h-35c-0.6,0-1.1,0-1.7,0c-0.2,0-0.4,0-0.6,0
		c-0.3,0-0.7,0-1,0.1c-0.2,0-0.5,0.1-0.7,0.1c-0.3,0-0.6,0.1-0.9,0.1c-0.3,0-0.5,0.1-0.8,0.1c-0.3,0-0.5,0.1-0.8,0.1
		c-0.3,0.1-0.6,0.1-0.8,0.2c-0.2,0.1-0.5,0.1-0.7,0.2c-0.3,0.1-0.6,0.2-0.9,0.2c-0.2,0.1-0.4,0.1-0.6,0.2c-0.3,0.1-0.6,0.2-0.9,0.3
		C46.3,6.9,46.1,7,45.9,7c-0.3,0.1-0.6,0.2-0.9,0.4c-0.2,0.1-0.3,0.1-0.5,0.2c-0.3,0.1-0.6,0.3-1,0.4c-0.1,0.1-0.3,0.1-0.4,0.2
		c-0.3,0.2-0.7,0.3-1,0.5c-0.1,0.1-0.3,0.1-0.4,0.2c-0.3,0.2-0.7,0.4-1,0.6c-0.1,0.1-0.2,0.1-0.3,0.2c-0.3,0.2-0.7,0.4-1,0.6
		c-0.1,0.1-0.2,0.1-0.3,0.2c-0.4,0.2-0.7,0.5-1,0.7c-0.1,0-0.1,0.1-0.2,0.1c-0.4,0.3-0.7,0.5-1.1,0.8c0,0-0.1,0.1-0.1,0.1
		c-0.4,0.3-0.7,0.6-1.1,0.9c0,0-0.1,0-0.1,0.1c-0.4,0.3-0.8,0.6-1.1,1c0,0,0,0,0,0c0,0,0,0,0,0c-6.5,6-10.6,14.7-10.6,24.2v35
		c0,10.3,4.7,19.5,12.1,25.6l11.2,6c3.1,1,6.4,1.5,9.8,1.5h35c7.9,0,15.1-2.7,20.8-7.3c0,0,0,0,0,0c0,0,0,0,0,0
		c1.8-1.6,3.6-3.2,5.1-5.1c0-0.1,0.1-0.1,0.1-0.2C118.2,93.4,118.5,93,118.8,92.6z"/>
	<path class="st35" d="M119.5,91.9c0.1-0.1,0.1-0.2,0.2-0.3c0.3-0.4,0.5-0.8,0.8-1.2c0.1-0.1,0.1-0.2,0.2-0.3
		c0.3-0.4,0.5-0.8,0.7-1.2c0.1-0.1,0.1-0.2,0.2-0.3c0.3-0.5,0.5-0.9,0.7-1.4c0,0,0-0.1,0.1-0.1c0.5-1.1,1-2.2,1.4-3.3
		c0-0.1,0.1-0.3,0.1-0.4c0.1-0.4,0.3-0.8,0.4-1.3c0.1-0.2,0.1-0.4,0.2-0.6c0.1-0.4,0.2-0.7,0.3-1.1c0.1-0.2,0.1-0.4,0.2-0.6
		c0.1-0.4,0.2-0.7,0.2-1.1c0-0.2,0.1-0.5,0.1-0.7c0.1-0.4,0.1-0.7,0.2-1.1c0-0.2,0.1-0.4,0.1-0.7c0-0.4,0.1-0.8,0.1-1.2
		c0-0.2,0-0.4,0-0.6c0-0.6,0.1-1.2,0.1-1.8v-35c0-18.3-14.8-33.1-33.1-33.1h-35c-0.6,0-1.1,0-1.7,0c-0.2,0-0.4,0-0.6,0
		c-0.3,0-0.7,0-1,0.1c-0.2,0-0.5,0.1-0.7,0.1c-0.3,0-0.6,0.1-0.9,0.1c-0.3,0-0.5,0.1-0.8,0.1c-0.3,0-0.5,0.1-0.8,0.1
		c-0.3,0.1-0.6,0.1-0.8,0.2c-0.2,0.1-0.5,0.1-0.7,0.2c-0.3,0.1-0.6,0.2-0.9,0.2c-0.2,0.1-0.4,0.1-0.6,0.2c-0.3,0.1-0.6,0.2-0.9,0.3
		c-0.2,0.1-0.4,0.1-0.6,0.2c-0.3,0.1-0.6,0.2-0.9,0.4c-0.2,0.1-0.3,0.1-0.5,0.2c-0.3,0.1-0.6,0.3-1,0.4c-0.1,0.1-0.3,0.1-0.4,0.2
		c-0.3,0.2-0.7,0.3-1,0.5c-0.1,0.1-0.3,0.1-0.4,0.2c-0.3,0.2-0.7,0.4-1,0.6c-0.1,0.1-0.2,0.1-0.3,0.2c-0.3,0.2-0.7,0.4-1,0.6
		c-0.1,0.1-0.2,0.1-0.3,0.2c-0.4,0.2-0.7,0.5-1,0.7c-0.1,0-0.1,0.1-0.2,0.1c-0.4,0.3-0.7,0.5-1.1,0.8c0,0-0.1,0.1-0.1,0.1
		c-0.4,0.3-0.7,0.6-1.1,0.9c0,0-0.1,0-0.1,0.1c-0.4,0.3-0.8,0.6-1.1,1c0,0,0,0,0,0c0,0,0,0,0,0c-6.5,6-10.6,14.7-10.6,24.2v35
		c0,10.3,4.7,19.5,12.1,25.6l11.2,6c3.1,1,6.4,1.5,9.8,1.5h35c7.9,0,15.1-2.7,20.8-7.3c0,0,0,0,0,0c0,0,0,0,0,0
		c1.8-1.6,3.6-3.2,5.1-5.1c0-0.1,0.1-0.1,0.1-0.2C118.9,92.7,119.2,92.3,119.5,91.9z"/>
	<path class="st36" d="M120.2,91.2c0.1-0.1,0.1-0.2,0.2-0.3c0.3-0.4,0.5-0.8,0.8-1.2c0.1-0.1,0.1-0.2,0.2-0.3
		c0.3-0.4,0.5-0.8,0.7-1.2c0.1-0.1,0.1-0.2,0.2-0.3c0.3-0.5,0.5-0.9,0.7-1.4c0,0,0-0.1,0.1-0.1c0.5-1.1,1-2.2,1.4-3.3
		c0-0.1,0.1-0.3,0.1-0.4c0.1-0.4,0.3-0.8,0.4-1.3c0.1-0.2,0.1-0.4,0.2-0.6c0.1-0.4,0.2-0.7,0.3-1.1c0.1-0.2,0.1-0.4,0.2-0.6
		c0.1-0.4,0.2-0.7,0.2-1.1c0-0.2,0.1-0.5,0.1-0.7c0.1-0.4,0.1-0.7,0.2-1.1c0-0.2,0.1-0.4,0.1-0.7c0-0.4,0.1-0.8,0.1-1.2
		c0-0.2,0-0.4,0-0.6c0-0.6,0.1-1.2,0.1-1.8v-35c0-18.3-14.8-33.1-33.1-33.1h-35c-0.6,0-1.1,0-1.7,0c-0.2,0-0.4,0-0.6,0
		c-0.3,0-0.7,0-1,0.1c-0.2,0-0.5,0.1-0.7,0.1c-0.3,0-0.6,0.1-0.9,0.1c-0.3,0-0.5,0.1-0.8,0.1c-0.3,0-0.5,0.1-0.8,0.1
		c-0.3,0.1-0.6,0.1-0.8,0.2c-0.2,0.1-0.5,0.1-0.7,0.2C50,4.8,49.7,4.9,49.4,5C49.2,5,49,5.1,48.8,5.2c-0.3,0.1-0.6,0.2-0.9,0.3
		c-0.2,0.1-0.4,0.1-0.6,0.2C47,5.8,46.7,5.9,46.3,6c-0.2,0.1-0.3,0.1-0.5,0.2c-0.3,0.1-0.6,0.3-1,0.4c-0.1,0.1-0.3,0.1-0.4,0.2
		c-0.3,0.2-0.7,0.3-1,0.5c-0.1,0.1-0.3,0.1-0.4,0.2c-0.3,0.2-0.7,0.4-1,0.6c-0.1,0.1-0.2,0.1-0.3,0.2c-0.3,0.2-0.7,0.4-1,0.6
		C40.6,8.9,40.5,9,40.4,9c-0.4,0.2-0.7,0.5-1,0.7c-0.1,0-0.1,0.1-0.2,0.1c-0.4,0.3-0.7,0.5-1.1,0.8c0,0-0.1,0.1-0.1,0.1
		c-0.4,0.3-0.7,0.6-1.1,0.9c0,0-0.1,0-0.1,0.1c-0.4,0.3-0.8,0.6-1.1,1c0,0,0,0,0,0c0,0,0,0,0,0c-6.5,6-10.6,14.7-10.6,24.2v35
		c0,10.3,4.7,19.5,12.1,25.6l11.2,6c3.1,1,6.4,1.5,9.8,1.5h35c7.9,0,15.1-2.7,20.8-7.3c0,0,0,0,0,0c0,0,0,0,0,0
		c1.8-1.6,3.6-3.2,5.1-5.1c0-0.1,0.1-0.1,0.1-0.2C119.6,92,119.9,91.6,120.2,91.2z"/>
	<path class="st37" d="M120.9,90.5c0.1-0.1,0.1-0.2,0.2-0.3c0.3-0.4,0.5-0.8,0.8-1.2c0.1-0.1,0.1-0.2,0.2-0.3
		c0.3-0.4,0.5-0.8,0.7-1.2c0.1-0.1,0.1-0.2,0.2-0.3c0.3-0.5,0.5-0.9,0.7-1.4c0,0,0-0.1,0.1-0.1c0.5-1.1,1-2.2,1.4-3.3
		c0-0.1,0.1-0.3,0.1-0.4c0.1-0.4,0.3-0.8,0.4-1.3c0.1-0.2,0.1-0.4,0.2-0.6c0.1-0.4,0.2-0.7,0.3-1.1c0.1-0.2,0.1-0.4,0.2-0.6
		c0.1-0.4,0.2-0.7,0.2-1.1c0-0.2,0.1-0.5,0.1-0.7c0.1-0.4,0.1-0.7,0.2-1.1c0-0.2,0.1-0.4,0.1-0.7c0-0.4,0.1-0.8,0.1-1.2
		c0-0.2,0-0.4,0-0.6c0-0.6,0.1-1.2,0.1-1.8v-35C127.2,17.9,112.3,3,94.1,3H59c-0.6,0-1.1,0-1.7,0c-0.2,0-0.4,0-0.6,0
		c-0.3,0-0.7,0-1,0.1c-0.2,0-0.5,0.1-0.7,0.1c-0.3,0-0.6,0.1-0.9,0.1c-0.3,0-0.5,0.1-0.8,0.1c-0.3,0-0.5,0.1-0.8,0.1
		c-0.3,0.1-0.6,0.1-0.8,0.2C51.5,3.9,51.2,4,51,4c-0.3,0.1-0.6,0.2-0.9,0.2c-0.2,0.1-0.4,0.1-0.6,0.2c-0.3,0.1-0.6,0.2-0.9,0.3
		c-0.2,0.1-0.4,0.1-0.6,0.2c-0.3,0.1-0.6,0.2-0.9,0.4c-0.2,0.1-0.3,0.1-0.5,0.2c-0.3,0.1-0.6,0.3-1,0.4C45.4,6,45.3,6,45.1,6.1
		c-0.3,0.2-0.7,0.3-1,0.5c-0.1,0.1-0.3,0.1-0.4,0.2c-0.3,0.2-0.7,0.4-1,0.6c-0.1,0.1-0.2,0.1-0.3,0.2c-0.3,0.2-0.7,0.4-1,0.6
		c-0.1,0.1-0.2,0.1-0.3,0.2c-0.4,0.2-0.7,0.5-1,0.7c-0.1,0-0.1,0.1-0.2,0.1c-0.4,0.3-0.7,0.5-1.1,0.8c0,0-0.1,0.1-0.1,0.1
		c-0.4,0.3-0.7,0.6-1.1,0.9c0,0-0.1,0-0.1,0.1c-0.4,0.3-0.8,0.6-1.1,1c0,0,0,0,0,0c0,0,0,0,0,0C30,18,25.9,26.6,25.9,36.2v35
		c0,10.3,4.7,19.5,12.1,25.6l11.2,6c3.1,1,6.4,1.5,9.8,1.5h35c7.9,0,15.1-2.7,20.8-7.3c0,0,0,0,0,0c0,0,0,0,0,0
		c1.8-1.6,3.6-3.2,5.1-5.1c0-0.1,0.1-0.1,0.1-0.2C120.3,91.3,120.6,90.9,120.9,90.5z"/>
	<path class="st38" d="M121.6,89.8c0.1-0.1,0.1-0.2,0.2-0.3c0.3-0.4,0.5-0.8,0.8-1.2c0.1-0.1,0.1-0.2,0.2-0.3
		c0.3-0.4,0.5-0.8,0.7-1.2c0.1-0.1,0.1-0.2,0.2-0.3c0.3-0.5,0.5-0.9,0.7-1.4c0,0,0-0.1,0.1-0.1c0.5-1.1,1-2.2,1.4-3.3
		c0-0.1,0.1-0.3,0.1-0.4c0.1-0.4,0.3-0.8,0.4-1.3c0.1-0.2,0.1-0.4,0.2-0.6c0.1-0.4,0.2-0.7,0.3-1.1c0.1-0.2,0.1-0.4,0.2-0.6
		c0.1-0.4,0.2-0.7,0.2-1.1c0-0.2,0.1-0.5,0.1-0.7c0.1-0.4,0.1-0.7,0.2-1.1c0-0.2,0.1-0.4,0.1-0.7c0-0.4,0.1-0.8,0.1-1.2
		c0-0.2,0-0.4,0-0.6c0-0.6,0.1-1.2,0.1-1.8v-35c0-18.3-14.8-33.1-33.1-33.1h-35c-0.6,0-1.1,0-1.7,0c-0.2,0-0.4,0-0.6,0
		c-0.3,0-0.7,0-1,0.1c-0.2,0-0.5,0.1-0.7,0.1c-0.3,0-0.6,0.1-0.9,0.1c-0.3,0-0.5,0.1-0.8,0.1c-0.3,0-0.5,0.1-0.8,0.1
		C53,3,52.7,3.1,52.4,3.2c-0.2,0.1-0.5,0.1-0.7,0.2c-0.3,0.1-0.6,0.2-0.9,0.2c-0.2,0.1-0.4,0.1-0.6,0.2c-0.3,0.1-0.6,0.2-0.9,0.3
		c-0.2,0.1-0.4,0.1-0.6,0.2c-0.3,0.1-0.6,0.2-0.9,0.4c-0.2,0.1-0.3,0.1-0.5,0.2c-0.3,0.1-0.6,0.3-1,0.4c-0.1,0.1-0.3,0.1-0.4,0.2
		c-0.3,0.2-0.7,0.3-1,0.5C44.7,6,44.6,6,44.5,6.1c-0.3,0.2-0.7,0.4-1,0.6c-0.1,0.1-0.2,0.1-0.3,0.2c-0.3,0.2-0.7,0.4-1,0.6
		c-0.1,0.1-0.2,0.1-0.3,0.2c-0.4,0.2-0.7,0.5-1,0.7c-0.1,0-0.1,0.1-0.2,0.1c-0.4,0.3-0.7,0.5-1.1,0.8c0,0-0.1,0.1-0.1,0.1
		c-0.4,0.3-0.7,0.6-1.1,0.9c0,0-0.1,0-0.1,0.1c-0.4,0.3-0.8,0.6-1.1,1c0,0,0,0,0,0c0,0,0,0,0,0c-6.5,6-10.6,14.7-10.6,24.2v35
		c0,10.3,4.7,19.5,12.1,25.6l11.2,6c3.1,1,6.4,1.5,9.8,1.5h35c7.9,0,15.1-2.7,20.8-7.3c0,0,0,0,0,0c0,0,0,0,0,0
		c1.8-1.6,3.6-3.2,5.1-5.1c0-0.1,0.1-0.1,0.1-0.2C121,90.6,121.3,90.2,121.6,89.8z"/>
	<path class="st39" d="M122.3,89.1c0.1-0.1,0.1-0.2,0.2-0.3c0.3-0.4,0.5-0.8,0.8-1.2c0.1-0.1,0.1-0.2,0.2-0.3
		c0.3-0.4,0.5-0.8,0.7-1.2c0.1-0.1,0.1-0.2,0.2-0.3c0.3-0.5,0.5-0.9,0.7-1.4c0,0,0-0.1,0.1-0.1c0.5-1.1,1-2.2,1.4-3.3
		c0-0.1,0.1-0.3,0.1-0.4c0.1-0.4,0.3-0.8,0.4-1.3c0.1-0.2,0.1-0.4,0.2-0.6c0.1-0.4,0.2-0.7,0.3-1.1c0.1-0.2,0.1-0.4,0.2-0.6
		c0.1-0.4,0.2-0.7,0.2-1.1c0-0.2,0.1-0.5,0.1-0.7c0.1-0.4,0.1-0.7,0.2-1.1c0-0.2,0.1-0.4,0.1-0.7c0-0.4,0.1-0.8,0.1-1.2
		c0-0.2,0-0.4,0-0.6c0-0.6,0.1-1.2,0.1-1.8v-35c0-18.3-14.8-33.1-33.1-33.1h-35c-0.6,0-1.1,0-1.7,0c-0.2,0-0.4,0-0.6,0
		c-0.3,0-0.7,0-1,0.1c-0.2,0-0.5,0.1-0.7,0.1c-0.3,0-0.6,0.1-0.9,0.1c-0.3,0-0.5,0.1-0.8,0.1c-0.3,0-0.5,0.1-0.8,0.1
		c-0.3,0.1-0.6,0.1-0.8,0.2c-0.2,0.1-0.5,0.1-0.7,0.2c-0.3,0.1-0.6,0.2-0.9,0.2c-0.2,0.1-0.4,0.1-0.6,0.2c-0.3,0.1-0.6,0.2-0.9,0.3
		c-0.2,0.1-0.4,0.1-0.6,0.2c-0.3,0.1-0.6,0.2-0.9,0.4C48.3,4,48.1,4,47.9,4.1c-0.3,0.1-0.6,0.3-1,0.4c-0.1,0.1-0.3,0.1-0.4,0.2
		c-0.3,0.2-0.7,0.3-1,0.5c-0.1,0.1-0.3,0.1-0.4,0.2c-0.3,0.2-0.7,0.4-1,0.6C44,6,43.9,6.1,43.8,6.1c-0.3,0.2-0.7,0.4-1,0.6
		c-0.1,0.1-0.2,0.1-0.3,0.2c-0.4,0.2-0.7,0.5-1,0.7c-0.1,0-0.1,0.1-0.2,0.1C41,8,40.6,8.3,40.3,8.5c0,0-0.1,0.1-0.1,0.1
		c-0.4,0.3-0.7,0.6-1.1,0.9c0,0-0.1,0-0.1,0.1c-0.4,0.3-0.8,0.6-1.1,1c0,0,0,0,0,0c0,0,0,0,0,0c-6.5,6-10.6,14.7-10.6,24.2v35
		c0,10.3,4.7,19.5,12.1,25.6l11.2,6c3.1,1,6.4,1.5,9.8,1.5h35c7.9,0,15.1-2.7,20.8-7.3c0,0,0,0,0,0c0,0,0,0,0,0
		c1.8-1.6,3.6-3.2,5.1-5.1c0-0.1,0.1-0.1,0.1-0.2C121.7,89.9,122,89.5,122.3,89.1z"/>
	<path class="st40" d="M123,88.4c0.1-0.1,0.1-0.2,0.2-0.3c0.3-0.4,0.5-0.8,0.8-1.2c0.1-0.1,0.1-0.2,0.2-0.3c0.3-0.4,0.5-0.8,0.7-1.2
		c0.1-0.1,0.1-0.2,0.2-0.3c0.3-0.5,0.5-0.9,0.7-1.4c0,0,0-0.1,0.1-0.1c0.5-1.1,1-2.2,1.4-3.3c0-0.1,0.1-0.3,0.1-0.4
		c0.1-0.4,0.3-0.8,0.4-1.3c0.1-0.2,0.1-0.4,0.2-0.6c0.1-0.4,0.2-0.7,0.3-1.1c0.1-0.2,0.1-0.4,0.2-0.6c0.1-0.4,0.2-0.7,0.2-1.1
		c0-0.2,0.1-0.5,0.1-0.7c0.1-0.4,0.1-0.7,0.2-1.1c0-0.2,0.1-0.4,0.1-0.7c0-0.4,0.1-0.8,0.1-1.2c0-0.2,0-0.4,0-0.6
		c0-0.6,0.1-1.2,0.1-1.8V34c0-18.3-14.8-33.1-33.1-33.1h-35c-0.6,0-1.1,0-1.7,0c-0.2,0-0.4,0-0.6,0c-0.3,0-0.7,0-1,0.1
		c-0.2,0-0.5,0.1-0.7,0.1c-0.3,0-0.6,0.1-0.9,0.1c-0.3,0-0.5,0.1-0.8,0.1c-0.3,0-0.5,0.1-0.8,0.1c-0.3,0.1-0.6,0.1-0.8,0.2
		c-0.2,0.1-0.5,0.1-0.7,0.2c-0.3,0.1-0.6,0.2-0.9,0.2c-0.2,0.1-0.4,0.1-0.6,0.2c-0.3,0.1-0.6,0.2-0.9,0.3c-0.2,0.1-0.4,0.1-0.6,0.2
		c-0.3,0.1-0.6,0.2-0.9,0.4c-0.2,0.1-0.3,0.1-0.5,0.2c-0.3,0.1-0.6,0.3-1,0.4c-0.1,0.1-0.3,0.1-0.4,0.2c-0.3,0.2-0.7,0.3-1,0.5
		c-0.1,0.1-0.3,0.1-0.4,0.2c-0.3,0.2-0.7,0.4-1,0.6c-0.1,0.1-0.2,0.1-0.3,0.2c-0.3,0.2-0.7,0.4-1,0.6c-0.1,0.1-0.2,0.1-0.3,0.2
		c-0.4,0.2-0.7,0.5-1,0.7C42.1,7,42.1,7,42,7c-0.4,0.3-0.7,0.5-1.1,0.8c0,0-0.1,0.1-0.1,0.1c-0.4,0.3-0.7,0.6-1.1,0.9
		c0,0-0.1,0-0.1,0.1c-0.4,0.3-0.8,0.6-1.1,1c0,0,0,0,0,0c0,0,0,0,0,0C32.1,15.9,28,24.5,28,34v35c0,10.3,4.7,19.5,12.1,25.6l11.2,6
		c3.1,1,6.4,1.5,9.8,1.5h35c7.9,0,15.1-2.7,20.8-7.3c0,0,0,0,0,0c0,0,0,0,0,0c1.8-1.6,3.6-3.2,5.1-5.1c0-0.1,0.1-0.1,0.1-0.2
		C122.4,89.2,122.7,88.8,123,88.4z"/>
	<path class="st41" d="M123.7,87.7c0.1-0.1,0.1-0.2,0.2-0.3c0.3-0.4,0.5-0.8,0.8-1.2c0.1-0.1,0.1-0.2,0.2-0.3
		c0.3-0.4,0.5-0.8,0.7-1.2c0.1-0.1,0.1-0.2,0.2-0.3c0.3-0.5,0.5-0.9,0.7-1.4c0,0,0-0.1,0.1-0.1c0.5-1.1,1-2.2,1.4-3.3
		c0-0.1,0.1-0.3,0.1-0.4c0.1-0.4,0.3-0.8,0.4-1.3c0.1-0.2,0.1-0.4,0.2-0.6c0.1-0.4,0.2-0.7,0.3-1.1c0.1-0.2,0.1-0.4,0.2-0.6
		c0.1-0.4,0.2-0.7,0.2-1.1c0-0.2,0.1-0.5,0.1-0.7c0.1-0.4,0.1-0.7,0.2-1.1c0-0.2,0.1-0.4,0.1-0.7c0-0.4,0.1-0.8,0.1-1.2
		c0-0.2,0-0.4,0-0.6c0-0.6,0.1-1.2,0.1-1.8v-35c0-18.3-14.8-33.1-33.1-33.1h-35c-0.6,0-1.1,0-1.7,0c-0.2,0-0.4,0-0.6,0
		c-0.3,0-0.7,0-1,0.1c-0.2,0-0.5,0.1-0.7,0.1c-0.3,0-0.6,0.1-0.9,0.1c-0.3,0-0.5,0.1-0.8,0.1c-0.3,0-0.5,0.1-0.8,0.1
		c-0.3,0.1-0.6,0.1-0.8,0.2c-0.2,0.1-0.5,0.1-0.7,0.2c-0.3,0.1-0.6,0.2-0.9,0.2c-0.2,0.1-0.4,0.1-0.6,0.2C52,1.7,51.7,1.8,51.4,2
		C51.2,2,51,2.1,50.8,2.1c-0.3,0.1-0.6,0.2-0.9,0.4c-0.2,0.1-0.3,0.1-0.5,0.2c-0.3,0.1-0.6,0.3-1,0.4c-0.1,0.1-0.3,0.1-0.4,0.2
		c-0.3,0.2-0.7,0.3-1,0.5c-0.1,0.1-0.3,0.1-0.4,0.2c-0.3,0.2-0.7,0.4-1,0.6c-0.1,0.1-0.2,0.1-0.3,0.2c-0.3,0.2-0.7,0.4-1,0.6
		c-0.1,0.1-0.2,0.1-0.3,0.2c-0.4,0.2-0.7,0.5-1,0.7c-0.1,0-0.1,0.1-0.2,0.1c-0.4,0.3-0.7,0.5-1.1,0.8c0,0-0.1,0.1-0.1,0.1
		c-0.4,0.3-0.7,0.6-1.1,0.9c0,0-0.1,0-0.1,0.1c-0.4,0.3-0.7,0.6-1.1,1c0,0,0,0,0,0c0,0,0,0,0,0c-6.5,6-10.6,14.7-10.6,24.2v35
		c0,10.3,4.7,19.5,12.1,25.6l11.2,6c3.1,1,6.4,1.5,9.8,1.5h35c7.9,0,15.1-2.7,20.8-7.3c0,0,0,0,0,0c0,0,0,0,0,0
		c1.9-1.5,3.6-3.2,5.1-5.1c0-0.1,0.1-0.1,0.1-0.2C123.1,88.5,123.4,88.1,123.7,87.7z"/>
</g>
<g>
	<g>
		<linearGradient id="SVGID_1_" gradientUnits="userSpaceOnUse" x1="33.9967" y1="120.9977" x2="97.8701" y2="22.2068">
			<stop  offset="0" style="stop-color:#FFFFFF"/>
			<stop  offset="1" style="stop-color:#C9C7C7"/>
		</linearGradient>
		<path class="st42" d="M96.9,0.2h-35c-18.3,0-33.1,14.8-33.1,33.1v35c0,10.3,4.7,19.5,12.1,25.6L22,123.5L52,100
			c3.1,1,6.4,1.5,9.8,1.5h35c18.3,0,33.1-14.8,33.1-33.1v-35C130,15.1,115.1,0.2,96.9,0.2z"/>
		<path class="st43" d="M96.9,0.2h-35c-8.7,0-16.6,3.4-22.6,8.9C45,4.5,52.2,1.8,60,1.8h35c18.3,0,33.1,14.8,33.1,33.1v35
			c0,9.6-4.1,18.2-10.6,24.2c7.5-6.1,12.4-15.4,12.4-25.8v-35C130,15.1,115.1,0.2,96.9,0.2z"/>
	</g>
	<g class="st44">
		<path class="st45" d="M83.7,50.3c0,2.2-1.8,4-3.9,4h-0.1c-2.2,0-4-1.8-4-4v-0.1c0-2.2,1.8-4,4-4h0.1c2.2,0,3.9,1.8,3.9,4V50.3z"/>
		<path class="st45" d="M102.1,50.3c0,2.2-1.8,4-4,4H98c-2.2,0-3.9-1.8-3.9-4v-0.1c0-2.2,1.8-4,3.9-4h0.1c2.2,0,4,1.8,4,4V50.3z"/>
		<path class="st45" d="M65.3,50.3c0,2.2-1.8,4-4,4h-0.1c-2.2,0-4-1.8-4-4v-0.1c0-2.2,1.8-4,4-4h0.1c2.2,0,4,1.8,4,4V50.3z"/>
	</g>
</g>
</svg>
