<?xml version="1.0" encoding="utf-8"?>
<!-- Generator: Adobe Illustrator 20.1.0, SVG Export Plug-In . SVG Version: 6.00 Build 0)  -->
<svg version="1.1" id="Layer_1" xmlns="http://www.w3.org/2000/svg" xmlns:xlink="http://www.w3.org/1999/xlink" x="0px" y="0px"
	 viewBox="0 0 158 142" style="enable-background:new 0 0 158 142;" xml:space="preserve">
<style type="text/css">
	.st0{opacity:0.57;}
	.st1{opacity:0;fill:#756937;}
	.st2{opacity:3.030303e-02;fill:#756937;}
	.st3{opacity:6.060606e-02;fill:#756937;}
	.st4{opacity:9.090909e-02;fill:#756937;}
	.st5{opacity:0.1212;fill:#756937;}
	.st6{opacity:0.1515;fill:#756937;}
	.st7{opacity:0.1818;fill:#756937;}
	.st8{opacity:0.2121;fill:#756937;}
	.st9{opacity:0.2424;fill:#756937;}
	.st10{opacity:0.2727;fill:#756937;}
	.st11{opacity:0.303;fill:#756937;}
	.st12{opacity:0.3333;fill:#756937;}
	.st13{opacity:0.3636;fill:#756937;}
	.st14{opacity:0.3939;fill:#756937;}
	.st15{opacity:0.4242;fill:#756937;}
	.st16{opacity:0.4545;fill:#756937;}
	.st17{opacity:0.4848;fill:#756937;}
	.st18{opacity:0.5152;fill:#756937;}
	.st19{opacity:0.5455;fill:#756937;}
	.st20{opacity:0.5758;fill:#756937;}
	.st21{opacity:0.6061;fill:#756937;}
	.st22{opacity:0.6364;fill:#756937;}
	.st23{opacity:0.6667;fill:#756937;}
	.st24{opacity:0.697;fill:#756937;}
	.st25{opacity:0.7273;fill:#756937;}
	.st26{opacity:0.7576;fill:#756937;}
	.st27{opacity:0.7879;fill:#756937;}
	.st28{opacity:0.8182;fill:#756937;}
	.st29{opacity:0.8485;fill:#756937;}
	.st30{opacity:0.8788;fill:#756937;}
	.st31{opacity:0.9091;fill:#756937;}
	.st32{opacity:0.9394;fill:#756937;}
	.st33{opacity:0.9697;fill:#756937;}
	.st34{fill:#756937;}
	.st35{fill:url(#SVGID_1_);}
	.st36{fill:#FFFFFF;}
	.st37{fill:#FF4C4C;}
	.st38{fill:#66CC6B;}
	.st39{fill:#D94040;}
</style>
<g class="st0">
	<path class="st1" d="M128.1,97.2c0.4-0.6,0.9-1.2,1.3-1.9c0,0,0.1-0.1,0.1-0.1c0.4-0.6,0.8-1.3,1.1-2c0-0.1,0.1-0.2,0.1-0.2
		c0.7-1.3,1.3-2.7,1.8-4.2c0-0.1,0.1-0.2,0.1-0.3c0.2-0.7,0.4-1.4,0.6-2.1c0-0.1,0-0.2,0.1-0.3c0.2-0.7,0.3-1.4,0.4-2
		c0-0.1,0-0.2,0.1-0.3c0.1-0.7,0.2-1.5,0.3-2.2c0-0.2,0-0.3,0-0.5c0.1-0.8,0.1-1.5,0.1-2.3c0-17.3-14-31.3-31.3-31.3
		c-2.6,0-5.2,0.3-7.6,0.9c-3-14.1-15.6-24.7-30.6-24.7c-0.6,0-1.2,0-1.8,0.1c-0.2,0-0.3,0-0.5,0c-0.6,0-1.1,0.1-1.7,0.2
		c0,0-0.1,0-0.1,0c-0.6,0.1-1.2,0.2-1.7,0.3c-0.1,0-0.3,0.1-0.4,0.1c-0.5,0.1-1.1,0.2-1.6,0.4c0,0-0.1,0-0.1,0
		c-0.6,0.1-1.1,0.3-1.7,0.5c-0.1,0-0.2,0.1-0.3,0.1c-0.5,0.2-1,0.4-1.5,0.6c0,0-0.1,0-0.1,0c-0.6,0.2-1.1,0.5-1.6,0.7
		c-0.1,0-0.2,0.1-0.2,0.1c-0.5,0.2-1,0.5-1.5,0.8c0,0-0.1,0-0.1,0c-0.5,0.3-1.1,0.6-1.6,0.9c0,0-0.1,0.1-0.1,0.1
		c-0.5,0.3-1,0.6-1.5,1c0,0,0,0,0,0c-0.5,0.4-1,0.7-1.5,1.1c0,0,0,0,0,0c-0.5,0.4-1,0.8-1.4,1.2c0,0,0,0,0,0
		c-1.9,1.7-3.5,3.6-4.9,5.7c0,0,0,0,0,0c0,0,0,0,0,0c-2,3-3.5,6.3-4.3,9.9c-0.2,0-0.3,0-0.5,0l0,0c0,0,0,0,0,0
		c-0.4,0-0.8-0.1-1.2-0.1c-0.4,0-0.9,0-1.3,0c-0.6,0-1.2,0-1.9,0.1c-0.2,0-0.4,0-0.6,0c-0.4,0-0.9,0.1-1.3,0.1c-0.2,0-0.4,0-0.6,0.1
		c-0.4,0.1-0.9,0.1-1.3,0.2c-0.2,0-0.3,0.1-0.5,0.1c-0.6,0.1-1.2,0.2-1.8,0.4c0,0-0.1,0-0.1,0c-0.5,0.1-1.1,0.3-1.6,0.5
		c-0.2,0.1-0.3,0.1-0.5,0.2c-0.4,0.1-0.8,0.3-1.2,0.4c-0.2,0.1-0.3,0.1-0.5,0.2c-0.4,0.2-0.9,0.4-1.3,0.6c-0.1,0-0.2,0.1-0.3,0.1
		c-0.5,0.3-1.1,0.5-1.6,0.8c0,0,0,0-0.1,0c-0.5,0.3-1,0.6-1.5,0.9c-0.1,0.1-0.2,0.1-0.3,0.2c-0.4,0.3-0.8,0.5-1.2,0.8
		c-0.1,0.1-0.2,0.1-0.3,0.2c-0.4,0.3-0.9,0.7-1.3,1c0,0-0.1,0-0.1,0.1c-0.9,0.8-1.8,1.6-2.7,2.5c-0.1,0.1-0.1,0.1-0.2,0.2
		c-0.4,0.4-0.7,0.8-1.1,1.2c-0.1,0.1-0.1,0.1-0.2,0.2C2.7,63.9-0.1,71-0.1,78.7c0,17.3,14,31.3,31.3,31.3c0.7,0,1.4,0,2.1-0.1
		c0,0,0,0.1,0,0.1c0,6.9,2.2,13.3,6,18.5l6.4,6.5c5.3,4,11.8,6.3,18.9,6.3c10.4,0,19.5-5,25.2-12.8c0,0,0,0,0,0c0,0,0,0,0,0
		c0.4-0.6,0.9-1.2,1.3-1.9c0,0,0-0.1,0.1-0.1c0.4-0.6,0.8-1.3,1.1-2c0,0,0-0.1,0.1-0.1c0.7-1.4,1.3-2.8,1.8-4.2c0,0,0-0.1,0-0.1
		c0.5-1.5,0.9-3,1.2-4.6c0,0,0,0,0-0.1c0.3-1.8,0.5-3.6,0.5-5.5c0-0.3,0-0.5,0-0.8c2.2,0.5,4.6,0.8,6.9,0.8
		C113.2,110,122.4,105,128.1,97.2C128.1,97.2,128.1,97.2,128.1,97.2C128.1,97.2,128.1,97.2,128.1,97.2z"/>
	<path class="st2" d="M128.8,96.5c0.4-0.6,0.9-1.2,1.3-1.9c0,0,0.1-0.1,0.1-0.1c0.4-0.6,0.8-1.3,1.1-2c0-0.1,0.1-0.2,0.1-0.2
		c0.7-1.3,1.3-2.7,1.8-4.2c0-0.1,0.1-0.2,0.1-0.3c0.2-0.7,0.4-1.4,0.6-2.1c0-0.1,0-0.2,0.1-0.3c0.2-0.7,0.3-1.4,0.4-2
		c0-0.1,0-0.2,0.1-0.3c0.1-0.7,0.2-1.5,0.3-2.2c0-0.2,0-0.3,0-0.5c0.1-0.8,0.1-1.5,0.1-2.3c0-17.3-14-31.3-31.3-31.3
		c-2.6,0-5.2,0.3-7.6,0.9c-3-14.1-15.6-24.7-30.6-24.7c-0.6,0-1.2,0-1.8,0.1c-0.2,0-0.3,0-0.5,0c-0.6,0-1.1,0.1-1.7,0.2
		c0,0-0.1,0-0.1,0c-0.6,0.1-1.2,0.2-1.7,0.3c-0.1,0-0.3,0.1-0.4,0.1c-0.5,0.1-1.1,0.2-1.6,0.4c0,0-0.1,0-0.1,0
		c-0.6,0.1-1.1,0.3-1.7,0.5c-0.1,0-0.2,0.1-0.3,0.1c-0.5,0.2-1,0.4-1.5,0.6c0,0-0.1,0-0.1,0c-0.6,0.2-1.1,0.5-1.6,0.7
		c-0.1,0-0.2,0.1-0.2,0.1c-0.5,0.2-1,0.5-1.5,0.8c0,0-0.1,0-0.1,0c-0.5,0.3-1.1,0.6-1.6,0.9c0,0-0.1,0.1-0.1,0.1
		c-0.5,0.3-1,0.6-1.5,1c0,0,0,0,0,0c-0.5,0.4-1,0.7-1.5,1.1c0,0,0,0,0,0c-0.5,0.4-0.9,0.8-1.4,1.2c0,0,0,0,0,0
		c-1.9,1.6-3.5,3.6-4.9,5.7c0,0,0,0,0,0c0,0,0,0,0,0c-2,3-3.5,6.3-4.3,9.9c-0.2,0-0.3,0-0.5,0l0,0c0,0,0,0,0,0
		c-0.4,0-0.8-0.1-1.2-0.1c-0.4,0-0.9,0-1.3,0c-0.6,0-1.2,0-1.9,0.1c-0.2,0-0.4,0-0.6,0c-0.4,0-0.9,0.1-1.3,0.1c-0.2,0-0.4,0-0.6,0.1
		c-0.4,0.1-0.9,0.1-1.3,0.2c-0.2,0-0.3,0.1-0.5,0.1c-0.6,0.1-1.2,0.2-1.8,0.4c0,0-0.1,0-0.1,0c-0.5,0.1-1.1,0.3-1.6,0.5
		c-0.2,0.1-0.3,0.1-0.5,0.2c-0.4,0.1-0.8,0.3-1.2,0.4c-0.2,0.1-0.3,0.1-0.5,0.2c-0.4,0.2-0.9,0.4-1.3,0.6c-0.1,0-0.2,0.1-0.3,0.1
		c-0.5,0.3-1.1,0.5-1.6,0.8c0,0,0,0-0.1,0c-0.5,0.3-1,0.6-1.5,0.9c-0.1,0.1-0.2,0.1-0.3,0.2c-0.4,0.3-0.8,0.5-1.2,0.8
		c-0.1,0.1-0.2,0.1-0.3,0.2c-0.4,0.3-0.9,0.7-1.3,1c0,0-0.1,0-0.1,0.1c-0.9,0.8-1.8,1.6-2.7,2.5c-0.1,0.1-0.1,0.1-0.2,0.2
		c-0.4,0.4-0.7,0.8-1.1,1.2c-0.1,0.1-0.1,0.1-0.2,0.2C3.4,63.2,0.6,70.2,0.6,78c0,17.3,14,31.3,31.3,31.3c0.7,0,1.4,0,2.1-0.1
		c0,0,0,0.1,0,0.1c0,6.9,2.2,13.3,6,18.5l6.4,6.5c5.3,4,11.8,6.3,18.9,6.3c10.4,0,19.5-5,25.2-12.8c0,0,0,0,0,0c0,0,0,0,0,0
		c0.4-0.6,0.9-1.2,1.3-1.9c0,0,0-0.1,0.1-0.1c0.4-0.6,0.8-1.3,1.1-2c0,0,0-0.1,0.1-0.1c0.7-1.4,1.3-2.8,1.8-4.2c0,0,0-0.1,0-0.1
		c0.5-1.5,0.9-3,1.2-4.6c0,0,0,0,0-0.1c0.3-1.8,0.5-3.6,0.5-5.5c0-0.3,0-0.5,0-0.8c2.2,0.5,4.6,0.8,6.9,0.8
		C113.9,109.3,123.1,104.2,128.8,96.5C128.8,96.5,128.8,96.5,128.8,96.5C128.8,96.5,128.8,96.5,128.8,96.5z"/>
	<path class="st3" d="M129.5,95.7c0.4-0.6,0.9-1.2,1.3-1.9c0,0,0.1-0.1,0.1-0.1c0.4-0.6,0.8-1.3,1.1-2c0-0.1,0.1-0.2,0.1-0.2
		c0.7-1.3,1.3-2.7,1.8-4.2c0-0.1,0.1-0.2,0.1-0.3c0.2-0.7,0.4-1.4,0.6-2.1c0-0.1,0-0.2,0.1-0.3c0.2-0.7,0.3-1.4,0.4-2
		c0-0.1,0-0.2,0.1-0.3c0.1-0.7,0.2-1.5,0.3-2.2c0-0.2,0-0.3,0-0.5c0.1-0.8,0.1-1.5,0.1-2.3c0-17.3-14-31.3-31.3-31.3
		c-2.6,0-5.2,0.3-7.6,0.9C93.6,32.8,81,22.2,66,22.2c-0.6,0-1.2,0-1.8,0.1c-0.2,0-0.3,0-0.5,0c-0.6,0-1.1,0.1-1.7,0.2
		c0,0-0.1,0-0.1,0c-0.6,0.1-1.2,0.2-1.7,0.3c-0.1,0-0.3,0.1-0.4,0.1c-0.5,0.1-1.1,0.2-1.6,0.4c0,0-0.1,0-0.1,0
		c-0.6,0.1-1.1,0.3-1.7,0.5c-0.1,0-0.2,0.1-0.3,0.1c-0.5,0.2-1,0.4-1.5,0.6c0,0-0.1,0-0.1,0c-0.6,0.2-1.1,0.5-1.6,0.7
		c-0.1,0-0.2,0.1-0.2,0.1c-0.5,0.2-1,0.5-1.5,0.8c0,0-0.1,0-0.1,0c-0.5,0.3-1.1,0.6-1.6,0.9c0,0-0.1,0.1-0.1,0.1
		c-0.5,0.3-1,0.6-1.5,1c0,0,0,0,0,0c-0.5,0.4-1,0.7-1.5,1.1c0,0,0,0,0,0c-0.5,0.4-0.9,0.8-1.4,1.2c0,0,0,0,0,0
		c-1.9,1.6-3.5,3.6-4.9,5.7c0,0,0,0,0,0c0,0,0,0,0,0c-2,3-3.5,6.3-4.3,9.9c-0.2,0-0.3,0-0.5,0l0,0c0,0,0,0,0,0
		c-0.4,0-0.8-0.1-1.2-0.1c-0.4,0-0.9,0-1.3,0c-0.6,0-1.2,0-1.9,0.1c-0.2,0-0.4,0-0.6,0c-0.4,0-0.9,0.1-1.3,0.1c-0.2,0-0.4,0-0.6,0.1
		c-0.4,0.1-0.9,0.1-1.3,0.2c-0.2,0-0.3,0.1-0.5,0.1c-0.6,0.1-1.2,0.2-1.8,0.4c0,0-0.1,0-0.1,0c-0.5,0.1-1.1,0.3-1.6,0.5
		c-0.2,0.1-0.3,0.1-0.5,0.2c-0.4,0.1-0.8,0.3-1.2,0.4c-0.2,0.1-0.3,0.1-0.5,0.2c-0.4,0.2-0.9,0.4-1.3,0.6c-0.1,0-0.2,0.1-0.3,0.1
		c-0.5,0.3-1.1,0.5-1.6,0.8c0,0,0,0-0.1,0c-0.5,0.3-1,0.6-1.5,0.9c-0.1,0.1-0.2,0.1-0.3,0.2c-0.4,0.3-0.8,0.5-1.2,0.8
		c-0.1,0.1-0.2,0.1-0.3,0.2c-0.4,0.3-0.9,0.7-1.3,1c0,0-0.1,0-0.1,0.1c-0.9,0.8-1.8,1.6-2.7,2.5c-0.1,0.1-0.1,0.1-0.2,0.2
		c-0.4,0.4-0.7,0.8-1.1,1.2c-0.1,0.1-0.1,0.1-0.2,0.2c-4.6,5.5-7.4,12.5-7.4,20.3c0,17.3,14,31.3,31.3,31.3c0.7,0,1.4,0,2.1-0.1
		c0,0,0,0.1,0,0.1c0,6.9,2.2,13.3,6,18.5l6.4,6.5c5.3,4,11.8,6.3,18.9,6.3c10.4,0,19.5-5,25.2-12.8c0,0,0,0,0,0c0,0,0,0,0,0
		c0.4-0.6,0.9-1.2,1.3-1.9c0,0,0-0.1,0.1-0.1c0.4-0.6,0.8-1.3,1.1-2c0,0,0-0.1,0.1-0.1c0.7-1.4,1.3-2.8,1.8-4.2c0,0,0-0.1,0-0.1
		c0.5-1.5,0.9-3,1.2-4.6c0,0,0,0,0-0.1c0.3-1.8,0.5-3.6,0.5-5.5c0-0.3,0-0.5,0-0.8c2.2,0.5,4.6,0.8,6.9,0.8
		C114.6,108.6,123.8,103.5,129.5,95.7C129.5,95.8,129.5,95.8,129.5,95.7C129.5,95.8,129.5,95.8,129.5,95.7z"/>
	<path class="st4" d="M130.2,95c0.4-0.6,0.9-1.2,1.3-1.9c0,0,0.1-0.1,0.1-0.1c0.4-0.6,0.8-1.3,1.1-2c0-0.1,0.1-0.2,0.1-0.2
		c0.7-1.3,1.3-2.7,1.8-4.2c0-0.1,0.1-0.2,0.1-0.3c0.2-0.7,0.4-1.4,0.6-2.1c0-0.1,0-0.2,0.1-0.3c0.2-0.7,0.3-1.4,0.4-2
		c0-0.1,0-0.2,0.1-0.3c0.1-0.7,0.2-1.5,0.3-2.2c0-0.2,0-0.3,0-0.5c0.1-0.8,0.1-1.5,0.1-2.3c0-17.3-14-31.3-31.3-31.3
		c-2.6,0-5.2,0.3-7.6,0.9c-3-14.1-15.6-24.7-30.6-24.7c-0.6,0-1.2,0-1.8,0.1c-0.2,0-0.3,0-0.5,0c-0.6,0-1.1,0.1-1.7,0.2
		c0,0-0.1,0-0.1,0c-0.6,0.1-1.2,0.2-1.7,0.3c-0.1,0-0.3,0.1-0.4,0.1c-0.5,0.1-1.1,0.2-1.6,0.4c0,0-0.1,0-0.1,0
		c-0.6,0.1-1.1,0.3-1.7,0.5c-0.1,0-0.2,0.1-0.3,0.1c-0.5,0.2-1,0.4-1.5,0.6c0,0-0.1,0-0.1,0c-0.6,0.2-1.1,0.5-1.6,0.7
		c-0.1,0-0.2,0.1-0.2,0.1c-0.5,0.2-1,0.5-1.5,0.8c0,0-0.1,0-0.1,0c-0.5,0.3-1.1,0.6-1.6,0.9c0,0-0.1,0.1-0.1,0.1
		c-0.5,0.3-1,0.6-1.5,1c0,0,0,0,0,0c-0.5,0.4-1,0.7-1.5,1.1c0,0,0,0,0,0c-0.5,0.4-0.9,0.8-1.4,1.2c0,0,0,0,0,0
		c-1.9,1.6-3.5,3.6-4.9,5.7c0,0,0,0,0,0c0,0,0,0,0,0c-2,3-3.5,6.3-4.3,9.9c-0.2,0-0.3,0-0.5,0l0,0c0,0,0,0,0,0
		c-0.4,0-0.8-0.1-1.2-0.1c-0.4,0-0.9,0-1.3,0c-0.6,0-1.2,0-1.9,0.1c-0.2,0-0.4,0-0.6,0c-0.4,0-0.9,0.1-1.3,0.1c-0.2,0-0.4,0-0.6,0.1
		c-0.4,0.1-0.9,0.1-1.3,0.2c-0.2,0-0.3,0.1-0.5,0.1c-0.6,0.1-1.2,0.2-1.8,0.4c0,0-0.1,0-0.1,0c-0.5,0.1-1.1,0.3-1.6,0.5
		c-0.2,0.1-0.3,0.1-0.5,0.2c-0.4,0.1-0.8,0.3-1.2,0.4c-0.2,0.1-0.3,0.1-0.5,0.2c-0.4,0.2-0.9,0.4-1.3,0.6c-0.1,0-0.2,0.1-0.3,0.1
		c-0.5,0.3-1.1,0.5-1.6,0.8c0,0,0,0-0.1,0c-0.5,0.3-1,0.6-1.5,0.9c-0.1,0.1-0.2,0.1-0.3,0.2c-0.4,0.3-0.8,0.5-1.2,0.8
		c-0.1,0.1-0.2,0.1-0.3,0.2c-0.4,0.3-0.9,0.7-1.3,1c0,0-0.1,0-0.1,0.1c-0.9,0.8-1.8,1.6-2.7,2.5c-0.1,0.1-0.1,0.1-0.2,0.2
		c-0.4,0.4-0.7,0.8-1.1,1.2c-0.1,0.1-0.1,0.1-0.2,0.2C4.8,61.7,2,68.8,2,76.5c0,17.3,14,31.3,31.3,31.3c0.7,0,1.4,0,2.1-0.1
		c0,0,0,0.1,0,0.1c0,6.9,2.2,13.3,6,18.5l6.4,6.5c5.3,4,11.8,6.3,18.9,6.3c10.4,0,19.5-5,25.2-12.8c0,0,0,0,0,0c0,0,0,0,0,0
		c0.4-0.6,0.9-1.2,1.3-1.9c0,0,0-0.1,0.1-0.1c0.4-0.6,0.8-1.3,1.1-2c0,0,0-0.1,0.1-0.1c0.7-1.4,1.3-2.8,1.8-4.2c0,0,0-0.1,0-0.1
		c0.5-1.5,0.9-3,1.2-4.6c0,0,0,0,0-0.1c0.3-1.8,0.5-3.6,0.5-5.5c0-0.3,0-0.5,0-0.8c2.2,0.5,4.6,0.8,6.9,0.8
		C115.3,107.8,124.5,102.8,130.2,95C130.2,95.1,130.2,95.1,130.2,95C130.2,95.1,130.2,95,130.2,95z"/>
	<path class="st5" d="M131,94.3c0.4-0.6,0.9-1.2,1.3-1.9c0,0,0.1-0.1,0.1-0.1c0.4-0.6,0.8-1.3,1.1-2c0-0.1,0.1-0.2,0.1-0.2
		c0.7-1.3,1.3-2.7,1.8-4.2c0-0.1,0.1-0.2,0.1-0.3c0.2-0.7,0.4-1.4,0.6-2.1c0-0.1,0-0.2,0.1-0.3c0.2-0.7,0.3-1.4,0.4-2
		c0-0.1,0-0.2,0.1-0.3c0.1-0.7,0.2-1.5,0.3-2.2c0-0.2,0-0.3,0-0.5c0.1-0.8,0.1-1.5,0.1-2.3c0-17.3-14-31.3-31.3-31.3
		c-2.6,0-5.2,0.3-7.6,0.9c-3-14.1-15.6-24.7-30.6-24.7c-0.6,0-1.2,0-1.8,0.1c-0.2,0-0.3,0-0.5,0c-0.6,0-1.1,0.1-1.7,0.2
		c0,0-0.1,0-0.1,0c-0.6,0.1-1.2,0.2-1.7,0.3c-0.1,0-0.3,0.1-0.4,0.1c-0.5,0.1-1.1,0.2-1.6,0.4c0,0-0.1,0-0.1,0
		c-0.6,0.1-1.1,0.3-1.7,0.5c-0.1,0-0.2,0.1-0.3,0.1c-0.5,0.2-1,0.4-1.5,0.6c0,0-0.1,0-0.1,0c-0.6,0.2-1.1,0.5-1.6,0.7
		c-0.1,0-0.2,0.1-0.2,0.1c-0.5,0.2-1,0.5-1.5,0.8c0,0-0.1,0-0.1,0c-0.5,0.3-1.1,0.6-1.6,0.9c0,0-0.1,0.1-0.1,0.1
		c-0.5,0.3-1,0.6-1.5,1c0,0,0,0,0,0c-0.5,0.4-1,0.7-1.5,1.1c0,0,0,0,0,0c-0.5,0.4-0.9,0.8-1.4,1.2c0,0,0,0,0,0
		c-1.9,1.6-3.5,3.6-4.9,5.7c0,0,0,0,0,0c0,0,0,0,0,0c-2,3-3.5,6.3-4.3,9.9c-0.2,0-0.3,0-0.5,0l0,0c0,0,0,0,0,0
		c-0.4,0-0.8-0.1-1.2-0.1c-0.4,0-0.9,0-1.3,0c-0.6,0-1.2,0-1.9,0.1c-0.2,0-0.4,0-0.6,0c-0.4,0-0.9,0.1-1.3,0.1c-0.2,0-0.4,0-0.6,0.1
		c-0.4,0.1-0.9,0.1-1.3,0.2c-0.2,0-0.3,0.1-0.5,0.1c-0.6,0.1-1.2,0.2-1.8,0.4c0,0-0.1,0-0.1,0c-0.5,0.1-1.1,0.3-1.6,0.5
		c-0.2,0.1-0.3,0.1-0.5,0.2c-0.4,0.1-0.8,0.3-1.2,0.4c-0.2,0.1-0.3,0.1-0.5,0.2c-0.4,0.2-0.9,0.4-1.3,0.6c-0.1,0-0.2,0.1-0.3,0.1
		c-0.5,0.3-1.1,0.5-1.6,0.8c0,0,0,0-0.1,0c-0.5,0.3-1,0.6-1.5,0.9c-0.1,0.1-0.2,0.1-0.3,0.2c-0.4,0.3-0.8,0.5-1.2,0.8
		c-0.1,0.1-0.2,0.1-0.3,0.2c-0.4,0.3-0.9,0.7-1.3,1c0,0-0.1,0-0.1,0.1c-0.9,0.8-1.8,1.6-2.7,2.5c-0.1,0.1-0.1,0.1-0.2,0.2
		c-0.4,0.4-0.7,0.8-1.1,1.2c-0.1,0.1-0.1,0.1-0.2,0.2C5.5,61,2.7,68.1,2.7,75.8c0,17.3,14,31.3,31.3,31.3c0.7,0,1.4,0,2.1-0.1
		c0,0,0,0.1,0,0.1c0,6.9,2.2,13.3,6,18.5l6.4,6.5c5.3,4,11.8,6.3,18.9,6.3c10.4,0,19.5-5,25.2-12.8c0,0,0,0,0,0c0,0,0,0,0,0
		c0.4-0.6,0.9-1.2,1.3-1.9c0,0,0-0.1,0.1-0.1c0.4-0.6,0.8-1.3,1.1-2c0,0,0-0.1,0.1-0.1c0.7-1.4,1.3-2.8,1.8-4.2c0,0,0-0.1,0-0.1
		c0.5-1.5,0.9-3,1.2-4.6c0,0,0,0,0-0.1c0.3-1.8,0.5-3.6,0.5-5.5c0-0.3,0-0.5,0-0.8c2.2,0.5,4.6,0.8,6.9,0.8
		C116.1,107.1,125.2,102.1,131,94.3C130.9,94.3,130.9,94.3,131,94.3C130.9,94.3,131,94.3,131,94.3z"/>
	<path class="st6" d="M131.7,93.6c0.4-0.6,0.9-1.2,1.3-1.9c0,0,0.1-0.1,0.1-0.1c0.4-0.6,0.8-1.3,1.1-2c0-0.1,0.1-0.2,0.1-0.2
		c0.7-1.3,1.3-2.7,1.8-4.2c0-0.1,0.1-0.2,0.1-0.3c0.2-0.7,0.4-1.4,0.6-2.1c0-0.1,0-0.2,0.1-0.3c0.2-0.7,0.3-1.4,0.4-2
		c0-0.1,0-0.2,0.1-0.3c0.1-0.7,0.2-1.5,0.3-2.2c0-0.2,0-0.3,0-0.5c0.1-0.8,0.1-1.5,0.1-2.3c0-17.3-14-31.3-31.3-31.3
		c-2.6,0-5.2,0.3-7.6,0.9c-3-14.1-15.6-24.7-30.6-24.7c-0.6,0-1.2,0-1.8,0.1c-0.2,0-0.3,0-0.5,0c-0.6,0-1.1,0.1-1.7,0.2
		c0,0-0.1,0-0.1,0c-0.6,0.1-1.2,0.2-1.7,0.3c-0.1,0-0.3,0.1-0.4,0.1c-0.5,0.1-1.1,0.2-1.6,0.4c0,0-0.1,0-0.1,0
		c-0.6,0.1-1.1,0.3-1.7,0.5c-0.1,0-0.2,0.1-0.3,0.1c-0.5,0.2-1,0.4-1.5,0.6c0,0-0.1,0-0.1,0C56,22.5,55.5,22.7,55,23
		c-0.1,0-0.2,0.1-0.2,0.1c-0.5,0.2-1,0.5-1.5,0.8c0,0-0.1,0-0.1,0c-0.5,0.3-1.1,0.6-1.6,0.9c0,0-0.1,0.1-0.1,0.1
		c-0.5,0.3-1,0.6-1.5,1c0,0,0,0,0,0c-0.5,0.4-1,0.7-1.5,1.1c0,0,0,0,0,0c-0.5,0.4-0.9,0.8-1.4,1.2c0,0,0,0,0,0
		c-1.9,1.6-3.5,3.6-4.9,5.7c0,0,0,0,0,0c0,0,0,0,0,0c-2,3-3.5,6.3-4.3,9.9c-0.2,0-0.3,0-0.5,0l0,0c0,0,0,0,0,0
		c-0.4,0-0.8-0.1-1.2-0.1c-0.4,0-0.9,0-1.3,0c-0.6,0-1.2,0-1.9,0.1c-0.2,0-0.4,0-0.6,0c-0.4,0-0.9,0.1-1.3,0.1c-0.2,0-0.4,0-0.6,0.1
		c-0.4,0.1-0.9,0.1-1.3,0.2c-0.2,0-0.3,0.1-0.5,0.1c-0.6,0.1-1.2,0.2-1.8,0.4c0,0-0.1,0-0.1,0c-0.5,0.1-1.1,0.3-1.6,0.5
		c-0.2,0.1-0.3,0.1-0.5,0.2c-0.4,0.1-0.8,0.3-1.2,0.4C23.3,46,23.2,46,23,46.1c-0.4,0.2-0.9,0.4-1.3,0.6c-0.1,0-0.2,0.1-0.3,0.1
		c-0.5,0.3-1.1,0.5-1.6,0.8c0,0,0,0-0.1,0c-0.5,0.3-1,0.6-1.5,0.9c-0.1,0.1-0.2,0.1-0.3,0.2c-0.4,0.3-0.8,0.5-1.2,0.8
		c-0.1,0.1-0.2,0.1-0.3,0.2c-0.4,0.3-0.9,0.7-1.3,1c0,0-0.1,0-0.1,0.1c-0.9,0.8-1.8,1.6-2.7,2.5c-0.1,0.1-0.1,0.1-0.2,0.2
		c-0.4,0.4-0.7,0.8-1.1,1.2c-0.1,0.1-0.1,0.1-0.2,0.2c-4.6,5.5-7.4,12.5-7.4,20.3c0,17.3,14,31.3,31.3,31.3c0.7,0,1.4,0,2.1-0.1
		c0,0,0,0.1,0,0.1c0,6.9,2.2,13.3,6,18.5l6.4,6.5c5.3,4,11.8,6.3,18.9,6.3c10.4,0,19.5-5,25.2-12.8c0,0,0,0,0,0c0,0,0,0,0,0
		c0.4-0.6,0.9-1.2,1.3-1.9c0,0,0-0.1,0.1-0.1c0.4-0.6,0.8-1.3,1.1-2c0,0,0-0.1,0.1-0.1c0.7-1.4,1.3-2.8,1.8-4.2c0,0,0-0.1,0-0.1
		c0.5-1.5,0.9-3,1.2-4.6c0,0,0,0,0-0.1c0.3-1.8,0.5-3.6,0.5-5.5c0-0.3,0-0.5,0-0.8c2.2,0.5,4.6,0.8,6.9,0.8
		C116.8,106.4,126,101.4,131.7,93.6C131.7,93.6,131.7,93.6,131.7,93.6C131.7,93.6,131.7,93.6,131.7,93.6z"/>
	<path class="st7" d="M132.4,92.9c0.4-0.6,0.9-1.2,1.3-1.9c0,0,0.1-0.1,0.1-0.1c0.4-0.6,0.8-1.3,1.1-2c0-0.1,0.1-0.2,0.1-0.2
		c0.7-1.3,1.3-2.7,1.8-4.2c0-0.1,0.1-0.2,0.1-0.3c0.2-0.7,0.4-1.4,0.6-2.1c0-0.1,0-0.2,0.1-0.3c0.2-0.7,0.3-1.4,0.4-2
		c0-0.1,0-0.2,0.1-0.3c0.1-0.7,0.2-1.5,0.3-2.2c0-0.2,0-0.3,0-0.5c0.1-0.8,0.1-1.5,0.1-2.3c0-17.3-14-31.3-31.3-31.3
		c-2.6,0-5.2,0.3-7.6,0.9c-3-14.1-15.6-24.7-30.6-24.7c-0.6,0-1.2,0-1.8,0.1c-0.2,0-0.3,0-0.5,0c-0.6,0-1.1,0.1-1.7,0.2
		c0,0-0.1,0-0.1,0c-0.6,0.1-1.2,0.2-1.7,0.3c-0.1,0-0.3,0.1-0.4,0.1c-0.5,0.1-1.1,0.2-1.6,0.4c0,0-0.1,0-0.1,0
		c-0.6,0.1-1.1,0.3-1.7,0.5c-0.1,0-0.2,0.1-0.3,0.1c-0.5,0.2-1,0.4-1.5,0.6c0,0-0.1,0-0.1,0c-0.6,0.2-1.1,0.5-1.6,0.7
		c-0.1,0-0.2,0.1-0.2,0.1c-0.5,0.2-1,0.5-1.5,0.8c0,0-0.1,0-0.1,0c-0.5,0.3-1.1,0.6-1.6,0.9c0,0-0.1,0.1-0.1,0.1
		c-0.5,0.3-1,0.6-1.5,1c0,0,0,0,0,0c-0.5,0.4-1,0.7-1.5,1.1c0,0,0,0,0,0c-0.5,0.4-0.9,0.8-1.4,1.2c0,0,0,0,0,0
		c-1.9,1.6-3.5,3.6-4.9,5.7c0,0,0,0,0,0c0,0,0,0,0,0c-2,3-3.5,6.3-4.3,9.9c-0.2,0-0.3,0-0.5,0l0,0c0,0,0,0,0,0
		c-0.4,0-0.8-0.1-1.2-0.1c-0.4,0-0.9,0-1.3,0c-0.6,0-1.2,0-1.9,0.1c-0.2,0-0.4,0-0.6,0c-0.4,0-0.9,0.1-1.3,0.1c-0.2,0-0.4,0-0.6,0.1
		c-0.4,0.1-0.9,0.1-1.3,0.2c-0.2,0-0.3,0.1-0.5,0.1c-0.6,0.1-1.2,0.2-1.8,0.4c0,0-0.1,0-0.1,0c-0.5,0.1-1.1,0.3-1.6,0.5
		c-0.2,0.1-0.3,0.1-0.5,0.2c-0.4,0.1-0.8,0.3-1.2,0.4c-0.2,0.1-0.3,0.1-0.5,0.2c-0.4,0.2-0.9,0.4-1.3,0.6c-0.1,0-0.2,0.1-0.3,0.1
		c-0.5,0.3-1.1,0.5-1.6,0.8c0,0,0,0-0.1,0c-0.5,0.3-1,0.6-1.5,0.9c-0.1,0.1-0.2,0.1-0.3,0.2c-0.4,0.3-0.8,0.5-1.2,0.8
		c-0.1,0.1-0.2,0.1-0.3,0.2c-0.4,0.3-0.9,0.7-1.3,1c0,0-0.1,0-0.1,0.1c-0.9,0.8-1.8,1.6-2.7,2.5c-0.1,0.1-0.1,0.1-0.2,0.2
		c-0.4,0.4-0.7,0.8-1.1,1.2c-0.1,0.1-0.1,0.1-0.2,0.2C7,59.6,4.2,66.7,4.2,74.4c0,17.3,14,31.3,31.3,31.3c0.7,0,1.4,0,2.1-0.1
		c0,0,0,0.1,0,0.1c0,6.9,2.2,13.3,6,18.5l6.4,6.5c5.3,4,11.8,6.3,18.9,6.3c10.4,0,19.5-5,25.2-12.8c0,0,0,0,0,0c0,0,0,0,0,0
		c0.4-0.6,0.9-1.2,1.3-1.9c0,0,0-0.1,0.1-0.1c0.4-0.6,0.8-1.3,1.1-2c0,0,0-0.1,0.1-0.1c0.7-1.4,1.3-2.8,1.8-4.2c0,0,0-0.1,0-0.1
		c0.5-1.5,0.9-3,1.2-4.6c0,0,0,0,0-0.1c0.3-1.8,0.5-3.6,0.5-5.5c0-0.3,0-0.5,0-0.8c2.2,0.5,4.6,0.8,6.9,0.8
		C117.5,105.7,126.7,100.7,132.4,92.9C132.4,92.9,132.4,92.9,132.4,92.9C132.4,92.9,132.4,92.9,132.4,92.9z"/>
	<path class="st8" d="M133.1,92.2c0.4-0.6,0.9-1.2,1.3-1.9c0,0,0.1-0.1,0.1-0.1c0.4-0.6,0.8-1.3,1.1-2c0-0.1,0.1-0.2,0.1-0.2
		c0.7-1.3,1.3-2.7,1.8-4.2c0-0.1,0.1-0.2,0.1-0.3c0.2-0.7,0.4-1.4,0.6-2.1c0-0.1,0-0.2,0.1-0.3c0.2-0.7,0.3-1.4,0.4-2
		c0-0.1,0-0.2,0.1-0.3c0.1-0.7,0.2-1.5,0.3-2.2c0-0.2,0-0.3,0-0.5c0.1-0.8,0.1-1.5,0.1-2.3c0-17.3-14-31.3-31.3-31.3
		c-2.6,0-5.2,0.3-7.6,0.9c-3-14.1-15.6-24.7-30.6-24.7c-0.6,0-1.2,0-1.8,0.1c-0.2,0-0.3,0-0.5,0c-0.6,0-1.1,0.1-1.7,0.2
		c0,0-0.1,0-0.1,0c-0.6,0.1-1.2,0.2-1.7,0.3c-0.1,0-0.3,0.1-0.4,0.1c-0.5,0.1-1.1,0.2-1.6,0.4c0,0-0.1,0-0.1,0
		c-0.6,0.1-1.1,0.3-1.7,0.5c-0.1,0-0.2,0.1-0.3,0.1c-0.5,0.2-1,0.4-1.5,0.6c0,0-0.1,0-0.1,0c-0.6,0.2-1.1,0.5-1.6,0.7
		c-0.1,0-0.2,0.1-0.2,0.1c-0.5,0.2-1,0.5-1.5,0.8c0,0-0.1,0-0.1,0c-0.5,0.3-1.1,0.6-1.6,0.9c0,0-0.1,0.1-0.1,0.1
		c-0.5,0.3-1,0.6-1.5,1c0,0,0,0,0,0c-0.5,0.4-1,0.7-1.5,1.1c0,0,0,0,0,0c-0.5,0.4-0.9,0.8-1.4,1.2c0,0,0,0,0,0
		c-1.9,1.6-3.5,3.6-4.9,5.7c0,0,0,0,0,0c0,0,0,0,0,0c-2,3-3.5,6.3-4.3,9.9c-0.2,0-0.3,0-0.5,0l0,0c0,0,0,0,0,0
		c-0.4,0-0.8-0.1-1.2-0.1c-0.4,0-0.9,0-1.3,0c-0.6,0-1.2,0-1.9,0.1c-0.2,0-0.4,0-0.6,0c-0.4,0-0.9,0.1-1.3,0.1c-0.2,0-0.4,0-0.6,0.1
		c-0.4,0.1-0.9,0.1-1.3,0.2c-0.2,0-0.3,0.1-0.5,0.1c-0.6,0.1-1.2,0.2-1.8,0.4c0,0-0.1,0-0.1,0c-0.5,0.1-1.1,0.3-1.6,0.5
		c-0.2,0.1-0.3,0.1-0.5,0.2c-0.4,0.1-0.8,0.3-1.2,0.4c-0.2,0.1-0.3,0.1-0.5,0.2c-0.4,0.2-0.9,0.4-1.3,0.6c-0.1,0-0.2,0.1-0.3,0.1
		c-0.5,0.3-1.1,0.5-1.6,0.8c0,0,0,0-0.1,0c-0.5,0.3-1,0.6-1.5,0.9c-0.1,0.1-0.2,0.1-0.3,0.2c-0.4,0.3-0.8,0.5-1.2,0.8
		c-0.1,0.1-0.2,0.1-0.3,0.2c-0.4,0.3-0.9,0.7-1.3,1c0,0-0.1,0-0.1,0.1c-0.9,0.8-1.8,1.6-2.7,2.5c-0.1,0.1-0.1,0.1-0.2,0.2
		c-0.4,0.4-0.7,0.8-1.1,1.2c-0.1,0.1-0.1,0.1-0.2,0.2C7.7,58.9,4.9,66,4.9,73.7c0,17.3,14,31.3,31.3,31.3c0.7,0,1.4,0,2.1-0.1
		c0,0,0,0.1,0,0.1c0,6.9,2.2,13.3,6,18.5l6.4,6.5c5.3,4,11.8,6.3,18.9,6.3c10.4,0,19.5-5,25.2-12.8c0,0,0,0,0,0c0,0,0,0,0,0
		c0.4-0.6,0.9-1.2,1.3-1.9c0,0,0-0.1,0.1-0.1c0.4-0.6,0.8-1.3,1.1-2c0,0,0-0.1,0.1-0.1c0.7-1.4,1.3-2.8,1.8-4.2c0,0,0-0.1,0-0.1
		c0.5-1.5,0.9-3,1.2-4.6c0,0,0,0,0-0.1c0.3-1.8,0.5-3.6,0.5-5.5c0-0.3,0-0.5,0-0.8c2.2,0.5,4.6,0.8,6.9,0.8
		C118.2,105,127.4,99.9,133.1,92.2C133.1,92.2,133.1,92.2,133.1,92.2C133.1,92.2,133.1,92.2,133.1,92.2z"/>
	<path class="st9" d="M133.8,91.4c0.4-0.6,0.9-1.2,1.3-1.9c0,0,0.1-0.1,0.1-0.1c0.4-0.6,0.8-1.3,1.1-2c0-0.1,0.1-0.2,0.1-0.2
		c0.7-1.3,1.3-2.7,1.8-4.2c0-0.1,0.1-0.2,0.1-0.3c0.2-0.7,0.4-1.4,0.6-2.1c0-0.1,0-0.2,0.1-0.3c0.2-0.7,0.3-1.4,0.4-2
		c0-0.1,0-0.2,0.1-0.3c0.1-0.7,0.2-1.5,0.3-2.2c0-0.2,0-0.3,0-0.5c0.1-0.8,0.1-1.5,0.1-2.3c0-17.3-14-31.3-31.3-31.3
		c-2.6,0-5.2,0.3-7.6,0.9c-3-14.1-15.6-24.7-30.6-24.7c-0.6,0-1.2,0-1.8,0.1c-0.2,0-0.3,0-0.5,0c-0.6,0-1.1,0.1-1.7,0.2
		c0,0-0.1,0-0.1,0c-0.6,0.1-1.2,0.2-1.7,0.3c-0.1,0-0.3,0.1-0.4,0.1c-0.5,0.1-1.1,0.2-1.6,0.4c0,0-0.1,0-0.1,0
		c-0.6,0.1-1.1,0.3-1.7,0.5c-0.1,0-0.2,0.1-0.3,0.1c-0.5,0.2-1,0.4-1.5,0.6c0,0-0.1,0-0.1,0c-0.6,0.2-1.1,0.5-1.6,0.7
		c-0.1,0-0.2,0.1-0.2,0.1c-0.5,0.2-1,0.5-1.5,0.8c0,0-0.1,0-0.1,0c-0.5,0.3-1.1,0.6-1.6,0.9c0,0-0.1,0.1-0.1,0.1
		c-0.5,0.3-1,0.6-1.5,1c0,0,0,0,0,0c-0.5,0.4-1,0.7-1.5,1.1c0,0,0,0,0,0c-0.5,0.4-0.9,0.8-1.4,1.2c0,0,0,0,0,0
		c-1.9,1.6-3.5,3.6-4.9,5.7c0,0,0,0,0,0c0,0,0,0,0,0c-2,3-3.5,6.3-4.3,9.9c-0.2,0-0.3,0-0.5,0l0,0c0,0,0,0,0,0
		c-0.4,0-0.8-0.1-1.2-0.1c-0.4,0-0.9,0-1.3,0c-0.6,0-1.2,0-1.9,0.1c-0.2,0-0.4,0-0.6,0c-0.4,0-0.9,0.1-1.3,0.1c-0.2,0-0.4,0-0.6,0.1
		c-0.4,0.1-0.9,0.1-1.3,0.2c-0.2,0-0.3,0.1-0.5,0.1c-0.6,0.1-1.2,0.2-1.8,0.4c0,0-0.1,0-0.1,0c-0.5,0.1-1.1,0.3-1.6,0.5
		c-0.2,0.1-0.3,0.1-0.5,0.2c-0.4,0.1-0.8,0.3-1.2,0.4c-0.2,0.1-0.3,0.1-0.5,0.2c-0.4,0.2-0.9,0.4-1.3,0.6c-0.1,0-0.2,0.1-0.3,0.1
		c-0.5,0.3-1.1,0.5-1.6,0.8c0,0,0,0-0.1,0c-0.5,0.3-1,0.6-1.5,0.9c-0.1,0.1-0.2,0.1-0.3,0.2c-0.4,0.3-0.8,0.5-1.2,0.8
		c-0.1,0.1-0.2,0.1-0.3,0.2c-0.4,0.3-0.9,0.7-1.3,1c0,0-0.1,0-0.1,0.1c-0.9,0.8-1.8,1.6-2.7,2.5c-0.1,0.1-0.1,0.1-0.2,0.2
		c-0.4,0.4-0.7,0.8-1.1,1.2c-0.1,0.1-0.1,0.1-0.2,0.2C8.4,58.2,5.6,65.2,5.6,73c0,17.3,14,31.3,31.3,31.3c0.7,0,1.4,0,2.1-0.1
		c0,0,0,0.1,0,0.1c0,6.9,2.2,13.3,6,18.5l6.4,6.5c5.3,4,11.8,6.3,18.9,6.3c10.4,0,19.5-5,25.2-12.8c0,0,0,0,0,0c0,0,0,0,0,0
		c0.4-0.6,0.9-1.2,1.3-1.9c0,0,0-0.1,0.1-0.1c0.4-0.6,0.8-1.3,1.1-2c0,0,0-0.1,0.1-0.1c0.7-1.4,1.3-2.8,1.8-4.2c0,0,0-0.1,0-0.1
		c0.5-1.5,0.9-3,1.2-4.6c0,0,0,0,0-0.1c0.3-1.8,0.5-3.6,0.5-5.5c0-0.3,0-0.5,0-0.8c2.2,0.5,4.6,0.8,6.9,0.8
		C118.9,104.3,128.1,99.2,133.8,91.4C133.8,91.5,133.8,91.5,133.8,91.4C133.8,91.5,133.8,91.5,133.8,91.4z"/>
	<path class="st10" d="M134.5,90.7c0.4-0.6,0.9-1.2,1.3-1.9c0,0,0.1-0.1,0.1-0.1c0.4-0.6,0.8-1.3,1.1-2c0-0.1,0.1-0.2,0.1-0.2
		c0.7-1.3,1.3-2.7,1.8-4.2c0-0.1,0.1-0.2,0.1-0.3c0.2-0.7,0.4-1.4,0.6-2.1c0-0.1,0-0.2,0.1-0.3c0.2-0.7,0.3-1.4,0.4-2
		c0-0.1,0-0.2,0.1-0.3c0.1-0.7,0.2-1.5,0.3-2.2c0-0.2,0-0.3,0-0.5c0.1-0.8,0.1-1.5,0.1-2.3c0-17.3-14-31.3-31.3-31.3
		c-2.6,0-5.2,0.3-7.6,0.9c-3-14.1-15.6-24.7-30.6-24.7c-0.6,0-1.2,0-1.8,0.1c-0.2,0-0.3,0-0.5,0c-0.6,0-1.1,0.1-1.7,0.2
		c0,0-0.1,0-0.1,0c-0.6,0.1-1.2,0.2-1.7,0.3c-0.1,0-0.3,0.1-0.4,0.1c-0.5,0.1-1.1,0.2-1.6,0.4c0,0-0.1,0-0.1,0
		c-0.6,0.1-1.1,0.3-1.7,0.5c-0.1,0-0.2,0.1-0.3,0.1c-0.5,0.2-1,0.4-1.5,0.6c0,0-0.1,0-0.1,0c-0.6,0.2-1.1,0.5-1.6,0.7
		c-0.1,0-0.2,0.1-0.2,0.1c-0.5,0.2-1,0.5-1.5,0.8c0,0-0.1,0-0.1,0c-0.5,0.3-1.1,0.6-1.6,0.9c0,0-0.1,0.1-0.1,0.1
		c-0.5,0.3-1,0.6-1.5,1c0,0,0,0,0,0c-0.5,0.4-1,0.7-1.5,1.1c0,0,0,0,0,0c-0.5,0.4-0.9,0.8-1.4,1.2c0,0,0,0,0,0
		c-1.9,1.6-3.5,3.6-4.9,5.7c0,0,0,0,0,0c0,0,0,0,0,0c-2,3-3.5,6.3-4.3,9.9c-0.2,0-0.3,0-0.5,0l0,0c0,0,0,0,0,0
		c-0.4,0-0.8-0.1-1.2-0.1c-0.4,0-0.9,0-1.3,0c-0.6,0-1.2,0-1.9,0.1c-0.2,0-0.4,0-0.6,0c-0.4,0-0.9,0.1-1.3,0.1c-0.2,0-0.4,0-0.6,0.1
		c-0.4,0.1-0.9,0.1-1.3,0.2c-0.2,0-0.3,0.1-0.5,0.1c-0.6,0.1-1.2,0.2-1.8,0.4c0,0-0.1,0-0.1,0c-0.5,0.1-1.1,0.3-1.6,0.5
		c-0.2,0.1-0.3,0.1-0.5,0.2c-0.4,0.1-0.8,0.3-1.2,0.4c-0.2,0.1-0.3,0.1-0.5,0.2c-0.4,0.2-0.9,0.4-1.3,0.6c-0.1,0-0.2,0.1-0.3,0.1
		c-0.5,0.3-1.1,0.5-1.6,0.8c0,0,0,0-0.1,0c-0.5,0.3-1,0.6-1.5,0.9c-0.1,0.1-0.2,0.1-0.3,0.2c-0.4,0.3-0.8,0.5-1.2,0.8
		c-0.1,0.1-0.2,0.1-0.3,0.2c-0.4,0.3-0.9,0.7-1.3,1c0,0-0.1,0-0.1,0.1c-0.9,0.8-1.8,1.6-2.7,2.5c-0.1,0.1-0.1,0.1-0.2,0.2
		c-0.4,0.4-0.7,0.8-1.1,1.2c-0.1,0.1-0.1,0.1-0.2,0.2c-4.6,5.5-7.4,12.5-7.4,20.3c0,17.3,14,31.3,31.3,31.3c0.7,0,1.4,0,2.1-0.1
		c0,0,0,0.1,0,0.1c0,6.9,2.2,13.3,6,18.5l6.4,6.5c5.3,4,11.8,6.3,18.9,6.3c10.4,0,19.5-5,25.2-12.8c0,0,0,0,0,0c0,0,0,0,0,0
		c0.4-0.6,0.9-1.2,1.3-1.9c0,0,0-0.1,0.1-0.1c0.4-0.6,0.8-1.3,1.1-2c0,0,0-0.1,0.1-0.1c0.7-1.4,1.3-2.8,1.8-4.2c0,0,0-0.1,0-0.1
		c0.5-1.5,0.9-3,1.2-4.6c0,0,0,0,0-0.1c0.3-1.8,0.5-3.6,0.5-5.5c0-0.3,0-0.5,0-0.8c2.2,0.5,4.6,0.8,6.9,0.8
		C119.6,103.6,128.8,98.5,134.5,90.7C134.5,90.8,134.5,90.8,134.5,90.7C134.5,90.8,134.5,90.7,134.5,90.7z"/>
	<path class="st11" d="M135.3,90c0.4-0.6,0.9-1.2,1.3-1.9c0,0,0.1-0.1,0.1-0.1c0.4-0.6,0.8-1.3,1.1-2c0-0.1,0.1-0.2,0.1-0.2
		c0.7-1.3,1.3-2.7,1.8-4.2c0-0.1,0.1-0.2,0.1-0.3c0.2-0.7,0.4-1.4,0.6-2.1c0-0.1,0-0.2,0.1-0.3c0.2-0.7,0.3-1.4,0.4-2
		c0-0.1,0-0.2,0.1-0.3c0.1-0.7,0.2-1.5,0.3-2.2c0-0.2,0-0.3,0-0.5c0.1-0.8,0.1-1.5,0.1-2.3c0-17.3-14-31.3-31.3-31.3
		c-2.6,0-5.2,0.3-7.6,0.9c-3-14.1-15.6-24.7-30.6-24.7c-0.6,0-1.2,0-1.8,0.1c-0.2,0-0.3,0-0.5,0c-0.6,0-1.1,0.1-1.7,0.2
		c0,0-0.1,0-0.1,0c-0.6,0.1-1.2,0.2-1.7,0.3c-0.1,0-0.3,0.1-0.4,0.1c-0.5,0.1-1.1,0.2-1.6,0.4c0,0-0.1,0-0.1,0
		c-0.6,0.1-1.1,0.3-1.7,0.5c-0.1,0-0.2,0.1-0.3,0.1c-0.5,0.2-1,0.4-1.5,0.6c0,0-0.1,0-0.1,0c-0.6,0.2-1.1,0.5-1.6,0.7
		c-0.1,0-0.2,0.1-0.2,0.1c-0.5,0.2-1,0.5-1.5,0.8c0,0-0.1,0-0.1,0c-0.5,0.3-1.1,0.6-1.6,0.9c0,0-0.1,0.1-0.1,0.1
		c-0.5,0.3-1,0.6-1.5,1c0,0,0,0,0,0c-0.5,0.4-1,0.7-1.5,1.1c0,0,0,0,0,0c-0.5,0.4-0.9,0.8-1.4,1.2c0,0,0,0,0,0
		c-1.9,1.6-3.5,3.6-4.9,5.7c0,0,0,0,0,0c0,0,0,0,0,0c-2,3-3.5,6.3-4.3,9.9c-0.2,0-0.3,0-0.5,0l0,0c0,0,0,0,0,0
		c-0.4,0-0.8-0.1-1.2-0.1c-0.4,0-0.9,0-1.3,0c-0.6,0-1.2,0-1.9,0.1c-0.2,0-0.4,0-0.6,0c-0.4,0-0.9,0.1-1.3,0.1c-0.2,0-0.4,0-0.6,0.1
		c-0.4,0.1-0.9,0.1-1.3,0.2c-0.2,0-0.3,0.1-0.5,0.1c-0.6,0.1-1.2,0.2-1.8,0.4c0,0-0.1,0-0.1,0c-0.5,0.1-1.1,0.3-1.6,0.5
		c-0.2,0.1-0.3,0.1-0.5,0.2c-0.4,0.1-0.8,0.3-1.2,0.4c-0.2,0.1-0.3,0.1-0.5,0.2c-0.4,0.2-0.9,0.4-1.3,0.6c-0.1,0-0.2,0.1-0.3,0.1
		c-0.5,0.3-1.1,0.5-1.6,0.8c0,0,0,0-0.1,0c-0.5,0.3-1,0.6-1.5,0.9c-0.1,0.1-0.2,0.1-0.3,0.2c-0.4,0.3-0.8,0.5-1.2,0.8
		c-0.1,0.1-0.2,0.1-0.3,0.2c-0.4,0.3-0.9,0.7-1.3,1c0,0-0.1,0-0.1,0.1c-0.9,0.8-1.8,1.6-2.7,2.5c-0.1,0.1-0.1,0.1-0.2,0.2
		c-0.4,0.4-0.7,0.8-1.1,1.2c-0.1,0.1-0.1,0.1-0.2,0.2C9.8,56.7,7,63.8,7,71.5c0,17.3,14,31.3,31.3,31.3c0.7,0,1.4,0,2.1-0.1
		c0,0,0,0.1,0,0.1c0,6.9,2.2,13.3,6,18.5l6.4,6.5c5.3,4,11.8,6.3,18.9,6.3c10.4,0,19.5-5,25.2-12.8c0,0,0,0,0,0c0,0,0,0,0,0
		c0.4-0.6,0.9-1.2,1.3-1.9c0,0,0-0.1,0.1-0.1c0.4-0.6,0.8-1.3,1.1-2c0,0,0-0.1,0.1-0.1c0.7-1.4,1.3-2.8,1.8-4.2c0,0,0-0.1,0-0.1
		c0.5-1.5,0.9-3,1.2-4.6c0,0,0,0,0-0.1c0.3-1.8,0.5-3.6,0.5-5.5c0-0.3,0-0.5,0-0.8c2.2,0.5,4.6,0.8,6.9,0.8
		C120.4,102.8,129.5,97.8,135.3,90C135.2,90,135.2,90.1,135.3,90C135.2,90,135.2,90,135.3,90z"/>
	<path class="st12" d="M136,89.3c0.4-0.6,0.9-1.2,1.3-1.9c0,0,0.1-0.1,0.1-0.1c0.4-0.6,0.8-1.3,1.1-2c0-0.1,0.1-0.2,0.1-0.2
		c0.7-1.3,1.3-2.7,1.8-4.2c0-0.1,0.1-0.2,0.1-0.3c0.2-0.7,0.4-1.4,0.6-2.1c0-0.1,0-0.2,0.1-0.3c0.2-0.7,0.3-1.4,0.4-2
		c0-0.1,0-0.2,0.1-0.3c0.1-0.7,0.2-1.5,0.3-2.2c0-0.2,0-0.3,0-0.5c0.1-0.8,0.1-1.5,0.1-2.3c0-17.3-14-31.3-31.3-31.3
		c-2.6,0-5.2,0.3-7.6,0.9c-3-14.1-15.6-24.7-30.6-24.7c-0.6,0-1.2,0-1.8,0.1c-0.2,0-0.3,0-0.5,0c-0.6,0-1.1,0.1-1.7,0.2
		c0,0-0.1,0-0.1,0c-0.6,0.1-1.2,0.2-1.7,0.3c-0.1,0-0.3,0.1-0.4,0.1c-0.5,0.1-1.1,0.2-1.6,0.4c0,0-0.1,0-0.1,0
		c-0.6,0.1-1.1,0.3-1.7,0.5c-0.1,0-0.2,0.1-0.3,0.1c-0.5,0.2-1,0.4-1.5,0.6c0,0-0.1,0-0.1,0c-0.6,0.2-1.1,0.5-1.6,0.7
		c-0.1,0-0.2,0.1-0.2,0.1c-0.5,0.2-1,0.5-1.5,0.8c0,0-0.1,0-0.1,0c-0.5,0.3-1.1,0.6-1.6,0.9c0,0-0.1,0.1-0.1,0.1
		c-0.5,0.3-1,0.6-1.5,1c0,0,0,0,0,0c-0.5,0.4-1,0.7-1.5,1.1c0,0,0,0,0,0c-0.5,0.4-0.9,0.8-1.4,1.2c0,0,0,0,0,0
		c-1.9,1.6-3.5,3.6-4.9,5.7c0,0,0,0,0,0c0,0,0,0,0,0c-2,3-3.5,6.3-4.3,9.9c-0.2,0-0.3,0-0.5,0l0,0c0,0,0,0,0,0
		c-0.4,0-0.8-0.1-1.2-0.1c-0.4,0-0.9,0-1.3,0c-0.6,0-1.2,0-1.9,0.1c-0.2,0-0.4,0-0.6,0c-0.4,0-0.9,0.1-1.3,0.1c-0.2,0-0.4,0-0.6,0.1
		c-0.4,0.1-0.9,0.1-1.3,0.2c-0.2,0-0.3,0.1-0.5,0.1c-0.6,0.1-1.2,0.2-1.8,0.4c0,0-0.1,0-0.1,0c-0.5,0.1-1.1,0.3-1.6,0.5
		c-0.2,0.1-0.3,0.1-0.5,0.2c-0.4,0.1-0.8,0.3-1.2,0.4c-0.2,0.1-0.3,0.1-0.5,0.2c-0.4,0.2-0.9,0.4-1.3,0.6c-0.1,0-0.2,0.1-0.3,0.1
		c-0.5,0.3-1.1,0.5-1.6,0.8c0,0,0,0-0.1,0c-0.5,0.3-1,0.6-1.5,0.9c-0.1,0.1-0.2,0.1-0.3,0.2c-0.4,0.3-0.8,0.5-1.2,0.8
		c-0.1,0.1-0.2,0.1-0.3,0.2c-0.4,0.3-0.9,0.7-1.3,1c0,0-0.1,0-0.1,0.1c-0.9,0.8-1.8,1.6-2.7,2.5c-0.1,0.1-0.1,0.1-0.2,0.2
		c-0.4,0.4-0.7,0.8-1.1,1.2c-0.1,0.1-0.1,0.1-0.2,0.2C10.6,56,7.8,63.1,7.8,70.8c0,17.3,14,31.3,31.3,31.3c0.7,0,1.4,0,2.1-0.1
		c0,0,0,0.1,0,0.1c0,6.9,2.2,13.3,6,18.5l6.4,6.5c5.3,4,11.8,6.3,18.9,6.3c10.4,0,19.5-5,25.2-12.8c0,0,0,0,0,0c0,0,0,0,0,0
		c0.4-0.6,0.9-1.2,1.3-1.9c0,0,0-0.1,0.1-0.1c0.4-0.6,0.8-1.3,1.1-2c0,0,0-0.1,0.1-0.1c0.7-1.4,1.3-2.8,1.8-4.2c0,0,0-0.1,0-0.1
		c0.5-1.5,0.9-3,1.2-4.6c0,0,0,0,0-0.1c0.3-1.8,0.5-3.6,0.5-5.5c0-0.3,0-0.5,0-0.8c2.2,0.5,4.6,0.8,6.9,0.8
		C121.1,102.1,130.3,97.1,136,89.3C135.9,89.3,135.9,89.3,136,89.3C136,89.3,136,89.3,136,89.3z"/>
	<path class="st13" d="M136.7,88.6c0.4-0.6,0.9-1.2,1.3-1.9c0,0,0.1-0.1,0.1-0.1c0.4-0.6,0.8-1.3,1.1-2c0-0.1,0.1-0.2,0.1-0.2
		c0.7-1.3,1.3-2.7,1.8-4.2c0-0.1,0.1-0.2,0.1-0.3c0.2-0.7,0.4-1.4,0.6-2.1c0-0.1,0-0.2,0.1-0.3c0.2-0.7,0.3-1.4,0.4-2
		c0-0.1,0-0.2,0.1-0.3c0.1-0.7,0.2-1.5,0.3-2.2c0-0.2,0-0.3,0-0.5c0.1-0.8,0.1-1.5,0.1-2.3c0-17.3-14-31.3-31.3-31.3
		c-2.6,0-5.2,0.3-7.6,0.9c-3-14.1-15.6-24.7-30.6-24.7c-0.6,0-1.2,0-1.8,0.1c-0.2,0-0.3,0-0.5,0c-0.6,0-1.1,0.1-1.7,0.2
		c0,0-0.1,0-0.1,0c-0.6,0.1-1.2,0.2-1.7,0.3c-0.1,0-0.3,0.1-0.4,0.1c-0.5,0.1-1.1,0.2-1.6,0.4c0,0-0.1,0-0.1,0
		c-0.6,0.1-1.1,0.3-1.7,0.5c-0.1,0-0.2,0.1-0.3,0.1c-0.5,0.2-1,0.4-1.5,0.6c0,0-0.1,0-0.1,0c-0.6,0.2-1.1,0.5-1.6,0.7
		c-0.1,0-0.2,0.1-0.2,0.1c-0.5,0.2-1,0.5-1.5,0.8c0,0-0.1,0-0.1,0c-0.5,0.3-1.1,0.6-1.6,0.9c0,0-0.1,0.1-0.1,0.1
		c-0.5,0.3-1,0.6-1.5,1c0,0,0,0,0,0c-0.5,0.4-1,0.7-1.5,1.1c0,0,0,0,0,0c-0.5,0.4-0.9,0.8-1.4,1.2c0,0,0,0,0,0
		c-1.9,1.6-3.5,3.6-4.9,5.7c0,0,0,0,0,0c0,0,0,0,0,0c-2,3-3.5,6.3-4.3,9.9c-0.2,0-0.3,0-0.5,0l0,0c0,0,0,0,0,0
		c-0.4,0-0.8-0.1-1.2-0.1c-0.4,0-0.9,0-1.3,0c-0.6,0-1.2,0-1.9,0.1c-0.2,0-0.4,0-0.6,0c-0.4,0-0.9,0.1-1.3,0.1c-0.2,0-0.4,0-0.6,0.1
		c-0.4,0.1-0.9,0.1-1.3,0.2c-0.2,0-0.3,0.1-0.5,0.1c-0.6,0.1-1.2,0.2-1.8,0.4c0,0-0.1,0-0.1,0c-0.5,0.1-1.1,0.3-1.6,0.5
		c-0.2,0.1-0.3,0.1-0.5,0.2c-0.4,0.1-0.8,0.3-1.2,0.4C28.3,41,28.2,41,28,41.1c-0.4,0.2-0.9,0.4-1.3,0.6c-0.1,0-0.2,0.1-0.3,0.1
		c-0.5,0.3-1.1,0.5-1.6,0.8c0,0,0,0-0.1,0c-0.5,0.3-1,0.6-1.5,0.9c-0.1,0.1-0.2,0.1-0.3,0.2c-0.4,0.3-0.8,0.5-1.2,0.8
		c-0.1,0.1-0.2,0.1-0.3,0.2c-0.4,0.3-0.9,0.7-1.3,1c0,0-0.1,0-0.1,0.1c-0.9,0.8-1.8,1.6-2.7,2.5c-0.1,0.1-0.1,0.1-0.2,0.2
		c-0.4,0.4-0.7,0.8-1.1,1.2c-0.1,0.1-0.1,0.1-0.2,0.2c-4.6,5.5-7.4,12.5-7.4,20.3c0,17.3,14,31.3,31.3,31.3c0.7,0,1.4,0,2.1-0.1
		c0,0,0,0.1,0,0.1c0,6.9,2.2,13.3,6,18.5l6.4,6.5c5.3,4,11.8,6.3,18.9,6.3c10.4,0,19.5-5,25.2-12.8c0,0,0,0,0,0c0,0,0,0,0,0
		c0.4-0.6,0.9-1.2,1.3-1.9c0,0,0-0.1,0.1-0.1c0.4-0.6,0.8-1.3,1.1-2c0,0,0-0.1,0.1-0.1c0.7-1.4,1.3-2.8,1.8-4.2c0,0,0-0.1,0-0.1
		c0.5-1.5,0.9-3,1.2-4.6c0,0,0,0,0-0.1c0.3-1.8,0.5-3.6,0.5-5.5c0-0.3,0-0.5,0-0.8c2.2,0.5,4.6,0.8,6.9,0.8
		C121.8,101.4,131,96.4,136.7,88.6C136.7,88.6,136.7,88.6,136.7,88.6C136.7,88.6,136.7,88.6,136.7,88.6z"/>
	<path class="st14" d="M137.4,87.9c0.4-0.6,0.9-1.2,1.3-1.9c0,0,0.1-0.1,0.1-0.1c0.4-0.6,0.8-1.3,1.1-2c0-0.1,0.1-0.2,0.1-0.2
		c0.7-1.3,1.3-2.7,1.8-4.2c0-0.1,0.1-0.2,0.1-0.3c0.2-0.7,0.4-1.4,0.6-2.1c0-0.1,0-0.2,0.1-0.3c0.2-0.7,0.3-1.4,0.4-2
		c0-0.1,0-0.2,0.1-0.3c0.1-0.7,0.2-1.5,0.3-2.2c0-0.2,0-0.3,0-0.5c0.1-0.8,0.1-1.5,0.1-2.3c0-17.3-14-31.3-31.3-31.3
		c-2.6,0-5.2,0.3-7.6,0.9c-3-14.1-15.6-24.7-30.6-24.7c-0.6,0-1.2,0-1.8,0.1c-0.2,0-0.3,0-0.5,0c-0.6,0-1.1,0.1-1.7,0.2
		c0,0-0.1,0-0.1,0c-0.6,0.1-1.2,0.2-1.7,0.3c-0.1,0-0.3,0.1-0.4,0.1c-0.5,0.1-1.1,0.2-1.6,0.4c0,0-0.1,0-0.1,0
		c-0.6,0.1-1.1,0.3-1.7,0.5c-0.1,0-0.2,0.1-0.3,0.1c-0.5,0.2-1,0.4-1.5,0.6c0,0-0.1,0-0.1,0c-0.6,0.2-1.1,0.5-1.6,0.7
		c-0.1,0-0.2,0.1-0.2,0.1c-0.5,0.2-1,0.5-1.5,0.8c0,0-0.1,0-0.1,0c-0.5,0.3-1.1,0.6-1.6,0.9c0,0-0.1,0.1-0.1,0.1
		c-0.5,0.3-1,0.6-1.5,1c0,0,0,0,0,0c-0.5,0.4-1,0.7-1.5,1.1c0,0,0,0,0,0c-0.5,0.4-0.9,0.8-1.4,1.2c0,0,0,0,0,0
		c-1.9,1.6-3.5,3.6-4.9,5.7c0,0,0,0,0,0c0,0,0,0,0,0c-2,3-3.5,6.3-4.3,9.9c-0.2,0-0.3,0-0.5,0l0,0c0,0,0,0,0,0
		c-0.4,0-0.8-0.1-1.2-0.1c-0.4,0-0.9,0-1.3,0c-0.6,0-1.2,0-1.9,0.1c-0.2,0-0.4,0-0.6,0c-0.4,0-0.9,0.1-1.3,0.1c-0.2,0-0.4,0-0.6,0.1
		c-0.4,0.1-0.9,0.1-1.3,0.2c-0.2,0-0.3,0.1-0.5,0.1c-0.6,0.1-1.2,0.2-1.8,0.4c0,0-0.1,0-0.1,0c-0.5,0.1-1.1,0.3-1.6,0.5
		c-0.2,0.1-0.3,0.1-0.5,0.2c-0.4,0.1-0.8,0.3-1.2,0.4c-0.2,0.1-0.3,0.1-0.5,0.2c-0.4,0.2-0.9,0.4-1.3,0.6c-0.1,0-0.2,0.1-0.3,0.1
		c-0.5,0.3-1.1,0.5-1.6,0.8c0,0,0,0-0.1,0c-0.5,0.3-1,0.6-1.5,0.9c-0.1,0.1-0.2,0.1-0.3,0.2c-0.4,0.3-0.8,0.5-1.2,0.8
		c-0.1,0.1-0.2,0.1-0.3,0.2c-0.4,0.3-0.9,0.7-1.3,1c0,0-0.1,0-0.1,0.1c-0.9,0.8-1.8,1.6-2.7,2.5c-0.1,0.1-0.1,0.1-0.2,0.2
		c-0.4,0.4-0.7,0.8-1.1,1.2c-0.1,0.1-0.1,0.1-0.2,0.2C12,54.6,9.2,61.7,9.2,69.4c0,17.3,14,31.3,31.3,31.3c0.7,0,1.4,0,2.1-0.1
		c0,0,0,0.1,0,0.1c0,6.9,2.2,13.3,6,18.5l6.4,6.5c5.3,4,11.8,6.3,18.9,6.3c10.4,0,19.5-5,25.2-12.8c0,0,0,0,0,0c0,0,0,0,0,0
		c0.4-0.6,0.9-1.2,1.3-1.9c0,0,0-0.1,0.1-0.1c0.4-0.6,0.8-1.3,1.1-2c0,0,0-0.1,0.1-0.1c0.7-1.4,1.3-2.8,1.8-4.2c0,0,0-0.1,0-0.1
		c0.5-1.5,0.9-3,1.2-4.6c0,0,0,0,0-0.1c0.3-1.8,0.5-3.6,0.5-5.5c0-0.3,0-0.5,0-0.8c2.2,0.5,4.6,0.8,6.9,0.8
		C122.5,100.7,131.7,95.7,137.4,87.9C137.4,87.9,137.4,87.9,137.4,87.9C137.4,87.9,137.4,87.9,137.4,87.9z"/>
	<path class="st15" d="M138.1,87.2c0.4-0.6,0.9-1.2,1.3-1.9c0,0,0.1-0.1,0.1-0.1c0.4-0.6,0.8-1.3,1.1-2c0-0.1,0.1-0.2,0.1-0.2
		c0.7-1.3,1.3-2.7,1.8-4.2c0-0.1,0.1-0.2,0.1-0.3c0.2-0.7,0.4-1.4,0.6-2.1c0-0.1,0-0.2,0.1-0.3c0.2-0.7,0.3-1.4,0.4-2
		c0-0.1,0-0.2,0.1-0.3c0.1-0.7,0.2-1.5,0.3-2.2c0-0.2,0-0.3,0-0.5c0.1-0.8,0.1-1.5,0.1-2.3c0-17.3-14-31.3-31.3-31.3
		c-2.6,0-5.2,0.3-7.6,0.9c-3-14.1-15.6-24.7-30.6-24.7c-0.6,0-1.2,0-1.8,0.1c-0.2,0-0.3,0-0.5,0c-0.6,0-1.1,0.1-1.7,0.2
		c0,0-0.1,0-0.1,0c-0.6,0.1-1.2,0.2-1.7,0.3c-0.1,0-0.3,0.1-0.4,0.1c-0.5,0.1-1.1,0.2-1.6,0.4c0,0-0.1,0-0.1,0
		c-0.6,0.1-1.1,0.3-1.7,0.5c-0.1,0-0.2,0.1-0.3,0.1c-0.5,0.2-1,0.4-1.5,0.6c0,0-0.1,0-0.1,0c-0.6,0.2-1.1,0.5-1.6,0.7
		c-0.1,0-0.2,0.1-0.2,0.1c-0.5,0.2-1,0.5-1.5,0.8c0,0-0.1,0-0.1,0c-0.5,0.3-1.1,0.6-1.6,0.9c0,0-0.1,0.1-0.1,0.1
		c-0.5,0.3-1,0.6-1.5,1c0,0,0,0,0,0c-0.5,0.4-1,0.7-1.5,1.1c0,0,0,0,0,0c-0.5,0.4-0.9,0.8-1.4,1.2c0,0,0,0,0,0
		c-1.9,1.6-3.5,3.6-4.9,5.7c0,0,0,0,0,0c0,0,0,0,0,0c-2,3-3.5,6.3-4.3,9.9c-0.2,0-0.3,0-0.5,0l0,0c0,0,0,0,0,0
		c-0.4,0-0.8-0.1-1.2-0.1c-0.4,0-0.9,0-1.3,0c-0.6,0-1.2,0-1.9,0.1c-0.2,0-0.4,0-0.6,0c-0.4,0-0.9,0.1-1.3,0.1c-0.2,0-0.4,0-0.6,0.1
		c-0.4,0.1-0.9,0.1-1.3,0.2c-0.2,0-0.3,0.1-0.5,0.1c-0.6,0.1-1.2,0.2-1.8,0.4c0,0-0.1,0-0.1,0c-0.5,0.1-1.1,0.3-1.6,0.5
		c-0.2,0.1-0.3,0.1-0.5,0.2c-0.4,0.1-0.8,0.3-1.2,0.4c-0.2,0.1-0.3,0.1-0.5,0.2c-0.4,0.2-0.9,0.4-1.3,0.6c-0.1,0-0.2,0.1-0.3,0.1
		c-0.5,0.3-1.1,0.5-1.6,0.8c0,0,0,0-0.1,0c-0.5,0.3-1,0.6-1.5,0.9c-0.1,0.1-0.2,0.1-0.3,0.2c-0.4,0.3-0.8,0.5-1.2,0.8
		c-0.1,0.1-0.2,0.1-0.3,0.2c-0.4,0.3-0.9,0.7-1.3,1c0,0-0.1,0-0.1,0.1c-0.9,0.8-1.8,1.6-2.7,2.5c-0.1,0.1-0.1,0.1-0.2,0.2
		c-0.4,0.4-0.7,0.8-1.1,1.2c-0.1,0.1-0.1,0.1-0.2,0.2c-4.6,5.5-7.4,12.5-7.4,20.3c0,17.3,14,31.3,31.3,31.3c0.7,0,1.4,0,2.1-0.1
		c0,0,0,0.1,0,0.1c0,6.9,2.2,13.3,6,18.5l6.4,6.5c5.3,4,11.8,6.3,18.9,6.3c10.4,0,19.5-5,25.2-12.8c0,0,0,0,0,0c0,0,0,0,0,0
		c0.4-0.6,0.9-1.2,1.3-1.9c0,0,0-0.1,0.1-0.1c0.4-0.6,0.8-1.3,1.1-2c0,0,0-0.1,0.1-0.1c0.7-1.4,1.3-2.8,1.8-4.2c0,0,0-0.1,0-0.1
		c0.5-1.5,0.9-3,1.2-4.6c0,0,0,0,0-0.1c0.3-1.8,0.5-3.6,0.5-5.5c0-0.3,0-0.5,0-0.8c2.2,0.5,4.6,0.8,6.9,0.8
		C123.2,100,132.4,94.9,138.1,87.2C138.1,87.2,138.1,87.2,138.1,87.2C138.1,87.2,138.1,87.2,138.1,87.2z"/>
	<path class="st16" d="M138.8,86.4c0.4-0.6,0.9-1.2,1.3-1.9c0,0,0.1-0.1,0.1-0.1c0.4-0.6,0.8-1.3,1.1-2c0-0.1,0.1-0.2,0.1-0.2
		c0.7-1.3,1.3-2.7,1.8-4.2c0-0.1,0.1-0.2,0.1-0.3c0.2-0.7,0.4-1.4,0.6-2.1c0-0.1,0-0.2,0.1-0.3c0.2-0.7,0.3-1.4,0.4-2
		c0-0.1,0-0.2,0.1-0.3c0.1-0.7,0.2-1.5,0.3-2.2c0-0.2,0-0.3,0-0.5c0.1-0.8,0.1-1.5,0.1-2.3c0-17.3-14-31.3-31.3-31.3
		c-2.6,0-5.2,0.3-7.6,0.9c-3-14.1-15.6-24.7-30.6-24.7c-0.6,0-1.2,0-1.8,0.1c-0.2,0-0.3,0-0.5,0c-0.6,0-1.1,0.1-1.7,0.2
		c0,0-0.1,0-0.1,0c-0.6,0.1-1.2,0.2-1.7,0.3c-0.1,0-0.3,0.1-0.4,0.1c-0.5,0.1-1.1,0.2-1.6,0.4c0,0-0.1,0-0.1,0
		c-0.6,0.1-1.1,0.3-1.7,0.5c-0.1,0-0.2,0.1-0.3,0.1c-0.5,0.2-1,0.4-1.5,0.6c0,0-0.1,0-0.1,0c-0.6,0.2-1.1,0.5-1.6,0.7
		c-0.1,0-0.2,0.1-0.2,0.1c-0.5,0.2-1,0.5-1.5,0.8c0,0-0.1,0-0.1,0c-0.5,0.3-1.1,0.6-1.6,0.9c0,0-0.1,0.1-0.1,0.1
		c-0.5,0.3-1,0.6-1.5,1c0,0,0,0,0,0c-0.5,0.4-1,0.7-1.5,1.1c0,0,0,0,0,0c-0.5,0.4-0.9,0.8-1.4,1.2c0,0,0,0,0,0
		c-1.9,1.6-3.5,3.6-4.9,5.7c0,0,0,0,0,0c0,0,0,0,0,0c-2,3-3.5,6.3-4.3,9.9c-0.2,0-0.3,0-0.5,0l0,0c0,0,0,0,0,0
		c-0.4,0-0.8-0.1-1.2-0.1c-0.4,0-0.9,0-1.3,0c-0.6,0-1.2,0-1.9,0.1c-0.2,0-0.4,0-0.6,0c-0.4,0-0.9,0.1-1.3,0.1c-0.2,0-0.4,0-0.6,0.1
		c-0.4,0.1-0.9,0.1-1.3,0.2c-0.2,0-0.3,0.1-0.5,0.1c-0.6,0.1-1.2,0.2-1.8,0.4c0,0-0.1,0-0.1,0c-0.5,0.1-1.1,0.3-1.6,0.5
		c-0.2,0.1-0.3,0.1-0.5,0.2c-0.4,0.1-0.8,0.3-1.2,0.4c-0.2,0.1-0.3,0.1-0.5,0.2c-0.4,0.2-0.9,0.4-1.3,0.6c-0.1,0-0.2,0.1-0.3,0.1
		c-0.5,0.3-1.1,0.5-1.6,0.8c0,0,0,0-0.1,0c-0.5,0.3-1,0.6-1.5,0.9c-0.1,0.1-0.2,0.1-0.3,0.2c-0.4,0.3-0.8,0.5-1.2,0.8
		c-0.1,0.1-0.2,0.1-0.3,0.2c-0.4,0.3-0.9,0.7-1.3,1c0,0-0.1,0-0.1,0.1c-0.9,0.8-1.8,1.6-2.7,2.5c-0.1,0.1-0.1,0.1-0.2,0.2
		c-0.4,0.4-0.7,0.8-1.1,1.2c-0.1,0.1-0.1,0.1-0.2,0.2c-4.6,5.5-7.4,12.5-7.4,20.3c0,17.3,14,31.3,31.3,31.3c0.7,0,1.4,0,2.1-0.1
		c0,0,0,0.1,0,0.1c0,6.9,2.2,13.3,6,18.5l6.4,6.5c5.3,4,11.8,6.3,18.9,6.3c10.4,0,19.5-5,25.2-12.8c0,0,0,0,0,0c0,0,0,0,0,0
		c0.4-0.6,0.9-1.2,1.3-1.9c0,0,0-0.1,0.1-0.1c0.4-0.6,0.8-1.3,1.1-2c0,0,0-0.1,0.1-0.1c0.7-1.4,1.3-2.8,1.8-4.2c0,0,0-0.1,0-0.1
		c0.5-1.5,0.9-3,1.2-4.6c0,0,0,0,0-0.1c0.3-1.8,0.5-3.6,0.5-5.5c0-0.3,0-0.5,0-0.8c2.2,0.5,4.6,0.8,6.9,0.8
		C123.9,99.3,133.1,94.2,138.8,86.4C138.8,86.5,138.8,86.5,138.8,86.4C138.8,86.5,138.8,86.4,138.8,86.4z"/>
	<path class="st17" d="M139.5,85.7c0.4-0.6,0.9-1.2,1.3-1.9c0,0,0.1-0.1,0.1-0.1c0.4-0.6,0.8-1.3,1.1-2c0-0.1,0.1-0.2,0.1-0.2
		c0.7-1.3,1.3-2.7,1.8-4.2c0-0.1,0.1-0.2,0.1-0.3c0.2-0.7,0.4-1.4,0.6-2.1c0-0.1,0-0.2,0.1-0.3c0.2-0.7,0.3-1.4,0.4-2
		c0-0.1,0-0.2,0.1-0.3c0.1-0.7,0.2-1.5,0.3-2.2c0-0.2,0-0.3,0-0.5c0.1-0.8,0.1-1.5,0.1-2.3c0-17.3-14-31.3-31.3-31.3
		c-2.6,0-5.2,0.3-7.6,0.9c-3-14.1-15.6-24.7-30.6-24.7c-0.6,0-1.2,0-1.8,0.1c-0.2,0-0.3,0-0.5,0c-0.6,0-1.1,0.1-1.7,0.2
		c0,0-0.1,0-0.1,0c-0.6,0.1-1.2,0.2-1.7,0.3c-0.1,0-0.3,0.1-0.4,0.1c-0.5,0.1-1.1,0.2-1.6,0.4c0,0-0.1,0-0.1,0
		c-0.6,0.1-1.1,0.3-1.7,0.5c-0.1,0-0.2,0.1-0.3,0.1c-0.5,0.2-1,0.4-1.5,0.6c0,0-0.1,0-0.1,0c-0.6,0.2-1.1,0.5-1.6,0.7
		c-0.1,0-0.2,0.1-0.2,0.1c-0.5,0.2-1,0.5-1.5,0.8c0,0-0.1,0-0.1,0c-0.5,0.3-1.1,0.6-1.6,0.9c0,0-0.1,0.1-0.1,0.1
		c-0.5,0.3-1,0.6-1.5,1c0,0,0,0,0,0c-0.5,0.4-1,0.7-1.5,1.1c0,0,0,0,0,0c-0.5,0.4-0.9,0.8-1.4,1.2c0,0,0,0,0,0
		c-1.9,1.6-3.5,3.6-4.9,5.7c0,0,0,0,0,0c0,0,0,0,0,0c-2,3-3.5,6.3-4.3,9.9c-0.2,0-0.3,0-0.5,0l0,0c0,0,0,0,0,0
		c-0.4,0-0.8-0.1-1.2-0.1c-0.4,0-0.9,0-1.3,0c-0.6,0-1.2,0-1.9,0.1c-0.2,0-0.4,0-0.6,0c-0.4,0-0.9,0.1-1.3,0.1c-0.2,0-0.4,0-0.6,0.1
		c-0.4,0.1-0.9,0.1-1.3,0.2c-0.2,0-0.3,0.1-0.5,0.1c-0.6,0.1-1.2,0.2-1.8,0.4c0,0-0.1,0-0.1,0c-0.5,0.1-1.1,0.3-1.6,0.5
		c-0.2,0.1-0.3,0.1-0.5,0.2c-0.4,0.1-0.8,0.3-1.2,0.4c-0.2,0.1-0.3,0.1-0.5,0.2c-0.4,0.2-0.9,0.4-1.3,0.6c-0.1,0-0.2,0.1-0.3,0.1
		c-0.5,0.3-1.1,0.5-1.6,0.8c0,0,0,0-0.1,0c-0.5,0.3-1,0.6-1.5,0.9c-0.1,0.1-0.2,0.1-0.3,0.2c-0.4,0.3-0.8,0.5-1.2,0.8
		c-0.1,0.1-0.2,0.1-0.3,0.2c-0.4,0.3-0.9,0.7-1.3,1c0,0-0.1,0-0.1,0.1c-0.9,0.8-1.8,1.6-2.7,2.5c-0.1,0.1-0.1,0.1-0.2,0.2
		c-0.4,0.4-0.7,0.8-1.1,1.2c-0.1,0.1-0.1,0.1-0.2,0.2c-4.6,5.5-7.4,12.5-7.4,20.3c0,17.3,14,31.3,31.3,31.3c0.7,0,1.4,0,2.1-0.1
		c0,0,0,0.1,0,0.1c0,6.9,2.2,13.3,6,18.5l6.4,6.5c5.3,4,11.8,6.3,18.9,6.3c10.4,0,19.5-5,25.2-12.8c0,0,0,0,0,0c0,0,0,0,0,0
		c0.4-0.6,0.9-1.2,1.3-1.9c0,0,0-0.1,0.1-0.1c0.4-0.6,0.8-1.3,1.1-2c0,0,0-0.1,0.1-0.1c0.7-1.4,1.3-2.8,1.8-4.2c0,0,0-0.1,0-0.1
		c0.5-1.5,0.9-3,1.2-4.6c0,0,0,0,0-0.1c0.3-1.8,0.5-3.6,0.5-5.5c0-0.3,0-0.5,0-0.8c2.2,0.5,4.6,0.8,6.9,0.8
		C124.6,98.5,133.8,93.5,139.5,85.7C139.5,85.8,139.5,85.8,139.5,85.7C139.5,85.7,139.5,85.7,139.5,85.7z"/>
	<path class="st18" d="M140.3,85c0.4-0.6,0.9-1.2,1.3-1.9c0,0,0.1-0.1,0.1-0.1c0.4-0.6,0.8-1.3,1.1-2c0-0.1,0.1-0.2,0.1-0.2
		c0.7-1.3,1.3-2.7,1.8-4.2c0-0.1,0.1-0.2,0.1-0.3c0.2-0.7,0.4-1.4,0.6-2.1c0-0.1,0-0.2,0.1-0.3c0.2-0.7,0.3-1.4,0.4-2
		c0-0.1,0-0.2,0.1-0.3c0.1-0.7,0.2-1.5,0.3-2.2c0-0.2,0-0.3,0-0.5c0.1-0.8,0.1-1.5,0.1-2.3c0-17.3-14-31.3-31.3-31.3
		c-2.6,0-5.2,0.3-7.6,0.9c-3-14.1-15.6-24.7-30.6-24.7c-0.6,0-1.2,0-1.8,0.1c-0.2,0-0.3,0-0.5,0c-0.6,0-1.1,0.1-1.7,0.2
		c0,0-0.1,0-0.1,0c-0.6,0.1-1.2,0.2-1.7,0.3c-0.1,0-0.3,0.1-0.4,0.1c-0.5,0.1-1.1,0.2-1.6,0.4c0,0-0.1,0-0.1,0
		c-0.6,0.1-1.1,0.3-1.7,0.5c-0.1,0-0.2,0.1-0.3,0.1c-0.5,0.2-1,0.4-1.5,0.6c0,0-0.1,0-0.1,0c-0.6,0.2-1.1,0.5-1.6,0.7
		c-0.1,0-0.2,0.1-0.2,0.1c-0.5,0.2-1,0.5-1.5,0.8c0,0-0.1,0-0.1,0c-0.5,0.3-1.1,0.6-1.6,0.9c0,0-0.1,0.1-0.1,0.1
		c-0.5,0.3-1,0.6-1.5,1c0,0,0,0,0,0c-0.5,0.4-1,0.7-1.5,1.1c0,0,0,0,0,0c-0.5,0.4-0.9,0.8-1.4,1.2c0,0,0,0,0,0
		c-1.9,1.6-3.5,3.6-4.9,5.7c0,0,0,0,0,0c0,0,0,0,0,0c-2,3-3.5,6.3-4.3,9.9c-0.2,0-0.3,0-0.5,0l0,0c0,0,0,0,0,0
		c-0.4,0-0.8-0.1-1.2-0.1c-0.4,0-0.9,0-1.3,0c-0.6,0-1.2,0-1.9,0.1c-0.2,0-0.4,0-0.6,0c-0.4,0-0.9,0.1-1.3,0.1c-0.2,0-0.4,0-0.6,0.1
		c-0.4,0.1-0.9,0.1-1.3,0.2c-0.2,0-0.3,0.1-0.5,0.1c-0.6,0.1-1.2,0.2-1.8,0.4c0,0-0.1,0-0.1,0c-0.5,0.1-1.1,0.3-1.6,0.5
		c-0.2,0.1-0.3,0.1-0.5,0.2c-0.4,0.1-0.8,0.3-1.2,0.4c-0.2,0.1-0.3,0.1-0.5,0.2c-0.4,0.2-0.9,0.4-1.3,0.6c-0.1,0-0.2,0.1-0.3,0.1
		c-0.5,0.3-1.1,0.5-1.6,0.8c0,0,0,0-0.1,0c-0.5,0.3-1,0.6-1.5,0.9c-0.1,0.1-0.2,0.1-0.3,0.2c-0.4,0.3-0.8,0.5-1.2,0.8
		c-0.1,0.1-0.2,0.1-0.3,0.2c-0.4,0.3-0.9,0.7-1.3,1c0,0-0.1,0-0.1,0.1c-0.9,0.8-1.8,1.6-2.7,2.5c-0.1,0.1-0.1,0.1-0.2,0.2
		c-0.4,0.4-0.7,0.8-1.1,1.2c-0.1,0.1-0.1,0.1-0.2,0.2C14.9,51.7,12,58.8,12,66.5c0,17.3,14,31.3,31.3,31.3c0.7,0,1.4,0,2.1-0.1
		c0,0,0,0.1,0,0.1c0,6.9,2.2,13.3,6,18.5l6.4,6.5c5.3,4,11.8,6.3,18.9,6.3c10.4,0,19.5-5,25.2-12.8c0,0,0,0,0,0c0,0,0,0,0,0
		c0.4-0.6,0.9-1.2,1.3-1.9c0,0,0-0.1,0.1-0.1c0.4-0.6,0.8-1.3,1.1-2c0,0,0-0.1,0.1-0.1c0.7-1.4,1.3-2.8,1.8-4.2c0,0,0-0.1,0-0.1
		c0.5-1.5,0.9-3,1.2-4.6c0,0,0,0,0-0.1c0.3-1.8,0.5-3.6,0.5-5.5c0-0.3,0-0.5,0-0.8c2.2,0.5,4.6,0.8,6.9,0.8
		C125.4,97.8,134.5,92.8,140.3,85C140.2,85,140.2,85,140.3,85C140.2,85,140.3,85,140.3,85z"/>
	<path class="st19" d="M141,84.3c0.4-0.6,0.9-1.2,1.3-1.9c0,0,0.1-0.1,0.1-0.1c0.4-0.6,0.8-1.3,1.1-2c0-0.1,0.1-0.2,0.1-0.2
		c0.7-1.3,1.3-2.7,1.8-4.2c0-0.1,0.1-0.2,0.1-0.3c0.2-0.7,0.4-1.4,0.6-2.1c0-0.1,0-0.2,0.1-0.3c0.2-0.7,0.3-1.4,0.4-2
		c0-0.1,0-0.2,0.1-0.3c0.1-0.7,0.2-1.5,0.3-2.2c0-0.2,0-0.3,0-0.5c0.1-0.8,0.1-1.5,0.1-2.3c0-17.3-14-31.3-31.3-31.3
		c-2.6,0-5.2,0.3-7.6,0.9c-3-14.1-15.6-24.7-30.6-24.7c-0.6,0-1.2,0-1.8,0.1c-0.2,0-0.3,0-0.5,0c-0.6,0-1.1,0.1-1.7,0.2
		c0,0-0.1,0-0.1,0c-0.6,0.1-1.2,0.2-1.7,0.3c-0.1,0-0.3,0.1-0.4,0.1c-0.5,0.1-1.1,0.2-1.6,0.4c0,0-0.1,0-0.1,0
		c-0.6,0.1-1.1,0.3-1.7,0.5c-0.1,0-0.2,0.1-0.3,0.1c-0.5,0.2-1,0.4-1.5,0.6c0,0-0.1,0-0.1,0c-0.6,0.2-1.1,0.5-1.6,0.7
		c-0.1,0-0.2,0.1-0.2,0.1c-0.5,0.2-1,0.5-1.5,0.8c0,0-0.1,0-0.1,0c-0.5,0.3-1.1,0.6-1.6,0.9c0,0-0.1,0.1-0.1,0.1
		c-0.5,0.3-1,0.6-1.5,1c0,0,0,0,0,0c-0.5,0.4-1,0.7-1.5,1.1c0,0,0,0,0,0c-0.5,0.4-0.9,0.8-1.4,1.2c0,0,0,0,0,0
		c-1.9,1.6-3.5,3.6-4.9,5.7c0,0,0,0,0,0c0,0,0,0,0,0c-2,3-3.5,6.3-4.3,9.9c-0.2,0-0.3,0-0.5,0l0,0c0,0,0,0,0,0
		c-0.4,0-0.8-0.1-1.2-0.1c-0.4,0-0.9,0-1.3,0c-0.6,0-1.2,0-1.9,0.1c-0.2,0-0.4,0-0.6,0c-0.4,0-0.9,0.1-1.3,0.1c-0.2,0-0.4,0-0.6,0.1
		c-0.4,0.1-0.9,0.1-1.3,0.2c-0.2,0-0.3,0.1-0.5,0.1c-0.6,0.1-1.2,0.2-1.8,0.4c0,0-0.1,0-0.1,0c-0.5,0.1-1.1,0.3-1.6,0.5
		c-0.2,0.1-0.3,0.1-0.5,0.2c-0.4,0.1-0.8,0.3-1.2,0.4c-0.2,0.1-0.3,0.1-0.5,0.2c-0.4,0.2-0.9,0.4-1.3,0.6c-0.1,0-0.2,0.1-0.3,0.1
		c-0.5,0.3-1.1,0.5-1.6,0.8c0,0,0,0-0.1,0c-0.5,0.3-1,0.6-1.5,0.9c-0.1,0.1-0.2,0.1-0.3,0.2c-0.4,0.3-0.8,0.5-1.2,0.8
		c-0.1,0.1-0.2,0.1-0.3,0.2c-0.4,0.3-0.9,0.7-1.3,1c0,0-0.1,0-0.1,0.1c-0.9,0.8-1.8,1.6-2.7,2.5c-0.1,0.1-0.1,0.1-0.2,0.2
		c-0.4,0.4-0.7,0.8-1.1,1.2c-0.1,0.1-0.1,0.1-0.2,0.2c-4.6,5.5-7.4,12.5-7.4,20.3c0,17.3,14,31.3,31.3,31.3c0.7,0,1.4,0,2.1-0.1
		c0,0,0,0.1,0,0.1c0,6.9,2.2,13.3,6,18.5l6.4,6.5c5.3,4,11.8,6.3,18.9,6.3c10.4,0,19.5-5,25.2-12.8c0,0,0,0,0,0c0,0,0,0,0,0
		c0.4-0.6,0.9-1.2,1.3-1.9c0,0,0-0.1,0.1-0.1c0.4-0.6,0.8-1.3,1.1-2c0,0,0-0.1,0.1-0.1c0.7-1.4,1.3-2.8,1.8-4.2c0,0,0-0.1,0-0.1
		c0.5-1.5,0.9-3,1.2-4.6c0,0,0,0,0-0.1c0.3-1.8,0.5-3.6,0.5-5.5c0-0.3,0-0.5,0-0.8c2.2,0.5,4.6,0.8,6.9,0.8
		C126.1,97.1,135.3,92.1,141,84.3C141,84.3,141,84.3,141,84.3C141,84.3,141,84.3,141,84.3z"/>
	<path class="st20" d="M141.7,83.6c0.4-0.6,0.9-1.2,1.3-1.9c0,0,0.1-0.1,0.1-0.1c0.4-0.6,0.8-1.3,1.1-2c0-0.1,0.1-0.2,0.1-0.2
		c0.7-1.3,1.3-2.7,1.8-4.2c0-0.1,0.1-0.2,0.1-0.3c0.2-0.7,0.4-1.4,0.6-2.1c0-0.1,0-0.2,0.1-0.3c0.2-0.7,0.3-1.4,0.4-2
		c0-0.1,0-0.2,0.1-0.3c0.1-0.7,0.2-1.5,0.3-2.2c0-0.2,0-0.3,0-0.5c0.1-0.8,0.1-1.5,0.1-2.3c0-17.3-14-31.3-31.3-31.3
		c-2.6,0-5.2,0.3-7.6,0.9c-3-14.1-15.6-24.7-30.6-24.7c-0.6,0-1.2,0-1.8,0.1c-0.2,0-0.3,0-0.5,0c-0.6,0-1.1,0.1-1.7,0.2
		c0,0-0.1,0-0.1,0c-0.6,0.1-1.2,0.2-1.7,0.3c-0.1,0-0.3,0.1-0.4,0.1c-0.5,0.1-1.1,0.2-1.6,0.4c0,0-0.1,0-0.1,0
		c-0.6,0.1-1.1,0.3-1.7,0.5c-0.1,0-0.2,0.1-0.3,0.1c-0.5,0.2-1,0.4-1.5,0.6c0,0-0.1,0-0.1,0c-0.6,0.2-1.1,0.5-1.6,0.7
		c-0.1,0-0.2,0.1-0.2,0.1c-0.5,0.2-1,0.5-1.5,0.8c0,0-0.1,0-0.1,0c-0.5,0.3-1.1,0.6-1.6,0.9c0,0-0.1,0.1-0.1,0.1
		c-0.5,0.3-1,0.6-1.5,1c0,0,0,0,0,0c-0.5,0.4-1,0.7-1.5,1.1c0,0,0,0,0,0c-0.5,0.4-0.9,0.8-1.4,1.2c0,0,0,0,0,0
		c-1.9,1.6-3.5,3.6-4.9,5.7c0,0,0,0,0,0c0,0,0,0,0,0c-2,3-3.5,6.3-4.3,9.9c-0.2,0-0.3,0-0.5,0l0,0c0,0,0,0,0,0
		c-0.4,0-0.8-0.1-1.2-0.1c-0.4,0-0.9,0-1.3,0c-0.6,0-1.2,0-1.9,0.1c-0.2,0-0.4,0-0.6,0c-0.4,0-0.9,0.1-1.3,0.1c-0.2,0-0.4,0-0.6,0.1
		c-0.4,0.1-0.9,0.1-1.3,0.2c-0.2,0-0.3,0.1-0.5,0.1c-0.6,0.1-1.2,0.2-1.8,0.4c0,0-0.1,0-0.1,0c-0.5,0.1-1.1,0.3-1.6,0.5
		c-0.2,0.1-0.3,0.1-0.5,0.2c-0.4,0.1-0.8,0.3-1.2,0.4C33.3,36,33.2,36,33,36.1c-0.4,0.2-0.9,0.4-1.3,0.6c-0.1,0-0.2,0.1-0.3,0.1
		c-0.5,0.3-1.1,0.5-1.6,0.8c0,0,0,0-0.1,0c-0.5,0.3-1,0.6-1.5,0.9c-0.1,0.1-0.2,0.1-0.3,0.2c-0.4,0.3-0.8,0.5-1.2,0.8
		c-0.1,0.1-0.2,0.1-0.3,0.2c-0.4,0.3-0.9,0.7-1.3,1c0,0-0.1,0-0.1,0.1c-0.9,0.8-1.8,1.6-2.7,2.5c-0.1,0.1-0.1,0.1-0.2,0.2
		c-0.4,0.4-0.7,0.8-1.1,1.2c-0.1,0.1-0.1,0.1-0.2,0.2c-4.6,5.5-7.4,12.5-7.4,20.3c0,17.3,14,31.3,31.3,31.3c0.7,0,1.4,0,2.1-0.1
		c0,0,0,0.1,0,0.1c0,6.9,2.2,13.3,6,18.5l6.4,6.5c5.3,4,11.8,6.3,18.9,6.3c10.4,0,19.5-5,25.2-12.8c0,0,0,0,0,0c0,0,0,0,0,0
		c0.4-0.6,0.9-1.2,1.3-1.9c0,0,0-0.1,0.1-0.1c0.4-0.6,0.8-1.3,1.1-2c0,0,0-0.1,0.1-0.1c0.7-1.4,1.3-2.8,1.8-4.2c0,0,0-0.1,0-0.1
		c0.5-1.5,0.9-3,1.2-4.6c0,0,0,0,0-0.1c0.3-1.8,0.5-3.6,0.5-5.5c0-0.3,0-0.5,0-0.8c2.2,0.5,4.6,0.8,6.9,0.8
		C126.8,96.4,136,91.4,141.7,83.6C141.7,83.6,141.7,83.6,141.7,83.6C141.7,83.6,141.7,83.6,141.7,83.6z"/>
	<path class="st21" d="M142.4,82.9c0.4-0.6,0.9-1.2,1.3-1.9c0,0,0.1-0.1,0.1-0.1c0.4-0.6,0.8-1.3,1.1-2c0-0.1,0.1-0.2,0.1-0.2
		c0.7-1.3,1.3-2.7,1.8-4.2c0-0.1,0.1-0.2,0.1-0.3c0.2-0.7,0.4-1.4,0.6-2.1c0-0.1,0-0.2,0.1-0.3c0.2-0.7,0.3-1.4,0.4-2
		c0-0.1,0-0.2,0.1-0.3c0.1-0.7,0.2-1.5,0.3-2.2c0-0.2,0-0.3,0-0.5c0.1-0.8,0.1-1.5,0.1-2.3c0-17.3-14-31.3-31.3-31.3
		c-2.6,0-5.2,0.3-7.6,0.9c-3-14.1-15.6-24.7-30.6-24.7c-0.6,0-1.2,0-1.8,0.1c-0.2,0-0.3,0-0.5,0c-0.6,0-1.1,0.1-1.7,0.2
		c0,0-0.1,0-0.1,0c-0.6,0.1-1.2,0.2-1.7,0.3c-0.1,0-0.3,0.1-0.4,0.1c-0.5,0.1-1.1,0.2-1.6,0.4c0,0-0.1,0-0.1,0
		c-0.6,0.1-1.1,0.3-1.7,0.5c-0.1,0-0.2,0.1-0.3,0.1c-0.5,0.2-1,0.4-1.5,0.6c0,0-0.1,0-0.1,0c-0.6,0.2-1.1,0.5-1.6,0.7
		c-0.1,0-0.2,0.1-0.2,0.1c-0.5,0.2-1,0.5-1.5,0.8c0,0-0.1,0-0.1,0c-0.5,0.3-1.1,0.6-1.6,0.9c0,0-0.1,0.1-0.1,0.1
		c-0.5,0.3-1,0.6-1.5,1c0,0,0,0,0,0c-0.5,0.4-1,0.7-1.5,1.1c0,0,0,0,0,0c-0.5,0.4-0.9,0.8-1.4,1.2c0,0,0,0,0,0
		c-1.9,1.6-3.5,3.6-4.9,5.7c0,0,0,0,0,0c0,0,0,0,0,0c-2,3-3.5,6.3-4.3,9.9c-0.2,0-0.3,0-0.5,0l0,0c0,0,0,0,0,0
		c-0.4,0-0.8-0.1-1.2-0.1c-0.4,0-0.9,0-1.3,0c-0.6,0-1.2,0-1.9,0.1c-0.2,0-0.4,0-0.6,0c-0.4,0-0.9,0.1-1.3,0.1c-0.2,0-0.4,0-0.6,0.1
		c-0.4,0.1-0.9,0.1-1.3,0.2c-0.2,0-0.3,0.1-0.5,0.1c-0.6,0.1-1.2,0.2-1.8,0.4c0,0-0.1,0-0.1,0c-0.5,0.1-1.1,0.3-1.6,0.5
		c-0.2,0.1-0.3,0.1-0.5,0.2c-0.4,0.1-0.8,0.3-1.2,0.4c-0.2,0.1-0.3,0.1-0.5,0.2c-0.4,0.2-0.9,0.4-1.3,0.6c-0.1,0-0.2,0.1-0.3,0.1
		c-0.5,0.3-1.1,0.5-1.6,0.8c0,0,0,0-0.1,0c-0.5,0.3-1,0.6-1.5,0.9c-0.1,0.1-0.2,0.1-0.3,0.2c-0.4,0.3-0.8,0.5-1.2,0.8
		c-0.1,0.1-0.2,0.1-0.3,0.2c-0.4,0.3-0.9,0.7-1.3,1c0,0-0.1,0-0.1,0.1c-0.9,0.8-1.8,1.6-2.7,2.5c-0.1,0.1-0.1,0.1-0.2,0.2
		c-0.4,0.4-0.7,0.8-1.1,1.2c-0.1,0.1-0.1,0.1-0.2,0.2c-4.6,5.5-7.4,12.5-7.4,20.3c0,17.3,14,31.3,31.3,31.3c0.7,0,1.4,0,2.1-0.1
		c0,0,0,0.1,0,0.1c0,6.9,2.2,13.3,6,18.5l6.4,6.5c5.3,4,11.8,6.3,18.9,6.3c10.4,0,19.5-5,25.2-12.8c0,0,0,0,0,0c0,0,0,0,0,0
		c0.4-0.6,0.9-1.2,1.3-1.9c0,0,0-0.1,0.1-0.1c0.4-0.6,0.8-1.3,1.1-2c0,0,0-0.1,0.1-0.1c0.7-1.4,1.3-2.8,1.8-4.2c0,0,0-0.1,0-0.1
		c0.5-1.5,0.9-3,1.2-4.6c0,0,0,0,0-0.1c0.3-1.8,0.5-3.6,0.5-5.5c0-0.3,0-0.5,0-0.8c2.2,0.5,4.6,0.8,6.9,0.8
		C127.5,95.7,136.7,90.6,142.4,82.9C142.4,82.9,142.4,82.9,142.4,82.9C142.4,82.9,142.4,82.9,142.4,82.9z"/>
	<path class="st22" d="M143.1,82.1c0.4-0.6,0.9-1.2,1.3-1.9c0,0,0.1-0.1,0.1-0.1c0.4-0.6,0.8-1.3,1.1-2c0-0.1,0.1-0.2,0.1-0.2
		c0.7-1.3,1.3-2.7,1.8-4.2c0-0.1,0.1-0.2,0.1-0.3c0.2-0.7,0.4-1.4,0.6-2.1c0-0.1,0-0.2,0.1-0.3c0.2-0.7,0.3-1.4,0.4-2
		c0-0.1,0-0.2,0.1-0.3c0.1-0.7,0.2-1.5,0.3-2.2c0-0.2,0-0.3,0-0.5c0.1-0.8,0.1-1.5,0.1-2.3c0-17.3-14-31.3-31.3-31.3
		c-2.6,0-5.2,0.3-7.6,0.9c-3-14.1-15.6-24.7-30.6-24.7c-0.6,0-1.2,0-1.8,0.1c-0.2,0-0.3,0-0.5,0c-0.6,0-1.1,0.1-1.7,0.2
		c0,0-0.1,0-0.1,0C75,9,74.4,9.1,73.9,9.2c-0.1,0-0.3,0.1-0.4,0.1c-0.5,0.1-1.1,0.2-1.6,0.4c0,0-0.1,0-0.1,0
		c-0.6,0.1-1.1,0.3-1.7,0.5c-0.1,0-0.2,0.1-0.3,0.1c-0.5,0.2-1,0.4-1.5,0.6c0,0-0.1,0-0.1,0c-0.6,0.2-1.1,0.5-1.6,0.7
		c-0.1,0-0.2,0.1-0.2,0.1c-0.5,0.2-1,0.5-1.5,0.8c0,0-0.1,0-0.1,0c-0.5,0.3-1.1,0.6-1.6,0.9c0,0-0.1,0.1-0.1,0.1
		c-0.5,0.3-1,0.6-1.5,1c0,0,0,0,0,0c-0.5,0.4-1,0.7-1.5,1.1c0,0,0,0,0,0c-0.5,0.4-0.9,0.8-1.4,1.2c0,0,0,0,0,0
		c-1.9,1.6-3.5,3.6-4.9,5.7c0,0,0,0,0,0c0,0,0,0,0,0c-2,3-3.5,6.3-4.3,9.9c-0.2,0-0.3,0-0.5,0l0,0c0,0,0,0,0,0
		c-0.4,0-0.8-0.1-1.2-0.1c-0.4,0-0.9,0-1.3,0c-0.6,0-1.2,0-1.9,0.1c-0.2,0-0.4,0-0.6,0c-0.4,0-0.9,0.1-1.3,0.1c-0.2,0-0.4,0-0.6,0.1
		c-0.4,0.1-0.9,0.1-1.3,0.2c-0.2,0-0.3,0.1-0.5,0.1c-0.6,0.1-1.2,0.2-1.8,0.4c0,0-0.1,0-0.1,0c-0.5,0.1-1.1,0.3-1.6,0.5
		c-0.2,0.1-0.3,0.1-0.5,0.2c-0.4,0.1-0.8,0.3-1.2,0.4c-0.2,0.1-0.3,0.1-0.5,0.2c-0.4,0.2-0.9,0.4-1.3,0.6c-0.1,0-0.2,0.1-0.3,0.1
		c-0.5,0.3-1.1,0.5-1.6,0.8c0,0,0,0-0.1,0c-0.5,0.3-1,0.6-1.5,0.9c-0.1,0.1-0.2,0.1-0.3,0.2c-0.4,0.3-0.8,0.5-1.2,0.8
		c-0.1,0.1-0.2,0.1-0.3,0.2c-0.4,0.3-0.9,0.7-1.3,1c0,0-0.1,0-0.1,0.1c-0.9,0.8-1.8,1.6-2.7,2.5c-0.1,0.1-0.1,0.1-0.2,0.2
		c-0.4,0.4-0.7,0.8-1.1,1.2c-0.1,0.1-0.1,0.1-0.2,0.2c-4.6,5.5-7.4,12.5-7.4,20.3C14.9,81,28.9,95,46.2,95c0.7,0,1.4,0,2.1-0.1
		c0,0,0,0.1,0,0.1c0,6.9,2.2,13.3,6,18.5l6.4,6.5c5.3,4,11.8,6.3,18.9,6.3c10.4,0,19.5-5,25.2-12.8c0,0,0,0,0,0c0,0,0,0,0,0
		c0.4-0.6,0.9-1.2,1.3-1.9c0,0,0-0.1,0.1-0.1c0.4-0.6,0.8-1.3,1.1-2c0,0,0-0.1,0.1-0.1c0.7-1.4,1.3-2.8,1.8-4.2c0,0,0-0.1,0-0.1
		c0.5-1.5,0.9-3,1.2-4.6c0,0,0,0,0-0.1c0.3-1.8,0.5-3.6,0.5-5.5c0-0.3,0-0.5,0-0.8c2.2,0.5,4.6,0.8,6.9,0.8
		C128.2,95,137.4,89.9,143.1,82.1C143.1,82.2,143.1,82.2,143.1,82.1C143.1,82.2,143.1,82.2,143.1,82.1z"/>
	<path class="st23" d="M143.8,81.4c0.4-0.6,0.9-1.2,1.3-1.9c0,0,0.1-0.1,0.1-0.1c0.4-0.6,0.8-1.3,1.1-2c0-0.1,0.1-0.2,0.1-0.2
		c0.7-1.3,1.3-2.7,1.8-4.2c0-0.1,0.1-0.2,0.1-0.3c0.2-0.7,0.4-1.4,0.6-2.1c0-0.1,0-0.2,0.1-0.3c0.2-0.7,0.3-1.4,0.4-2
		c0-0.1,0-0.2,0.1-0.3c0.1-0.7,0.2-1.5,0.3-2.2c0-0.2,0-0.3,0-0.5c0.1-0.8,0.1-1.5,0.1-2.3c0-17.3-14-31.3-31.3-31.3
		c-2.6,0-5.2,0.3-7.6,0.9c-3-14.1-15.6-24.7-30.6-24.7c-0.6,0-1.2,0-1.8,0.1c-0.2,0-0.3,0-0.5,0c-0.6,0-1.1,0.1-1.7,0.2
		c0,0-0.1,0-0.1,0c-0.6,0.1-1.2,0.2-1.7,0.3c-0.1,0-0.3,0.1-0.4,0.1c-0.5,0.1-1.1,0.2-1.6,0.4c0,0-0.1,0-0.1,0
		c-0.6,0.1-1.1,0.3-1.7,0.5c-0.1,0-0.2,0.1-0.3,0.1c-0.5,0.2-1,0.4-1.5,0.6c0,0-0.1,0-0.1,0c-0.6,0.2-1.1,0.5-1.6,0.7
		c-0.1,0-0.2,0.1-0.2,0.1c-0.5,0.2-1,0.5-1.5,0.8c0,0-0.1,0-0.1,0c-0.5,0.3-1.1,0.6-1.6,0.9c0,0-0.1,0.1-0.1,0.1
		c-0.5,0.3-1,0.6-1.5,1c0,0,0,0,0,0c-0.5,0.4-1,0.7-1.5,1.1c0,0,0,0,0,0c-0.5,0.4-0.9,0.8-1.4,1.2c0,0,0,0,0,0
		c-1.9,1.6-3.5,3.6-4.9,5.7c0,0,0,0,0,0c0,0,0,0,0,0c-2,3-3.5,6.3-4.3,9.9c-0.2,0-0.3,0-0.5,0l0,0c0,0,0,0,0,0
		c-0.4,0-0.8-0.1-1.2-0.1c-0.4,0-0.9,0-1.3,0c-0.6,0-1.2,0-1.9,0.1c-0.2,0-0.4,0-0.6,0c-0.4,0-0.9,0.1-1.3,0.1c-0.2,0-0.4,0-0.6,0.1
		c-0.4,0.1-0.9,0.1-1.3,0.2c-0.2,0-0.3,0.1-0.5,0.1c-0.6,0.1-1.2,0.2-1.8,0.4c0,0-0.1,0-0.1,0c-0.5,0.1-1.1,0.3-1.6,0.5
		c-0.2,0.1-0.3,0.1-0.5,0.2c-0.4,0.1-0.8,0.3-1.2,0.4c-0.2,0.1-0.3,0.1-0.5,0.2c-0.4,0.2-0.9,0.4-1.3,0.6c-0.1,0-0.2,0.1-0.3,0.1
		c-0.5,0.3-1.1,0.5-1.6,0.8c0,0,0,0-0.1,0c-0.5,0.3-1,0.6-1.5,0.9c-0.1,0.1-0.2,0.1-0.3,0.2c-0.4,0.3-0.8,0.5-1.2,0.8
		c-0.1,0.1-0.2,0.1-0.3,0.2c-0.4,0.3-0.9,0.7-1.3,1c0,0-0.1,0-0.1,0.1c-0.9,0.8-1.8,1.6-2.7,2.5c-0.1,0.1-0.1,0.1-0.2,0.2
		c-0.4,0.4-0.7,0.8-1.1,1.2c-0.1,0.1-0.1,0.1-0.2,0.2c-4.6,5.5-7.4,12.5-7.4,20.3c0,17.3,14,31.3,31.3,31.3c0.7,0,1.4,0,2.1-0.1
		c0,0,0,0.1,0,0.1c0,6.9,2.2,13.3,6,18.5l6.4,6.5c5.3,4,11.8,6.3,18.9,6.3c10.4,0,19.5-5,25.2-12.8c0,0,0,0,0,0c0,0,0,0,0,0
		c0.4-0.6,0.9-1.2,1.3-1.9c0,0,0-0.1,0.1-0.1c0.4-0.6,0.8-1.3,1.1-2c0,0,0-0.1,0.1-0.1c0.7-1.4,1.3-2.8,1.8-4.2c0,0,0-0.1,0-0.1
		c0.5-1.5,0.9-3,1.2-4.6c0,0,0,0,0-0.1c0.3-1.8,0.5-3.6,0.5-5.5c0-0.3,0-0.5,0-0.8c2.2,0.5,4.6,0.8,6.9,0.8
		C128.9,94.3,138.1,89.2,143.8,81.4C143.8,81.5,143.8,81.5,143.8,81.4C143.8,81.5,143.8,81.4,143.8,81.4z"/>
	<path class="st24" d="M144.6,80.7c0.4-0.6,0.9-1.2,1.3-1.9c0,0,0.1-0.1,0.1-0.1c0.4-0.6,0.8-1.3,1.1-2c0-0.1,0.1-0.2,0.1-0.2
		c0.7-1.3,1.3-2.7,1.8-4.2c0-0.1,0.1-0.2,0.1-0.3c0.2-0.7,0.4-1.4,0.6-2.1c0-0.1,0-0.2,0.1-0.3c0.2-0.7,0.3-1.4,0.4-2
		c0-0.1,0-0.2,0.1-0.3c0.1-0.7,0.2-1.5,0.3-2.2c0-0.2,0-0.3,0-0.5c0.1-0.8,0.1-1.5,0.1-2.3c0-17.3-14-31.3-31.3-31.3
		c-2.6,0-5.2,0.3-7.6,0.9c-3-14.1-15.6-24.7-30.6-24.7c-0.6,0-1.2,0-1.8,0.1c-0.2,0-0.3,0-0.5,0c-0.6,0-1.1,0.1-1.7,0.2
		c0,0-0.1,0-0.1,0c-0.6,0.1-1.2,0.2-1.7,0.3c-0.1,0-0.3,0.1-0.4,0.1c-0.5,0.1-1.1,0.2-1.6,0.4c0,0-0.1,0-0.1,0
		c-0.6,0.1-1.1,0.3-1.7,0.5c-0.1,0-0.2,0.1-0.3,0.1c-0.5,0.2-1,0.4-1.5,0.6c0,0-0.1,0-0.1,0c-0.6,0.2-1.1,0.5-1.6,0.7
		c-0.1,0-0.2,0.1-0.2,0.1c-0.5,0.2-1,0.5-1.5,0.8c0,0-0.1,0-0.1,0c-0.5,0.3-1.1,0.6-1.6,0.9c0,0-0.1,0.1-0.1,0.1
		c-0.5,0.3-1,0.6-1.5,1c0,0,0,0,0,0c-0.5,0.4-1,0.7-1.5,1.1c0,0,0,0,0,0c-0.5,0.4-0.9,0.8-1.4,1.2c0,0,0,0,0,0
		c-1.9,1.6-3.5,3.6-4.9,5.7c0,0,0,0,0,0c0,0,0,0,0,0c-2,3-3.5,6.3-4.3,9.9c-0.2,0-0.3,0-0.5,0l0,0c0,0,0,0,0,0
		c-0.4,0-0.8-0.1-1.2-0.1c-0.4,0-0.9,0-1.3,0c-0.6,0-1.2,0-1.9,0.1c-0.2,0-0.4,0-0.6,0c-0.4,0-0.9,0.1-1.3,0.1c-0.2,0-0.4,0-0.6,0.1
		c-0.4,0.1-0.9,0.1-1.3,0.2c-0.2,0-0.3,0.1-0.5,0.1c-0.6,0.1-1.2,0.2-1.8,0.4c0,0-0.1,0-0.1,0c-0.5,0.1-1.1,0.3-1.6,0.5
		c-0.2,0.1-0.3,0.1-0.5,0.2c-0.4,0.1-0.8,0.3-1.2,0.4c-0.2,0.1-0.3,0.1-0.5,0.2c-0.4,0.2-0.9,0.4-1.3,0.6c-0.1,0-0.2,0.1-0.3,0.1
		c-0.5,0.3-1.1,0.5-1.6,0.8c0,0,0,0-0.1,0c-0.5,0.3-1,0.6-1.5,0.9c-0.1,0.1-0.2,0.1-0.3,0.2c-0.4,0.3-0.8,0.5-1.2,0.8
		c-0.1,0.1-0.2,0.1-0.3,0.2c-0.4,0.3-0.9,0.7-1.3,1c0,0-0.1,0-0.1,0.1c-0.9,0.8-1.8,1.6-2.7,2.5c-0.1,0.1-0.1,0.1-0.2,0.2
		c-0.4,0.4-0.7,0.8-1.1,1.2c-0.1,0.1-0.1,0.1-0.2,0.2c-4.6,5.5-7.4,12.5-7.4,20.3c0,17.3,14,31.3,31.3,31.3c0.7,0,1.4,0,2.1-0.1
		c0,0,0,0.1,0,0.1c0,6.9,2.2,13.3,6,18.5l6.4,6.5c5.3,4,11.8,6.3,18.9,6.3c10.4,0,19.5-5,25.2-12.8c0,0,0,0,0,0c0,0,0,0,0,0
		c0.4-0.6,0.9-1.2,1.3-1.9c0,0,0-0.1,0.1-0.1c0.4-0.6,0.8-1.3,1.1-2c0,0,0-0.1,0.1-0.1c0.7-1.4,1.3-2.8,1.8-4.2c0,0,0-0.1,0-0.1
		c0.5-1.5,0.9-3,1.2-4.6c0,0,0,0,0-0.1c0.3-1.8,0.5-3.6,0.5-5.5c0-0.3,0-0.5,0-0.8c2.2,0.5,4.6,0.8,6.9,0.8
		C129.7,93.5,138.8,88.5,144.6,80.7C144.5,80.7,144.5,80.7,144.6,80.7C144.5,80.7,144.5,80.7,144.6,80.7z"/>
	<path class="st25" d="M145.3,80c0.4-0.6,0.9-1.2,1.3-1.9c0,0,0.1-0.1,0.1-0.1c0.4-0.6,0.8-1.3,1.1-2c0-0.1,0.1-0.2,0.1-0.2
		c0.7-1.3,1.3-2.7,1.8-4.2c0-0.1,0.1-0.2,0.1-0.3c0.2-0.7,0.4-1.4,0.6-2.1c0-0.1,0-0.2,0.1-0.3c0.2-0.7,0.3-1.4,0.4-2
		c0-0.1,0-0.2,0.1-0.3c0.1-0.7,0.2-1.5,0.3-2.2c0-0.2,0-0.3,0-0.5c0.1-0.8,0.1-1.5,0.1-2.3c0-17.3-14-31.3-31.3-31.3
		c-2.6,0-5.2,0.3-7.6,0.9C109.3,17,96.8,6.5,81.8,6.5c-0.6,0-1.2,0-1.8,0.1c-0.2,0-0.3,0-0.5,0c-0.6,0-1.1,0.1-1.7,0.2
		c0,0-0.1,0-0.1,0C77.2,6.8,76.6,6.9,76,7c-0.1,0-0.3,0.1-0.4,0.1c-0.5,0.1-1.1,0.2-1.6,0.4c0,0-0.1,0-0.1,0
		c-0.6,0.1-1.1,0.3-1.7,0.5c-0.1,0-0.2,0.1-0.3,0.1c-0.5,0.2-1,0.4-1.5,0.6c0,0-0.1,0-0.1,0c-0.6,0.2-1.1,0.5-1.6,0.7
		c-0.1,0-0.2,0.1-0.2,0.1c-0.5,0.2-1,0.5-1.5,0.8c0,0-0.1,0-0.1,0c-0.5,0.3-1.1,0.6-1.6,0.9c0,0-0.1,0.1-0.1,0.1
		c-0.5,0.3-1,0.6-1.5,1c0,0,0,0,0,0c-0.5,0.4-1,0.7-1.5,1.1c0,0,0,0,0,0c-0.5,0.4-0.9,0.8-1.4,1.2c0,0,0,0,0,0
		c-1.9,1.6-3.5,3.6-4.9,5.7c0,0,0,0,0,0c0,0,0,0,0,0c-2,3-3.5,6.3-4.3,9.9c-0.2,0-0.3,0-0.5,0l0,0c0,0,0,0,0,0
		c-0.4,0-0.8-0.1-1.2-0.1c-0.4,0-0.9,0-1.3,0c-0.6,0-1.2,0-1.9,0.1c-0.2,0-0.4,0-0.6,0c-0.4,0-0.9,0.1-1.3,0.1c-0.2,0-0.4,0-0.6,0.1
		c-0.4,0.1-0.9,0.1-1.3,0.2c-0.2,0-0.3,0.1-0.5,0.1c-0.6,0.1-1.2,0.2-1.8,0.4c0,0-0.1,0-0.1,0c-0.5,0.1-1.1,0.3-1.6,0.5
		c-0.2,0.1-0.3,0.1-0.5,0.2c-0.4,0.1-0.8,0.3-1.2,0.4c-0.2,0.1-0.3,0.1-0.5,0.2c-0.4,0.2-0.9,0.4-1.3,0.6c-0.1,0-0.2,0.1-0.3,0.1
		c-0.5,0.3-1.1,0.5-1.6,0.8c0,0,0,0-0.1,0c-0.5,0.3-1,0.6-1.5,0.9c-0.1,0.1-0.2,0.1-0.3,0.2c-0.4,0.3-0.8,0.5-1.2,0.8
		c-0.1,0.1-0.2,0.1-0.3,0.2c-0.4,0.3-0.9,0.7-1.3,1c0,0-0.1,0-0.1,0.1c-0.9,0.8-1.8,1.6-2.7,2.5c-0.1,0.1-0.1,0.1-0.2,0.2
		c-0.4,0.4-0.7,0.8-1.1,1.2c-0.1,0.1-0.1,0.1-0.2,0.2c-4.6,5.5-7.4,12.5-7.4,20.3c0,17.3,14,31.3,31.3,31.3c0.7,0,1.4,0,2.1-0.1
		c0,0,0,0.1,0,0.1c0,6.9,2.2,13.3,6,18.5l6.4,6.5c5.3,4,11.8,6.3,18.9,6.3c10.4,0,19.5-5,25.2-12.8c0,0,0,0,0,0c0,0,0,0,0,0
		c0.4-0.6,0.9-1.2,1.3-1.9c0,0,0-0.1,0.1-0.1c0.4-0.6,0.8-1.3,1.1-2c0,0,0-0.1,0.1-0.1c0.7-1.4,1.3-2.8,1.8-4.2c0,0,0-0.1,0-0.1
		c0.5-1.5,0.9-3,1.2-4.6c0,0,0,0,0-0.1c0.3-1.8,0.5-3.6,0.5-5.5c0-0.3,0-0.5,0-0.8c2.2,0.5,4.6,0.8,6.9,0.8
		C130.4,92.8,139.6,87.8,145.3,80C145.3,80,145.2,80,145.3,80C145.3,80,145.3,80,145.3,80z"/>
	<path class="st26" d="M146,79.3c0.4-0.6,0.9-1.2,1.3-1.9c0,0,0.1-0.1,0.1-0.1c0.4-0.6,0.8-1.3,1.1-2c0-0.1,0.1-0.2,0.1-0.2
		c0.7-1.3,1.3-2.7,1.8-4.2c0-0.1,0.1-0.2,0.1-0.3c0.2-0.7,0.4-1.4,0.6-2.1c0-0.1,0-0.2,0.1-0.3c0.2-0.7,0.3-1.4,0.4-2
		c0-0.1,0-0.2,0.1-0.3c0.1-0.7,0.2-1.5,0.3-2.2c0-0.2,0-0.3,0-0.5c0.1-0.8,0.1-1.5,0.1-2.3c0-17.3-14-31.3-31.3-31.3
		c-2.6,0-5.2,0.3-7.6,0.9C110,16.3,97.5,5.8,82.5,5.8c-0.6,0-1.2,0-1.8,0.1c-0.2,0-0.3,0-0.5,0c-0.6,0-1.1,0.1-1.7,0.2
		c0,0-0.1,0-0.1,0c-0.6,0.1-1.2,0.2-1.7,0.3c-0.1,0-0.3,0.1-0.4,0.1c-0.5,0.1-1.1,0.2-1.6,0.4c0,0-0.1,0-0.1,0
		c-0.6,0.1-1.1,0.3-1.7,0.5c-0.1,0-0.2,0.1-0.3,0.1c-0.5,0.2-1,0.4-1.5,0.6c0,0-0.1,0-0.1,0c-0.6,0.2-1.1,0.5-1.6,0.7
		c-0.1,0-0.2,0.1-0.2,0.1c-0.5,0.2-1,0.5-1.5,0.8c0,0-0.1,0-0.1,0c-0.5,0.3-1.1,0.6-1.6,0.9c0,0-0.1,0.1-0.1,0.1
		c-0.5,0.3-1,0.6-1.5,1c0,0,0,0,0,0c-0.5,0.4-1,0.7-1.5,1.1c0,0,0,0,0,0c-0.5,0.4-0.9,0.8-1.4,1.2c0,0,0,0,0,0
		c-1.9,1.6-3.5,3.6-4.9,5.7c0,0,0,0,0,0c0,0,0,0,0,0c-2,3-3.5,6.3-4.3,9.9c-0.2,0-0.3,0-0.5,0l0,0c0,0,0,0,0,0
		c-0.4,0-0.8-0.1-1.2-0.1c-0.4,0-0.9,0-1.3,0c-0.6,0-1.2,0-1.9,0.1c-0.2,0-0.4,0-0.6,0c-0.4,0-0.9,0.1-1.3,0.1c-0.2,0-0.4,0-0.6,0.1
		c-0.4,0.1-0.9,0.1-1.3,0.2c-0.2,0-0.3,0.1-0.5,0.1c-0.6,0.1-1.2,0.2-1.8,0.4c0,0-0.1,0-0.1,0c-0.5,0.1-1.1,0.3-1.6,0.5
		c-0.2,0.1-0.3,0.1-0.5,0.2c-0.4,0.1-0.8,0.3-1.2,0.4c-0.2,0.1-0.3,0.1-0.5,0.2c-0.4,0.2-0.9,0.4-1.3,0.6c-0.1,0-0.2,0.1-0.3,0.1
		c-0.5,0.3-1.1,0.5-1.6,0.8c0,0,0,0-0.1,0c-0.5,0.3-1,0.6-1.5,0.9c-0.1,0.1-0.2,0.1-0.3,0.2c-0.4,0.3-0.8,0.5-1.2,0.8
		c-0.1,0.1-0.2,0.1-0.3,0.2c-0.4,0.3-0.9,0.7-1.3,1c0,0-0.1,0-0.1,0.1c-0.9,0.8-1.8,1.6-2.7,2.5c-0.1,0.1-0.1,0.1-0.2,0.2
		c-0.4,0.4-0.7,0.8-1.1,1.2c-0.1,0.1-0.1,0.1-0.2,0.2c-4.6,5.5-7.4,12.5-7.4,20.3c0,17.3,14,31.3,31.3,31.3c0.7,0,1.4,0,2.1-0.1
		c0,0,0,0.1,0,0.1c0,6.9,2.2,13.3,6,18.5l6.4,6.5c5.3,4,11.8,6.3,18.9,6.3c10.4,0,19.5-5,25.2-12.8c0,0,0,0,0,0c0,0,0,0,0,0
		c0.4-0.6,0.9-1.2,1.3-1.9c0,0,0-0.1,0.1-0.1c0.4-0.6,0.8-1.3,1.1-2c0,0,0-0.1,0.1-0.1c0.7-1.4,1.3-2.8,1.8-4.2c0,0,0-0.1,0-0.1
		c0.5-1.5,0.9-3,1.2-4.6c0,0,0,0,0-0.1c0.3-1.8,0.5-3.6,0.5-5.5c0-0.3,0-0.5,0-0.8c2.2,0.5,4.6,0.8,6.9,0.8
		C131.1,92.1,140.3,87.1,146,79.3C146,79.3,146,79.3,146,79.3C146,79.3,146,79.3,146,79.3z"/>
	<path class="st27" d="M146.7,78.6c0.4-0.6,0.9-1.2,1.3-1.9c0,0,0.1-0.1,0.1-0.1c0.4-0.6,0.8-1.3,1.1-2c0-0.1,0.1-0.2,0.1-0.2
		c0.7-1.3,1.3-2.7,1.8-4.2c0-0.1,0.1-0.2,0.1-0.3c0.2-0.7,0.4-1.4,0.6-2.1c0-0.1,0-0.2,0.1-0.3c0.2-0.7,0.3-1.4,0.4-2
		c0-0.1,0-0.2,0.1-0.3c0.1-0.7,0.2-1.5,0.3-2.2c0-0.2,0-0.3,0-0.5c0.1-0.8,0.1-1.5,0.1-2.3c0-17.3-14-31.3-31.3-31.3
		c-2.6,0-5.2,0.3-7.6,0.9C110.8,15.6,98.2,5,83.2,5c-0.6,0-1.2,0-1.8,0.1c-0.2,0-0.3,0-0.5,0c-0.6,0-1.1,0.1-1.7,0.2
		c0,0-0.1,0-0.1,0c-0.6,0.1-1.2,0.2-1.7,0.3c-0.1,0-0.3,0.1-0.4,0.1C76.5,5.8,76,5.9,75.4,6c0,0-0.1,0-0.1,0
		c-0.6,0.1-1.1,0.3-1.7,0.5c-0.1,0-0.2,0.1-0.3,0.1c-0.5,0.2-1,0.4-1.5,0.6c0,0-0.1,0-0.1,0C71.1,7.5,70.5,7.7,70,8
		c-0.1,0-0.2,0.1-0.2,0.1c-0.5,0.2-1,0.5-1.5,0.8c0,0-0.1,0-0.1,0c-0.5,0.3-1.1,0.6-1.6,0.9c0,0-0.1,0.1-0.1,0.1
		c-0.5,0.3-1,0.6-1.5,1c0,0,0,0,0,0c-0.5,0.4-1,0.7-1.5,1.1c0,0,0,0,0,0c-0.5,0.4-0.9,0.8-1.4,1.2c0,0,0,0,0,0
		c-1.9,1.6-3.5,3.6-4.9,5.7c0,0,0,0,0,0c0,0,0,0,0,0c-2,3-3.5,6.3-4.3,9.9c-0.2,0-0.3,0-0.5,0l0,0c0,0,0,0,0,0
		c-0.4,0-0.8-0.1-1.2-0.1c-0.4,0-0.9,0-1.3,0c-0.6,0-1.2,0-1.9,0.1c-0.2,0-0.4,0-0.6,0c-0.4,0-0.9,0.1-1.3,0.1c-0.2,0-0.4,0-0.6,0.1
		c-0.4,0.1-0.9,0.1-1.3,0.2c-0.2,0-0.3,0.1-0.5,0.1c-0.6,0.1-1.2,0.2-1.8,0.4c0,0-0.1,0-0.1,0c-0.5,0.1-1.1,0.3-1.6,0.5
		c-0.2,0.1-0.3,0.1-0.5,0.2c-0.4,0.1-0.8,0.3-1.2,0.4c-0.2,0.1-0.3,0.1-0.5,0.2c-0.4,0.2-0.9,0.4-1.3,0.6c-0.1,0-0.2,0.1-0.3,0.1
		c-0.5,0.3-1.1,0.5-1.6,0.8c0,0,0,0-0.1,0c-0.5,0.3-1,0.6-1.5,0.9c-0.1,0.1-0.2,0.1-0.3,0.2c-0.4,0.3-0.8,0.5-1.2,0.8
		c-0.1,0.1-0.2,0.1-0.3,0.2c-0.4,0.3-0.9,0.7-1.3,1c0,0-0.1,0-0.1,0.1c-0.9,0.8-1.8,1.6-2.7,2.5c-0.1,0.1-0.1,0.1-0.2,0.2
		c-0.4,0.4-0.7,0.8-1.1,1.2c-0.1,0.1-0.1,0.1-0.2,0.2c-4.6,5.5-7.4,12.5-7.4,20.3c0,17.3,14,31.3,31.3,31.3c0.7,0,1.4,0,2.1-0.1
		c0,0,0,0.1,0,0.1c0,6.9,2.2,13.3,6,18.5l6.4,6.5c5.3,4,11.8,6.3,18.9,6.3c10.4,0,19.5-5,25.2-12.8c0,0,0,0,0,0c0,0,0,0,0,0
		c0.4-0.6,0.9-1.2,1.3-1.9c0,0,0-0.1,0.1-0.1c0.4-0.6,0.8-1.3,1.1-2c0,0,0-0.1,0.1-0.1c0.7-1.4,1.3-2.8,1.8-4.2c0,0,0-0.1,0-0.1
		c0.5-1.5,0.9-3,1.2-4.6c0,0,0,0,0-0.1c0.3-1.8,0.5-3.6,0.5-5.5c0-0.3,0-0.5,0-0.8c2.2,0.5,4.6,0.8,6.9,0.8
		C131.8,91.4,141,86.4,146.7,78.6C146.7,78.6,146.7,78.6,146.7,78.6C146.7,78.6,146.7,78.6,146.7,78.6z"/>
	<path class="st28" d="M147.4,77.8c0.4-0.6,0.9-1.2,1.3-1.9c0,0,0.1-0.1,0.1-0.1c0.4-0.6,0.8-1.3,1.1-2c0-0.1,0.1-0.2,0.1-0.2
		c0.7-1.3,1.3-2.7,1.8-4.2c0-0.1,0.1-0.2,0.1-0.3c0.2-0.7,0.4-1.4,0.6-2.1c0-0.1,0-0.2,0.1-0.3c0.2-0.7,0.3-1.4,0.4-2
		c0-0.1,0-0.2,0.1-0.3c0.1-0.7,0.2-1.5,0.3-2.2c0-0.2,0-0.3,0-0.5c0.1-0.8,0.1-1.5,0.1-2.3c0-17.3-14-31.3-31.3-31.3
		c-2.6,0-5.2,0.3-7.6,0.9c-3-14.1-15.6-24.7-30.6-24.7c-0.6,0-1.2,0-1.8,0.1c-0.2,0-0.3,0-0.5,0c-0.6,0-1.1,0.1-1.7,0.2
		c0,0-0.1,0-0.1,0c-0.6,0.1-1.2,0.2-1.7,0.3c-0.1,0-0.3,0.1-0.4,0.1c-0.5,0.1-1.1,0.2-1.6,0.4c0,0-0.1,0-0.1,0
		c-0.6,0.1-1.1,0.3-1.7,0.5c-0.1,0-0.2,0.1-0.3,0.1c-0.5,0.2-1,0.4-1.5,0.6c0,0-0.1,0-0.1,0c-0.6,0.2-1.1,0.5-1.6,0.7
		c-0.1,0-0.2,0.1-0.2,0.1c-0.5,0.2-1,0.5-1.5,0.8c0,0-0.1,0-0.1,0c-0.5,0.3-1.1,0.6-1.6,0.9c0,0-0.1,0.1-0.1,0.1
		c-0.5,0.3-1,0.6-1.5,1c0,0,0,0,0,0c-0.5,0.4-1,0.7-1.5,1.1c0,0,0,0,0,0c-0.5,0.4-0.9,0.8-1.4,1.2c0,0,0,0,0,0
		c-1.9,1.6-3.5,3.6-4.9,5.7c0,0,0,0,0,0c0,0,0,0,0,0c-2,3-3.5,6.3-4.3,9.9c-0.2,0-0.3,0-0.5,0l0,0c0,0,0,0,0,0
		c-0.4,0-0.8-0.1-1.2-0.1c-0.4,0-0.9,0-1.3,0c-0.6,0-1.2,0-1.9,0.1c-0.2,0-0.4,0-0.6,0c-0.4,0-0.9,0.1-1.3,0.1c-0.2,0-0.4,0-0.6,0.1
		c-0.4,0.1-0.9,0.1-1.3,0.2c-0.2,0-0.3,0.1-0.5,0.1c-0.6,0.1-1.2,0.2-1.8,0.4c0,0-0.1,0-0.1,0c-0.5,0.1-1.1,0.3-1.6,0.5
		c-0.2,0.1-0.3,0.1-0.5,0.2c-0.4,0.1-0.8,0.3-1.2,0.4c-0.2,0.1-0.3,0.1-0.5,0.2c-0.4,0.2-0.9,0.4-1.3,0.6c-0.1,0-0.2,0.1-0.3,0.1
		c-0.5,0.3-1.1,0.5-1.6,0.8c0,0,0,0-0.1,0c-0.5,0.3-1,0.6-1.5,0.9c-0.1,0.1-0.2,0.1-0.3,0.2c-0.4,0.3-0.8,0.5-1.2,0.8
		c-0.1,0.1-0.2,0.1-0.3,0.2c-0.4,0.3-0.9,0.7-1.3,1c0,0-0.1,0-0.1,0.1c-0.9,0.8-1.8,1.6-2.7,2.5c-0.1,0.1-0.1,0.1-0.2,0.2
		c-0.4,0.4-0.7,0.8-1.1,1.2c-0.1,0.1-0.1,0.1-0.2,0.2c-4.6,5.5-7.4,12.5-7.4,20.3c0,17.3,14,31.3,31.3,31.3c0.7,0,1.4,0,2.1-0.1
		c0,0,0,0.1,0,0.1c0,6.9,2.2,13.3,6,18.5l6.4,6.5c5.3,4,11.8,6.3,18.9,6.3c10.4,0,19.5-5,25.2-12.8c0,0,0,0,0,0c0,0,0,0,0,0
		c0.4-0.6,0.9-1.2,1.3-1.9c0,0,0-0.1,0.1-0.1c0.4-0.6,0.8-1.3,1.1-2c0,0,0-0.1,0.1-0.1c0.7-1.4,1.3-2.8,1.8-4.2c0,0,0-0.1,0-0.1
		c0.5-1.5,0.9-3,1.2-4.6c0,0,0,0,0-0.1c0.3-1.8,0.5-3.6,0.5-5.5c0-0.3,0-0.5,0-0.8c2.2,0.5,4.6,0.8,6.9,0.8
		C132.5,90.7,141.7,85.6,147.4,77.8C147.4,77.9,147.4,77.9,147.4,77.8C147.4,77.9,147.4,77.9,147.4,77.8z"/>
	<path class="st29" d="M148.1,77.1c0.5-0.6,0.9-1.2,1.3-1.9c0,0,0.1-0.1,0.1-0.1c0.4-0.6,0.8-1.3,1.1-2c0-0.1,0.1-0.2,0.1-0.2
		c0.7-1.3,1.3-2.7,1.8-4.2c0-0.1,0.1-0.2,0.1-0.3c0.2-0.7,0.4-1.4,0.6-2.1c0-0.1,0-0.2,0.1-0.3c0.2-0.7,0.3-1.4,0.4-2
		c0-0.1,0-0.2,0.1-0.3c0.1-0.7,0.2-1.5,0.3-2.2c0-0.2,0-0.3,0-0.5c0.1-0.8,0.1-1.5,0.1-2.3c0-17.3-14-31.3-31.3-31.3
		c-2.6,0-5.2,0.3-7.6,0.9c-3-14.1-15.6-24.7-30.6-24.7c-0.6,0-1.2,0-1.8,0.1c-0.2,0-0.3,0-0.5,0c-0.6,0-1.1,0.1-1.7,0.2
		c0,0-0.1,0-0.1,0C80,3.9,79.4,4,78.9,4.2c-0.1,0-0.3,0.1-0.4,0.1c-0.5,0.1-1.1,0.2-1.6,0.4c0,0-0.1,0-0.1,0
		c-0.6,0.1-1.1,0.3-1.7,0.5c-0.1,0-0.2,0.1-0.3,0.1c-0.5,0.2-1,0.4-1.5,0.6c0,0-0.1,0-0.1,0c-0.6,0.2-1.1,0.5-1.6,0.7
		c-0.1,0-0.2,0.1-0.2,0.1c-0.5,0.2-1,0.5-1.5,0.8c0,0-0.1,0-0.1,0c-0.5,0.3-1.1,0.6-1.6,0.9c0,0-0.1,0.1-0.1,0.1
		c-0.5,0.3-1,0.6-1.5,1c0,0,0,0,0,0c-0.5,0.4-1,0.7-1.5,1.1c0,0,0,0,0,0c-0.5,0.4-0.9,0.8-1.4,1.2c0,0,0,0,0,0
		c-1.9,1.6-3.5,3.6-4.9,5.7c0,0,0,0,0,0c0,0,0,0,0,0c-2,3-3.5,6.3-4.3,9.9c-0.2,0-0.3,0-0.5,0l0,0c0,0,0,0,0,0
		c-0.4,0-0.8-0.1-1.2-0.1c-0.4,0-0.9,0-1.3,0c-0.6,0-1.2,0-1.9,0.1c-0.2,0-0.4,0-0.6,0c-0.4,0-0.9,0.1-1.3,0.1c-0.2,0-0.4,0-0.6,0.1
		c-0.4,0.1-0.9,0.1-1.3,0.2c-0.2,0-0.3,0.1-0.5,0.1c-0.6,0.1-1.2,0.2-1.8,0.4c0,0-0.1,0-0.1,0c-0.5,0.1-1.1,0.3-1.6,0.5
		c-0.2,0.1-0.3,0.1-0.5,0.2c-0.4,0.1-0.8,0.3-1.2,0.4c-0.2,0.1-0.3,0.1-0.5,0.2c-0.4,0.2-0.9,0.4-1.3,0.6c-0.1,0-0.2,0.1-0.3,0.1
		c-0.5,0.3-1.1,0.5-1.6,0.8c0,0,0,0-0.1,0c-0.5,0.3-1,0.6-1.5,0.9c-0.1,0.1-0.2,0.1-0.3,0.2c-0.4,0.3-0.8,0.5-1.2,0.8
		c-0.1,0.1-0.2,0.1-0.3,0.2c-0.4,0.3-0.9,0.7-1.3,1c0,0-0.1,0-0.1,0.1c-0.9,0.8-1.8,1.6-2.7,2.5c-0.1,0.1-0.1,0.1-0.2,0.2
		c-0.4,0.4-0.7,0.8-1.1,1.2c-0.1,0.1-0.1,0.1-0.2,0.2c-4.6,5.5-7.4,12.5-7.4,20.3c0,17.3,14,31.3,31.3,31.3c0.7,0,1.4,0,2.1-0.1
		c0,0,0,0.1,0,0.1c0,6.9,2.2,13.3,6,18.5l6.4,6.5c5.3,4,11.8,6.3,18.9,6.3c10.4,0,19.5-5,25.2-12.8c0,0,0,0,0,0c0,0,0,0,0,0
		c0.4-0.6,0.9-1.2,1.3-1.9c0,0,0-0.1,0.1-0.1c0.4-0.6,0.8-1.3,1.1-2c0,0,0-0.1,0.1-0.1c0.7-1.4,1.3-2.8,1.8-4.2c0,0,0-0.1,0-0.1
		c0.5-1.5,0.9-3,1.2-4.6c0,0,0,0,0-0.1c0.3-1.8,0.5-3.6,0.5-5.5c0-0.3,0-0.5,0-0.8c2.2,0.5,4.6,0.8,6.9,0.8
		C133.2,90,142.4,84.9,148.1,77.1C148.1,77.2,148.1,77.2,148.1,77.1C148.1,77.2,148.1,77.1,148.1,77.1z"/>
	<path class="st30" d="M148.8,76.4c0.5-0.6,0.9-1.2,1.3-1.9c0,0,0.1-0.1,0.1-0.1c0.4-0.6,0.8-1.3,1.1-2c0-0.1,0.1-0.2,0.1-0.2
		c0.7-1.3,1.3-2.7,1.8-4.2c0-0.1,0.1-0.2,0.1-0.3c0.2-0.7,0.4-1.4,0.6-2.1c0-0.1,0-0.2,0.1-0.3c0.2-0.7,0.3-1.4,0.4-2
		c0-0.1,0-0.2,0.1-0.3c0.1-0.7,0.2-1.5,0.3-2.2c0-0.2,0-0.3,0-0.5c0.1-0.8,0.1-1.5,0.1-2.3c0-17.3-14-31.3-31.3-31.3
		c-2.6,0-5.2,0.3-7.6,0.9c-3-14.1-15.6-24.7-30.6-24.7c-0.6,0-1.2,0-1.8,0.1c-0.2,0-0.3,0-0.5,0c-0.6,0-1.1,0.1-1.7,0.2
		c0,0-0.1,0-0.1,0c-0.6,0.1-1.2,0.2-1.7,0.3c-0.1,0-0.3,0.1-0.4,0.1c-0.5,0.1-1.1,0.2-1.6,0.4c0,0-0.1,0-0.1,0
		c-0.6,0.1-1.1,0.3-1.7,0.5c-0.1,0-0.2,0.1-0.3,0.1c-0.5,0.2-1,0.4-1.5,0.6c0,0-0.1,0-0.1,0c-0.6,0.2-1.1,0.5-1.6,0.7
		c-0.1,0-0.2,0.1-0.2,0.1c-0.5,0.2-1,0.5-1.5,0.8c0,0-0.1,0-0.1,0c-0.5,0.3-1.1,0.6-1.6,0.9c0,0-0.1,0.1-0.1,0.1
		c-0.5,0.3-1,0.6-1.5,1c0,0,0,0,0,0c-0.5,0.4-1,0.7-1.5,1.1c0,0,0,0,0,0c-0.5,0.4-0.9,0.8-1.4,1.2c0,0,0,0,0,0
		c-1.9,1.6-3.5,3.6-4.9,5.7c0,0,0,0,0,0c0,0,0,0,0,0c-2,3-3.5,6.3-4.3,9.9c-0.2,0-0.3,0-0.5,0l0,0c0,0,0,0,0,0
		c-0.4,0-0.8-0.1-1.2-0.1c-0.4,0-0.9,0-1.3,0c-0.6,0-1.2,0-1.9,0.1c-0.2,0-0.4,0-0.6,0c-0.4,0-0.9,0.1-1.3,0.1c-0.2,0-0.4,0-0.6,0.1
		c-0.4,0.1-0.9,0.1-1.3,0.2c-0.2,0-0.3,0.1-0.5,0.1c-0.6,0.1-1.2,0.2-1.8,0.4c0,0-0.1,0-0.1,0c-0.5,0.1-1.1,0.3-1.6,0.5
		c-0.2,0.1-0.3,0.1-0.5,0.2c-0.4,0.1-0.8,0.3-1.2,0.4c-0.2,0.1-0.3,0.1-0.5,0.2c-0.4,0.2-0.9,0.4-1.3,0.6c-0.1,0-0.2,0.1-0.3,0.1
		c-0.5,0.3-1.1,0.5-1.6,0.8c0,0,0,0-0.1,0c-0.5,0.3-1,0.6-1.5,0.9c-0.1,0.1-0.2,0.1-0.3,0.2c-0.4,0.3-0.8,0.5-1.2,0.8
		c-0.1,0.1-0.2,0.1-0.3,0.2c-0.4,0.3-0.9,0.7-1.3,1c0,0-0.1,0-0.1,0.1c-0.9,0.8-1.8,1.6-2.7,2.5c-0.1,0.1-0.1,0.1-0.2,0.2
		c-0.4,0.4-0.7,0.8-1.1,1.2c-0.1,0.1-0.1,0.1-0.2,0.2c-4.6,5.5-7.4,12.5-7.4,20.3c0,17.3,14,31.3,31.3,31.3c0.7,0,1.4,0,2.1-0.1
		c0,0,0,0.1,0,0.1c0,6.9,2.2,13.3,6,18.5l6.4,6.5c5.3,4,11.8,6.3,18.9,6.3c10.4,0,19.5-5,25.2-12.8c0,0,0,0,0,0c0,0,0,0,0,0
		c0.4-0.6,0.9-1.2,1.3-1.9c0,0,0-0.1,0.1-0.1c0.4-0.6,0.8-1.3,1.1-2c0,0,0-0.1,0.1-0.1c0.7-1.4,1.3-2.8,1.8-4.2c0,0,0-0.1,0-0.1
		c0.5-1.5,0.9-3,1.2-4.6c0,0,0,0,0-0.1c0.3-1.8,0.5-3.6,0.5-5.5c0-0.3,0-0.5,0-0.8c2.2,0.5,4.6,0.8,6.9,0.8
		C133.9,89.2,143.1,84.2,148.8,76.4C148.8,76.4,148.8,76.5,148.8,76.4C148.8,76.4,148.8,76.4,148.8,76.4z"/>
	<path class="st31" d="M149.6,75.7c0.5-0.6,0.9-1.2,1.3-1.9c0,0,0.1-0.1,0.1-0.1c0.4-0.6,0.8-1.3,1.1-2c0-0.1,0.1-0.2,0.1-0.2
		c0.7-1.3,1.3-2.7,1.8-4.2c0-0.1,0.1-0.2,0.1-0.3c0.2-0.7,0.4-1.4,0.6-2.1c0-0.1,0-0.2,0.1-0.3c0.2-0.7,0.3-1.4,0.4-2
		c0-0.1,0-0.2,0.1-0.3c0.1-0.7,0.2-1.5,0.3-2.2c0-0.2,0-0.3,0-0.5c0.1-0.8,0.1-1.5,0.1-2.3c0-17.3-14-31.3-31.3-31.3
		c-2.6,0-5.2,0.3-7.6,0.9c-3-14.1-15.6-24.7-30.6-24.7c-0.6,0-1.2,0-1.8,0.1c-0.2,0-0.3,0-0.5,0c-0.6,0-1.1,0.1-1.7,0.2
		c0,0-0.1,0-0.1,0c-0.6,0.1-1.2,0.2-1.7,0.3c-0.1,0-0.3,0.1-0.4,0.1c-0.5,0.1-1.1,0.2-1.6,0.4c0,0-0.1,0-0.1,0
		c-0.6,0.1-1.1,0.3-1.7,0.5c-0.1,0-0.2,0.1-0.3,0.1c-0.5,0.2-1,0.4-1.5,0.6c0,0-0.1,0-0.1,0c-0.6,0.2-1.1,0.5-1.6,0.7
		c-0.1,0-0.2,0.1-0.2,0.1c-0.5,0.2-1,0.5-1.5,0.8c0,0-0.1,0-0.1,0C70.5,6.3,70,6.6,69.5,7c0,0-0.1,0.1-0.1,0.1c-0.5,0.3-1,0.6-1.5,1
		c0,0,0,0,0,0c-0.5,0.4-1,0.7-1.5,1.1c0,0,0,0,0,0c-0.5,0.4-0.9,0.8-1.4,1.2c0,0,0,0,0,0C63,12,61.4,14,60,16.2c0,0,0,0,0,0
		c0,0,0,0,0,0c-2,3-3.5,6.3-4.3,9.9c-0.2,0-0.3,0-0.5,0l0,0c0,0,0,0,0,0c-0.4,0-0.8-0.1-1.2-0.1c-0.4,0-0.9,0-1.3,0
		c-0.6,0-1.2,0-1.9,0.1c-0.2,0-0.4,0-0.6,0c-0.4,0-0.9,0.1-1.3,0.1c-0.2,0-0.4,0-0.6,0.1c-0.4,0.1-0.9,0.1-1.3,0.2
		c-0.2,0-0.3,0.1-0.5,0.1c-0.6,0.1-1.2,0.2-1.8,0.4c0,0-0.1,0-0.1,0c-0.5,0.1-1.1,0.3-1.6,0.5c-0.2,0.1-0.3,0.1-0.5,0.2
		c-0.4,0.1-0.8,0.3-1.2,0.4c-0.2,0.1-0.3,0.1-0.5,0.2c-0.4,0.2-0.9,0.4-1.3,0.6c-0.1,0-0.2,0.1-0.3,0.1c-0.5,0.3-1.1,0.5-1.6,0.8
		c0,0,0,0-0.1,0c-0.5,0.3-1,0.6-1.5,0.9c-0.1,0.1-0.2,0.1-0.3,0.2c-0.4,0.3-0.8,0.5-1.2,0.8c-0.1,0.1-0.2,0.1-0.3,0.2
		c-0.4,0.3-0.9,0.7-1.3,1c0,0-0.1,0-0.1,0.1c-0.9,0.8-1.8,1.6-2.7,2.5c-0.1,0.1-0.1,0.1-0.2,0.2c-0.4,0.4-0.7,0.8-1.1,1.2
		c-0.1,0.1-0.1,0.1-0.2,0.2c-4.6,5.5-7.4,12.5-7.4,20.3c0,17.3,14,31.3,31.3,31.3c0.7,0,1.4,0,2.1-0.1c0,0,0,0.1,0,0.1
		c0,6.9,2.2,13.3,6,18.5l6.4,6.5c5.3,4,11.8,6.3,18.9,6.3c10.4,0,19.5-5,25.2-12.8c0,0,0,0,0,0c0,0,0,0,0,0c0.4-0.6,0.9-1.2,1.3-1.9
		c0,0,0-0.1,0.1-0.1c0.4-0.6,0.8-1.3,1.1-2c0,0,0-0.1,0.1-0.1c0.7-1.4,1.3-2.8,1.8-4.2c0,0,0-0.1,0-0.1c0.5-1.5,0.9-3,1.2-4.6
		c0,0,0,0,0-0.1c0.3-1.8,0.5-3.6,0.5-5.5c0-0.3,0-0.5,0-0.8c2.2,0.5,4.6,0.8,6.9,0.8C134.7,88.5,143.8,83.5,149.6,75.7
		C149.5,75.7,149.5,75.7,149.6,75.7C149.5,75.7,149.6,75.7,149.6,75.7z"/>
	<path class="st32" d="M150.3,75c0.5-0.6,0.9-1.2,1.3-1.9c0,0,0.1-0.1,0.1-0.1c0.4-0.6,0.8-1.3,1.1-2c0-0.1,0.1-0.2,0.1-0.2
		c0.7-1.3,1.3-2.7,1.8-4.2c0-0.1,0.1-0.2,0.1-0.3c0.2-0.7,0.4-1.4,0.6-2.1c0-0.1,0-0.2,0.1-0.3c0.2-0.7,0.3-1.4,0.4-2
		c0-0.1,0-0.2,0.1-0.3c0.1-0.7,0.2-1.5,0.3-2.2c0-0.2,0-0.3,0-0.5c0.1-0.8,0.1-1.5,0.1-2.3c0-17.3-14-31.3-31.3-31.3
		c-2.6,0-5.2,0.3-7.6,0.9c-3-14.1-15.6-24.7-30.6-24.7c-0.6,0-1.2,0-1.8,0.1c-0.2,0-0.3,0-0.5,0c-0.6,0-1.1,0.1-1.7,0.2
		c0,0-0.1,0-0.1,0C82.2,1.8,81.6,1.9,81,2c-0.1,0-0.3,0.1-0.4,0.1c-0.5,0.1-1.1,0.2-1.6,0.4c0,0-0.1,0-0.1,0
		c-0.6,0.1-1.1,0.3-1.7,0.5C77.1,3,77,3,76.9,3.1c-0.5,0.2-1,0.4-1.5,0.6c0,0-0.1,0-0.1,0c-0.6,0.2-1.1,0.5-1.6,0.7
		c-0.1,0-0.2,0.1-0.2,0.1c-0.5,0.2-1,0.5-1.5,0.8c0,0-0.1,0-0.1,0c-0.5,0.3-1.1,0.6-1.6,0.9c0,0-0.1,0.1-0.1,0.1
		c-0.5,0.3-1,0.6-1.5,1c0,0,0,0,0,0c-0.5,0.4-1,0.7-1.5,1.1c0,0,0,0,0,0c-0.5,0.4-0.9,0.8-1.4,1.2c0,0,0,0,0,0
		c-1.9,1.6-3.5,3.6-4.9,5.7c0,0,0,0,0,0c0,0,0,0,0,0c-2,3-3.5,6.3-4.3,9.9c-0.2,0-0.3,0-0.5,0l0,0c0,0,0,0,0,0
		c-0.4,0-0.8-0.1-1.2-0.1c-0.4,0-0.9,0-1.3,0c-0.6,0-1.2,0-1.9,0.1c-0.2,0-0.4,0-0.6,0c-0.4,0-0.9,0.1-1.3,0.1c-0.2,0-0.4,0-0.6,0.1
		c-0.4,0.1-0.9,0.1-1.3,0.2c-0.2,0-0.3,0.1-0.5,0.1c-0.6,0.1-1.2,0.2-1.8,0.4c0,0-0.1,0-0.1,0c-0.5,0.1-1.1,0.3-1.6,0.5
		c-0.2,0.1-0.3,0.1-0.5,0.2c-0.4,0.1-0.8,0.3-1.2,0.4c-0.2,0.1-0.3,0.1-0.5,0.2c-0.4,0.2-0.9,0.4-1.3,0.6c-0.1,0-0.2,0.1-0.3,0.1
		c-0.5,0.3-1.1,0.5-1.6,0.8c0,0,0,0-0.1,0c-0.5,0.3-1,0.6-1.5,0.9c-0.1,0.1-0.2,0.1-0.3,0.2c-0.4,0.3-0.8,0.5-1.2,0.8
		c-0.1,0.1-0.2,0.1-0.3,0.2c-0.4,0.3-0.9,0.7-1.3,1c0,0-0.1,0-0.1,0.1c-0.9,0.8-1.8,1.6-2.7,2.5c-0.1,0.1-0.1,0.1-0.2,0.2
		c-0.4,0.4-0.7,0.8-1.1,1.2c-0.1,0.1-0.1,0.1-0.2,0.2c-4.6,5.5-7.4,12.5-7.4,20.3c0,17.3,14,31.3,31.3,31.3c0.7,0,1.4,0,2.1-0.1
		c0,0,0,0.1,0,0.1c0,6.9,2.2,13.3,6,18.5l6.4,6.5c5.3,4,11.8,6.3,18.9,6.3c10.4,0,19.5-5,25.2-12.8c0,0,0,0,0,0c0,0,0,0,0,0
		c0.4-0.6,0.9-1.2,1.3-1.9c0,0,0-0.1,0.1-0.1c0.4-0.6,0.8-1.3,1.1-2c0,0,0-0.1,0.1-0.1c0.7-1.4,1.3-2.8,1.8-4.2c0,0,0-0.1,0-0.1
		c0.5-1.5,0.9-3,1.2-4.6c0,0,0,0,0-0.1c0.3-1.8,0.5-3.6,0.5-5.5c0-0.3,0-0.5,0-0.8c2.2,0.5,4.6,0.8,6.9,0.8
		C135.4,87.8,144.6,82.8,150.3,75C150.3,75,150.3,75,150.3,75C150.3,75,150.3,75,150.3,75z"/>
	<path class="st33" d="M151,74.3c0.5-0.6,0.9-1.2,1.3-1.9c0,0,0.1-0.1,0.1-0.1c0.4-0.6,0.8-1.3,1.1-2c0-0.1,0.1-0.2,0.1-0.2
		c0.7-1.3,1.3-2.7,1.8-4.2c0-0.1,0.1-0.2,0.1-0.3c0.2-0.7,0.4-1.4,0.6-2.1c0-0.1,0-0.2,0.1-0.3c0.2-0.7,0.3-1.4,0.4-2
		c0-0.1,0-0.2,0.1-0.3c0.1-0.7,0.2-1.5,0.3-2.2c0-0.2,0-0.3,0-0.5c0.1-0.8,0.1-1.5,0.1-2.3c0-17.3-14-31.3-31.3-31.3
		c-2.6,0-5.2,0.3-7.6,0.9c-3-14.1-15.6-24.7-30.6-24.7c-0.6,0-1.2,0-1.8,0.1c-0.2,0-0.3,0-0.5,0c-0.6,0-1.1,0.1-1.7,0.2
		c0,0-0.1,0-0.1,0c-0.6,0.1-1.2,0.2-1.7,0.3c-0.1,0-0.3,0.1-0.4,0.1c-0.5,0.1-1.1,0.2-1.6,0.4c0,0-0.1,0-0.1,0
		c-0.6,0.1-1.1,0.3-1.7,0.5c-0.1,0-0.2,0.1-0.3,0.1c-0.5,0.2-1,0.4-1.5,0.6c0,0-0.1,0-0.1,0c-0.6,0.2-1.1,0.5-1.6,0.7
		c-0.1,0-0.2,0.1-0.2,0.1c-0.5,0.2-1,0.5-1.5,0.8c0,0-0.1,0-0.1,0c-0.5,0.3-1.1,0.6-1.6,0.9c0,0-0.1,0.1-0.1,0.1
		c-0.5,0.3-1,0.6-1.5,1c0,0,0,0,0,0c-0.5,0.4-1,0.7-1.5,1.1c0,0,0,0,0,0c-0.5,0.4-0.9,0.8-1.4,1.2c0,0,0,0,0,0
		c-1.9,1.6-3.5,3.6-4.9,5.7c0,0,0,0,0,0c0,0,0,0,0,0c-2,3-3.5,6.3-4.3,9.9c-0.2,0-0.3,0-0.5,0l0,0c0,0,0,0,0,0
		c-0.4,0-0.8-0.1-1.2-0.1c-0.4,0-0.9,0-1.3,0c-0.6,0-1.2,0-1.9,0.1c-0.2,0-0.4,0-0.6,0c-0.4,0-0.9,0.1-1.3,0.1c-0.2,0-0.4,0-0.6,0.1
		c-0.4,0.1-0.9,0.1-1.3,0.2c-0.2,0-0.3,0.1-0.5,0.1c-0.6,0.1-1.2,0.2-1.8,0.4c0,0-0.1,0-0.1,0c-0.5,0.1-1.1,0.3-1.6,0.5
		c-0.2,0.1-0.3,0.1-0.5,0.2c-0.4,0.1-0.8,0.3-1.2,0.4c-0.2,0.1-0.3,0.1-0.5,0.2c-0.4,0.2-0.9,0.4-1.3,0.6c-0.1,0-0.2,0.1-0.3,0.1
		c-0.5,0.3-1.1,0.5-1.6,0.8c0,0,0,0-0.1,0c-0.5,0.3-1,0.6-1.5,0.9c-0.1,0.1-0.2,0.1-0.3,0.2c-0.4,0.3-0.8,0.5-1.2,0.8
		c-0.1,0.1-0.2,0.1-0.3,0.2c-0.4,0.3-0.9,0.7-1.3,1c0,0-0.1,0-0.1,0.1c-0.9,0.8-1.8,1.6-2.7,2.5c-0.1,0.1-0.1,0.1-0.2,0.2
		c-0.4,0.4-0.7,0.8-1.1,1.2c-0.1,0.1-0.1,0.1-0.2,0.2c-4.6,5.5-7.4,12.5-7.4,20.3c0,17.3,14,31.3,31.3,31.3c0.7,0,1.4,0,2.1-0.1
		c0,0,0,0.1,0,0.1c0,6.9,2.2,13.3,6,18.5l6.4,6.5c5.3,4,11.8,6.3,18.9,6.3c10.4,0,19.5-5,25.2-12.8c0,0,0,0,0,0c0,0,0,0,0,0
		c0.4-0.6,0.9-1.2,1.3-1.9c0,0,0-0.1,0.1-0.1c0.4-0.6,0.8-1.3,1.1-2c0,0,0-0.1,0.1-0.1c0.7-1.4,1.3-2.8,1.8-4.2c0,0,0-0.1,0-0.1
		c0.5-1.5,0.9-3,1.2-4.6c0,0,0,0,0-0.1c0.3-1.8,0.5-3.6,0.5-5.5c0-0.3,0-0.5,0-0.8c2.2,0.5,4.6,0.8,6.9,0.8
		C136.1,87.1,145.3,82.1,151,74.3C151,74.3,151,74.3,151,74.3C151,74.3,151,74.3,151,74.3z"/>
	<path class="st34" d="M151.7,73.6c0.4-0.6,0.9-1.2,1.3-1.9c0,0,0.1-0.1,0.1-0.1c0.4-0.6,0.8-1.3,1.1-2c0-0.1,0.1-0.2,0.1-0.2
		c0.7-1.3,1.3-2.7,1.8-4.2c0-0.1,0.1-0.2,0.1-0.3c0.2-0.7,0.4-1.4,0.6-2.1c0-0.1,0-0.2,0.1-0.3c0.2-0.7,0.3-1.4,0.4-2
		c0-0.1,0-0.2,0.1-0.3c0.1-0.7,0.2-1.5,0.3-2.2c0-0.2,0-0.3,0-0.5c0.1-0.8,0.1-1.5,0.1-2.3c0-17.3-14-31.3-31.3-31.3
		c-2.6,0-5.2,0.3-7.6,0.9C115.8,10.6,103.2,0,88.2,0c-0.6,0-1.2,0-1.8,0.1c-0.2,0-0.3,0-0.5,0c-0.6,0-1.1,0.1-1.7,0.2
		c0,0-0.1,0-0.1,0c-0.6,0.1-1.2,0.2-1.7,0.3c-0.1,0-0.3,0.1-0.4,0.1C81.5,0.8,81,0.9,80.4,1c0,0-0.1,0-0.1,0
		c-0.6,0.1-1.1,0.3-1.7,0.5c-0.1,0-0.2,0.1-0.3,0.1c-0.5,0.2-1,0.4-1.5,0.6c0,0-0.1,0-0.1,0C76.1,2.5,75.5,2.7,75,3
		c-0.1,0-0.2,0.1-0.2,0.1c-0.5,0.2-1,0.5-1.5,0.8c0,0-0.1,0-0.1,0c-0.5,0.3-1.1,0.6-1.6,0.9c0,0-0.1,0.1-0.1,0.1
		c-0.5,0.3-1,0.6-1.5,1c0,0,0,0,0,0c-0.5,0.4-1,0.7-1.5,1.1c0,0,0,0,0,0c-0.5,0.4-1,0.8-1.4,1.2c0,0,0,0,0,0
		c-1.9,1.7-3.5,3.6-4.9,5.7c0,0,0,0,0,0c0,0,0,0,0,0c-2,3-3.5,6.3-4.3,9.9c-0.2,0-0.3,0-0.5,0l0,0c0,0,0,0,0,0
		c-0.4,0-0.8-0.1-1.2-0.1c-0.4,0-0.9,0-1.3,0c-0.6,0-1.2,0-1.9,0.1c-0.2,0-0.4,0-0.6,0c-0.4,0-0.9,0.1-1.3,0.1c-0.2,0-0.4,0-0.6,0.1
		c-0.4,0.1-0.9,0.1-1.3,0.2c-0.2,0-0.3,0.1-0.5,0.1c-0.6,0.1-1.2,0.2-1.8,0.4c0,0-0.1,0-0.1,0c-0.5,0.1-1.1,0.3-1.6,0.5
		c-0.2,0.1-0.3,0.1-0.5,0.2c-0.4,0.1-0.8,0.3-1.2,0.4c-0.2,0.1-0.3,0.1-0.5,0.2c-0.4,0.2-0.9,0.4-1.3,0.6c-0.1,0-0.2,0.1-0.3,0.1
		c-0.5,0.3-1.1,0.5-1.6,0.8c0,0,0,0-0.1,0c-0.5,0.3-1,0.6-1.5,0.9c-0.1,0.1-0.2,0.1-0.3,0.2c-0.4,0.3-0.8,0.5-1.2,0.8
		c-0.1,0.1-0.2,0.1-0.3,0.2c-0.4,0.3-0.9,0.7-1.3,1c0,0-0.1,0-0.1,0.1c-0.9,0.8-1.8,1.6-2.7,2.5c-0.1,0.1-0.1,0.1-0.2,0.2
		c-0.4,0.4-0.7,0.8-1.1,1.2c-0.1,0.1-0.1,0.1-0.2,0.2c-4.6,5.5-7.4,12.5-7.4,20.3c0,17.3,14,31.3,31.3,31.3c0.7,0,1.4,0,2.1-0.1
		c0,0,0,0.1,0,0.1c0,6.9,2.2,13.3,6,18.5l6.4,6.5c5.3,4,11.8,6.3,18.9,6.3c10.4,0,19.5-5,25.2-12.8c0,0,0,0,0,0c0,0,0,0,0,0
		c0.4-0.6,0.9-1.2,1.3-1.9c0,0,0-0.1,0.1-0.1c0.4-0.6,0.8-1.3,1.1-2c0,0,0-0.1,0.1-0.1c0.7-1.4,1.3-2.8,1.8-4.2c0,0,0-0.1,0-0.1
		c0.5-1.5,0.9-3,1.2-4.6c0,0,0,0,0-0.1c0.3-1.8,0.5-3.6,0.5-5.5c0-0.3,0-0.5,0-0.8c2.2,0.5,4.6,0.8,6.9,0.8
		C136.8,86.4,146,81.3,151.7,73.6C151.7,73.6,151.7,73.6,151.7,73.6C151.7,73.6,151.7,73.6,151.7,73.6z"/>
</g>
<g>
	<linearGradient id="SVGID_1_" gradientUnits="userSpaceOnUse" x1="49.9864" y1="127.6119" x2="110.2708" y2="20.8431">
		<stop  offset="0" style="stop-color:#FFFFFF"/>
		<stop  offset="1" style="stop-color:#C9C7C7"/>
	</linearGradient>
	<path class="st35" d="M126.4,24.3c-2.6,0-5.2,0.3-7.6,0.9c-3-14.1-15.6-24.7-30.6-24.7c-14.7,0-27.1,10.2-30.4,23.9
		c-1-0.1-2-0.1-3-0.1c-17.3,0-31.3,14-31.3,31.3c0,17.3,14,31.3,31.3,31.3c0.7,0,1.4,0,2.1-0.1c0,0,0,0.1,0,0.1
		c0,6.9,2.2,13.3,6,18.5L45.8,128l23.5-16.1c5.3,4,11.8,6.3,18.9,6.3c17.3,0,31.3-14,31.3-31.3c0-0.3,0-0.5,0-0.8
		c2.2,0.5,4.6,0.8,6.9,0.8c17.3,0,31.3-14,31.3-31.3C157.8,38.3,143.7,24.3,126.4,24.3z"/>
	<g>
		<path class="st36" d="M119.5,87.5c-0.3-0.1-0.6-0.1-0.9-0.2c0,0.3,0,0.5,0,0.8c0,6.4-1.9,12.4-5.2,17.3
			C117.2,100.4,119.4,94.2,119.5,87.5z"/>
		<path class="st36" d="M87.4,1.8c15,0,27.5,10.6,30.6,24.7c2.4-0.6,5-0.9,7.6-0.9c17.3,0,31.3,14,31.3,31.3
			c0,6.4-1.9,12.4-5.2,17.3c3.8-5.2,6.1-11.6,6.1-18.5c0-17.3-14-31.3-31.3-31.3c-2.6,0-5.2,0.3-7.6,0.9
			c-3-14.1-15.6-24.7-30.6-24.7c-10.9,0-20.5,5.6-26.1,14C67.8,6.8,77,1.8,87.4,1.8z"/>
		<path class="st36" d="M54,25.5c1,0,2,0.1,3,0.1c0.1-0.4,0.2-0.8,0.3-1.2c-0.8-0.1-1.6-0.1-2.5-0.1c-10.9,0-20.5,5.6-26.1,14
			C34.4,30.6,43.6,25.5,54,25.5z"/>
	</g>
</g>
<g>
	<g>
		<path class="st37" d="M75.2,76.7v16.4h25.4V76.7L88,84C88,84,81.4,80.2,75.2,76.7z"/>
		<path class="st37" d="M94.5,52.9c-1.6-0.6-2.7-2.1-2.7-3.8V28.4H84V49c0,1.7-1.1,3.3-2.7,3.8c-3.6,1.3-6.1,4.7-6.1,8.8v3.2
			L88,57.5c0,0,6.6,3.8,12.7,7.3v-3.2C100.7,57.6,98.1,54.2,94.5,52.9z"/>
	</g>
	<polygon class="st38" points="92.3,23.7 83.6,23.7 82.8,28.4 93.1,28.4 	"/>
	<rect x="84" y="28.4" class="st39" width="7.8" height="2.6"/>
	<rect x="84" y="35" class="st38" width="7.8" height="11.1"/>
	<path class="st36" d="M75.2,76.7C81.4,80.2,88,84,88,84l12.7-7.3V64.8C94.5,61.3,88,57.5,88,57.5l-12.7,7.3V76.7z"/>
	<circle class="st38" cx="88" cy="70.7" r="4.3"/>
</g>
</svg>
