<?xml version="1.0" encoding="utf-8"?>
<!-- Generator: Adobe Illustrator 20.1.0, SVG Export Plug-In . SVG Version: 6.00 Build 0)  -->
<svg version="1.1" id="Layer_1" xmlns="http://www.w3.org/2000/svg" xmlns:xlink="http://www.w3.org/1999/xlink" x="0px" y="0px"
	 viewBox="0 0 172 145" style="enable-background:new 0 0 172 145;" xml:space="preserve">
<style type="text/css">
	.st0{opacity:0.6;}
	.st1{opacity:0;fill:#756937;}
	.st2{opacity:2.702703e-02;fill:#756937;}
	.st3{opacity:5.405406e-02;fill:#756937;}
	.st4{opacity:8.108108e-02;fill:#756937;}
	.st5{opacity:0.1081;fill:#756937;}
	.st6{opacity:0.1351;fill:#756937;}
	.st7{opacity:0.1622;fill:#756937;}
	.st8{opacity:0.1892;fill:#756937;}
	.st9{opacity:0.2162;fill:#756937;}
	.st10{opacity:0.2432;fill:#756937;}
	.st11{opacity:0.2703;fill:#756937;}
	.st12{opacity:0.2973;fill:#756937;}
	.st13{opacity:0.3243;fill:#756937;}
	.st14{opacity:0.3514;fill:#756937;}
	.st15{opacity:0.3784;fill:#756937;}
	.st16{opacity:0.4054;fill:#756937;}
	.st17{opacity:0.4324;fill:#756937;}
	.st18{opacity:0.4595;fill:#756937;}
	.st19{opacity:0.4865;fill:#756937;}
	.st20{opacity:0.5135;fill:#756937;}
	.st21{opacity:0.5405;fill:#756937;}
	.st22{opacity:0.5676;fill:#756937;}
	.st23{opacity:0.5946;fill:#756937;}
	.st24{opacity:0.6216;fill:#756937;}
	.st25{opacity:0.6486;fill:#756937;}
	.st26{opacity:0.6757;fill:#756937;}
	.st27{opacity:0.7027;fill:#756937;}
	.st28{opacity:0.7297;fill:#756937;}
	.st29{opacity:0.7568;fill:#756937;}
	.st30{opacity:0.7838;fill:#756937;}
	.st31{opacity:0.8108;fill:#756937;}
	.st32{opacity:0.8378;fill:#756937;}
	.st33{opacity:0.8649;fill:#756937;}
	.st34{opacity:0.8919;fill:#756937;}
	.st35{opacity:0.9189;fill:#756937;}
	.st36{opacity:0.9459;fill:#756937;}
	.st37{opacity:0.973;fill:#756937;}
	.st38{fill:#756937;}
	.st39{fill:url(#SVGID_1_);}
	.st40{fill:#FFFFFF;}
	.st41{fill:#FF4C4C;}
	.st42{fill:#CC3C3C;}
	.st43{fill:#FFCC66;}
</style>
<g class="st0">
	<path class="st1" d="M138.1,133.8c0.3-0.3,0.5-0.6,0.8-0.9c0.1-0.1,0.2-0.2,0.2-0.3c0.2-0.3,0.5-0.6,0.7-1c0.1-0.1,0.1-0.2,0.2-0.3
		c0.2-0.4,0.5-0.7,0.7-1.1c0-0.1,0.1-0.2,0.1-0.2c0.6-0.9,1.1-1.9,1.5-2.8c0,0,0-0.1,0-0.1c0.2-0.4,0.4-0.9,0.6-1.4
		c0.1-0.1,0.1-0.3,0.2-0.4c0.1-0.4,0.3-0.7,0.4-1.1c0.1-0.2,0.1-0.4,0.2-0.5c0.1-0.3,0.2-0.7,0.3-1c0.1-0.2,0.1-0.4,0.2-0.6
		c0.1-0.3,0.2-0.6,0.2-1c0.1-0.2,0.1-0.4,0.1-0.6c0.1-0.3,0.1-0.6,0.2-1c0-0.2,0.1-0.4,0.1-0.6c0.1-0.3,0.1-0.7,0.1-1
		c0-0.2,0.1-0.4,0.1-0.6c0-0.4,0.1-0.7,0.1-1.1c0-0.2,0-0.4,0-0.5c0-0.6,0-1.1,0-1.7V56.6c0-16.8-13.7-30.5-30.5-30.5H30.6
		c-0.5,0-1,0-1.5,0c-0.2,0-0.3,0-0.5,0c-0.3,0-0.7,0-1,0.1c-0.2,0-0.4,0.1-0.6,0.1c-0.3,0-0.6,0.1-0.9,0.1c-0.2,0-0.4,0.1-0.7,0.1
		c-0.3,0-0.5,0.1-0.8,0.1c-0.2,0-0.5,0.1-0.7,0.2c-0.2,0.1-0.5,0.1-0.7,0.2c-0.2,0.1-0.5,0.1-0.7,0.2c-0.2,0.1-0.5,0.1-0.7,0.2
		c-0.2,0.1-0.5,0.2-0.7,0.2c-0.2,0.1-0.4,0.1-0.6,0.2c-0.2,0.1-0.5,0.2-0.7,0.3c-0.2,0.1-0.4,0.2-0.6,0.2c-0.3,0.1-0.5,0.2-0.7,0.3
		c-0.2,0.1-0.4,0.2-0.6,0.3c-0.3,0.1-0.5,0.2-0.8,0.4c-0.2,0.1-0.3,0.2-0.5,0.3c-0.3,0.1-0.5,0.3-0.8,0.4c-0.2,0.1-0.3,0.2-0.5,0.3
		c-0.3,0.2-0.5,0.3-0.8,0.5c-0.1,0.1-0.3,0.2-0.4,0.3c-0.3,0.2-0.5,0.3-0.8,0.5c-0.1,0.1-0.2,0.2-0.4,0.3c-0.3,0.2-0.5,0.4-0.8,0.6
		c-0.1,0.1-0.2,0.2-0.3,0.2c-0.3,0.2-0.6,0.4-0.8,0.7c-0.1,0.1-0.1,0.1-0.2,0.2C4.3,39,0.1,47.3,0.1,56.6V114c0,9,3.9,17,10,22.6
		l8.9,5.6c3.6,1.5,7.5,2.3,11.6,2.3h84.3c8,0,15.3-3.1,20.7-8.1c0.1-0.1,0.1-0.1,0.2-0.2c0.3-0.3,0.6-0.6,1-0.9
		c0.1-0.1,0.2-0.2,0.2-0.2c0.3-0.3,0.6-0.6,0.8-0.9C137.9,134,138,133.9,138.1,133.8z"/>
	<path class="st2" d="M138.8,133.1c0.3-0.3,0.5-0.6,0.8-0.9c0.1-0.1,0.2-0.2,0.2-0.3c0.2-0.3,0.5-0.6,0.7-1c0.1-0.1,0.1-0.2,0.2-0.3
		c0.2-0.4,0.5-0.7,0.7-1.1c0-0.1,0.1-0.2,0.1-0.2c0.6-0.9,1.1-1.9,1.5-2.8c0,0,0-0.1,0-0.1c0.2-0.4,0.4-0.9,0.6-1.4
		c0.1-0.1,0.1-0.3,0.2-0.4c0.1-0.4,0.3-0.7,0.4-1.1c0.1-0.2,0.1-0.4,0.2-0.5c0.1-0.3,0.2-0.7,0.3-1c0.1-0.2,0.1-0.4,0.2-0.6
		c0.1-0.3,0.2-0.6,0.2-1c0.1-0.2,0.1-0.4,0.1-0.6c0.1-0.3,0.1-0.6,0.2-1c0-0.2,0.1-0.4,0.1-0.6c0.1-0.3,0.1-0.7,0.1-1
		c0-0.2,0.1-0.4,0.1-0.6c0-0.4,0.1-0.7,0.1-1.1c0-0.2,0-0.4,0-0.5c0-0.6,0-1.1,0-1.7V55.9c0-16.8-13.7-30.5-30.5-30.5H31.3
		c-0.5,0-1,0-1.5,0c-0.2,0-0.3,0-0.5,0c-0.3,0-0.7,0-1,0.1c-0.2,0-0.4,0.1-0.6,0.1c-0.3,0-0.6,0.1-0.9,0.1c-0.2,0-0.4,0.1-0.7,0.1
		c-0.3,0-0.5,0.1-0.8,0.1c-0.2,0-0.5,0.1-0.7,0.2c-0.2,0.1-0.5,0.1-0.7,0.2c-0.2,0.1-0.5,0.1-0.7,0.2c-0.2,0.1-0.5,0.1-0.7,0.2
		c-0.2,0.1-0.5,0.2-0.7,0.2c-0.2,0.1-0.4,0.1-0.6,0.2c-0.2,0.1-0.5,0.2-0.7,0.3c-0.2,0.1-0.4,0.2-0.6,0.2c-0.3,0.1-0.5,0.2-0.7,0.3
		c-0.2,0.1-0.4,0.2-0.6,0.3c-0.3,0.1-0.5,0.2-0.8,0.4c-0.2,0.1-0.3,0.2-0.5,0.3c-0.3,0.1-0.5,0.3-0.8,0.4c-0.2,0.1-0.3,0.2-0.5,0.3
		c-0.3,0.2-0.5,0.3-0.8,0.5c-0.1,0.1-0.3,0.2-0.4,0.3c-0.3,0.2-0.5,0.3-0.8,0.5c-0.1,0.1-0.2,0.2-0.4,0.3c-0.3,0.2-0.5,0.4-0.8,0.6
		c-0.1,0.1-0.2,0.2-0.3,0.2c-0.3,0.2-0.6,0.4-0.8,0.7c-0.1,0.1-0.1,0.1-0.2,0.2C5,38.2,0.8,46.6,0.8,55.9v57.4c0,9,3.9,17,10,22.6
		l8.9,5.6c3.6,1.5,7.5,2.3,11.6,2.3h84.3c8,0,15.3-3.1,20.7-8.1c0.1-0.1,0.1-0.1,0.2-0.2c0.3-0.3,0.6-0.6,1-0.9
		c0.1-0.1,0.2-0.2,0.2-0.2c0.3-0.3,0.6-0.6,0.8-0.9C138.6,133.3,138.7,133.2,138.8,133.1z"/>
	<path class="st3" d="M139.5,132.4c0.3-0.3,0.5-0.6,0.8-0.9c0.1-0.1,0.2-0.2,0.2-0.3c0.2-0.3,0.5-0.6,0.7-1c0.1-0.1,0.1-0.2,0.2-0.3
		c0.2-0.4,0.5-0.7,0.7-1.1c0-0.1,0.1-0.2,0.1-0.2c0.6-0.9,1.1-1.9,1.5-2.8c0,0,0-0.1,0-0.1c0.2-0.4,0.4-0.9,0.6-1.4
		c0.1-0.1,0.1-0.3,0.2-0.4c0.1-0.4,0.3-0.7,0.4-1.1c0.1-0.2,0.1-0.4,0.2-0.5c0.1-0.3,0.2-0.7,0.3-1c0.1-0.2,0.1-0.4,0.2-0.6
		c0.1-0.3,0.2-0.6,0.2-1c0.1-0.2,0.1-0.4,0.1-0.6c0.1-0.3,0.1-0.6,0.2-1c0-0.2,0.1-0.4,0.1-0.6c0.1-0.3,0.1-0.7,0.1-1
		c0-0.2,0.1-0.4,0.1-0.6c0-0.4,0.1-0.7,0.1-1.1c0-0.2,0-0.4,0-0.5c0-0.6,0-1.1,0-1.7V55.2c0-16.8-13.7-30.5-30.5-30.5H32
		c-0.5,0-1,0-1.5,0c-0.2,0-0.3,0-0.5,0c-0.3,0-0.7,0-1,0.1c-0.2,0-0.4,0.1-0.6,0.1c-0.3,0-0.6,0.1-0.9,0.1c-0.2,0-0.4,0.1-0.7,0.1
		c-0.3,0-0.5,0.1-0.8,0.1c-0.2,0-0.5,0.1-0.7,0.2c-0.2,0.1-0.5,0.1-0.7,0.2c-0.2,0.1-0.5,0.1-0.7,0.2c-0.2,0.1-0.5,0.1-0.7,0.2
		c-0.2,0.1-0.5,0.2-0.7,0.2c-0.2,0.1-0.4,0.1-0.6,0.2c-0.2,0.1-0.5,0.2-0.7,0.3c-0.2,0.1-0.4,0.2-0.6,0.2c-0.3,0.1-0.5,0.2-0.7,0.3
		c-0.2,0.1-0.4,0.2-0.6,0.3c-0.3,0.1-0.5,0.2-0.8,0.4c-0.2,0.1-0.3,0.2-0.5,0.3c-0.3,0.1-0.5,0.3-0.8,0.4c-0.2,0.1-0.3,0.2-0.5,0.3
		c-0.3,0.2-0.5,0.3-0.8,0.5c-0.1,0.1-0.3,0.2-0.4,0.3c-0.3,0.2-0.5,0.3-0.8,0.5c-0.1,0.1-0.2,0.2-0.4,0.3c-0.3,0.2-0.5,0.4-0.8,0.6
		c-0.1,0.1-0.2,0.2-0.3,0.2c-0.3,0.2-0.6,0.4-0.8,0.7c-0.1,0.1-0.1,0.1-0.2,0.2C5.7,37.5,1.5,45.9,1.5,55.2v57.4c0,9,3.9,17,10,22.6
		l8.9,5.6c3.6,1.5,7.5,2.3,11.6,2.3h84.3c8,0,15.3-3.1,20.7-8.1c0.1-0.1,0.1-0.1,0.2-0.2c0.3-0.3,0.6-0.6,1-0.9
		c0.1-0.1,0.2-0.2,0.2-0.2c0.3-0.3,0.6-0.6,0.8-0.9C139.3,132.6,139.4,132.5,139.5,132.4z"/>
	<path class="st4" d="M140.2,131.7c0.3-0.3,0.5-0.6,0.8-0.9c0.1-0.1,0.2-0.2,0.2-0.3c0.2-0.3,0.5-0.6,0.7-1c0.1-0.1,0.1-0.2,0.2-0.3
		c0.2-0.4,0.5-0.7,0.7-1.1c0-0.1,0.1-0.2,0.1-0.2c0.6-0.9,1.1-1.9,1.5-2.8c0,0,0-0.1,0-0.1c0.2-0.4,0.4-0.9,0.6-1.4
		c0.1-0.1,0.1-0.3,0.2-0.4c0.1-0.4,0.3-0.7,0.4-1.1c0.1-0.2,0.1-0.4,0.2-0.5c0.1-0.3,0.2-0.7,0.3-1c0.1-0.2,0.1-0.4,0.2-0.6
		c0.1-0.3,0.2-0.6,0.2-1c0.1-0.2,0.1-0.4,0.1-0.6c0.1-0.3,0.1-0.6,0.2-1c0-0.2,0.1-0.4,0.1-0.6c0.1-0.3,0.1-0.7,0.1-1
		c0-0.2,0.1-0.4,0.1-0.6c0-0.4,0.1-0.7,0.1-1.1c0-0.2,0-0.4,0-0.5c0-0.6,0-1.1,0-1.7V54.5c0-16.8-13.7-30.5-30.5-30.5H32.7
		c-0.5,0-1,0-1.5,0c-0.2,0-0.3,0-0.5,0c-0.3,0-0.7,0-1,0.1c-0.2,0-0.4,0.1-0.6,0.1c-0.3,0-0.6,0.1-0.9,0.1c-0.2,0-0.4,0.1-0.7,0.1
		c-0.3,0-0.5,0.1-0.8,0.1c-0.2,0-0.5,0.1-0.7,0.2c-0.2,0.1-0.5,0.1-0.7,0.2c-0.2,0.1-0.5,0.1-0.7,0.2c-0.2,0.1-0.5,0.1-0.7,0.2
		c-0.2,0.1-0.5,0.2-0.7,0.2c-0.2,0.1-0.4,0.1-0.6,0.2c-0.2,0.1-0.5,0.2-0.7,0.3c-0.2,0.1-0.4,0.2-0.6,0.2c-0.3,0.1-0.5,0.2-0.7,0.3
		c-0.2,0.1-0.4,0.2-0.6,0.3c-0.3,0.1-0.5,0.2-0.8,0.4c-0.2,0.1-0.3,0.2-0.5,0.3c-0.3,0.1-0.5,0.3-0.8,0.4c-0.2,0.1-0.3,0.2-0.5,0.3
		c-0.3,0.2-0.5,0.3-0.8,0.5c-0.1,0.1-0.3,0.2-0.4,0.3c-0.3,0.2-0.5,0.3-0.8,0.5c-0.1,0.1-0.2,0.2-0.4,0.3c-0.3,0.2-0.5,0.4-0.8,0.6
		c-0.1,0.1-0.2,0.2-0.3,0.2c-0.3,0.2-0.6,0.4-0.8,0.7c-0.1,0.1-0.1,0.1-0.2,0.2C6.4,36.8,2.2,45.2,2.2,54.5v57.4c0,9,3.9,17,10,22.6
		l8.9,5.6c3.6,1.5,7.5,2.3,11.6,2.3H117c8,0,15.3-3.1,20.7-8.1c0.1-0.1,0.1-0.1,0.2-0.2c0.3-0.3,0.6-0.6,1-0.9
		c0.1-0.1,0.2-0.2,0.2-0.2c0.3-0.3,0.6-0.6,0.8-0.9C140,131.9,140.1,131.8,140.2,131.7z"/>
	<path class="st5" d="M140.9,131c0.3-0.3,0.5-0.6,0.8-0.9c0.1-0.1,0.2-0.2,0.2-0.3c0.2-0.3,0.5-0.6,0.7-1c0.1-0.1,0.1-0.2,0.2-0.3
		c0.2-0.4,0.5-0.7,0.7-1.1c0-0.1,0.1-0.2,0.1-0.2c0.6-0.9,1.1-1.9,1.5-2.8c0,0,0-0.1,0-0.1c0.2-0.4,0.4-0.9,0.6-1.4
		c0.1-0.1,0.1-0.3,0.2-0.4c0.1-0.4,0.3-0.7,0.4-1.1c0.1-0.2,0.1-0.4,0.2-0.5c0.1-0.3,0.2-0.7,0.3-1c0.1-0.2,0.1-0.4,0.2-0.6
		c0.1-0.3,0.2-0.6,0.2-1c0.1-0.2,0.1-0.4,0.1-0.6c0.1-0.3,0.1-0.6,0.2-1c0-0.2,0.1-0.4,0.1-0.6c0.1-0.3,0.1-0.7,0.1-1
		c0-0.2,0.1-0.4,0.1-0.6c0-0.4,0.1-0.7,0.1-1.1c0-0.2,0-0.4,0-0.5c0-0.6,0-1.1,0-1.7V53.8c0-16.8-13.7-30.5-30.5-30.5H33.4
		c-0.5,0-1,0-1.5,0c-0.2,0-0.3,0-0.5,0c-0.3,0-0.7,0-1,0.1c-0.2,0-0.4,0.1-0.6,0.1c-0.3,0-0.6,0.1-0.9,0.1c-0.2,0-0.4,0.1-0.7,0.1
		c-0.3,0-0.5,0.1-0.8,0.1c-0.2,0-0.5,0.1-0.7,0.2c-0.2,0.1-0.5,0.1-0.7,0.2c-0.2,0.1-0.5,0.1-0.7,0.2c-0.2,0.1-0.5,0.1-0.7,0.2
		c-0.2,0.1-0.5,0.2-0.7,0.2c-0.2,0.1-0.4,0.1-0.6,0.2c-0.2,0.1-0.5,0.2-0.7,0.3c-0.2,0.1-0.4,0.2-0.6,0.2c-0.3,0.1-0.5,0.2-0.7,0.3
		c-0.2,0.1-0.4,0.2-0.6,0.3c-0.3,0.1-0.5,0.2-0.8,0.4c-0.2,0.1-0.3,0.2-0.5,0.3c-0.3,0.1-0.5,0.3-0.8,0.4c-0.2,0.1-0.3,0.2-0.5,0.3
		c-0.3,0.2-0.5,0.3-0.8,0.5c-0.1,0.1-0.3,0.2-0.4,0.3c-0.3,0.2-0.5,0.3-0.8,0.5c-0.1,0.1-0.2,0.2-0.4,0.3c-0.3,0.2-0.5,0.4-0.8,0.6
		c-0.1,0.1-0.2,0.2-0.3,0.2c-0.3,0.2-0.6,0.4-0.8,0.7c-0.1,0.1-0.1,0.1-0.2,0.2C7.1,36.1,2.9,44.5,2.9,53.8v57.4c0,9,3.9,17,10,22.6
		l8.9,5.6c3.6,1.5,7.5,2.3,11.6,2.3h84.3c8,0,15.3-3.1,20.7-8.1c0.1-0.1,0.1-0.1,0.2-0.2c0.3-0.3,0.6-0.6,1-0.9
		c0.1-0.1,0.2-0.2,0.2-0.2c0.3-0.3,0.6-0.6,0.8-0.9C140.7,131.2,140.8,131.1,140.9,131z"/>
	<path class="st6" d="M141.6,130.3c0.3-0.3,0.5-0.6,0.8-0.9c0.1-0.1,0.2-0.2,0.2-0.3c0.2-0.3,0.5-0.6,0.7-1c0.1-0.1,0.1-0.2,0.2-0.3
		c0.2-0.4,0.5-0.7,0.7-1.1c0-0.1,0.1-0.2,0.1-0.2c0.6-0.9,1.1-1.9,1.5-2.8c0,0,0-0.1,0-0.1c0.2-0.4,0.4-0.9,0.6-1.4
		c0.1-0.1,0.1-0.3,0.2-0.4c0.1-0.4,0.3-0.7,0.4-1.1c0.1-0.2,0.1-0.4,0.2-0.5c0.1-0.3,0.2-0.7,0.3-1c0.1-0.2,0.1-0.4,0.2-0.6
		c0.1-0.3,0.2-0.6,0.2-1c0.1-0.2,0.1-0.4,0.1-0.6c0.1-0.3,0.1-0.6,0.2-1c0-0.2,0.1-0.4,0.1-0.6c0.1-0.3,0.1-0.7,0.1-1
		c0-0.2,0.1-0.4,0.1-0.6c0-0.4,0.1-0.7,0.1-1.1c0-0.2,0-0.4,0-0.5c0-0.6,0-1.1,0-1.7V53.1c0-16.8-13.7-30.5-30.5-30.5H34.1
		c-0.5,0-1,0-1.5,0c-0.2,0-0.3,0-0.5,0c-0.3,0-0.7,0-1,0.1c-0.2,0-0.4,0.1-0.6,0.1c-0.3,0-0.6,0.1-0.9,0.1c-0.2,0-0.4,0.1-0.7,0.1
		c-0.3,0-0.5,0.1-0.8,0.1c-0.2,0-0.5,0.1-0.7,0.2c-0.2,0.1-0.5,0.1-0.7,0.2c-0.2,0.1-0.5,0.1-0.7,0.2c-0.2,0.1-0.5,0.1-0.7,0.2
		c-0.2,0.1-0.5,0.2-0.7,0.2c-0.2,0.1-0.4,0.1-0.6,0.2c-0.2,0.1-0.5,0.2-0.7,0.3c-0.2,0.1-0.4,0.2-0.6,0.2c-0.3,0.1-0.5,0.2-0.7,0.3
		c-0.2,0.1-0.4,0.2-0.6,0.3c-0.3,0.1-0.5,0.2-0.8,0.4C20.4,25.9,20.2,26,20,26c-0.3,0.1-0.5,0.3-0.8,0.4c-0.2,0.1-0.3,0.2-0.5,0.3
		c-0.3,0.2-0.5,0.3-0.8,0.5c-0.1,0.1-0.3,0.2-0.4,0.3c-0.3,0.2-0.5,0.3-0.8,0.5c-0.1,0.1-0.2,0.2-0.4,0.3c-0.3,0.2-0.5,0.4-0.8,0.6
		c-0.1,0.1-0.2,0.2-0.3,0.2c-0.3,0.2-0.6,0.4-0.8,0.7c-0.1,0.1-0.1,0.1-0.2,0.2C7.8,35.4,3.6,43.8,3.6,53.1v57.4c0,9,3.9,17,10,22.6
		l8.9,5.6c3.6,1.5,7.5,2.3,11.6,2.3h84.3c8,0,15.3-3.1,20.7-8.1c0.1-0.1,0.1-0.1,0.2-0.2c0.3-0.3,0.6-0.6,1-0.9
		c0.1-0.1,0.2-0.2,0.2-0.2c0.3-0.3,0.6-0.6,0.8-0.9C141.4,130.5,141.5,130.4,141.6,130.3z"/>
	<path class="st7" d="M142.3,129.6c0.3-0.3,0.5-0.6,0.8-0.9c0.1-0.1,0.2-0.2,0.2-0.3c0.2-0.3,0.5-0.6,0.7-1c0.1-0.1,0.1-0.2,0.2-0.3
		c0.2-0.4,0.5-0.7,0.7-1.1c0-0.1,0.1-0.2,0.1-0.2c0.6-0.9,1.1-1.9,1.5-2.8c0,0,0-0.1,0-0.1c0.2-0.4,0.4-0.9,0.6-1.4
		c0.1-0.1,0.1-0.3,0.2-0.4c0.1-0.4,0.3-0.7,0.4-1.1c0.1-0.2,0.1-0.4,0.2-0.5c0.1-0.3,0.2-0.7,0.3-1c0.1-0.2,0.1-0.4,0.2-0.6
		c0.1-0.3,0.2-0.6,0.2-1c0.1-0.2,0.1-0.4,0.1-0.6c0.1-0.3,0.1-0.6,0.2-1c0-0.2,0.1-0.4,0.1-0.6c0.1-0.3,0.1-0.7,0.1-1
		c0-0.2,0.1-0.4,0.1-0.6c0-0.4,0.1-0.7,0.1-1.1c0-0.2,0-0.4,0-0.5c0-0.6,0-1.1,0-1.7V52.4c0-16.8-13.7-30.5-30.5-30.5H34.8
		c-0.5,0-1,0-1.5,0c-0.2,0-0.3,0-0.5,0c-0.3,0-0.7,0-1,0.1c-0.2,0-0.4,0.1-0.6,0.1c-0.3,0-0.6,0.1-0.9,0.1c-0.2,0-0.4,0.1-0.7,0.1
		c-0.3,0-0.5,0.1-0.8,0.1c-0.2,0-0.5,0.1-0.7,0.2c-0.2,0.1-0.5,0.1-0.7,0.2c-0.2,0.1-0.5,0.1-0.7,0.2c-0.2,0.1-0.5,0.1-0.7,0.2
		c-0.2,0.1-0.5,0.2-0.7,0.2c-0.2,0.1-0.4,0.1-0.6,0.2c-0.2,0.1-0.5,0.2-0.7,0.3c-0.2,0.1-0.4,0.2-0.6,0.2c-0.3,0.1-0.5,0.2-0.7,0.3
		c-0.2,0.1-0.4,0.2-0.6,0.3c-0.3,0.1-0.5,0.2-0.8,0.4c-0.2,0.1-0.3,0.2-0.5,0.3c-0.3,0.1-0.5,0.3-0.8,0.4c-0.2,0.1-0.3,0.2-0.5,0.3
		c-0.3,0.2-0.5,0.3-0.8,0.5c-0.1,0.1-0.3,0.2-0.4,0.3c-0.3,0.2-0.5,0.3-0.8,0.5c-0.1,0.1-0.2,0.2-0.4,0.3c-0.3,0.2-0.5,0.4-0.8,0.6
		c-0.1,0.1-0.2,0.2-0.3,0.2c-0.3,0.2-0.6,0.4-0.8,0.7c-0.1,0.1-0.1,0.1-0.2,0.2C8.5,34.7,4.3,43.1,4.3,52.4v57.4c0,9,3.9,17,10,22.6
		l8.9,5.6c3.6,1.5,7.5,2.3,11.6,2.3h84.3c8,0,15.3-3.1,20.7-8.1c0.1-0.1,0.1-0.1,0.2-0.2c0.3-0.3,0.6-0.6,1-0.9
		c0.1-0.1,0.2-0.2,0.2-0.2c0.3-0.3,0.6-0.6,0.8-0.9C142.1,129.8,142.2,129.7,142.3,129.6z"/>
	<path class="st8" d="M143,128.9c0.3-0.3,0.5-0.6,0.8-0.9c0.1-0.1,0.2-0.2,0.2-0.3c0.2-0.3,0.5-0.6,0.7-1c0.1-0.1,0.1-0.2,0.2-0.3
		c0.2-0.4,0.5-0.7,0.7-1.1c0-0.1,0.1-0.2,0.1-0.2c0.6-0.9,1.1-1.9,1.5-2.8c0,0,0-0.1,0-0.1c0.2-0.4,0.4-0.9,0.6-1.4
		c0.1-0.1,0.1-0.3,0.2-0.4c0.1-0.4,0.3-0.7,0.4-1.1c0.1-0.2,0.1-0.4,0.2-0.5c0.1-0.3,0.2-0.7,0.3-1c0.1-0.2,0.1-0.4,0.2-0.6
		c0.1-0.3,0.2-0.6,0.2-1c0.1-0.2,0.1-0.4,0.1-0.6c0.1-0.3,0.1-0.6,0.2-1c0-0.2,0.1-0.4,0.1-0.6c0.1-0.3,0.1-0.7,0.1-1
		c0-0.2,0.1-0.4,0.1-0.6c0-0.4,0.1-0.7,0.1-1.1c0-0.2,0-0.4,0-0.5c0-0.6,0-1.1,0-1.7V51.7c0-16.8-13.7-30.5-30.5-30.5H35.5
		c-0.5,0-1,0-1.5,0c-0.2,0-0.3,0-0.5,0c-0.3,0-0.7,0-1,0.1c-0.2,0-0.4,0.1-0.6,0.1c-0.3,0-0.6,0.1-0.9,0.1c-0.2,0-0.4,0.1-0.7,0.1
		c-0.3,0-0.5,0.1-0.8,0.1c-0.2,0-0.5,0.1-0.7,0.2c-0.2,0.1-0.5,0.1-0.7,0.2c-0.2,0.1-0.5,0.1-0.7,0.2c-0.2,0.1-0.5,0.1-0.7,0.2
		c-0.2,0.1-0.5,0.2-0.7,0.2c-0.2,0.1-0.4,0.1-0.6,0.2c-0.2,0.1-0.5,0.2-0.7,0.3c-0.2,0.1-0.4,0.2-0.6,0.2c-0.3,0.1-0.5,0.2-0.7,0.3
		c-0.2,0.1-0.4,0.2-0.6,0.3c-0.3,0.1-0.5,0.2-0.8,0.4c-0.2,0.1-0.3,0.2-0.5,0.3c-0.3,0.1-0.5,0.3-0.8,0.4c-0.2,0.1-0.3,0.2-0.5,0.3
		c-0.3,0.2-0.5,0.3-0.8,0.5C19.3,25.9,19.2,26,19,26c-0.3,0.2-0.5,0.3-0.8,0.5c-0.1,0.1-0.2,0.2-0.4,0.3c-0.3,0.2-0.5,0.4-0.8,0.6
		c-0.1,0.1-0.2,0.2-0.3,0.2c-0.3,0.2-0.6,0.4-0.8,0.7c-0.1,0.1-0.1,0.1-0.2,0.2C9.2,34,5,42.4,5,51.7v57.4c0,9,3.9,17,10,22.6
		l8.9,5.6c3.6,1.5,7.5,2.3,11.6,2.3h84.3c8,0,15.3-3.1,20.7-8.1c0.1-0.1,0.1-0.1,0.2-0.2c0.3-0.3,0.6-0.6,1-0.9
		c0.1-0.1,0.2-0.2,0.2-0.2c0.3-0.3,0.6-0.6,0.8-0.9C142.8,129.1,142.9,129,143,128.9z"/>
	<path class="st9" d="M143.7,128.2c0.3-0.3,0.5-0.6,0.8-0.9c0.1-0.1,0.2-0.2,0.2-0.3c0.2-0.3,0.5-0.6,0.7-1c0.1-0.1,0.1-0.2,0.2-0.3
		c0.2-0.4,0.5-0.7,0.7-1.1c0-0.1,0.1-0.2,0.1-0.2c0.6-0.9,1.1-1.9,1.5-2.8c0,0,0-0.1,0-0.1c0.2-0.4,0.4-0.9,0.6-1.4
		c0.1-0.1,0.1-0.3,0.2-0.4c0.1-0.4,0.3-0.7,0.4-1.1c0.1-0.2,0.1-0.4,0.2-0.5c0.1-0.3,0.2-0.7,0.3-1c0.1-0.2,0.1-0.4,0.2-0.6
		c0.1-0.3,0.2-0.6,0.2-1c0.1-0.2,0.1-0.4,0.1-0.6c0.1-0.3,0.1-0.6,0.2-1c0-0.2,0.1-0.4,0.1-0.6c0.1-0.3,0.1-0.7,0.1-1
		c0-0.2,0.1-0.4,0.1-0.6c0-0.4,0.1-0.7,0.1-1.1c0-0.2,0-0.4,0-0.5c0-0.6,0-1.1,0-1.7V51c0-16.8-13.7-30.5-30.5-30.5H36.2
		c-0.5,0-1,0-1.5,0c-0.2,0-0.3,0-0.5,0c-0.3,0-0.7,0-1,0.1c-0.2,0-0.4,0.1-0.6,0.1c-0.3,0-0.6,0.1-0.9,0.1c-0.2,0-0.4,0.1-0.7,0.1
		c-0.3,0-0.5,0.1-0.8,0.1c-0.2,0-0.5,0.1-0.7,0.2c-0.2,0.1-0.5,0.1-0.7,0.2c-0.2,0.1-0.5,0.1-0.7,0.2c-0.2,0.1-0.5,0.1-0.7,0.2
		c-0.2,0.1-0.5,0.2-0.7,0.2c-0.2,0.1-0.4,0.1-0.6,0.2c-0.2,0.1-0.5,0.2-0.7,0.3c-0.2,0.1-0.4,0.2-0.6,0.2c-0.3,0.1-0.5,0.2-0.7,0.3
		c-0.2,0.1-0.4,0.2-0.6,0.3c-0.3,0.1-0.5,0.2-0.8,0.4c-0.2,0.1-0.3,0.2-0.5,0.3c-0.3,0.1-0.5,0.3-0.8,0.4c-0.2,0.1-0.3,0.2-0.5,0.3
		c-0.3,0.2-0.5,0.3-0.8,0.5c-0.1,0.1-0.3,0.2-0.4,0.3c-0.3,0.2-0.5,0.3-0.8,0.5c-0.1,0.1-0.2,0.2-0.4,0.3c-0.3,0.2-0.5,0.4-0.8,0.6
		c-0.1,0.1-0.2,0.2-0.3,0.2c-0.3,0.2-0.6,0.4-0.8,0.7c-0.1,0.1-0.1,0.1-0.2,0.2C9.9,33.3,5.7,41.7,5.7,51v57.4c0,9,3.9,17,10,22.6
		l8.9,5.6c3.6,1.5,7.5,2.3,11.6,2.3h84.3c8,0,15.3-3.1,20.7-8.1c0.1-0.1,0.1-0.1,0.2-0.2c0.3-0.3,0.6-0.6,1-0.9
		c0.1-0.1,0.2-0.2,0.2-0.2c0.3-0.3,0.6-0.6,0.8-0.9C143.5,128.4,143.6,128.3,143.7,128.2z"/>
	<path class="st10" d="M144.4,127.5c0.3-0.3,0.5-0.6,0.8-0.9c0.1-0.1,0.2-0.2,0.2-0.3c0.2-0.3,0.5-0.6,0.7-1
		c0.1-0.1,0.1-0.2,0.2-0.3c0.2-0.4,0.5-0.7,0.7-1.1c0-0.1,0.1-0.2,0.1-0.2c0.6-0.9,1.1-1.9,1.5-2.8c0,0,0-0.1,0-0.1
		c0.2-0.4,0.4-0.9,0.6-1.4c0.1-0.1,0.1-0.3,0.2-0.4c0.1-0.4,0.3-0.7,0.4-1.1c0.1-0.2,0.1-0.4,0.2-0.5c0.1-0.3,0.2-0.7,0.3-1
		c0.1-0.2,0.1-0.4,0.2-0.6c0.1-0.3,0.2-0.6,0.2-1c0.1-0.2,0.1-0.4,0.1-0.6c0.1-0.3,0.1-0.6,0.2-1c0-0.2,0.1-0.4,0.1-0.6
		c0.1-0.3,0.1-0.7,0.1-1c0-0.2,0.1-0.4,0.1-0.6c0-0.4,0.1-0.7,0.1-1.1c0-0.2,0-0.4,0-0.5c0-0.6,0-1.1,0-1.7V50.3
		c0-16.8-13.7-30.5-30.5-30.5H36.9c-0.5,0-1,0-1.5,0c-0.2,0-0.3,0-0.5,0c-0.3,0-0.7,0-1,0.1c-0.2,0-0.4,0.1-0.6,0.1
		c-0.3,0-0.6,0.1-0.9,0.1c-0.2,0-0.4,0.1-0.7,0.1c-0.3,0-0.5,0.1-0.8,0.1c-0.2,0-0.5,0.1-0.7,0.2c-0.2,0.1-0.5,0.1-0.7,0.2
		c-0.2,0.1-0.5,0.1-0.7,0.2c-0.2,0.1-0.5,0.1-0.7,0.2c-0.2,0.1-0.5,0.2-0.7,0.2c-0.2,0.1-0.4,0.1-0.6,0.2c-0.2,0.1-0.5,0.2-0.7,0.3
		c-0.2,0.1-0.4,0.2-0.6,0.2c-0.3,0.1-0.5,0.2-0.7,0.3c-0.2,0.1-0.4,0.2-0.6,0.3c-0.3,0.1-0.5,0.2-0.8,0.4c-0.2,0.1-0.3,0.2-0.5,0.3
		c-0.3,0.1-0.5,0.3-0.8,0.4c-0.2,0.1-0.3,0.2-0.5,0.3c-0.3,0.2-0.5,0.3-0.8,0.5c-0.1,0.1-0.3,0.2-0.4,0.3c-0.3,0.2-0.5,0.3-0.8,0.5
		c-0.1,0.1-0.2,0.2-0.4,0.3c-0.3,0.2-0.5,0.4-0.8,0.6c-0.1,0.1-0.2,0.2-0.3,0.2c-0.3,0.2-0.6,0.4-0.8,0.7c-0.1,0.1-0.1,0.1-0.2,0.2
		C10.6,32.6,6.4,41,6.4,50.3v57.4c0,9,3.9,17,10,22.6l8.9,5.6c3.6,1.5,7.5,2.3,11.6,2.3h84.3c8,0,15.3-3.1,20.7-8.1
		c0.1-0.1,0.1-0.1,0.2-0.2c0.3-0.3,0.6-0.6,1-0.9c0.1-0.1,0.2-0.2,0.2-0.2c0.3-0.3,0.6-0.6,0.8-0.9
		C144.2,127.7,144.3,127.6,144.4,127.5z"/>
	<path class="st11" d="M145.1,126.8c0.3-0.3,0.5-0.6,0.8-0.9c0.1-0.1,0.2-0.2,0.2-0.3c0.2-0.3,0.5-0.6,0.7-1
		c0.1-0.1,0.1-0.2,0.2-0.3c0.2-0.4,0.5-0.7,0.7-1.1c0-0.1,0.1-0.2,0.1-0.2c0.6-0.9,1.1-1.9,1.5-2.8c0,0,0-0.1,0-0.1
		c0.2-0.4,0.4-0.9,0.6-1.4c0.1-0.1,0.1-0.3,0.2-0.4c0.1-0.4,0.3-0.7,0.4-1.1c0.1-0.2,0.1-0.4,0.2-0.5c0.1-0.3,0.2-0.7,0.3-1
		c0.1-0.2,0.1-0.4,0.2-0.6c0.1-0.3,0.2-0.6,0.2-1c0.1-0.2,0.1-0.4,0.1-0.6c0.1-0.3,0.1-0.6,0.2-1c0-0.2,0.1-0.4,0.1-0.6
		c0.1-0.3,0.1-0.7,0.1-1c0-0.2,0.1-0.4,0.1-0.6c0-0.4,0.1-0.7,0.1-1.1c0-0.2,0-0.4,0-0.5c0-0.6,0-1.1,0-1.7V49.6
		c0-16.8-13.7-30.5-30.5-30.5H37.6c-0.5,0-1,0-1.5,0c-0.2,0-0.3,0-0.5,0c-0.3,0-0.7,0-1,0.1c-0.2,0-0.4,0.1-0.6,0.1
		c-0.3,0-0.6,0.1-0.9,0.1c-0.2,0-0.4,0.1-0.7,0.1c-0.3,0-0.5,0.1-0.8,0.1c-0.2,0-0.5,0.1-0.7,0.2c-0.2,0.1-0.5,0.1-0.7,0.2
		c-0.2,0.1-0.5,0.1-0.7,0.2c-0.2,0.1-0.5,0.1-0.7,0.2c-0.2,0.1-0.5,0.2-0.7,0.2c-0.2,0.1-0.4,0.1-0.6,0.2c-0.2,0.1-0.5,0.2-0.7,0.3
		c-0.2,0.1-0.4,0.2-0.6,0.2c-0.3,0.1-0.5,0.2-0.7,0.3c-0.2,0.1-0.4,0.2-0.6,0.3c-0.3,0.1-0.5,0.2-0.8,0.4c-0.2,0.1-0.3,0.2-0.5,0.3
		c-0.3,0.1-0.5,0.3-0.8,0.4c-0.2,0.1-0.3,0.2-0.5,0.3c-0.3,0.2-0.5,0.3-0.8,0.5c-0.1,0.1-0.3,0.2-0.4,0.3c-0.3,0.2-0.5,0.3-0.8,0.5
		c-0.1,0.1-0.2,0.2-0.4,0.3c-0.3,0.2-0.5,0.4-0.8,0.6c-0.1,0.1-0.2,0.2-0.3,0.2c-0.3,0.2-0.6,0.4-0.8,0.7c-0.1,0.1-0.1,0.1-0.2,0.2
		C11.3,31.9,7.1,40.3,7.1,49.6V107c0,9,3.9,17,10,22.6l8.9,5.6c3.6,1.5,7.5,2.3,11.6,2.3h84.3c8,0,15.3-3.1,20.7-8.1
		c0.1-0.1,0.1-0.1,0.2-0.2c0.3-0.3,0.6-0.6,1-0.9c0.1-0.1,0.2-0.2,0.2-0.2c0.3-0.3,0.6-0.6,0.8-0.9C144.9,127,145,126.9,145.1,126.8
		z"/>
	<path class="st12" d="M145.8,126.1c0.3-0.3,0.5-0.6,0.8-0.9c0.1-0.1,0.2-0.2,0.2-0.3c0.2-0.3,0.5-0.6,0.7-1
		c0.1-0.1,0.1-0.2,0.2-0.3c0.2-0.4,0.5-0.7,0.7-1.1c0-0.1,0.1-0.2,0.1-0.2c0.6-0.9,1.1-1.9,1.5-2.8c0,0,0-0.1,0-0.1
		c0.2-0.4,0.4-0.9,0.6-1.4c0.1-0.1,0.1-0.3,0.2-0.4c0.1-0.4,0.3-0.7,0.4-1.1c0.1-0.2,0.1-0.4,0.2-0.5c0.1-0.3,0.2-0.7,0.3-1
		c0.1-0.2,0.1-0.4,0.2-0.6c0.1-0.3,0.2-0.6,0.2-1c0.1-0.2,0.1-0.4,0.1-0.6c0.1-0.3,0.1-0.6,0.2-1c0-0.2,0.1-0.4,0.1-0.6
		c0.1-0.3,0.1-0.7,0.1-1c0-0.2,0.1-0.4,0.1-0.6c0-0.4,0.1-0.7,0.1-1.1c0-0.2,0-0.4,0-0.5c0-0.6,0-1.1,0-1.7V48.9
		c0-16.8-13.7-30.5-30.5-30.5H38.3c-0.5,0-1,0-1.5,0c-0.2,0-0.3,0-0.5,0c-0.3,0-0.7,0-1,0.1c-0.2,0-0.4,0.1-0.6,0.1
		c-0.3,0-0.6,0.1-0.9,0.1c-0.2,0-0.4,0.1-0.7,0.1c-0.3,0-0.5,0.1-0.8,0.1c-0.2,0-0.5,0.1-0.7,0.2c-0.2,0.1-0.5,0.1-0.7,0.2
		c-0.2,0.1-0.5,0.1-0.7,0.2c-0.2,0.1-0.5,0.1-0.7,0.2c-0.2,0.1-0.5,0.2-0.7,0.2c-0.2,0.1-0.4,0.1-0.6,0.2c-0.2,0.1-0.5,0.2-0.7,0.3
		c-0.2,0.1-0.4,0.2-0.6,0.2c-0.3,0.1-0.5,0.2-0.7,0.3c-0.2,0.1-0.4,0.2-0.6,0.3c-0.3,0.1-0.5,0.2-0.8,0.4c-0.2,0.1-0.3,0.2-0.5,0.3
		c-0.3,0.1-0.5,0.3-0.8,0.4c-0.2,0.1-0.3,0.2-0.5,0.3c-0.3,0.2-0.5,0.3-0.8,0.5c-0.1,0.1-0.3,0.2-0.4,0.3c-0.3,0.2-0.5,0.3-0.8,0.5
		c-0.1,0.1-0.2,0.2-0.4,0.3c-0.3,0.2-0.5,0.4-0.8,0.6c-0.1,0.1-0.2,0.2-0.3,0.2c-0.3,0.2-0.6,0.4-0.8,0.7c-0.1,0.1-0.1,0.1-0.2,0.2
		C12,31.2,7.8,39.6,7.8,48.9v57.4c0,9,3.9,17,10,22.6l8.9,5.6c3.6,1.5,7.5,2.3,11.6,2.3h84.3c8,0,15.3-3.1,20.7-8.1
		c0.1-0.1,0.1-0.1,0.2-0.2c0.3-0.3,0.6-0.6,1-0.9c0.1-0.1,0.2-0.2,0.2-0.2c0.3-0.3,0.6-0.6,0.8-0.9
		C145.6,126.3,145.7,126.2,145.8,126.1z"/>
	<path class="st13" d="M146.5,125.4c0.3-0.3,0.5-0.6,0.8-0.9c0.1-0.1,0.2-0.2,0.2-0.3c0.2-0.3,0.5-0.6,0.7-1
		c0.1-0.1,0.1-0.2,0.2-0.3c0.2-0.4,0.5-0.7,0.7-1.1c0-0.1,0.1-0.2,0.1-0.2c0.6-0.9,1.1-1.9,1.5-2.8c0,0,0-0.1,0-0.1
		c0.2-0.4,0.4-0.9,0.6-1.4c0.1-0.1,0.1-0.3,0.2-0.4c0.1-0.4,0.3-0.7,0.4-1.1c0.1-0.2,0.1-0.4,0.2-0.5c0.1-0.3,0.2-0.7,0.3-1
		c0.1-0.2,0.1-0.4,0.2-0.6c0.1-0.3,0.2-0.6,0.2-1c0.1-0.2,0.1-0.4,0.1-0.6c0.1-0.3,0.1-0.6,0.2-1c0-0.2,0.1-0.4,0.1-0.6
		c0.1-0.3,0.1-0.7,0.1-1c0-0.2,0.1-0.4,0.1-0.6c0-0.4,0.1-0.7,0.1-1.1c0-0.2,0-0.4,0-0.5c0-0.6,0-1.1,0-1.7V48.2
		c0-16.8-13.7-30.5-30.5-30.5H39c-0.5,0-1,0-1.5,0c-0.2,0-0.3,0-0.5,0c-0.3,0-0.7,0-1,0.1c-0.2,0-0.4,0.1-0.6,0.1
		c-0.3,0-0.6,0.1-0.9,0.1c-0.2,0-0.4,0.1-0.7,0.1c-0.3,0-0.5,0.1-0.8,0.1c-0.2,0-0.5,0.1-0.7,0.2c-0.2,0.1-0.5,0.1-0.7,0.2
		c-0.2,0.1-0.5,0.1-0.7,0.2c-0.2,0.1-0.5,0.1-0.7,0.2c-0.2,0.1-0.5,0.2-0.7,0.2c-0.2,0.1-0.4,0.1-0.6,0.2c-0.2,0.1-0.5,0.2-0.7,0.3
		c-0.2,0.1-0.4,0.2-0.6,0.2c-0.3,0.1-0.5,0.2-0.7,0.3c-0.2,0.1-0.4,0.2-0.6,0.3c-0.3,0.1-0.5,0.2-0.8,0.4C25.3,21,25.1,21,25,21.1
		c-0.3,0.1-0.5,0.3-0.8,0.4c-0.2,0.1-0.3,0.2-0.5,0.3c-0.3,0.2-0.5,0.3-0.8,0.5c-0.1,0.1-0.3,0.2-0.4,0.3c-0.3,0.2-0.5,0.3-0.8,0.5
		c-0.1,0.1-0.2,0.2-0.4,0.3c-0.3,0.2-0.5,0.4-0.8,0.6c-0.1,0.1-0.2,0.2-0.3,0.2c-0.3,0.2-0.6,0.4-0.8,0.7c-0.1,0.1-0.1,0.1-0.2,0.2
		C12.7,30.5,8.5,38.9,8.5,48.2v57.4c0,9,3.9,17,10,22.6l8.9,5.6c3.6,1.5,7.5,2.3,11.6,2.3h84.3c8,0,15.3-3.1,20.7-8.1
		c0.1-0.1,0.1-0.1,0.2-0.2c0.3-0.3,0.6-0.6,1-0.9c0.1-0.1,0.2-0.2,0.2-0.2c0.3-0.3,0.6-0.6,0.8-0.9
		C146.3,125.6,146.4,125.5,146.5,125.4z"/>
	<path class="st14" d="M147.2,124.7c0.3-0.3,0.5-0.6,0.8-0.9c0.1-0.1,0.2-0.2,0.2-0.3c0.2-0.3,0.5-0.6,0.7-1
		c0.1-0.1,0.1-0.2,0.2-0.3c0.2-0.4,0.5-0.7,0.7-1.1c0-0.1,0.1-0.2,0.1-0.2c0.6-0.9,1.1-1.9,1.5-2.8c0,0,0-0.1,0-0.1
		c0.2-0.4,0.4-0.9,0.6-1.4c0.1-0.1,0.1-0.3,0.2-0.4c0.1-0.4,0.3-0.7,0.4-1.1c0.1-0.2,0.1-0.4,0.2-0.5c0.1-0.3,0.2-0.7,0.3-1
		c0.1-0.2,0.1-0.4,0.2-0.6c0.1-0.3,0.2-0.6,0.2-1c0.1-0.2,0.1-0.4,0.1-0.6c0.1-0.3,0.1-0.6,0.2-1c0-0.2,0.1-0.4,0.1-0.6
		c0.1-0.3,0.1-0.7,0.1-1c0-0.2,0.1-0.4,0.1-0.6c0-0.4,0.1-0.7,0.1-1.1c0-0.2,0-0.4,0-0.5c0-0.6,0-1.1,0-1.7V47.5
		c0-16.8-13.7-30.5-30.5-30.5H39.7c-0.5,0-1,0-1.5,0c-0.2,0-0.3,0-0.5,0c-0.3,0-0.7,0-1,0.1c-0.2,0-0.4,0.1-0.6,0.1
		c-0.3,0-0.6,0.1-0.9,0.1c-0.2,0-0.4,0.1-0.7,0.1c-0.3,0-0.5,0.1-0.8,0.1c-0.2,0-0.5,0.1-0.7,0.2c-0.2,0.1-0.5,0.1-0.7,0.2
		c-0.2,0.1-0.5,0.1-0.7,0.2c-0.2,0.1-0.5,0.1-0.7,0.2c-0.2,0.1-0.5,0.2-0.7,0.2c-0.2,0.1-0.4,0.1-0.6,0.2c-0.2,0.1-0.5,0.2-0.7,0.3
		c-0.2,0.1-0.4,0.2-0.6,0.2c-0.3,0.1-0.5,0.2-0.7,0.3c-0.2,0.1-0.4,0.2-0.6,0.3c-0.3,0.1-0.5,0.2-0.8,0.4c-0.2,0.1-0.3,0.2-0.5,0.3
		c-0.3,0.1-0.5,0.3-0.8,0.4c-0.2,0.1-0.3,0.2-0.5,0.3c-0.3,0.2-0.5,0.3-0.8,0.5c-0.1,0.1-0.3,0.2-0.4,0.3c-0.3,0.2-0.5,0.3-0.8,0.5
		c-0.1,0.1-0.2,0.2-0.4,0.3c-0.3,0.2-0.5,0.4-0.8,0.6c-0.1,0.1-0.2,0.2-0.3,0.2c-0.3,0.2-0.6,0.4-0.8,0.7c-0.1,0.1-0.1,0.1-0.2,0.2
		C13.4,29.8,9.2,38.2,9.2,47.5v57.4c0,9,3.9,17,10,22.6l8.9,5.6c3.6,1.5,7.5,2.3,11.6,2.3H124c8,0,15.3-3.1,20.7-8.1
		c0.1-0.1,0.1-0.1,0.2-0.2c0.3-0.3,0.6-0.6,1-0.9c0.1-0.1,0.2-0.2,0.2-0.2c0.3-0.3,0.6-0.6,0.8-0.9
		C147,124.9,147.1,124.8,147.2,124.7z"/>
	<path class="st15" d="M147.9,124c0.3-0.3,0.5-0.6,0.8-0.9c0.1-0.1,0.2-0.2,0.2-0.3c0.2-0.3,0.5-0.6,0.7-1c0.1-0.1,0.1-0.2,0.2-0.3
		c0.2-0.4,0.5-0.7,0.7-1.1c0-0.1,0.1-0.2,0.1-0.2c0.6-0.9,1.1-1.9,1.5-2.8c0,0,0-0.1,0-0.1c0.2-0.4,0.4-0.9,0.6-1.4
		c0.1-0.1,0.1-0.3,0.2-0.4c0.1-0.4,0.3-0.7,0.4-1.1c0.1-0.2,0.1-0.4,0.2-0.5c0.1-0.3,0.2-0.7,0.3-1c0.1-0.2,0.1-0.4,0.2-0.6
		c0.1-0.3,0.2-0.6,0.2-1c0.1-0.2,0.1-0.4,0.1-0.6c0.1-0.3,0.1-0.6,0.2-1c0-0.2,0.1-0.4,0.1-0.6c0.1-0.3,0.1-0.7,0.1-1
		c0-0.2,0.1-0.4,0.1-0.6c0-0.4,0.1-0.7,0.1-1.1c0-0.2,0-0.4,0-0.5c0-0.6,0-1.1,0-1.7V46.8c0-16.8-13.7-30.5-30.5-30.5H40.4
		c-0.5,0-1,0-1.5,0c-0.2,0-0.3,0-0.5,0c-0.3,0-0.7,0-1,0.1c-0.2,0-0.4,0.1-0.6,0.1c-0.3,0-0.6,0.1-0.9,0.1c-0.2,0-0.4,0.1-0.7,0.1
		c-0.3,0-0.5,0.1-0.8,0.1c-0.2,0-0.5,0.1-0.7,0.2c-0.2,0.1-0.5,0.1-0.7,0.2c-0.2,0.1-0.5,0.1-0.7,0.2c-0.2,0.1-0.5,0.1-0.7,0.2
		c-0.2,0.1-0.5,0.2-0.7,0.2c-0.2,0.1-0.4,0.1-0.6,0.2c-0.2,0.1-0.5,0.2-0.7,0.3c-0.2,0.1-0.4,0.2-0.6,0.2c-0.3,0.1-0.5,0.2-0.7,0.3
		c-0.2,0.1-0.4,0.2-0.6,0.3c-0.3,0.1-0.5,0.2-0.8,0.4c-0.2,0.1-0.3,0.2-0.5,0.3c-0.3,0.1-0.5,0.3-0.8,0.4c-0.2,0.1-0.3,0.2-0.5,0.3
		c-0.3,0.2-0.5,0.3-0.8,0.5c-0.1,0.1-0.3,0.2-0.4,0.3c-0.3,0.2-0.5,0.3-0.8,0.5c-0.1,0.1-0.2,0.2-0.4,0.3c-0.3,0.2-0.5,0.4-0.8,0.6
		c-0.1,0.1-0.2,0.2-0.3,0.2c-0.3,0.2-0.6,0.4-0.8,0.7c-0.1,0.1-0.1,0.1-0.2,0.2C14.1,29.1,9.9,37.5,9.9,46.8v57.4
		c0,9,3.9,17,10,22.6l8.9,5.6c3.6,1.5,7.5,2.3,11.6,2.3h84.3c8,0,15.3-3.1,20.7-8.1c0.1-0.1,0.1-0.1,0.2-0.2c0.3-0.3,0.6-0.6,1-0.9
		c0.1-0.1,0.2-0.2,0.2-0.2c0.3-0.3,0.6-0.6,0.8-0.9C147.7,124.2,147.8,124.1,147.9,124z"/>
	<path class="st16" d="M148.6,123.3c0.3-0.3,0.5-0.6,0.8-0.9c0.1-0.1,0.2-0.2,0.2-0.3c0.2-0.3,0.5-0.6,0.7-1
		c0.1-0.1,0.1-0.2,0.2-0.3c0.2-0.4,0.5-0.7,0.7-1.1c0-0.1,0.1-0.2,0.1-0.2c0.6-0.9,1.1-1.9,1.5-2.8c0,0,0-0.1,0-0.1
		c0.2-0.4,0.4-0.9,0.6-1.4c0.1-0.1,0.1-0.3,0.2-0.4c0.1-0.4,0.3-0.7,0.4-1.1c0.1-0.2,0.1-0.4,0.2-0.5c0.1-0.3,0.2-0.7,0.3-1
		c0.1-0.2,0.1-0.4,0.2-0.6c0.1-0.3,0.2-0.6,0.2-1c0.1-0.2,0.1-0.4,0.1-0.6c0.1-0.3,0.1-0.6,0.2-1c0-0.2,0.1-0.4,0.1-0.6
		c0.1-0.3,0.1-0.7,0.1-1c0-0.2,0.1-0.4,0.1-0.6c0-0.4,0.1-0.7,0.1-1.1c0-0.2,0-0.4,0-0.5c0-0.6,0-1.1,0-1.7V46.1
		c0-16.8-13.7-30.5-30.5-30.5H41.2c-0.5,0-1,0-1.5,0c-0.2,0-0.3,0-0.5,0c-0.3,0-0.7,0-1,0.1c-0.2,0-0.4,0.1-0.6,0.1
		c-0.3,0-0.6,0.1-0.9,0.1c-0.2,0-0.4,0.1-0.7,0.1c-0.3,0-0.5,0.1-0.8,0.1c-0.2,0-0.5,0.1-0.7,0.2c-0.2,0.1-0.5,0.1-0.7,0.2
		c-0.2,0.1-0.5,0.1-0.7,0.2c-0.2,0.1-0.5,0.1-0.7,0.2c-0.2,0.1-0.5,0.2-0.7,0.2c-0.2,0.1-0.4,0.1-0.6,0.2c-0.2,0.1-0.5,0.2-0.7,0.3
		c-0.2,0.1-0.4,0.2-0.6,0.2c-0.3,0.1-0.5,0.2-0.7,0.3c-0.2,0.1-0.4,0.2-0.6,0.3c-0.3,0.1-0.5,0.2-0.8,0.4c-0.2,0.1-0.3,0.2-0.5,0.3
		c-0.3,0.1-0.5,0.3-0.8,0.4c-0.2,0.1-0.3,0.2-0.5,0.3c-0.3,0.2-0.5,0.3-0.8,0.5c-0.1,0.1-0.3,0.2-0.4,0.3c-0.3,0.2-0.5,0.3-0.8,0.5
		c-0.1,0.1-0.2,0.2-0.4,0.3c-0.3,0.2-0.5,0.4-0.8,0.6c-0.1,0.1-0.2,0.2-0.3,0.2c-0.3,0.2-0.6,0.4-0.8,0.7c-0.1,0.1-0.1,0.1-0.2,0.2
		c-6.6,5.6-10.8,13.9-10.8,23.3v57.4c0,9,3.9,17,10,22.6l8.9,5.6c3.6,1.5,7.5,2.3,11.6,2.3h84.3c8,0,15.3-3.1,20.7-8.1
		c0.1-0.1,0.1-0.1,0.2-0.2c0.3-0.3,0.6-0.6,1-0.9c0.1-0.1,0.2-0.2,0.2-0.2c0.3-0.3,0.6-0.6,0.8-0.9
		C148.4,123.5,148.5,123.4,148.6,123.3z"/>
	<path class="st17" d="M149.3,122.6c0.3-0.3,0.5-0.6,0.8-0.9c0.1-0.1,0.2-0.2,0.2-0.3c0.2-0.3,0.5-0.6,0.7-1
		c0.1-0.1,0.1-0.2,0.2-0.3c0.2-0.4,0.5-0.7,0.7-1.1c0-0.1,0.1-0.2,0.1-0.2c0.6-0.9,1.1-1.9,1.5-2.8c0,0,0-0.1,0-0.1
		c0.2-0.4,0.4-0.9,0.6-1.4c0.1-0.1,0.1-0.3,0.2-0.4c0.1-0.4,0.3-0.7,0.4-1.1c0.1-0.2,0.1-0.4,0.2-0.5c0.1-0.3,0.2-0.7,0.3-1
		c0.1-0.2,0.1-0.4,0.2-0.6c0.1-0.3,0.2-0.6,0.2-1c0.1-0.2,0.1-0.4,0.1-0.6c0.1-0.3,0.1-0.6,0.2-1c0-0.2,0.1-0.4,0.1-0.6
		c0.1-0.3,0.1-0.7,0.1-1c0-0.2,0.1-0.4,0.1-0.6c0-0.4,0.1-0.7,0.1-1.1c0-0.2,0-0.4,0-0.5c0-0.6,0-1.1,0-1.7V45.4
		c0-16.8-13.7-30.5-30.5-30.5H41.9c-0.5,0-1,0-1.5,0c-0.2,0-0.3,0-0.5,0c-0.3,0-0.7,0-1,0.1c-0.2,0-0.4,0.1-0.6,0.1
		c-0.3,0-0.6,0.1-0.9,0.1c-0.2,0-0.4,0.1-0.7,0.1c-0.3,0-0.5,0.1-0.8,0.1c-0.2,0-0.5,0.1-0.7,0.2c-0.2,0.1-0.5,0.1-0.7,0.2
		c-0.2,0.1-0.5,0.1-0.7,0.2c-0.2,0.1-0.5,0.1-0.7,0.2c-0.2,0.1-0.5,0.2-0.7,0.2c-0.2,0.1-0.4,0.1-0.6,0.2c-0.2,0.1-0.5,0.2-0.7,0.3
		c-0.2,0.1-0.4,0.2-0.6,0.2c-0.3,0.1-0.5,0.2-0.7,0.3c-0.2,0.1-0.4,0.2-0.6,0.3c-0.3,0.1-0.5,0.2-0.8,0.4c-0.2,0.1-0.3,0.2-0.5,0.3
		c-0.3,0.1-0.5,0.3-0.8,0.4c-0.2,0.1-0.3,0.2-0.5,0.3c-0.3,0.2-0.5,0.3-0.8,0.5c-0.1,0.1-0.3,0.2-0.4,0.3c-0.3,0.2-0.5,0.3-0.8,0.5
		c-0.1,0.1-0.2,0.2-0.4,0.3c-0.3,0.2-0.5,0.4-0.8,0.6c-0.1,0.1-0.2,0.2-0.3,0.2c-0.3,0.2-0.6,0.4-0.8,0.7c-0.1,0.1-0.1,0.1-0.2,0.2
		c-6.6,5.6-10.8,13.9-10.8,23.3v57.4c0,9,3.9,17,10,22.6l8.9,5.6c3.6,1.5,7.5,2.3,11.6,2.3h84.3c8,0,15.3-3.1,20.7-8.1
		c0.1-0.1,0.1-0.1,0.2-0.2c0.3-0.3,0.6-0.6,1-0.9c0.1-0.1,0.2-0.2,0.2-0.2c0.3-0.3,0.6-0.6,0.8-0.9
		C149.1,122.8,149.2,122.7,149.3,122.6z"/>
	<path class="st18" d="M150,121.9c0.3-0.3,0.5-0.6,0.8-0.9c0.1-0.1,0.2-0.2,0.2-0.3c0.2-0.3,0.5-0.6,0.7-1c0.1-0.1,0.1-0.2,0.2-0.3
		c0.2-0.4,0.5-0.7,0.7-1.1c0-0.1,0.1-0.2,0.1-0.2c0.6-0.9,1.1-1.9,1.5-2.8c0,0,0-0.1,0-0.1c0.2-0.4,0.4-0.9,0.6-1.4
		c0.1-0.1,0.1-0.3,0.2-0.4c0.1-0.4,0.3-0.7,0.4-1.1c0.1-0.2,0.1-0.4,0.2-0.5c0.1-0.3,0.2-0.7,0.3-1c0.1-0.2,0.1-0.4,0.2-0.6
		c0.1-0.3,0.2-0.6,0.2-1c0.1-0.2,0.1-0.4,0.1-0.6c0.1-0.3,0.1-0.6,0.2-1c0-0.2,0.1-0.4,0.1-0.6c0.1-0.3,0.1-0.7,0.1-1
		c0-0.2,0.1-0.4,0.1-0.6c0-0.4,0.1-0.7,0.1-1.1c0-0.2,0-0.4,0-0.5c0-0.6,0-1.1,0-1.7V44.7c0-16.8-13.7-30.5-30.5-30.5H42.6
		c-0.5,0-1,0-1.5,0c-0.2,0-0.3,0-0.5,0c-0.3,0-0.7,0-1,0.1c-0.2,0-0.4,0.1-0.6,0.1c-0.3,0-0.6,0.1-0.9,0.1c-0.2,0-0.4,0.1-0.7,0.1
		c-0.3,0-0.5,0.1-0.8,0.1c-0.2,0-0.5,0.1-0.7,0.2c-0.2,0.1-0.5,0.1-0.7,0.2c-0.2,0.1-0.5,0.1-0.7,0.2c-0.2,0.1-0.5,0.1-0.7,0.2
		c-0.2,0.1-0.5,0.2-0.7,0.2c-0.2,0.1-0.4,0.1-0.6,0.2c-0.2,0.1-0.5,0.2-0.7,0.3c-0.2,0.1-0.4,0.2-0.6,0.2c-0.3,0.1-0.5,0.2-0.7,0.3
		c-0.2,0.1-0.4,0.2-0.6,0.3c-0.3,0.1-0.5,0.2-0.8,0.4c-0.2,0.1-0.3,0.2-0.5,0.3c-0.3,0.1-0.5,0.3-0.8,0.4c-0.2,0.1-0.3,0.2-0.5,0.3
		c-0.3,0.2-0.5,0.3-0.8,0.5c-0.1,0.1-0.3,0.2-0.4,0.3c-0.3,0.2-0.5,0.3-0.8,0.5c-0.1,0.1-0.2,0.2-0.4,0.3c-0.3,0.2-0.5,0.4-0.8,0.6
		c-0.1,0.1-0.2,0.2-0.3,0.2c-0.3,0.2-0.6,0.4-0.8,0.7c-0.1,0.1-0.1,0.1-0.2,0.2C16.2,27,12,35.4,12,44.7V102c0,9,3.9,17,10,22.6
		l8.9,5.6c3.6,1.5,7.5,2.3,11.6,2.3h84.3c8,0,15.3-3.1,20.7-8.1c0.1-0.1,0.1-0.1,0.2-0.2c0.3-0.3,0.6-0.6,1-0.9
		c0.1-0.1,0.2-0.2,0.2-0.2c0.3-0.3,0.6-0.6,0.8-0.9C149.8,122.1,149.9,122,150,121.9z"/>
	<path class="st19" d="M150.7,121.2c0.3-0.3,0.5-0.6,0.8-0.9c0.1-0.1,0.2-0.2,0.2-0.3c0.2-0.3,0.5-0.6,0.7-1
		c0.1-0.1,0.1-0.2,0.2-0.3c0.2-0.4,0.5-0.7,0.7-1.1c0-0.1,0.1-0.2,0.1-0.2c0.6-0.9,1.1-1.9,1.5-2.8c0,0,0-0.1,0-0.1
		c0.2-0.4,0.4-0.9,0.6-1.4c0.1-0.1,0.1-0.3,0.2-0.4c0.1-0.4,0.3-0.7,0.4-1.1c0.1-0.2,0.1-0.4,0.2-0.5c0.1-0.3,0.2-0.7,0.3-1
		c0.1-0.2,0.1-0.4,0.2-0.6c0.1-0.3,0.2-0.6,0.2-1c0.1-0.2,0.1-0.4,0.1-0.6c0.1-0.3,0.1-0.6,0.2-1c0-0.2,0.1-0.4,0.1-0.6
		c0.1-0.3,0.1-0.7,0.1-1c0-0.2,0.1-0.4,0.1-0.6c0-0.4,0.1-0.7,0.1-1.1c0-0.2,0-0.4,0-0.5c0-0.6,0-1.1,0-1.7V44
		c0-16.8-13.7-30.5-30.5-30.5H43.3c-0.5,0-1,0-1.5,0c-0.2,0-0.3,0-0.5,0c-0.3,0-0.7,0-1,0.1c-0.2,0-0.4,0.1-0.6,0.1
		c-0.3,0-0.6,0.1-0.9,0.1c-0.2,0-0.4,0.1-0.7,0.1c-0.3,0-0.5,0.1-0.8,0.1c-0.2,0-0.5,0.1-0.7,0.2c-0.2,0.1-0.5,0.1-0.7,0.2
		c-0.2,0.1-0.5,0.1-0.7,0.2c-0.2,0.1-0.5,0.1-0.7,0.2c-0.2,0.1-0.5,0.2-0.7,0.2c-0.2,0.1-0.4,0.1-0.6,0.2c-0.2,0.1-0.5,0.2-0.7,0.3
		c-0.2,0.1-0.4,0.2-0.6,0.2c-0.3,0.1-0.5,0.2-0.7,0.3c-0.2,0.1-0.4,0.2-0.6,0.3c-0.3,0.1-0.5,0.2-0.8,0.4c-0.2,0.1-0.3,0.2-0.5,0.3
		c-0.3,0.1-0.5,0.3-0.8,0.4c-0.2,0.1-0.3,0.2-0.5,0.3c-0.3,0.2-0.5,0.3-0.8,0.5c-0.1,0.1-0.3,0.2-0.4,0.3c-0.3,0.2-0.5,0.3-0.8,0.5
		c-0.1,0.1-0.2,0.2-0.4,0.3c-0.3,0.2-0.5,0.4-0.8,0.6c-0.1,0.1-0.2,0.2-0.3,0.2c-0.3,0.2-0.6,0.4-0.8,0.7c-0.1,0.1-0.1,0.1-0.2,0.2
		C16.9,26.3,12.7,34.7,12.7,44v57.4c0,9,3.9,17,10,22.6l8.9,5.6c3.6,1.5,7.5,2.3,11.6,2.3h84.3c8,0,15.3-3.1,20.7-8.1
		c0.1-0.1,0.1-0.1,0.2-0.2c0.3-0.3,0.6-0.6,1-0.9c0.1-0.1,0.2-0.2,0.2-0.2c0.3-0.3,0.6-0.6,0.8-0.9
		C150.5,121.4,150.6,121.3,150.7,121.2z"/>
	<path class="st20" d="M151.4,120.5c0.3-0.3,0.5-0.6,0.8-0.9c0.1-0.1,0.2-0.2,0.2-0.3c0.2-0.3,0.5-0.6,0.7-1
		c0.1-0.1,0.1-0.2,0.2-0.3c0.2-0.4,0.5-0.7,0.7-1.1c0-0.1,0.1-0.2,0.1-0.2c0.6-0.9,1.1-1.9,1.5-2.8c0,0,0-0.1,0-0.1
		c0.2-0.4,0.4-0.9,0.6-1.4c0.1-0.1,0.1-0.3,0.2-0.4c0.1-0.4,0.3-0.7,0.4-1.1c0.1-0.2,0.1-0.4,0.2-0.5c0.1-0.3,0.2-0.7,0.3-1
		c0.1-0.2,0.1-0.4,0.2-0.6c0.1-0.3,0.2-0.6,0.2-1c0.1-0.2,0.1-0.4,0.1-0.6c0.1-0.3,0.1-0.6,0.2-1c0-0.2,0.1-0.4,0.1-0.6
		c0.1-0.3,0.1-0.7,0.1-1c0-0.2,0.1-0.4,0.1-0.6c0-0.4,0.1-0.7,0.1-1.1c0-0.2,0-0.4,0-0.5c0-0.6,0-1.1,0-1.7V43.3
		c0-16.8-13.7-30.5-30.5-30.5H44c-0.5,0-1,0-1.5,0c-0.2,0-0.3,0-0.5,0c-0.3,0-0.7,0-1,0.1c-0.2,0-0.4,0.1-0.6,0.1
		c-0.3,0-0.6,0.1-0.9,0.1c-0.2,0-0.4,0.1-0.7,0.1c-0.3,0-0.5,0.1-0.8,0.1c-0.2,0-0.5,0.1-0.7,0.2c-0.2,0.1-0.5,0.1-0.7,0.2
		c-0.2,0.1-0.5,0.1-0.7,0.2c-0.2,0.1-0.5,0.1-0.7,0.2c-0.2,0.1-0.5,0.2-0.7,0.2c-0.2,0.1-0.4,0.1-0.6,0.2c-0.2,0.1-0.5,0.2-0.7,0.3
		c-0.2,0.1-0.4,0.2-0.6,0.2c-0.3,0.1-0.5,0.2-0.7,0.3c-0.2,0.1-0.4,0.2-0.6,0.3c-0.3,0.1-0.5,0.2-0.8,0.4c-0.2,0.1-0.3,0.2-0.5,0.3
		c-0.3,0.1-0.5,0.3-0.8,0.4c-0.2,0.1-0.3,0.2-0.5,0.3c-0.3,0.2-0.5,0.3-0.8,0.5c-0.1,0.1-0.3,0.2-0.4,0.3c-0.3,0.2-0.5,0.3-0.8,0.5
		c-0.1,0.1-0.2,0.2-0.4,0.3c-0.3,0.2-0.5,0.4-0.8,0.6c-0.1,0.1-0.2,0.2-0.3,0.2c-0.3,0.2-0.6,0.4-0.8,0.7c-0.1,0.1-0.1,0.1-0.2,0.2
		C17.6,25.6,13.5,34,13.5,43.3v57.4c0,9,3.9,17,10,22.6l8.9,5.6c3.6,1.5,7.5,2.3,11.6,2.3h84.3c8,0,15.3-3.1,20.7-8.1
		c0.1-0.1,0.1-0.1,0.2-0.2c0.3-0.3,0.6-0.6,1-0.9c0.1-0.1,0.2-0.2,0.2-0.2c0.3-0.3,0.6-0.6,0.8-0.9
		C151.2,120.7,151.3,120.6,151.4,120.5z"/>
	<path class="st21" d="M152.1,119.8c0.3-0.3,0.5-0.6,0.8-0.9c0.1-0.1,0.2-0.2,0.2-0.3c0.2-0.3,0.5-0.6,0.7-1
		c0.1-0.1,0.1-0.2,0.2-0.3c0.2-0.4,0.5-0.7,0.7-1.1c0-0.1,0.1-0.2,0.1-0.2c0.6-0.9,1.1-1.9,1.5-2.8c0,0,0-0.1,0-0.1
		c0.2-0.4,0.4-0.9,0.6-1.4c0.1-0.1,0.1-0.3,0.2-0.4c0.1-0.4,0.3-0.7,0.4-1.1c0.1-0.2,0.1-0.4,0.2-0.5c0.1-0.3,0.2-0.7,0.3-1
		c0.1-0.2,0.1-0.4,0.2-0.6c0.1-0.3,0.2-0.6,0.2-1c0.1-0.2,0.1-0.4,0.1-0.6c0.1-0.3,0.1-0.6,0.2-1c0-0.2,0.1-0.4,0.1-0.6
		c0.1-0.3,0.1-0.7,0.1-1c0-0.2,0.1-0.4,0.1-0.6c0-0.4,0.1-0.7,0.1-1.1c0-0.2,0-0.4,0-0.5c0-0.6,0-1.1,0-1.7V42.6
		c0-16.8-13.7-30.5-30.5-30.5H44.7c-0.5,0-1,0-1.5,0c-0.2,0-0.3,0-0.5,0c-0.3,0-0.7,0-1,0.1c-0.2,0-0.4,0.1-0.6,0.1
		c-0.3,0-0.6,0.1-0.9,0.1c-0.2,0-0.4,0.1-0.7,0.1c-0.3,0-0.5,0.1-0.8,0.1c-0.2,0-0.5,0.1-0.7,0.2c-0.2,0.1-0.5,0.1-0.7,0.2
		c-0.2,0.1-0.5,0.1-0.7,0.2c-0.2,0.1-0.5,0.1-0.7,0.2c-0.2,0.1-0.5,0.2-0.7,0.2c-0.2,0.1-0.4,0.1-0.6,0.2c-0.2,0.1-0.5,0.2-0.7,0.3
		c-0.2,0.1-0.4,0.2-0.6,0.2c-0.3,0.1-0.5,0.2-0.7,0.3c-0.2,0.1-0.4,0.2-0.6,0.3c-0.3,0.1-0.5,0.2-0.8,0.4c-0.2,0.1-0.3,0.2-0.5,0.3
		c-0.3,0.1-0.5,0.3-0.8,0.4c-0.2,0.1-0.3,0.2-0.5,0.3c-0.3,0.2-0.5,0.3-0.8,0.5c-0.1,0.1-0.3,0.2-0.4,0.3c-0.3,0.2-0.5,0.3-0.8,0.5
		c-0.1,0.1-0.2,0.2-0.4,0.3c-0.3,0.2-0.5,0.4-0.8,0.6c-0.1,0.1-0.2,0.2-0.3,0.2c-0.3,0.2-0.6,0.4-0.8,0.7c-0.1,0.1-0.1,0.1-0.2,0.2
		c-6.6,5.6-10.8,13.9-10.8,23.3v57.4c0,9,3.9,17,10,22.6l8.9,5.6c3.6,1.5,7.5,2.3,11.6,2.3h84.3c8,0,15.3-3.1,20.7-8.1
		c0.1-0.1,0.1-0.1,0.2-0.2c0.3-0.3,0.6-0.6,1-0.9c0.1-0.1,0.2-0.2,0.2-0.2c0.3-0.3,0.6-0.6,0.8-0.9C151.9,120,152,119.9,152.1,119.8
		z"/>
	<path class="st22" d="M152.8,119.1c0.3-0.3,0.5-0.6,0.8-0.9c0.1-0.1,0.2-0.2,0.2-0.3c0.2-0.3,0.5-0.6,0.7-1
		c0.1-0.1,0.1-0.2,0.2-0.3c0.2-0.4,0.5-0.7,0.7-1.1c0-0.1,0.1-0.2,0.1-0.2c0.6-0.9,1.1-1.9,1.5-2.8c0,0,0-0.1,0-0.1
		c0.2-0.4,0.4-0.9,0.6-1.4c0.1-0.1,0.1-0.3,0.2-0.4c0.1-0.4,0.3-0.7,0.4-1.1c0.1-0.2,0.1-0.4,0.2-0.5c0.1-0.3,0.2-0.7,0.3-1
		c0.1-0.2,0.1-0.4,0.2-0.6c0.1-0.3,0.2-0.6,0.2-1c0.1-0.2,0.1-0.4,0.1-0.6c0.1-0.3,0.1-0.6,0.2-1c0-0.2,0.1-0.4,0.1-0.6
		c0.1-0.3,0.1-0.7,0.1-1c0-0.2,0.1-0.4,0.1-0.6c0-0.4,0.1-0.7,0.1-1.1c0-0.2,0-0.4,0-0.5c0-0.6,0-1.1,0-1.7V41.9
		c0-16.8-13.7-30.5-30.5-30.5H45.4c-0.5,0-1,0-1.5,0c-0.2,0-0.3,0-0.5,0c-0.3,0-0.7,0-1,0.1c-0.2,0-0.4,0.1-0.6,0.1
		c-0.3,0-0.6,0.1-0.9,0.1c-0.2,0-0.4,0.1-0.7,0.1c-0.3,0-0.5,0.1-0.8,0.1c-0.2,0-0.5,0.1-0.7,0.2c-0.2,0.1-0.5,0.1-0.7,0.2
		c-0.2,0.1-0.5,0.1-0.7,0.2c-0.2,0.1-0.5,0.1-0.7,0.2c-0.2,0.1-0.5,0.2-0.7,0.2c-0.2,0.1-0.4,0.1-0.6,0.2c-0.2,0.1-0.5,0.2-0.7,0.3
		c-0.2,0.1-0.4,0.2-0.6,0.2c-0.3,0.1-0.5,0.2-0.7,0.3c-0.2,0.1-0.4,0.2-0.6,0.3c-0.3,0.1-0.5,0.2-0.8,0.4c-0.2,0.1-0.3,0.2-0.5,0.3
		c-0.3,0.1-0.5,0.3-0.8,0.4c-0.2,0.1-0.3,0.2-0.5,0.3c-0.3,0.2-0.5,0.3-0.8,0.5c-0.1,0.1-0.3,0.2-0.4,0.3c-0.3,0.2-0.5,0.3-0.8,0.5
		c-0.1,0.1-0.2,0.2-0.4,0.3c-0.3,0.2-0.5,0.4-0.8,0.6c-0.1,0.1-0.2,0.2-0.3,0.2c-0.3,0.2-0.6,0.4-0.8,0.7c-0.1,0.1-0.1,0.1-0.2,0.2
		C19,24.2,14.9,32.5,14.9,41.9v57.4c0,9,3.9,17,10,22.6l8.9,5.6c3.6,1.5,7.5,2.3,11.6,2.3h84.3c8,0,15.3-3.1,20.7-8.1
		c0.1-0.1,0.1-0.1,0.2-0.2c0.3-0.3,0.6-0.6,1-0.9c0.1-0.1,0.2-0.2,0.2-0.2c0.3-0.3,0.6-0.6,0.8-0.9
		C152.6,119.3,152.7,119.2,152.8,119.1z"/>
	<path class="st23" d="M153.5,118.4c0.3-0.3,0.5-0.6,0.8-0.9c0.1-0.1,0.2-0.2,0.2-0.3c0.2-0.3,0.5-0.6,0.7-1
		c0.1-0.1,0.1-0.2,0.2-0.3c0.2-0.4,0.5-0.7,0.7-1.1c0-0.1,0.1-0.2,0.1-0.2c0.6-0.9,1.1-1.9,1.5-2.8c0,0,0-0.1,0-0.1
		c0.2-0.4,0.4-0.9,0.6-1.4c0.1-0.1,0.1-0.3,0.2-0.4c0.1-0.4,0.3-0.7,0.4-1.1c0.1-0.2,0.1-0.4,0.2-0.5c0.1-0.3,0.2-0.7,0.3-1
		c0.1-0.2,0.1-0.4,0.2-0.6c0.1-0.3,0.2-0.6,0.2-1c0.1-0.2,0.1-0.4,0.1-0.6c0.1-0.3,0.1-0.6,0.2-1c0-0.2,0.1-0.4,0.1-0.6
		c0.1-0.3,0.1-0.7,0.1-1c0-0.2,0.1-0.4,0.1-0.6c0-0.4,0.1-0.7,0.1-1.1c0-0.2,0-0.4,0-0.5c0-0.6,0-1.1,0-1.7V41.2
		c0-16.8-13.7-30.5-30.5-30.5H46.1c-0.5,0-1,0-1.5,0c-0.2,0-0.3,0-0.5,0c-0.3,0-0.7,0-1,0.1c-0.2,0-0.4,0.1-0.6,0.1
		c-0.3,0-0.6,0.1-0.9,0.1c-0.2,0-0.4,0.1-0.7,0.1c-0.3,0-0.5,0.1-0.8,0.1c-0.2,0-0.5,0.1-0.7,0.2c-0.2,0.1-0.5,0.1-0.7,0.2
		c-0.2,0.1-0.5,0.1-0.7,0.2c-0.2,0.1-0.5,0.1-0.7,0.2c-0.2,0.1-0.5,0.2-0.7,0.2c-0.2,0.1-0.4,0.1-0.6,0.2c-0.2,0.1-0.5,0.2-0.7,0.3
		c-0.2,0.1-0.4,0.2-0.6,0.2c-0.3,0.1-0.5,0.2-0.7,0.3c-0.2,0.1-0.4,0.2-0.6,0.3c-0.3,0.1-0.5,0.2-0.8,0.4c-0.2,0.1-0.3,0.2-0.5,0.3
		c-0.3,0.1-0.5,0.3-0.8,0.4c-0.2,0.1-0.3,0.2-0.5,0.3c-0.3,0.2-0.5,0.3-0.8,0.5c-0.1,0.1-0.3,0.2-0.4,0.3c-0.3,0.2-0.5,0.3-0.8,0.5
		c-0.1,0.1-0.2,0.2-0.4,0.3c-0.3,0.2-0.5,0.4-0.8,0.6c-0.1,0.1-0.2,0.2-0.3,0.2c-0.3,0.2-0.6,0.4-0.8,0.7c-0.1,0.1-0.1,0.1-0.2,0.2
		c-6.6,5.6-10.8,13.9-10.8,23.3v57.4c0,9,3.9,17,10,22.6l8.9,5.6c3.6,1.5,7.5,2.3,11.6,2.3h84.3c8,0,15.3-3.1,20.7-8.1
		c0.1-0.1,0.1-0.1,0.2-0.2c0.3-0.3,0.6-0.6,1-0.9c0.1-0.1,0.2-0.2,0.2-0.2c0.3-0.3,0.6-0.6,0.8-0.9
		C153.3,118.6,153.4,118.5,153.5,118.4z"/>
	<path class="st24" d="M154.2,117.7c0.3-0.3,0.5-0.6,0.8-0.9c0.1-0.1,0.2-0.2,0.2-0.3c0.2-0.3,0.5-0.6,0.7-1
		c0.1-0.1,0.1-0.2,0.2-0.3c0.2-0.4,0.5-0.7,0.7-1.1c0-0.1,0.1-0.2,0.1-0.2c0.6-0.9,1.1-1.9,1.5-2.8c0,0,0-0.1,0-0.1
		c0.2-0.4,0.4-0.9,0.6-1.4c0.1-0.1,0.1-0.3,0.2-0.4c0.1-0.4,0.3-0.7,0.4-1.1c0.1-0.2,0.1-0.4,0.2-0.5c0.1-0.3,0.2-0.7,0.3-1
		c0.1-0.2,0.1-0.4,0.2-0.6c0.1-0.3,0.2-0.6,0.2-1c0.1-0.2,0.1-0.4,0.1-0.6c0.1-0.3,0.1-0.6,0.2-1c0-0.2,0.1-0.4,0.1-0.6
		c0.1-0.3,0.1-0.7,0.1-1c0-0.2,0.1-0.4,0.1-0.6c0-0.4,0.1-0.7,0.1-1.1c0-0.2,0-0.4,0-0.5c0-0.6,0-1.1,0-1.7V40.5
		c0-16.8-13.7-30.5-30.5-30.5H46.8c-0.5,0-1,0-1.5,0c-0.2,0-0.3,0-0.5,0c-0.3,0-0.7,0-1,0.1c-0.2,0-0.4,0.1-0.6,0.1
		c-0.3,0-0.6,0.1-0.9,0.1c-0.2,0-0.4,0.1-0.7,0.1c-0.3,0-0.5,0.1-0.8,0.1c-0.2,0-0.5,0.1-0.7,0.2c-0.2,0.1-0.5,0.1-0.7,0.2
		c-0.2,0.1-0.5,0.1-0.7,0.2c-0.2,0.1-0.5,0.1-0.7,0.2c-0.2,0.1-0.5,0.2-0.7,0.2c-0.2,0.1-0.4,0.1-0.6,0.2c-0.2,0.1-0.5,0.2-0.7,0.3
		c-0.2,0.1-0.4,0.2-0.6,0.2c-0.3,0.1-0.5,0.2-0.7,0.3c-0.2,0.1-0.4,0.2-0.6,0.3c-0.3,0.1-0.5,0.2-0.8,0.4c-0.2,0.1-0.3,0.2-0.5,0.3
		c-0.3,0.1-0.5,0.3-0.8,0.4c-0.2,0.1-0.3,0.2-0.5,0.3c-0.3,0.2-0.5,0.3-0.8,0.5c-0.1,0.1-0.3,0.2-0.4,0.3c-0.3,0.2-0.5,0.3-0.8,0.5
		c-0.1,0.1-0.2,0.2-0.4,0.3c-0.3,0.2-0.5,0.4-0.8,0.6c-0.1,0.1-0.2,0.2-0.3,0.2c-0.3,0.2-0.6,0.4-0.8,0.7c-0.1,0.1-0.1,0.1-0.2,0.2
		c-6.6,5.6-10.8,13.9-10.8,23.3v57.4c0,9,3.9,17,10,22.6l8.9,5.6c3.6,1.5,7.5,2.3,11.6,2.3H131c8,0,15.3-3.1,20.7-8.1
		c0.1-0.1,0.1-0.1,0.2-0.2c0.3-0.3,0.6-0.6,1-0.9c0.1-0.1,0.2-0.2,0.2-0.2c0.3-0.3,0.6-0.6,0.8-0.9
		C154,117.9,154.1,117.8,154.2,117.7z"/>
	<path class="st25" d="M154.9,117c0.3-0.3,0.5-0.6,0.8-0.9c0.1-0.1,0.2-0.2,0.2-0.3c0.2-0.3,0.5-0.6,0.7-1c0.1-0.1,0.1-0.2,0.2-0.3
		c0.2-0.4,0.5-0.7,0.7-1.1c0-0.1,0.1-0.2,0.1-0.2c0.6-0.9,1.1-1.9,1.5-2.8c0,0,0-0.1,0-0.1c0.2-0.4,0.4-0.9,0.6-1.4
		c0.1-0.1,0.1-0.3,0.2-0.4c0.1-0.4,0.3-0.7,0.4-1.1c0.1-0.2,0.1-0.4,0.2-0.5c0.1-0.3,0.2-0.7,0.3-1c0.1-0.2,0.1-0.4,0.2-0.6
		c0.1-0.3,0.2-0.6,0.2-1c0.1-0.2,0.1-0.4,0.1-0.6c0.1-0.3,0.1-0.6,0.2-1c0-0.2,0.1-0.4,0.1-0.6c0.1-0.3,0.1-0.7,0.1-1
		c0-0.2,0.1-0.4,0.1-0.6c0-0.4,0.1-0.7,0.1-1.1c0-0.2,0-0.4,0-0.5c0-0.6,0-1.1,0-1.7V39.8c0-16.8-13.7-30.5-30.5-30.5H47.5
		c-0.5,0-1,0-1.5,0c-0.2,0-0.3,0-0.5,0c-0.3,0-0.7,0-1,0.1c-0.2,0-0.4,0.1-0.6,0.1c-0.3,0-0.6,0.1-0.9,0.1c-0.2,0-0.4,0.1-0.7,0.1
		c-0.3,0-0.5,0.1-0.8,0.1c-0.2,0-0.5,0.1-0.7,0.2c-0.2,0.1-0.5,0.1-0.7,0.2c-0.2,0.1-0.5,0.1-0.7,0.2c-0.2,0.1-0.5,0.1-0.7,0.2
		c-0.2,0.1-0.5,0.2-0.7,0.2c-0.2,0.1-0.4,0.1-0.6,0.2c-0.2,0.1-0.5,0.2-0.7,0.3c-0.2,0.1-0.4,0.2-0.6,0.2c-0.3,0.1-0.5,0.2-0.7,0.3
		c-0.2,0.1-0.4,0.2-0.6,0.3c-0.3,0.1-0.5,0.2-0.8,0.4c-0.2,0.1-0.3,0.2-0.5,0.3c-0.3,0.1-0.5,0.3-0.8,0.4c-0.2,0.1-0.3,0.2-0.5,0.3
		c-0.3,0.2-0.5,0.3-0.8,0.5c-0.1,0.1-0.3,0.2-0.4,0.3c-0.3,0.2-0.5,0.3-0.8,0.5c-0.1,0.1-0.2,0.2-0.4,0.3c-0.3,0.2-0.5,0.4-0.8,0.6
		c-0.1,0.1-0.2,0.2-0.3,0.2c-0.3,0.2-0.6,0.4-0.8,0.7c-0.1,0.1-0.1,0.1-0.2,0.2C21.1,22.1,17,30.4,17,39.8v57.4c0,9,3.9,17,10,22.6
		l8.9,5.6c3.6,1.5,7.5,2.3,11.6,2.3h84.3c8,0,15.3-3.1,20.7-8.1c0.1-0.1,0.1-0.1,0.2-0.2c0.3-0.3,0.6-0.6,1-0.9
		c0.1-0.1,0.2-0.2,0.2-0.2c0.3-0.3,0.6-0.6,0.8-0.9C154.7,117.2,154.8,117.1,154.9,117z"/>
	<path class="st26" d="M155.6,116.3c0.3-0.3,0.5-0.6,0.8-0.9c0.1-0.1,0.2-0.2,0.2-0.3c0.2-0.3,0.5-0.6,0.7-1
		c0.1-0.1,0.1-0.2,0.2-0.3c0.2-0.4,0.5-0.7,0.7-1.1c0-0.1,0.1-0.2,0.1-0.2c0.6-0.9,1.1-1.9,1.5-2.8c0,0,0-0.1,0-0.1
		c0.2-0.4,0.4-0.9,0.6-1.4c0.1-0.1,0.1-0.3,0.2-0.4c0.1-0.4,0.3-0.7,0.4-1.1c0.1-0.2,0.1-0.4,0.2-0.5c0.1-0.3,0.2-0.7,0.3-1
		c0.1-0.2,0.1-0.4,0.2-0.6c0.1-0.3,0.2-0.6,0.2-1c0.1-0.2,0.1-0.4,0.1-0.6c0.1-0.3,0.1-0.6,0.2-1c0-0.2,0.1-0.4,0.1-0.6
		c0.1-0.3,0.1-0.7,0.1-1c0-0.2,0.1-0.4,0.1-0.6c0-0.4,0.1-0.7,0.1-1.1c0-0.2,0-0.4,0-0.5c0-0.6,0-1.1,0-1.7V39.1
		c0-16.8-13.7-30.5-30.5-30.5H48.2c-0.5,0-1,0-1.5,0c-0.2,0-0.3,0-0.5,0c-0.3,0-0.7,0-1,0.1c-0.2,0-0.4,0.1-0.6,0.1
		c-0.3,0-0.6,0.1-0.9,0.1C43.4,8.9,43.2,9,43,9c-0.3,0-0.5,0.1-0.8,0.1c-0.2,0-0.5,0.1-0.7,0.2c-0.2,0.1-0.5,0.1-0.7,0.2
		c-0.2,0.1-0.5,0.1-0.7,0.2c-0.2,0.1-0.5,0.1-0.7,0.2c-0.2,0.1-0.5,0.2-0.7,0.2c-0.2,0.1-0.4,0.1-0.6,0.2c-0.2,0.1-0.5,0.2-0.7,0.3
		c-0.2,0.1-0.4,0.2-0.6,0.2c-0.3,0.1-0.5,0.2-0.7,0.3c-0.2,0.1-0.4,0.2-0.6,0.3c-0.3,0.1-0.5,0.2-0.8,0.4c-0.2,0.1-0.3,0.2-0.5,0.3
		c-0.3,0.1-0.5,0.3-0.8,0.4c-0.2,0.1-0.3,0.2-0.5,0.3c-0.3,0.2-0.5,0.3-0.8,0.5c-0.1,0.1-0.3,0.2-0.4,0.3c-0.3,0.2-0.5,0.3-0.8,0.5
		c-0.1,0.1-0.2,0.2-0.4,0.3c-0.3,0.2-0.5,0.4-0.8,0.6c-0.1,0.1-0.2,0.2-0.3,0.2c-0.3,0.2-0.6,0.4-0.8,0.7c-0.1,0.1-0.1,0.1-0.2,0.2
		c-6.6,5.6-10.8,13.9-10.8,23.3v57.4c0,9,3.9,17,10,22.6l8.9,5.6c3.6,1.5,7.5,2.3,11.6,2.3h84.3c8,0,15.3-3.1,20.7-8.1
		c0.1-0.1,0.1-0.1,0.2-0.2c0.3-0.3,0.6-0.6,1-0.9c0.1-0.1,0.2-0.2,0.2-0.2c0.3-0.3,0.6-0.6,0.8-0.9
		C155.4,116.4,155.5,116.4,155.6,116.3z"/>
	<path class="st27" d="M156.3,115.6c0.3-0.3,0.5-0.6,0.8-0.9c0.1-0.1,0.2-0.2,0.2-0.3c0.2-0.3,0.5-0.6,0.7-1
		c0.1-0.1,0.1-0.2,0.2-0.3c0.2-0.4,0.5-0.7,0.7-1.1c0-0.1,0.1-0.2,0.1-0.2c0.6-0.9,1.1-1.9,1.5-2.8c0,0,0-0.1,0-0.1
		c0.2-0.4,0.4-0.9,0.6-1.4c0.1-0.1,0.1-0.3,0.2-0.4c0.1-0.4,0.3-0.7,0.4-1.1c0.1-0.2,0.1-0.4,0.2-0.5c0.1-0.3,0.2-0.7,0.3-1
		c0.1-0.2,0.1-0.4,0.2-0.6c0.1-0.3,0.2-0.6,0.2-1c0.1-0.2,0.1-0.4,0.1-0.6c0.1-0.3,0.1-0.6,0.2-1c0-0.2,0.1-0.4,0.1-0.6
		c0.1-0.3,0.1-0.7,0.1-1c0-0.2,0.1-0.4,0.1-0.6c0-0.4,0.1-0.7,0.1-1.1c0-0.2,0-0.4,0-0.5c0-0.6,0-1.1,0-1.7V38.4
		c0-16.8-13.7-30.5-30.5-30.5H48.9c-0.5,0-1,0-1.5,0c-0.2,0-0.3,0-0.5,0c-0.3,0-0.7,0-1,0.1c-0.2,0-0.4,0.1-0.6,0.1
		c-0.3,0-0.6,0.1-0.9,0.1c-0.2,0-0.4,0.1-0.7,0.1c-0.3,0-0.5,0.1-0.8,0.1c-0.2,0-0.5,0.1-0.7,0.2c-0.2,0.1-0.5,0.1-0.7,0.2
		C41.2,8.8,41,8.9,40.8,9c-0.2,0.1-0.5,0.1-0.7,0.2c-0.2,0.1-0.5,0.2-0.7,0.2c-0.2,0.1-0.4,0.1-0.6,0.2c-0.2,0.1-0.5,0.2-0.7,0.3
		c-0.2,0.1-0.4,0.2-0.6,0.2c-0.3,0.1-0.5,0.2-0.7,0.3c-0.2,0.1-0.4,0.2-0.6,0.3c-0.3,0.1-0.5,0.2-0.8,0.4c-0.2,0.1-0.3,0.2-0.5,0.3
		c-0.3,0.1-0.5,0.3-0.8,0.4c-0.2,0.1-0.3,0.2-0.5,0.3c-0.3,0.2-0.5,0.3-0.8,0.5c-0.1,0.1-0.3,0.2-0.4,0.3c-0.3,0.2-0.5,0.3-0.8,0.5
		c-0.1,0.1-0.2,0.2-0.4,0.3c-0.3,0.2-0.5,0.4-0.8,0.6c-0.1,0.1-0.2,0.2-0.3,0.2c-0.3,0.2-0.6,0.4-0.8,0.7c-0.1,0.1-0.1,0.1-0.2,0.2
		C22.5,20.7,18.4,29,18.4,38.4v57.4c0,9,3.9,17,10,22.6l8.9,5.6c3.6,1.5,7.5,2.3,11.6,2.3h84.3c8,0,15.3-3.1,20.7-8.1
		c0.1-0.1,0.1-0.1,0.2-0.2c0.3-0.3,0.6-0.6,1-0.9c0.1-0.1,0.2-0.2,0.2-0.2c0.3-0.3,0.6-0.6,0.8-0.9
		C156.1,115.7,156.2,115.7,156.3,115.6z"/>
	<path class="st28" d="M157,114.9c0.3-0.3,0.5-0.6,0.8-0.9c0.1-0.1,0.2-0.2,0.2-0.3c0.2-0.3,0.5-0.6,0.7-1c0.1-0.1,0.1-0.2,0.2-0.3
		c0.2-0.4,0.5-0.7,0.7-1.1c0-0.1,0.1-0.2,0.1-0.2c0.6-0.9,1.1-1.9,1.5-2.8c0,0,0-0.1,0-0.1c0.2-0.4,0.4-0.9,0.6-1.4
		c0.1-0.1,0.1-0.3,0.2-0.4c0.1-0.4,0.3-0.7,0.4-1.1c0.1-0.2,0.1-0.4,0.2-0.5c0.1-0.3,0.2-0.7,0.3-1c0.1-0.2,0.1-0.4,0.2-0.6
		c0.1-0.3,0.2-0.6,0.2-1c0.1-0.2,0.1-0.4,0.1-0.6c0.1-0.3,0.1-0.6,0.2-1c0-0.2,0.1-0.4,0.1-0.6c0.1-0.3,0.1-0.7,0.1-1
		c0-0.2,0.1-0.4,0.1-0.6c0-0.4,0.1-0.7,0.1-1.1c0-0.2,0-0.4,0-0.5c0-0.6,0-1.1,0-1.7V37.7c0-16.8-13.7-30.5-30.5-30.5H49.6
		c-0.5,0-1,0-1.5,0c-0.2,0-0.3,0-0.5,0c-0.3,0-0.7,0-1,0.1c-0.2,0-0.4,0.1-0.6,0.1c-0.3,0-0.6,0.1-0.9,0.1c-0.2,0-0.4,0.1-0.7,0.1
		c-0.3,0-0.5,0.1-0.8,0.1c-0.2,0-0.5,0.1-0.7,0.2c-0.2,0.1-0.5,0.1-0.7,0.2c-0.2,0.1-0.5,0.1-0.7,0.2c-0.2,0.1-0.5,0.1-0.7,0.2
		c-0.2,0.1-0.5,0.2-0.7,0.2c-0.2,0.1-0.4,0.1-0.6,0.2c-0.2,0.1-0.5,0.2-0.7,0.3c-0.2,0.1-0.4,0.2-0.6,0.2c-0.3,0.1-0.5,0.2-0.7,0.3
		c-0.2,0.1-0.4,0.2-0.6,0.3c-0.3,0.1-0.5,0.2-0.8,0.4c-0.2,0.1-0.3,0.2-0.5,0.3c-0.3,0.1-0.5,0.3-0.8,0.4c-0.2,0.1-0.3,0.2-0.5,0.3
		c-0.3,0.2-0.5,0.3-0.8,0.5c-0.1,0.1-0.3,0.2-0.4,0.3c-0.3,0.2-0.5,0.3-0.8,0.5c-0.1,0.1-0.2,0.2-0.4,0.3c-0.3,0.2-0.5,0.4-0.8,0.6
		c-0.1,0.1-0.2,0.2-0.3,0.2c-0.3,0.2-0.6,0.4-0.8,0.7c-0.1,0.1-0.1,0.1-0.2,0.2C23.3,20,19.1,28.3,19.1,37.7V95c0,9,3.9,17,10,22.6
		l8.9,5.6c3.6,1.5,7.5,2.3,11.6,2.3h84.3c8,0,15.3-3.1,20.7-8.1c0.1-0.1,0.1-0.1,0.2-0.2c0.3-0.3,0.6-0.6,1-0.9
		c0.1-0.1,0.2-0.2,0.2-0.2c0.3-0.3,0.6-0.6,0.8-0.9C156.9,115,156.9,114.9,157,114.9z"/>
	<path class="st29" d="M157.7,114.1c0.3-0.3,0.5-0.6,0.8-0.9c0.1-0.1,0.2-0.2,0.2-0.3c0.2-0.3,0.5-0.6,0.7-1
		c0.1-0.1,0.1-0.2,0.2-0.3c0.2-0.4,0.5-0.7,0.7-1.1c0-0.1,0.1-0.2,0.1-0.2c0.6-0.9,1.1-1.9,1.5-2.8c0,0,0-0.1,0-0.1
		c0.2-0.4,0.4-0.9,0.6-1.4c0.1-0.1,0.1-0.3,0.2-0.4c0.1-0.4,0.3-0.7,0.4-1.1c0.1-0.2,0.1-0.4,0.2-0.5c0.1-0.3,0.2-0.7,0.3-1
		c0.1-0.2,0.1-0.4,0.2-0.6c0.1-0.3,0.2-0.6,0.2-1c0.1-0.2,0.1-0.4,0.1-0.6c0.1-0.3,0.1-0.6,0.2-1c0-0.2,0.1-0.4,0.1-0.6
		c0.1-0.3,0.1-0.7,0.1-1c0-0.2,0.1-0.4,0.1-0.6c0-0.4,0.1-0.7,0.1-1.1c0-0.2,0-0.4,0-0.5c0-0.6,0-1.1,0-1.7V37
		c0-16.8-13.7-30.5-30.5-30.5H50.3c-0.5,0-1,0-1.5,0c-0.2,0-0.3,0-0.5,0c-0.3,0-0.7,0-1,0.1c-0.2,0-0.4,0.1-0.6,0.1
		c-0.3,0-0.6,0.1-0.9,0.1c-0.2,0-0.4,0.1-0.7,0.1c-0.3,0-0.5,0.1-0.8,0.1c-0.2,0-0.5,0.1-0.7,0.2c-0.2,0.1-0.5,0.1-0.7,0.2
		c-0.2,0.1-0.5,0.1-0.7,0.2c-0.2,0.1-0.5,0.1-0.7,0.2C41.2,7.8,41,7.9,40.7,8c-0.2,0.1-0.4,0.1-0.6,0.2c-0.2,0.1-0.5,0.2-0.7,0.3
		c-0.2,0.1-0.4,0.2-0.6,0.2C38.5,8.8,38.3,8.9,38,9c-0.2,0.1-0.4,0.2-0.6,0.3c-0.3,0.1-0.5,0.2-0.8,0.4c-0.2,0.1-0.3,0.2-0.5,0.3
		c-0.3,0.1-0.5,0.3-0.8,0.4c-0.2,0.1-0.3,0.2-0.5,0.3c-0.3,0.2-0.5,0.3-0.8,0.5c-0.1,0.1-0.3,0.2-0.4,0.3c-0.3,0.2-0.5,0.3-0.8,0.5
		c-0.1,0.1-0.2,0.2-0.4,0.3c-0.3,0.2-0.5,0.4-0.8,0.6c-0.1,0.1-0.2,0.2-0.3,0.2c-0.3,0.2-0.6,0.4-0.8,0.7c-0.1,0.1-0.1,0.1-0.2,0.2
		C24,19.3,19.8,27.6,19.8,37v57.4c0,9,3.9,17,10,22.6l8.9,5.6c3.6,1.5,7.5,2.3,11.6,2.3h84.3c8,0,15.3-3.1,20.7-8.1
		c0.1-0.1,0.1-0.1,0.2-0.2c0.3-0.3,0.6-0.6,1-0.9c0.1-0.1,0.2-0.2,0.2-0.2c0.3-0.3,0.6-0.6,0.8-0.9
		C157.6,114.3,157.6,114.2,157.7,114.1z"/>
	<path class="st30" d="M158.4,113.4c0.3-0.3,0.5-0.6,0.8-0.9c0.1-0.1,0.2-0.2,0.2-0.3c0.2-0.3,0.5-0.6,0.7-1
		c0.1-0.1,0.1-0.2,0.2-0.3c0.2-0.4,0.5-0.7,0.7-1.1c0-0.1,0.1-0.2,0.1-0.2c0.6-0.9,1.1-1.9,1.5-2.8c0,0,0-0.1,0-0.1
		c0.2-0.4,0.4-0.9,0.6-1.4c0.1-0.1,0.1-0.3,0.2-0.4c0.1-0.4,0.3-0.7,0.4-1.1c0.1-0.2,0.1-0.4,0.2-0.5c0.1-0.3,0.2-0.7,0.3-1
		c0.1-0.2,0.1-0.4,0.2-0.6c0.1-0.3,0.2-0.6,0.2-1c0.1-0.2,0.1-0.4,0.1-0.6c0.1-0.3,0.1-0.6,0.2-1c0-0.2,0.1-0.4,0.1-0.6
		c0.1-0.3,0.1-0.7,0.1-1c0-0.2,0.1-0.4,0.1-0.6c0-0.4,0.1-0.7,0.1-1.1c0-0.2,0-0.4,0-0.5c0-0.6,0-1.1,0-1.7V36.3
		c0-16.8-13.7-30.5-30.5-30.5H51c-0.5,0-1,0-1.5,0c-0.2,0-0.3,0-0.5,0c-0.3,0-0.7,0-1,0.1c-0.2,0-0.4,0.1-0.6,0.1
		C47,6,46.7,6,46.5,6.1c-0.2,0-0.4,0.1-0.7,0.1c-0.3,0-0.5,0.1-0.8,0.1c-0.2,0-0.5,0.1-0.7,0.2c-0.2,0.1-0.5,0.1-0.7,0.2
		c-0.2,0.1-0.5,0.1-0.7,0.2C42.6,6.9,42.4,7,42.2,7c-0.2,0.1-0.5,0.2-0.7,0.2c-0.2,0.1-0.4,0.1-0.6,0.2c-0.2,0.1-0.5,0.2-0.7,0.3
		c-0.2,0.1-0.4,0.2-0.6,0.2c-0.3,0.1-0.5,0.2-0.7,0.3c-0.2,0.1-0.4,0.2-0.6,0.3c-0.3,0.1-0.5,0.2-0.8,0.4c-0.2,0.1-0.3,0.2-0.5,0.3
		c-0.3,0.1-0.5,0.3-0.8,0.4c-0.2,0.1-0.3,0.2-0.5,0.3c-0.3,0.2-0.5,0.3-0.8,0.5c-0.1,0.1-0.3,0.2-0.4,0.3c-0.3,0.2-0.5,0.3-0.8,0.5
		c-0.1,0.1-0.2,0.2-0.4,0.3c-0.3,0.2-0.5,0.4-0.8,0.6c-0.1,0.1-0.2,0.2-0.3,0.2c-0.3,0.2-0.6,0.4-0.8,0.7c-0.1,0.1-0.1,0.1-0.2,0.2
		c-6.6,5.6-10.8,13.9-10.8,23.3v57.4c0,9,3.9,17,10,22.6l8.9,5.6c3.6,1.5,7.5,2.3,11.6,2.3h84.3c8,0,15.3-3.1,20.7-8.1
		c0.1-0.1,0.1-0.1,0.2-0.2c0.3-0.3,0.6-0.6,1-0.9c0.1-0.1,0.2-0.2,0.2-0.2c0.3-0.3,0.6-0.6,0.8-0.9
		C158.3,113.6,158.3,113.5,158.4,113.4z"/>
	<path class="st31" d="M159.1,112.7c0.3-0.3,0.5-0.6,0.8-0.9c0.1-0.1,0.2-0.2,0.2-0.3c0.2-0.3,0.5-0.6,0.7-1
		c0.1-0.1,0.1-0.2,0.2-0.3c0.2-0.4,0.5-0.7,0.7-1.1c0-0.1,0.1-0.2,0.1-0.2c0.6-0.9,1.1-1.9,1.5-2.8c0,0,0-0.1,0-0.1
		c0.2-0.4,0.4-0.9,0.6-1.4c0.1-0.1,0.1-0.3,0.2-0.4c0.1-0.4,0.3-0.7,0.4-1.1c0.1-0.2,0.1-0.4,0.2-0.5c0.1-0.3,0.2-0.7,0.3-1
		c0.1-0.2,0.1-0.4,0.2-0.6c0.1-0.3,0.2-0.6,0.2-1c0.1-0.2,0.1-0.4,0.1-0.6c0.1-0.3,0.1-0.6,0.2-1c0-0.2,0.1-0.4,0.1-0.6
		c0.1-0.3,0.1-0.7,0.1-1c0-0.2,0.1-0.4,0.1-0.6c0-0.4,0.1-0.7,0.1-1.1c0-0.2,0-0.4,0-0.5c0-0.6,0-1.1,0-1.7V35.5
		c0-16.8-13.7-30.5-30.5-30.5H51.7c-0.5,0-1,0-1.5,0c-0.2,0-0.3,0-0.5,0c-0.3,0-0.7,0-1,0.1c-0.2,0-0.4,0.1-0.6,0.1
		c-0.3,0-0.6,0.1-0.9,0.1c-0.2,0-0.4,0.1-0.7,0.1c-0.3,0-0.5,0.1-0.8,0.1c-0.2,0-0.5,0.1-0.7,0.2c-0.2,0.1-0.5,0.1-0.7,0.2
		C44,6,43.8,6.1,43.6,6.1c-0.2,0.1-0.5,0.1-0.7,0.2c-0.2,0.1-0.5,0.2-0.7,0.2c-0.2,0.1-0.4,0.1-0.6,0.2C41.3,6.9,41,7,40.8,7.1
		c-0.2,0.1-0.4,0.2-0.6,0.2c-0.3,0.1-0.5,0.2-0.7,0.3c-0.2,0.1-0.4,0.2-0.6,0.3c-0.3,0.1-0.5,0.2-0.8,0.4c-0.2,0.1-0.3,0.2-0.5,0.3
		c-0.3,0.1-0.5,0.3-0.8,0.4c-0.2,0.1-0.3,0.2-0.5,0.3c-0.3,0.2-0.5,0.3-0.8,0.5c-0.1,0.1-0.3,0.2-0.4,0.3c-0.3,0.2-0.5,0.3-0.8,0.5
		c-0.1,0.1-0.2,0.2-0.4,0.3c-0.3,0.2-0.5,0.4-0.8,0.6c-0.1,0.1-0.2,0.2-0.3,0.2c-0.3,0.2-0.6,0.4-0.8,0.7c-0.1,0.1-0.1,0.1-0.2,0.2
		c-6.6,5.6-10.8,13.9-10.8,23.3v57.4c0,9,3.9,17,10,22.6l8.9,5.6c3.6,1.5,7.5,2.3,11.6,2.3h84.3c8,0,15.3-3.1,20.7-8.1
		c0.1-0.1,0.1-0.1,0.2-0.2c0.3-0.3,0.6-0.6,1-0.9c0.1-0.1,0.2-0.2,0.2-0.2c0.3-0.3,0.6-0.6,0.8-0.9C159,112.9,159,112.8,159.1,112.7
		z"/>
	<path class="st32" d="M159.8,112c0.3-0.3,0.5-0.6,0.8-0.9c0.1-0.1,0.2-0.2,0.2-0.3c0.2-0.3,0.5-0.6,0.7-1c0.1-0.1,0.1-0.2,0.2-0.3
		c0.2-0.4,0.5-0.7,0.7-1.1c0-0.1,0.1-0.2,0.1-0.2c0.6-0.9,1.1-1.9,1.5-2.8c0,0,0-0.1,0-0.1c0.2-0.4,0.4-0.9,0.6-1.4
		c0.1-0.1,0.1-0.3,0.2-0.4c0.1-0.4,0.3-0.7,0.4-1.1c0.1-0.2,0.1-0.4,0.2-0.5c0.1-0.3,0.2-0.7,0.3-1c0.1-0.2,0.1-0.4,0.2-0.6
		c0.1-0.3,0.2-0.6,0.2-1c0.1-0.2,0.1-0.4,0.1-0.6c0.1-0.3,0.1-0.6,0.2-1c0-0.2,0.1-0.4,0.1-0.6c0.1-0.3,0.1-0.7,0.1-1
		c0-0.2,0.1-0.4,0.1-0.6c0-0.4,0.1-0.7,0.1-1.1c0-0.2,0-0.4,0-0.5c0-0.6,0-1.1,0-1.7V34.8c0-16.8-13.7-30.5-30.5-30.5H52.4
		c-0.5,0-1,0-1.5,0c-0.2,0-0.3,0-0.5,0c-0.3,0-0.7,0-1,0.1c-0.2,0-0.4,0.1-0.6,0.1c-0.3,0-0.6,0.1-0.9,0.1c-0.2,0-0.4,0.1-0.7,0.1
		c-0.3,0-0.5,0.1-0.8,0.1c-0.2,0-0.5,0.1-0.7,0.2c-0.2,0.1-0.5,0.1-0.7,0.2c-0.2,0.1-0.5,0.1-0.7,0.2c-0.2,0.1-0.5,0.1-0.7,0.2
		c-0.2,0.1-0.5,0.2-0.7,0.2c-0.2,0.1-0.4,0.1-0.6,0.2c-0.2,0.1-0.5,0.2-0.7,0.3c-0.2,0.1-0.4,0.2-0.6,0.2c-0.3,0.1-0.5,0.2-0.7,0.3
		c-0.2,0.1-0.4,0.2-0.6,0.3c-0.3,0.1-0.5,0.2-0.8,0.4c-0.2,0.1-0.3,0.2-0.5,0.3c-0.3,0.1-0.5,0.3-0.8,0.4c-0.2,0.1-0.3,0.2-0.5,0.3
		c-0.3,0.2-0.5,0.3-0.8,0.5C36.2,9,36,9.1,35.9,9.2c-0.3,0.2-0.5,0.3-0.8,0.5C35,9.8,34.9,9.9,34.7,10c-0.3,0.2-0.5,0.4-0.8,0.6
		c-0.1,0.1-0.2,0.2-0.3,0.2c-0.3,0.2-0.6,0.4-0.8,0.7c-0.1,0.1-0.1,0.1-0.2,0.2c-6.6,5.6-10.8,13.9-10.8,23.3v57.4
		c0,9,3.9,17,10,22.6l8.9,5.6c3.6,1.5,7.5,2.3,11.6,2.3h84.3c8,0,15.3-3.1,20.7-8.1c0.1-0.1,0.1-0.1,0.2-0.2c0.3-0.3,0.6-0.6,1-0.9
		c0.1-0.1,0.2-0.2,0.2-0.2c0.3-0.3,0.6-0.6,0.8-0.9C159.7,112.2,159.7,112.1,159.8,112z"/>
	<path class="st33" d="M160.5,111.3c0.3-0.3,0.5-0.6,0.8-0.9c0.1-0.1,0.2-0.2,0.2-0.3c0.2-0.3,0.5-0.6,0.7-1
		c0.1-0.1,0.1-0.2,0.2-0.3c0.2-0.4,0.5-0.7,0.7-1.1c0-0.1,0.1-0.2,0.1-0.2c0.6-0.9,1.1-1.9,1.5-2.8c0,0,0-0.1,0-0.1
		c0.2-0.4,0.4-0.9,0.6-1.4c0.1-0.1,0.1-0.3,0.2-0.4c0.1-0.4,0.3-0.7,0.4-1.1c0.1-0.2,0.1-0.4,0.2-0.5c0.1-0.3,0.2-0.7,0.3-1
		c0.1-0.2,0.1-0.4,0.2-0.6c0.1-0.3,0.2-0.6,0.2-1c0.1-0.2,0.1-0.4,0.1-0.6c0.1-0.3,0.1-0.6,0.2-1c0-0.2,0.1-0.4,0.1-0.6
		c0.1-0.3,0.1-0.7,0.1-1c0-0.2,0.1-0.4,0.1-0.6c0-0.4,0.1-0.7,0.1-1.1c0-0.2,0-0.4,0-0.5c0-0.6,0-1.1,0-1.7V34.1
		c0-16.8-13.7-30.5-30.5-30.5H53.1c-0.5,0-1,0-1.5,0c-0.2,0-0.3,0-0.5,0c-0.3,0-0.7,0-1,0.1c-0.2,0-0.4,0.1-0.6,0.1
		c-0.3,0-0.6,0.1-0.9,0.1c-0.2,0-0.4,0.1-0.7,0.1c-0.3,0-0.5,0.1-0.8,0.1c-0.2,0-0.5,0.1-0.7,0.2c-0.2,0.1-0.5,0.1-0.7,0.2
		c-0.2,0.1-0.5,0.1-0.7,0.2c-0.2,0.1-0.5,0.1-0.7,0.2C44,5,43.8,5.1,43.5,5.2c-0.2,0.1-0.4,0.1-0.6,0.2c-0.2,0.1-0.5,0.2-0.7,0.3
		c-0.2,0.1-0.4,0.2-0.6,0.2c-0.3,0.1-0.5,0.2-0.7,0.3c-0.2,0.1-0.4,0.2-0.6,0.3c-0.3,0.1-0.5,0.2-0.8,0.4C39.3,6.9,39.2,7,39,7.1
		c-0.3,0.1-0.5,0.3-0.8,0.4c-0.2,0.1-0.3,0.2-0.5,0.3c-0.3,0.2-0.5,0.3-0.8,0.5c-0.1,0.1-0.3,0.2-0.4,0.3c-0.3,0.2-0.5,0.3-0.8,0.5
		c-0.1,0.1-0.2,0.2-0.4,0.3c-0.3,0.2-0.5,0.4-0.8,0.6c-0.1,0.1-0.2,0.2-0.3,0.2c-0.3,0.2-0.6,0.4-0.8,0.7c-0.1,0.1-0.1,0.1-0.2,0.2
		c-6.6,5.6-10.8,13.9-10.8,23.3v57.4c0,9,3.9,17,10,22.6l8.9,5.6c3.6,1.5,7.5,2.3,11.6,2.3h84.3c8,0,15.3-3.1,20.7-8.1
		c0.1-0.1,0.1-0.1,0.2-0.2c0.3-0.3,0.6-0.6,1-0.9c0.1-0.1,0.2-0.2,0.2-0.2c0.3-0.3,0.6-0.6,0.8-0.9
		C160.4,111.5,160.4,111.4,160.5,111.3z"/>
	<path class="st34" d="M161.2,110.6c0.3-0.3,0.5-0.6,0.8-0.9c0.1-0.1,0.2-0.2,0.2-0.3c0.2-0.3,0.5-0.6,0.7-1
		c0.1-0.1,0.1-0.2,0.2-0.3c0.2-0.4,0.5-0.7,0.7-1.1c0-0.1,0.1-0.2,0.1-0.2c0.6-0.9,1.1-1.9,1.5-2.8c0,0,0-0.1,0-0.1
		c0.2-0.4,0.4-0.9,0.6-1.4c0.1-0.1,0.1-0.3,0.2-0.4c0.1-0.4,0.3-0.7,0.4-1.1c0.1-0.2,0.1-0.4,0.2-0.5c0.1-0.3,0.2-0.7,0.3-1
		c0.1-0.2,0.1-0.4,0.2-0.6c0.1-0.3,0.2-0.6,0.2-1c0.1-0.2,0.1-0.4,0.1-0.6c0.1-0.3,0.1-0.6,0.2-1c0-0.2,0.1-0.4,0.1-0.6
		c0.1-0.3,0.1-0.7,0.1-1c0-0.2,0.1-0.4,0.1-0.6c0-0.4,0.1-0.7,0.1-1.1c0-0.2,0-0.4,0-0.5c0-0.6,0-1.1,0-1.7V33.4
		c0-16.8-13.7-30.5-30.5-30.5H53.8c-0.5,0-1,0-1.5,0c-0.2,0-0.3,0-0.5,0c-0.3,0-0.7,0-1,0.1c-0.2,0-0.4,0.1-0.6,0.1
		c-0.3,0-0.6,0.1-0.9,0.1c-0.2,0-0.4,0.1-0.7,0.1c-0.3,0-0.5,0.1-0.8,0.1c-0.2,0-0.5,0.1-0.7,0.2c-0.2,0.1-0.5,0.1-0.7,0.2
		C46.1,3.9,45.9,4,45.7,4c-0.2,0.1-0.5,0.1-0.7,0.2c-0.2,0.1-0.5,0.2-0.7,0.2c-0.2,0.1-0.4,0.1-0.6,0.2c-0.2,0.1-0.5,0.2-0.7,0.3
		c-0.2,0.1-0.4,0.2-0.6,0.2c-0.3,0.1-0.5,0.2-0.7,0.3c-0.2,0.1-0.4,0.2-0.6,0.3c-0.3,0.1-0.5,0.2-0.8,0.4c-0.2,0.1-0.3,0.2-0.5,0.3
		c-0.3,0.1-0.5,0.3-0.8,0.4c-0.2,0.1-0.3,0.2-0.5,0.3c-0.3,0.2-0.5,0.3-0.8,0.5c-0.1,0.1-0.3,0.2-0.4,0.3C37,8,36.8,8.1,36.5,8.3
		c-0.1,0.1-0.2,0.2-0.4,0.3c-0.3,0.2-0.5,0.4-0.8,0.6c-0.1,0.1-0.2,0.2-0.3,0.2c-0.3,0.2-0.6,0.4-0.8,0.7c-0.1,0.1-0.1,0.1-0.2,0.2
		c-6.6,5.6-10.8,13.9-10.8,23.3v57.4c0,9,3.9,17,10,22.6l8.9,5.6c3.6,1.5,7.5,2.3,11.6,2.3h84.3c8,0,15.3-3.1,20.7-8.1
		c0.1-0.1,0.1-0.1,0.2-0.2c0.3-0.3,0.6-0.6,1-0.9c0.1-0.1,0.2-0.2,0.2-0.2c0.3-0.3,0.6-0.6,0.8-0.9
		C161.1,110.8,161.1,110.7,161.2,110.6z"/>
	<path class="st35" d="M161.9,109.9c0.3-0.3,0.5-0.6,0.8-0.9c0.1-0.1,0.2-0.2,0.2-0.3c0.2-0.3,0.5-0.6,0.7-1
		c0.1-0.1,0.1-0.2,0.2-0.3c0.2-0.4,0.5-0.7,0.7-1.1c0-0.1,0.1-0.2,0.1-0.2c0.6-0.9,1.1-1.9,1.5-2.8c0,0,0-0.1,0-0.1
		c0.2-0.4,0.4-0.9,0.6-1.4c0.1-0.1,0.1-0.3,0.2-0.4c0.1-0.4,0.3-0.7,0.4-1.1c0.1-0.2,0.1-0.4,0.2-0.5c0.1-0.3,0.2-0.7,0.3-1
		c0.1-0.2,0.1-0.4,0.2-0.6c0.1-0.3,0.2-0.6,0.2-1c0.1-0.2,0.1-0.4,0.1-0.6c0.1-0.3,0.1-0.6,0.2-1c0-0.2,0.1-0.4,0.1-0.6
		c0.1-0.3,0.1-0.7,0.1-1c0-0.2,0.1-0.4,0.1-0.6c0-0.4,0.1-0.7,0.1-1.1c0-0.2,0-0.4,0-0.5c0-0.6,0-1.1,0-1.7V32.7
		c0-16.8-13.7-30.5-30.5-30.5H54.5c-0.5,0-1,0-1.5,0c-0.2,0-0.3,0-0.5,0c-0.3,0-0.7,0-1,0.1c-0.2,0-0.4,0.1-0.6,0.1
		c-0.3,0-0.6,0.1-0.9,0.1c-0.2,0-0.4,0.1-0.7,0.1c-0.3,0-0.5,0.1-0.8,0.1c-0.2,0-0.5,0.1-0.7,0.2c-0.2,0.1-0.5,0.1-0.7,0.2
		c-0.2,0.1-0.5,0.1-0.7,0.2c-0.2,0.1-0.5,0.1-0.7,0.2c-0.2,0.1-0.5,0.2-0.7,0.2c-0.2,0.1-0.4,0.1-0.6,0.2c-0.2,0.1-0.5,0.2-0.7,0.3
		c-0.2,0.1-0.4,0.2-0.6,0.2c-0.3,0.1-0.5,0.2-0.7,0.3C42,4.9,41.9,5,41.7,5.1c-0.3,0.1-0.5,0.2-0.8,0.4c-0.2,0.1-0.3,0.2-0.5,0.3
		c-0.3,0.1-0.5,0.3-0.8,0.4c-0.2,0.1-0.3,0.2-0.5,0.3c-0.3,0.2-0.5,0.3-0.8,0.5C38.3,6.9,38.1,7,38,7.1c-0.3,0.2-0.5,0.3-0.8,0.5
		c-0.1,0.1-0.2,0.2-0.4,0.3c-0.3,0.2-0.5,0.4-0.8,0.6c-0.1,0.1-0.2,0.2-0.3,0.2c-0.3,0.2-0.6,0.4-0.8,0.7c-0.1,0.1-0.1,0.1-0.2,0.2
		C28.2,15.1,24,23.4,24,32.7v57.4c0,9,3.9,17,10,22.6l8.9,5.6c3.6,1.5,7.5,2.3,11.6,2.3h84.3c8,0,15.3-3.1,20.7-8.1
		c0.1-0.1,0.1-0.1,0.2-0.2c0.3-0.3,0.6-0.6,1-0.9c0.1-0.1,0.2-0.2,0.2-0.2c0.3-0.3,0.6-0.6,0.8-0.9
		C161.8,110.1,161.8,110,161.9,109.9z"/>
	<path class="st36" d="M162.6,109.2c0.3-0.3,0.5-0.6,0.8-0.9c0.1-0.1,0.2-0.2,0.2-0.3c0.2-0.3,0.5-0.6,0.7-1
		c0.1-0.1,0.1-0.2,0.2-0.3c0.2-0.4,0.5-0.7,0.7-1.1c0-0.1,0.1-0.2,0.1-0.2c0.6-0.9,1.1-1.9,1.5-2.8c0,0,0-0.1,0-0.1
		c0.2-0.4,0.4-0.9,0.6-1.4c0.1-0.1,0.1-0.3,0.2-0.4c0.1-0.4,0.3-0.7,0.4-1.1c0.1-0.2,0.1-0.4,0.2-0.5c0.1-0.3,0.2-0.7,0.3-1
		c0.1-0.2,0.1-0.4,0.2-0.6c0.1-0.3,0.2-0.6,0.2-1c0.1-0.2,0.1-0.4,0.1-0.6c0.1-0.3,0.1-0.6,0.2-1c0-0.2,0.1-0.4,0.1-0.6
		c0.1-0.3,0.1-0.7,0.1-1c0-0.2,0.1-0.4,0.1-0.6c0-0.4,0.1-0.7,0.1-1.1c0-0.2,0-0.4,0-0.5c0-0.6,0-1.1,0-1.7V32
		c0-16.8-13.7-30.5-30.5-30.5H55.2c-0.5,0-1,0-1.5,0c-0.2,0-0.3,0-0.5,0c-0.3,0-0.7,0-1,0.1c-0.2,0-0.4,0.1-0.6,0.1
		c-0.3,0-0.6,0.1-0.9,0.1c-0.2,0-0.4,0.1-0.7,0.1c-0.3,0-0.5,0.1-0.8,0.1c-0.2,0-0.5,0.1-0.7,0.2c-0.2,0.1-0.5,0.1-0.7,0.2
		c-0.2,0.1-0.5,0.1-0.7,0.2c-0.2,0.1-0.5,0.1-0.7,0.2c-0.2,0.1-0.5,0.2-0.7,0.2c-0.2,0.1-0.4,0.1-0.6,0.2c-0.2,0.1-0.5,0.2-0.7,0.3
		c-0.2,0.1-0.4,0.2-0.6,0.2c-0.3,0.1-0.5,0.2-0.7,0.3c-0.2,0.1-0.4,0.2-0.6,0.3c-0.3,0.1-0.5,0.2-0.8,0.4c-0.2,0.1-0.3,0.2-0.5,0.3
		c-0.3,0.1-0.5,0.3-0.8,0.4c-0.2,0.1-0.3,0.2-0.5,0.3c-0.3,0.2-0.5,0.3-0.8,0.5c-0.1,0.1-0.3,0.2-0.4,0.3c-0.3,0.2-0.5,0.3-0.8,0.5
		c-0.1,0.1-0.2,0.2-0.4,0.3c-0.3,0.2-0.5,0.4-0.8,0.6c-0.1,0.1-0.2,0.2-0.3,0.2c-0.3,0.2-0.6,0.4-0.8,0.7c-0.1,0.1-0.1,0.1-0.2,0.2
		C28.9,14.4,24.7,22.7,24.7,32v57.4c0,9,3.9,17,10,22.6l8.9,5.6c3.6,1.5,7.5,2.3,11.6,2.3h84.3c8,0,15.3-3.1,20.7-8.1
		c0.1-0.1,0.1-0.1,0.2-0.2c0.3-0.3,0.6-0.6,1-0.9c0.1-0.1,0.2-0.2,0.2-0.2c0.3-0.3,0.6-0.6,0.8-0.9
		C162.5,109.4,162.6,109.3,162.6,109.2z"/>
	<path class="st37" d="M163.3,108.5c0.3-0.3,0.5-0.6,0.8-0.9c0.1-0.1,0.2-0.2,0.2-0.3c0.2-0.3,0.5-0.6,0.7-1
		c0.1-0.1,0.1-0.2,0.2-0.3c0.2-0.4,0.5-0.7,0.7-1.1c0-0.1,0.1-0.2,0.1-0.2c0.6-0.9,1.1-1.9,1.5-2.8c0,0,0-0.1,0-0.1
		c0.2-0.4,0.4-0.9,0.6-1.4c0.1-0.1,0.1-0.3,0.2-0.4c0.1-0.4,0.3-0.7,0.4-1.1c0.1-0.2,0.1-0.4,0.2-0.5c0.1-0.3,0.2-0.7,0.3-1
		c0.1-0.2,0.1-0.4,0.2-0.6c0.1-0.3,0.2-0.6,0.2-1c0.1-0.2,0.1-0.4,0.1-0.6c0.1-0.3,0.1-0.6,0.2-1c0-0.2,0.1-0.4,0.1-0.6
		c0.1-0.3,0.1-0.7,0.1-1c0-0.2,0.1-0.4,0.1-0.6c0-0.4,0.1-0.7,0.1-1.1c0-0.2,0-0.4,0-0.5c0-0.6,0-1.1,0-1.7V31.3
		c0-16.8-13.7-30.5-30.5-30.5H55.9c-0.5,0-1,0-1.5,0c-0.2,0-0.3,0-0.5,0c-0.3,0-0.7,0-1,0.1c-0.2,0-0.4,0.1-0.6,0.1
		c-0.3,0-0.6,0.1-0.9,0.1c-0.2,0-0.4,0.1-0.7,0.1c-0.3,0-0.5,0.1-0.8,0.1c-0.2,0-0.5,0.1-0.7,0.2c-0.2,0.1-0.5,0.1-0.7,0.2
		c-0.2,0.1-0.5,0.1-0.7,0.2c-0.2,0.1-0.5,0.1-0.7,0.2c-0.2,0.1-0.5,0.2-0.7,0.2c-0.2,0.1-0.4,0.1-0.6,0.2c-0.2,0.1-0.5,0.2-0.7,0.3
		c-0.2,0.1-0.4,0.2-0.6,0.2c-0.3,0.1-0.5,0.2-0.7,0.3c-0.2,0.1-0.4,0.2-0.6,0.3c-0.3,0.1-0.5,0.2-0.8,0.4c-0.2,0.1-0.3,0.2-0.5,0.3
		c-0.3,0.1-0.5,0.3-0.8,0.4c-0.2,0.1-0.3,0.2-0.5,0.3c-0.3,0.2-0.5,0.3-0.8,0.5c-0.1,0.1-0.3,0.2-0.4,0.3c-0.3,0.2-0.5,0.3-0.8,0.5
		c-0.1,0.1-0.2,0.2-0.4,0.3C38,6.6,37.7,6.8,37.4,7c-0.1,0.1-0.2,0.2-0.3,0.2c-0.3,0.2-0.6,0.4-0.8,0.7C36.3,8,36.2,8,36.2,8.1
		C29.6,13.7,25.4,22,25.4,31.3v57.4c0,9,3.9,17,10,22.6l8.9,5.6c3.6,1.5,7.5,2.3,11.6,2.3h84.3c8,0,15.3-3.1,20.7-8.1
		c0.1-0.1,0.1-0.1,0.2-0.2c0.3-0.3,0.6-0.6,1-0.9c0.1-0.1,0.2-0.2,0.2-0.2c0.3-0.3,0.6-0.6,0.8-0.9
		C163.2,108.7,163.3,108.6,163.3,108.5z"/>
	<path class="st38" d="M164,107.8c0.3-0.3,0.5-0.6,0.8-0.9c0.1-0.1,0.2-0.2,0.2-0.3c0.2-0.3,0.5-0.6,0.7-1c0.1-0.1,0.1-0.2,0.2-0.3
		c0.2-0.4,0.5-0.7,0.7-1.1c0-0.1,0.1-0.2,0.1-0.2c0.6-0.9,1.1-1.9,1.5-2.8c0,0,0-0.1,0-0.1c0.2-0.4,0.4-0.9,0.6-1.4
		c0.1-0.1,0.1-0.3,0.2-0.4c0.1-0.4,0.3-0.7,0.4-1.1c0.1-0.2,0.1-0.4,0.2-0.5c0.1-0.3,0.2-0.7,0.3-1c0.1-0.2,0.1-0.4,0.2-0.6
		c0.1-0.3,0.2-0.6,0.2-1c0.1-0.2,0.1-0.4,0.1-0.6c0.1-0.3,0.1-0.6,0.2-1c0-0.2,0.1-0.4,0.1-0.6c0.1-0.3,0.1-0.7,0.1-1
		c0-0.2,0.1-0.4,0.1-0.6c0-0.4,0.1-0.7,0.1-1.1c0-0.2,0-0.4,0-0.5c0-0.6,0-1.1,0-1.7V30.6c0-16.8-13.7-30.5-30.5-30.5H56.6
		c-0.5,0-1,0-1.5,0c-0.2,0-0.3,0-0.5,0c-0.3,0-0.7,0-1,0.1c-0.2,0-0.4,0.1-0.6,0.1c-0.3,0-0.6,0.1-0.9,0.1c-0.2,0-0.4,0.1-0.7,0.1
		c-0.3,0-0.5,0.1-0.8,0.1c-0.2,0-0.5,0.1-0.7,0.2C49.7,0.9,49.4,1,49.2,1c-0.2,0.1-0.5,0.1-0.7,0.2c-0.2,0.1-0.5,0.1-0.7,0.2
		c-0.2,0.1-0.5,0.2-0.7,0.2c-0.2,0.1-0.4,0.1-0.6,0.2c-0.2,0.1-0.5,0.2-0.7,0.3c-0.2,0.1-0.4,0.2-0.6,0.2c-0.3,0.1-0.5,0.2-0.7,0.3
		C44.1,2.8,44,2.9,43.8,3c-0.3,0.1-0.5,0.2-0.8,0.4c-0.2,0.1-0.3,0.2-0.5,0.3C42.2,3.7,42,3.8,41.7,4c-0.2,0.1-0.3,0.2-0.5,0.3
		c-0.3,0.2-0.5,0.3-0.8,0.5c-0.1,0.1-0.3,0.2-0.4,0.3c-0.3,0.2-0.5,0.3-0.8,0.5c-0.1,0.1-0.2,0.2-0.4,0.3c-0.3,0.2-0.5,0.4-0.8,0.6
		c-0.1,0.1-0.2,0.2-0.3,0.2C37.6,6.8,37.3,7,37,7.2c-0.1,0.1-0.1,0.1-0.2,0.2C30.3,13,26.1,21.3,26.1,30.6V88c0,9,3.9,17,10,22.6
		l8.9,5.6c3.6,1.5,7.5,2.3,11.6,2.3h84.3c8,0,15.3-3.1,20.7-8.1c0.1-0.1,0.1-0.1,0.2-0.2c0.3-0.3,0.6-0.6,1-0.9
		c0.1-0.1,0.2-0.2,0.2-0.2c0.3-0.3,0.6-0.6,0.8-0.9C163.9,108,164,107.9,164,107.8z"/>
</g>
<g>
	<linearGradient id="SVGID_1_" gradientUnits="userSpaceOnUse" x1="42.9825" y1="140.5145" x2="141.3693" y2="-2.7881">
		<stop  offset="0" style="stop-color:#FFFFFF"/>
		<stop  offset="1" style="stop-color:#C9C7C7"/>
	</linearGradient>
	<path class="st39" d="M140.9,0.1H56.6c-16.8,0-30.5,13.7-30.5,30.5V88c0,9,3.9,17,10,22.6L15,138.8L45,116.2
		c3.6,1.5,7.5,2.3,11.6,2.3h84.3c16.8,0,30.5-13.7,30.5-30.5V30.6C171.4,13.8,157.7,0.1,140.9,0.1z"/>
	<path class="st40" d="M140.9,0.1H56.6c-8,0-15.2,3-20.6,8c5.3-4.4,12.1-7.1,19.5-7.1h84.3c16.8,0,30.5,13.7,30.5,30.5v57.4
		c0,8.9-3.8,16.9-9.9,22.5c6.7-5.6,11-14,11-23.4V30.6C171.4,13.8,157.7,0.1,140.9,0.1z"/>
</g>
<g>
	<circle class="st41" cx="97" cy="59.5" r="36.1"/>
	<g>
		<path class="st42" d="M97,90c-16.8,0-30.5-13.7-30.5-30.5C66.5,42.7,80.2,29,97,29c16.8,0,30.5,13.7,30.5,30.5
			C127.5,76.3,113.8,90,97,90z"/>
		<path class="st42" d="M61.4,65.5h-4c-0.9,0-1.6-0.7-1.6-1.6v-8.9c0-0.9,0.7-1.6,1.6-1.6h4c0.2-1.1,0.4-2.3,0.7-3.4h-4.8
			c-2.7,0-5,2.2-5,5v8.9c0,2.7,2.2,5,5,5h4.8C61.8,67.8,61.6,66.7,61.4,65.5z"/>
		<path class="st42" d="M136.6,50.1h-4.8c0.3,1.1,0.5,2.2,0.7,3.4h4c0.9,0,1.6,0.7,1.6,1.6v8.9c0,0.9-0.7,1.6-1.6,1.6h-4
			c-0.2,1.1-0.4,2.3-0.7,3.4h4.8c2.7,0,5-2.2,5-5v-8.9C141.6,52.3,139.4,50.1,136.6,50.1z"/>
		<path class="st43" d="M77.7,43.9c-3.5,4.3-5.5,9.7-5.5,15.6c0,5.9,2.1,11.3,5.5,15.6V43.9z"/>
		<path class="st43" d="M86.5,37c-2.2,1-4.2,2.4-6,4v37.1c1.8,1.6,3.9,3,6.1,4l0,0L86.5,37L86.5,37z"/>
		<path class="st43" d="M95.6,34.7c-2.1,0.1-4.2,0.5-6.1,1.1v47.3c1.9,0.6,4,1,6.1,1.1V34.7z"/>
		<path class="st43" d="M104.5,35.8c-1.9-0.6-4-1-6.1-1.1v49.6c2.1-0.1,4.2-0.5,6.1-1.1V35.8z"/>
		<path class="st43" d="M116.3,75.1c3.5-4.3,5.5-9.7,5.5-15.6c0-5.9-2.1-11.3-5.5-15.6V75.1z"/>
		<path class="st43" d="M113.5,40.9c-1.8-1.6-3.9-3-6.1-4v45.1c2.2-1,4.3-2.4,6.1-4V40.9z"/>
	</g>
</g>
</svg>
