<?xml version="1.0" encoding="utf-8"?>
<!-- Generator: Adobe Illustrator 20.1.0, SVG Export Plug-In . SVG Version: 6.00 Build 0)  -->
<svg version="1.1" id="Layer_1" xmlns="http://www.w3.org/2000/svg" xmlns:xlink="http://www.w3.org/1999/xlink" x="0px" y="0px"
	 viewBox="0 0 115 115" style="enable-background:new 0 0 115 115;" xml:space="preserve">
<style type="text/css">
	.st0{opacity:0.5;}
	.st1{opacity:0;fill:#756937;}
	.st2{opacity:3.225806e-02;fill:#756937;}
	.st3{opacity:6.451613e-02;fill:#756937;}
	.st4{opacity:9.677419e-02;fill:#756937;}
	.st5{opacity:0.129;fill:#756937;}
	.st6{opacity:0.1613;fill:#756937;}
	.st7{opacity:0.1935;fill:#756937;}
	.st8{opacity:0.2258;fill:#756937;}
	.st9{opacity:0.2581;fill:#756937;}
	.st10{opacity:0.2903;fill:#756937;}
	.st11{opacity:0.3226;fill:#756937;}
	.st12{opacity:0.3548;fill:#756937;}
	.st13{opacity:0.3871;fill:#756937;}
	.st14{opacity:0.4194;fill:#756937;}
	.st15{opacity:0.4516;fill:#756937;}
	.st16{opacity:0.4839;fill:#756937;}
	.st17{opacity:0.5161;fill:#756937;}
	.st18{opacity:0.5484;fill:#756937;}
	.st19{opacity:0.5806;fill:#756937;}
	.st20{opacity:0.6129;fill:#756937;}
	.st21{opacity:0.6452;fill:#756937;}
	.st22{opacity:0.6774;fill:#756937;}
	.st23{opacity:0.7097;fill:#756937;}
	.st24{opacity:0.7419;fill:#756937;}
	.st25{opacity:0.7742;fill:#756937;}
	.st26{opacity:0.8065;fill:#756937;}
	.st27{opacity:0.8387;fill:#756937;}
	.st28{opacity:0.871;fill:#756937;}
	.st29{opacity:0.9032;fill:#756937;}
	.st30{opacity:0.9355;fill:#756937;}
	.st31{opacity:0.9677;fill:#756937;}
	.st32{fill:#756937;}
	.st33{fill:url(#SVGID_1_);}
	.st34{fill:#FFFFFF;}
	.st35{fill:#CCCCCC;}
	.st36{fill:#B3B3B3;}
	.st37{fill:#FFEED9;}
</style>
<g class="st0">
	<path class="st1" d="M88.2,107.6c0.2-0.3,0.3-0.6,0.5-0.9c2.5-5.6,4.2-20.6,4.2-38.3c0-17.6-1.8-32.6-4.2-38.3
		c-0.6-1.7-1.9-3-3.5-3.6c-5.5-2.5-20.6-4.3-38.4-4.3c-18.5,0-34.1,1.9-39,4.6c0,0-0.1,0-0.1,0C7.5,27,7.4,27,7.2,27.1c0,0,0,0,0,0
		c-0.1,0.1-0.3,0.2-0.4,0.3c-0.2,0.2-0.4,0.3-0.6,0.5c0.1,0,0.1-0.1,0.2-0.1c-0.2,0.2-0.4,0.3-0.5,0.5c-3,3.3-5.3,20-5.3,40
		c0,20.4,2.4,37.3,5.4,40.2c0.2,0.2,0.3,0.3,0.5,0.5c1.5,1.6,6.5,2.9,13.7,3.9h0l11.9,1.1c4.5,0.3,9.5,0.4,14.6,0.4
		c18,0,33.2-1.8,38.6-4.4c0.1,0,0.2-0.1,0.2-0.1c0,0,0,0,0,0c0.4-0.2,0.7-0.4,1-0.6c0.3-0.2,0.5-0.4,0.7-0.7
		c0.1-0.1,0.1-0.2,0.2-0.2c0.2-0.2,0.3-0.4,0.5-0.6C88.1,107.8,88.2,107.7,88.2,107.6z"/>
	<path class="st2" d="M88.9,106.9c0.2-0.3,0.3-0.6,0.5-0.9c2.5-5.6,4.2-20.6,4.2-38.3c0-17.6-1.8-32.6-4.2-38.3
		c-0.6-1.7-1.9-3-3.5-3.6c-5.5-2.5-20.6-4.3-38.4-4.3c-18.5,0-34.1,2-39,4.6c0,0-0.1,0-0.1,0c-0.2,0.1-0.3,0.2-0.4,0.3c0,0,0,0,0,0
		c-0.1,0.1-0.3,0.2-0.4,0.3c-0.2,0.2-0.4,0.3-0.6,0.5c0.1,0,0.1-0.1,0.2-0.1c-0.2,0.2-0.4,0.3-0.5,0.5c-3,3.3-5.3,20-5.3,40
		c0,20.4,2.4,37.3,5.4,40.2c0.2,0.2,0.3,0.3,0.5,0.5c1.5,1.6,6.5,2.9,13.7,3.9h0l11.9,1.1c4.5,0.3,9.5,0.4,14.6,0.4
		c18,0,33.2-1.8,38.6-4.4c0.1,0,0.2-0.1,0.2-0.1c0,0,0,0,0,0c0.4-0.2,0.7-0.4,1-0.6c0.3-0.2,0.5-0.4,0.7-0.7
		c0.1-0.1,0.1-0.2,0.2-0.2c0.2-0.2,0.3-0.4,0.5-0.6C88.8,107.1,88.9,107,88.9,106.9z"/>
	<path class="st3" d="M89.6,106.2c0.2-0.3,0.3-0.6,0.5-0.9c2.5-5.6,4.2-20.6,4.2-38.3c0-17.6-1.8-32.6-4.2-38.3
		c-0.6-1.7-1.9-3-3.5-3.6c-5.5-2.5-20.6-4.3-38.4-4.3c-18.5,0-34.1,2-39,4.6c0,0-0.1,0-0.1,0c-0.2,0.1-0.3,0.2-0.4,0.3c0,0,0,0,0,0
		c-0.1,0.1-0.3,0.2-0.4,0.3c-0.2,0.2-0.4,0.3-0.6,0.5c0.1,0,0.1-0.1,0.2-0.1c-0.2,0.2-0.4,0.3-0.5,0.5c-3,3.3-5.3,20-5.3,40
		c0,20.4,2.4,37.3,5.4,40.2c0.2,0.2,0.3,0.3,0.5,0.5c1.5,1.6,6.5,2.9,13.7,3.9h0l11.9,1.1c4.5,0.3,9.5,0.4,14.6,0.4
		c18,0,33.2-1.8,38.6-4.4c0.1,0,0.2-0.1,0.2-0.1c0,0,0,0,0,0c0.4-0.2,0.7-0.4,1-0.6c0.3-0.2,0.5-0.4,0.7-0.7
		c0.1-0.1,0.1-0.2,0.2-0.2c0.2-0.2,0.3-0.4,0.5-0.6C89.5,106.4,89.6,106.3,89.6,106.2z"/>
	<path class="st4" d="M90.4,105.5c0.2-0.3,0.3-0.6,0.5-0.9c2.5-5.6,4.2-20.6,4.2-38.3c0-17.6-1.8-32.6-4.2-38.3
		c-0.6-1.7-1.9-3-3.5-3.6c-5.5-2.5-20.6-4.3-38.4-4.3c-18.5,0-34.1,2-39,4.6c0,0-0.1,0-0.1,0c-0.2,0.1-0.3,0.2-0.4,0.3c0,0,0,0,0,0
		c-0.1,0.1-0.3,0.2-0.4,0.3c-0.2,0.2-0.4,0.3-0.6,0.5c0.1,0,0.1-0.1,0.2-0.1C8.4,25.9,8.2,26,8,26.2c-3,3.3-5.3,20-5.3,40
		c0,20.4,2.4,37.3,5.4,40.2c0.2,0.2,0.3,0.3,0.5,0.5c1.5,1.6,6.5,2.9,13.7,3.9h0l11.9,1.1c4.5,0.3,9.5,0.4,14.6,0.4
		c18,0,33.2-1.8,38.6-4.4c0.1,0,0.2-0.1,0.2-0.1c0,0,0,0,0,0c0.4-0.2,0.7-0.4,1-0.6c0.3-0.2,0.5-0.4,0.7-0.7
		c0.1-0.1,0.1-0.2,0.2-0.2c0.2-0.2,0.3-0.4,0.5-0.6C90.2,105.7,90.3,105.6,90.4,105.5z"/>
	<path class="st5" d="M91.1,104.8c0.2-0.3,0.3-0.6,0.5-0.9c2.5-5.6,4.2-20.6,4.2-38.3c0-17.6-1.8-32.6-4.2-38.3
		c-0.6-1.7-1.9-3-3.5-3.6c-5.5-2.5-20.6-4.3-38.4-4.3c-18.5,0-34.1,2-39,4.6c0,0-0.1,0-0.1,0c-0.2,0.1-0.3,0.2-0.4,0.3c0,0,0,0,0,0
		c-0.1,0.1-0.3,0.2-0.4,0.3c-0.2,0.2-0.4,0.3-0.6,0.5c0.1,0,0.1-0.1,0.2-0.1c-0.2,0.2-0.4,0.3-0.5,0.5c-3,3.3-5.3,20-5.3,40
		c0,20.4,2.4,37.3,5.4,40.2c0.2,0.2,0.3,0.3,0.5,0.5c1.5,1.6,6.5,2.9,13.7,3.9h0l11.9,1.1c4.5,0.3,9.5,0.4,14.6,0.4
		c18,0,33.2-1.8,38.6-4.4c0.1,0,0.2-0.1,0.2-0.1c0,0,0,0,0,0c0.4-0.2,0.7-0.4,1-0.6c0.3-0.2,0.5-0.4,0.7-0.7
		c0.1-0.1,0.1-0.2,0.2-0.2c0.2-0.2,0.3-0.4,0.5-0.6C90.9,105,91,104.9,91.1,104.8z"/>
	<path class="st6" d="M91.8,104.1c0.2-0.3,0.3-0.6,0.5-0.9c2.5-5.6,4.2-20.6,4.2-38.3c0-17.6-1.8-32.6-4.2-38.3
		c-0.6-1.7-1.9-3-3.5-3.6c-5.5-2.5-20.6-4.3-38.4-4.3c-18.5,0-34.1,2-39,4.6c0,0-0.1,0-0.1,0c-0.2,0.1-0.3,0.2-0.4,0.3c0,0,0,0,0,0
		c-0.1,0.1-0.3,0.2-0.4,0.3c-0.2,0.2-0.4,0.3-0.6,0.5c0.1,0,0.1-0.1,0.2-0.1c-0.2,0.2-0.4,0.3-0.5,0.5c-3,3.3-5.3,20-5.3,40
		c0,20.4,2.4,37.3,5.4,40.2c0.2,0.2,0.3,0.3,0.5,0.5c1.5,1.6,6.5,2.9,13.7,3.9h0l11.9,1.1c4.5,0.3,9.5,0.4,14.6,0.4
		c18,0,33.2-1.8,38.6-4.4c0.1,0,0.2-0.1,0.2-0.1c0,0,0,0,0,0c0.4-0.2,0.7-0.4,1-0.6c0.3-0.2,0.5-0.4,0.7-0.7
		c0.1-0.1,0.1-0.2,0.2-0.2c0.2-0.2,0.3-0.4,0.5-0.6C91.7,104.3,91.7,104.2,91.8,104.1z"/>
	<path class="st7" d="M92.5,103.4c0.2-0.3,0.3-0.6,0.5-0.9c2.5-5.6,4.2-20.6,4.2-38.3c0-17.6-1.8-32.6-4.2-38.3
		c-0.6-1.7-1.9-3-3.5-3.6C83.9,19.8,68.8,18,51,18c-18.5,0-34.1,2-39,4.6c0,0-0.1,0-0.1,0c-0.2,0.1-0.3,0.2-0.4,0.3c0,0,0,0,0,0
		c-0.1,0.1-0.3,0.2-0.4,0.3c-0.2,0.2-0.4,0.3-0.6,0.5c0.1,0,0.1-0.1,0.2-0.1c-0.2,0.2-0.4,0.3-0.5,0.5c-3,3.3-5.3,20-5.3,40
		c0,20.4,2.4,37.3,5.4,40.2c0.2,0.2,0.3,0.3,0.5,0.5c1.5,1.6,6.5,2.9,13.7,3.9h0l11.9,1.1c4.5,0.3,9.5,0.4,14.6,0.4
		c18,0,33.2-1.8,38.6-4.4c0.1,0,0.2-0.1,0.2-0.1c0,0,0,0,0,0c0.4-0.2,0.7-0.4,1-0.6c0.3-0.2,0.5-0.4,0.7-0.7
		c0.1-0.1,0.1-0.2,0.2-0.2c0.2-0.2,0.3-0.4,0.5-0.6C92.4,103.6,92.4,103.5,92.5,103.4z"/>
	<path class="st8" d="M93.2,102.7c0.2-0.3,0.3-0.6,0.5-0.9c2.5-5.6,4.2-20.6,4.2-38.3c0-17.6-1.8-32.6-4.2-38.3
		c-0.6-1.7-1.9-3-3.5-3.6c-5.5-2.5-20.6-4.3-38.4-4.3c-18.5,0-34.1,2-39,4.6c0,0-0.1,0-0.1,0c-0.2,0.1-0.3,0.2-0.4,0.3c0,0,0,0,0,0
		c-0.1,0.1-0.3,0.2-0.4,0.3c-0.2,0.2-0.4,0.3-0.6,0.5c0.1,0,0.1-0.1,0.2-0.1c-0.2,0.2-0.4,0.3-0.5,0.5c-3,3.3-5.3,20-5.3,40
		c0,20.4,2.4,37.3,5.4,40.2c0.2,0.2,0.3,0.3,0.5,0.5c1.5,1.6,6.5,2.9,13.7,3.9h0l11.9,1.1c4.5,0.3,9.5,0.4,14.6,0.4
		c18,0,33.2-1.8,38.6-4.4c0.1,0,0.2-0.1,0.2-0.1c0,0,0,0,0,0c0.4-0.2,0.7-0.4,1-0.6c0.3-0.2,0.5-0.4,0.7-0.7
		c0.1-0.1,0.1-0.2,0.2-0.2c0.2-0.2,0.3-0.4,0.5-0.6C93.1,102.9,93.1,102.8,93.2,102.7z"/>
	<path class="st9" d="M93.9,102c0.2-0.3,0.3-0.6,0.5-0.9c2.5-5.6,4.2-20.6,4.2-38.3c0-17.6-1.8-32.6-4.2-38.3
		c-0.6-1.7-1.9-3-3.5-3.6c-5.5-2.5-20.6-4.3-38.4-4.3c-18.5,0-34.1,2-39,4.6c0,0-0.1,0-0.1,0c-0.2,0.1-0.3,0.2-0.4,0.3c0,0,0,0,0,0
		c-0.1,0.1-0.3,0.2-0.4,0.3c-0.2,0.2-0.4,0.3-0.6,0.5c0.1,0,0.1-0.1,0.2-0.1c-0.2,0.2-0.4,0.3-0.5,0.5c-3,3.3-5.3,20-5.3,40
		c0,20.4,2.4,37.3,5.4,40.2c0.2,0.2,0.3,0.3,0.5,0.5c1.5,1.6,6.5,2.9,13.7,3.9h0l11.9,1.1c4.5,0.3,9.5,0.4,14.6,0.4
		c18,0,33.2-1.8,38.6-4.4c0.1,0,0.2-0.1,0.2-0.1c0,0,0,0,0,0c0.4-0.2,0.7-0.4,1-0.6c0.3-0.2,0.5-0.4,0.7-0.7
		c0.1-0.1,0.1-0.2,0.2-0.2c0.2-0.2,0.3-0.4,0.5-0.6C93.8,102.2,93.8,102.1,93.9,102z"/>
	<path class="st10" d="M94.6,101.3c0.2-0.3,0.3-0.6,0.5-0.9c2.5-5.6,4.2-20.6,4.2-38.3c0-17.6-1.8-32.6-4.2-38.3
		c-0.6-1.7-1.9-3-3.5-3.6c-5.5-2.5-20.6-4.3-38.4-4.3c-18.5,0-34.1,2-39,4.6c0,0-0.1,0-0.1,0c-0.2,0.1-0.3,0.2-0.4,0.3c0,0,0,0,0,0
		c-0.1,0.1-0.3,0.2-0.4,0.3c-0.2,0.2-0.4,0.3-0.6,0.5c0.1,0,0.1-0.1,0.2-0.1c-0.2,0.2-0.4,0.3-0.5,0.5C9.3,25.3,7,42,7,62
		c0,20.4,2.4,37.3,5.4,40.2c0.2,0.2,0.3,0.3,0.5,0.5c1.5,1.6,6.5,2.9,13.7,3.9h0l11.9,1.1c4.5,0.3,9.5,0.4,14.6,0.4
		c18,0,33.2-1.8,38.6-4.4c0.1,0,0.2-0.1,0.2-0.1c0,0,0,0,0,0c0.4-0.2,0.7-0.4,1-0.6c0.3-0.2,0.5-0.4,0.7-0.7
		c0.1-0.1,0.1-0.2,0.2-0.2c0.2-0.2,0.3-0.4,0.5-0.6C94.5,101.5,94.5,101.4,94.6,101.3z"/>
	<path class="st11" d="M95.3,100.6c0.2-0.3,0.3-0.6,0.5-0.9C98.2,94,100,79,100,61.3c0-17.6-1.8-32.6-4.2-38.3
		c-0.6-1.7-1.9-3-3.5-3.6c-5.5-2.5-20.6-4.3-38.4-4.3c-18.5,0-34.1,2-39,4.6c0,0-0.1,0-0.1,0c-0.2,0.1-0.3,0.2-0.4,0.3c0,0,0,0,0,0
		c-0.1,0.1-0.3,0.2-0.4,0.3c-0.2,0.2-0.4,0.3-0.6,0.5c0.1,0,0.1-0.1,0.2-0.1c-0.2,0.2-0.4,0.3-0.5,0.5c-3,3.3-5.3,20-5.3,40
		c0,20.4,2.4,37.3,5.4,40.2c0.2,0.2,0.3,0.3,0.5,0.5c1.5,1.6,6.5,2.9,13.7,3.9h0l11.9,1.1c4.5,0.3,9.5,0.4,14.6,0.4
		c18,0,33.2-1.8,38.6-4.4c0.1,0,0.2-0.1,0.2-0.1c0,0,0,0,0,0c0.4-0.2,0.7-0.4,1-0.6c0.3-0.2,0.5-0.4,0.7-0.7
		c0.1-0.1,0.1-0.2,0.2-0.2c0.2-0.2,0.3-0.4,0.5-0.6C95.2,100.7,95.2,100.7,95.3,100.6z"/>
	<path class="st12" d="M96,99.9c0.2-0.3,0.3-0.6,0.5-0.9c2.5-5.6,4.2-20.6,4.2-38.3c0-17.6-1.8-32.6-4.2-38.3
		c-0.6-1.7-1.9-3-3.5-3.6c-5.5-2.5-20.6-4.3-38.4-4.3c-18.5,0-34.1,2-39,4.6c0,0-0.1,0-0.1,0c-0.2,0.1-0.3,0.2-0.4,0.3c0,0,0,0,0,0
		c-0.1,0.1-0.3,0.2-0.4,0.3c-0.2,0.2-0.4,0.3-0.6,0.5c0.1,0,0.1-0.1,0.2-0.1c-0.2,0.2-0.4,0.3-0.5,0.5c-3,3.3-5.3,20-5.3,40
		c0,20.4,2.4,37.3,5.4,40.2c0.2,0.2,0.3,0.3,0.5,0.5c1.5,1.6,6.5,2.9,13.7,3.9h0l11.9,1.1c4.5,0.3,9.5,0.4,14.6,0.4
		c18,0,33.2-1.8,38.6-4.4c0.1,0,0.2-0.1,0.2-0.1c0,0,0,0,0,0c0.4-0.2,0.7-0.4,1-0.6c0.3-0.2,0.5-0.4,0.7-0.7
		c0.1-0.1,0.1-0.2,0.2-0.2c0.2-0.2,0.3-0.4,0.5-0.6C95.9,100,96,100,96,99.9z"/>
	<path class="st13" d="M96.7,99.2c0.2-0.3,0.3-0.6,0.5-0.9c2.5-5.6,4.2-20.6,4.2-38.3c0-17.6-1.8-32.6-4.2-38.3
		c-0.6-1.7-1.9-3-3.5-3.6c-5.5-2.5-20.6-4.3-38.4-4.3c-18.5,0-34.1,2-39,4.6c0,0-0.1,0-0.1,0c-0.2,0.1-0.3,0.2-0.4,0.3c0,0,0,0,0,0
		c-0.1,0.1-0.3,0.2-0.4,0.3c-0.2,0.2-0.4,0.3-0.6,0.5c0.1,0,0.1-0.1,0.2-0.1c-0.2,0.2-0.4,0.3-0.5,0.5c-3,3.3-5.3,20-5.3,40
		c0,20.4,2.4,37.3,5.4,40.2c0.2,0.2,0.3,0.3,0.5,0.5c1.5,1.6,6.5,2.9,13.7,3.9h0l11.9,1.1c4.5,0.3,9.5,0.4,14.6,0.4
		c18,0,33.2-1.8,38.6-4.4c0.1,0,0.2-0.1,0.2-0.1c0,0,0,0,0,0c0.4-0.2,0.7-0.4,1-0.6c0.3-0.2,0.5-0.4,0.7-0.7
		c0.1-0.1,0.1-0.2,0.2-0.2c0.2-0.2,0.3-0.4,0.5-0.6C96.6,99.3,96.7,99.2,96.7,99.2z"/>
	<path class="st14" d="M97.4,98.4c0.2-0.3,0.3-0.6,0.5-0.9c2.5-5.6,4.2-20.6,4.2-38.3c0-17.6-1.8-32.6-4.2-38.3
		c-0.6-1.7-1.9-3-3.5-3.6C88.9,14.8,73.8,13,56,13c-18.5,0-34.1,2-39,4.6c0,0-0.1,0-0.1,0c-0.2,0.1-0.3,0.2-0.4,0.3c0,0,0,0,0,0
		c-0.1,0.1-0.3,0.2-0.4,0.3c-0.2,0.2-0.4,0.3-0.6,0.5c0.1,0,0.1-0.1,0.2-0.1c-0.2,0.2-0.4,0.3-0.5,0.5c-3,3.3-5.3,20-5.3,40
		c0,20.4,2.4,37.3,5.4,40.2c0.2,0.2,0.3,0.3,0.5,0.5c1.5,1.6,6.5,2.9,13.7,3.9h0l11.9,1.1c4.5,0.3,9.5,0.4,14.6,0.4
		c18,0,33.2-1.8,38.6-4.4c0.1,0,0.2-0.1,0.2-0.1c0,0,0,0,0,0c0.4-0.2,0.7-0.4,1-0.6c0.3-0.2,0.5-0.4,0.7-0.7
		c0.1-0.1,0.1-0.2,0.2-0.2c0.2-0.2,0.3-0.4,0.5-0.6C97.3,98.6,97.4,98.5,97.4,98.4z"/>
	<path class="st15" d="M98.1,97.7c0.2-0.3,0.3-0.6,0.5-0.9c2.5-5.6,4.2-20.6,4.2-38.3c0-17.6-1.8-32.6-4.2-38.3
		c-0.6-1.7-1.9-3-3.5-3.6c-5.5-2.5-20.6-4.3-38.4-4.3c-18.5,0-34.1,2-39,4.6c0,0-0.1,0-0.1,0c-0.2,0.1-0.3,0.2-0.4,0.3c0,0,0,0,0,0
		c-0.1,0.1-0.3,0.2-0.4,0.3c-0.2,0.2-0.4,0.3-0.6,0.5c0.1,0,0.1-0.1,0.2-0.1c-0.2,0.2-0.4,0.3-0.5,0.5c-3,3.3-5.3,20-5.3,40
		c0,20.4,2.4,37.3,5.4,40.2c0.2,0.2,0.3,0.3,0.5,0.5c1.5,1.6,6.5,2.9,13.7,3.9h0l11.9,1.1c4.5,0.3,9.5,0.4,14.6,0.4
		c18,0,33.2-1.8,38.6-4.4c0.1,0,0.2-0.1,0.2-0.1c0,0,0,0,0,0c0.4-0.2,0.7-0.4,1-0.6c0.3-0.2,0.5-0.4,0.7-0.7
		c0.1-0.1,0.1-0.2,0.2-0.2c0.2-0.2,0.3-0.4,0.5-0.6C98,97.9,98.1,97.8,98.1,97.7z"/>
	<path class="st16" d="M98.8,97c0.2-0.3,0.3-0.6,0.5-0.9c2.5-5.6,4.2-20.6,4.2-38.3c0-17.6-1.8-32.6-4.2-38.3
		c-0.6-1.7-1.9-3-3.5-3.6c-5.5-2.5-20.6-4.3-38.4-4.3c-18.5,0-34.1,2-39,4.6c0,0-0.1,0-0.1,0c-0.2,0.1-0.3,0.2-0.4,0.3c0,0,0,0,0,0
		c-0.1,0.1-0.3,0.2-0.4,0.3c-0.2,0.2-0.4,0.3-0.6,0.5c0.1,0,0.1-0.1,0.2-0.1c-0.2,0.2-0.4,0.3-0.5,0.5c-3,3.3-5.3,20-5.3,40
		c0,20.4,2.4,37.3,5.4,40.2c0.2,0.2,0.3,0.3,0.5,0.5c1.5,1.6,6.5,2.9,13.7,3.9h0l11.9,1.1c4.5,0.3,9.5,0.4,14.6,0.4
		c18,0,33.2-1.8,38.6-4.4c0.1,0,0.2-0.1,0.2-0.1c0,0,0,0,0,0c0.4-0.2,0.7-0.4,1-0.6c0.3-0.2,0.5-0.4,0.7-0.7
		c0.1-0.1,0.1-0.2,0.2-0.2c0.2-0.2,0.3-0.4,0.5-0.6C98.7,97.2,98.8,97.1,98.8,97z"/>
	<path class="st17" d="M99.5,96.3c0.2-0.3,0.3-0.6,0.5-0.9c2.5-5.6,4.2-20.6,4.2-38.3c0-17.6-1.8-32.6-4.2-38.3
		c-0.6-1.7-1.9-3-3.5-3.6c-5.5-2.5-20.6-4.3-38.4-4.3c-18.5,0-34.1,2-39,4.6c0,0-0.1,0-0.1,0c-0.2,0.1-0.3,0.2-0.4,0.3c0,0,0,0,0,0
		c-0.1,0.1-0.3,0.2-0.4,0.3c-0.2,0.2-0.4,0.3-0.6,0.5c0.1,0,0.1-0.1,0.2-0.1c-0.2,0.2-0.4,0.3-0.5,0.5c-3,3.3-5.3,20-5.3,40
		c0,20.4,2.4,37.3,5.4,40.2c0.2,0.2,0.3,0.3,0.5,0.5c1.5,1.6,6.5,2.9,13.7,3.9h0l11.9,1.1c4.5,0.3,9.5,0.4,14.6,0.4
		c18,0,33.2-1.8,38.6-4.4c0.1,0,0.2-0.1,0.2-0.1c0,0,0,0,0,0c0.4-0.2,0.7-0.4,1-0.6c0.3-0.2,0.5-0.4,0.7-0.7
		c0.1-0.1,0.1-0.2,0.2-0.2c0.2-0.2,0.3-0.4,0.5-0.6C99.4,96.5,99.5,96.4,99.5,96.3z"/>
	<path class="st18" d="M100.2,95.6c0.2-0.3,0.3-0.6,0.5-0.9c2.5-5.6,4.2-20.6,4.2-38.3c0-17.6-1.8-32.6-4.2-38.3
		c-0.6-1.7-1.9-3-3.5-3.6c-5.5-2.5-20.6-4.3-38.4-4.3c-18.5,0-34.1,2-39,4.6c0,0-0.1,0-0.1,0c-0.2,0.1-0.3,0.2-0.4,0.3c0,0,0,0,0,0
		c-0.1,0.1-0.3,0.2-0.4,0.3c-0.2,0.2-0.4,0.3-0.6,0.5c0.1,0,0.1-0.1,0.2-0.1c-0.2,0.2-0.4,0.3-0.5,0.5c-3,3.3-5.3,20-5.3,40
		c0,20.4,2.4,37.3,5.4,40.2c0.2,0.2,0.3,0.3,0.5,0.5c1.5,1.6,6.5,2.9,13.7,3.9h0l11.9,1.1c4.5,0.3,9.5,0.4,14.6,0.4
		c18,0,33.2-1.8,38.6-4.4c0.1,0,0.2-0.1,0.2-0.1c0,0,0,0,0,0c0.4-0.2,0.7-0.4,1-0.6c0.3-0.2,0.5-0.4,0.7-0.7
		c0.1-0.1,0.1-0.2,0.2-0.2c0.2-0.2,0.3-0.4,0.5-0.6C100.1,95.8,100.2,95.7,100.2,95.6z"/>
	<path class="st19" d="M101,94.9c0.2-0.3,0.3-0.6,0.5-0.9c2.5-5.6,4.2-20.6,4.2-38.3c0-17.6-1.8-32.6-4.2-38.3
		c-0.6-1.7-1.9-3-3.5-3.6c-5.5-2.5-20.6-4.3-38.4-4.3c-18.5,0-34.1,2-39,4.6c0,0-0.1,0-0.1,0c-0.2,0.1-0.3,0.2-0.4,0.3c0,0,0,0,0,0
		c-0.1,0.1-0.3,0.2-0.4,0.3c-0.2,0.2-0.4,0.3-0.6,0.5c0.1,0,0.1-0.1,0.2-0.1c-0.2,0.2-0.4,0.3-0.5,0.5c-3,3.3-5.3,20-5.3,40
		c0,20.4,2.4,37.3,5.4,40.2c0.2,0.2,0.3,0.3,0.5,0.5c1.5,1.6,6.5,2.9,13.7,3.9h0l11.9,1.1c4.5,0.3,9.5,0.4,14.6,0.4
		c18,0,33.2-1.8,38.6-4.4c0.1,0,0.2-0.1,0.2-0.1c0,0,0,0,0,0c0.4-0.2,0.7-0.4,1-0.6c0.3-0.2,0.5-0.4,0.7-0.7
		c0.1-0.1,0.1-0.2,0.2-0.2c0.2-0.2,0.3-0.4,0.5-0.6C100.8,95.1,100.9,95,101,94.9z"/>
	<path class="st20" d="M101.7,94.2c0.2-0.3,0.3-0.6,0.5-0.9c2.5-5.6,4.2-20.6,4.2-38.3c0-17.6-1.8-32.6-4.2-38.3
		c-0.6-1.7-1.9-3-3.5-3.6C93.1,10.6,78,8.8,60.2,8.8c-18.5,0-34.1,2-39,4.6c0,0-0.1,0-0.1,0c-0.2,0.1-0.3,0.2-0.4,0.3c0,0,0,0,0,0
		c-0.1,0.1-0.3,0.2-0.4,0.3c-0.2,0.2-0.4,0.3-0.6,0.5c0.1,0,0.1-0.1,0.2-0.1c-0.2,0.2-0.4,0.3-0.5,0.5c-3,3.3-5.3,20-5.3,40
		c0,20.4,2.4,37.3,5.4,40.2c0.2,0.2,0.3,0.3,0.5,0.5c1.5,1.6,6.5,2.9,13.7,3.9h0l11.9,1.1c4.5,0.3,9.5,0.4,14.6,0.4
		c18,0,33.2-1.8,38.6-4.4c0.1,0,0.2-0.1,0.2-0.1c0,0,0,0,0,0c0.4-0.2,0.7-0.4,1-0.6c0.3-0.2,0.5-0.4,0.7-0.7
		c0.1-0.1,0.1-0.2,0.2-0.2c0.2-0.2,0.3-0.4,0.5-0.6C101.5,94.4,101.6,94.3,101.7,94.2z"/>
	<path class="st21" d="M102.4,93.5c0.2-0.3,0.3-0.6,0.5-0.9c2.5-5.6,4.2-20.6,4.2-38.3c0-17.6-1.8-32.6-4.2-38.3
		c-0.6-1.7-1.9-3-3.5-3.6c-5.5-2.5-20.6-4.3-38.4-4.3c-18.5,0-34.1,2-39,4.6c0,0-0.1,0-0.1,0c-0.2,0.1-0.3,0.2-0.4,0.3c0,0,0,0,0,0
		c-0.1,0.1-0.3,0.2-0.4,0.3c-0.2,0.2-0.4,0.3-0.6,0.5c0.1,0,0.1-0.1,0.2-0.1c-0.2,0.2-0.4,0.3-0.5,0.5c-3,3.3-5.3,20-5.3,40
		c0,20.4,2.4,37.3,5.4,40.2c0.2,0.2,0.3,0.3,0.5,0.5c1.5,1.6,6.5,2.9,13.7,3.9h0l11.9,1.1c4.5,0.3,9.5,0.4,14.6,0.4
		c18,0,33.2-1.8,38.6-4.4c0.1,0,0.2-0.1,0.2-0.1c0,0,0,0,0,0c0.4-0.2,0.7-0.4,1-0.6c0.3-0.2,0.5-0.4,0.7-0.7
		c0.1-0.1,0.1-0.2,0.2-0.2c0.2-0.2,0.3-0.4,0.5-0.6C102.3,93.7,102.3,93.6,102.4,93.5z"/>
	<path class="st22" d="M103.1,92.8c0.2-0.3,0.3-0.6,0.5-0.9c2.5-5.6,4.2-20.6,4.2-38.3c0-17.6-1.8-32.6-4.2-38.3
		c-0.6-1.7-1.9-3-3.5-3.6c-5.5-2.5-20.6-4.3-38.4-4.3c-18.5,0-34.1,2-39,4.6c0,0-0.1,0-0.1,0c-0.2,0.1-0.3,0.2-0.4,0.3c0,0,0,0,0,0
		c-0.1,0.1-0.3,0.2-0.4,0.3c-0.2,0.2-0.4,0.3-0.6,0.5c0.1,0,0.1-0.1,0.2-0.1c-0.2,0.2-0.4,0.3-0.5,0.5c-3,3.3-5.3,20-5.3,40
		c0,20.4,2.4,37.3,5.4,40.2c0.2,0.2,0.3,0.3,0.5,0.5c1.5,1.6,6.5,2.9,13.7,3.9h0L47,99.3c4.5,0.3,9.5,0.4,14.6,0.4
		c18,0,33.2-1.8,38.6-4.4c0.1,0,0.2-0.1,0.2-0.1c0,0,0,0,0,0c0.4-0.2,0.7-0.4,1-0.6c0.3-0.2,0.5-0.4,0.7-0.7
		c0.1-0.1,0.1-0.2,0.2-0.2c0.2-0.2,0.3-0.4,0.5-0.6C103,93,103,92.9,103.1,92.8z"/>
	<path class="st23" d="M103.8,92.1c0.2-0.3,0.3-0.6,0.5-0.9c2.5-5.6,4.2-20.6,4.2-38.3c0-17.6-1.8-32.6-4.2-38.3
		c-0.6-1.7-1.9-3-3.5-3.6c-5.5-2.5-20.6-4.3-38.4-4.3c-18.5,0-34.1,2-39,4.6c0,0-0.1,0-0.1,0c-0.2,0.1-0.3,0.2-0.4,0.3c0,0,0,0,0,0
		c-0.1,0.1-0.3,0.2-0.4,0.3c-0.2,0.2-0.4,0.3-0.6,0.5c0.1,0,0.1-0.1,0.2-0.1c-0.2,0.2-0.4,0.3-0.5,0.5c-3,3.3-5.3,20-5.3,40
		c0,20.4,2.4,37.3,5.4,40.2c0.2,0.2,0.3,0.3,0.5,0.5c1.5,1.6,6.5,2.9,13.7,3.9h0l11.9,1.1c4.5,0.3,9.5,0.4,14.6,0.4
		c18,0,33.2-1.8,38.6-4.4c0.1,0,0.2-0.1,0.2-0.1c0,0,0,0,0,0c0.4-0.2,0.7-0.4,1-0.6c0.3-0.2,0.5-0.4,0.7-0.7
		c0.1-0.1,0.1-0.2,0.2-0.2c0.2-0.2,0.3-0.4,0.5-0.6C103.7,92.3,103.7,92.2,103.8,92.1z"/>
	<path class="st24" d="M104.5,91.4c0.2-0.3,0.3-0.6,0.5-0.9c2.5-5.6,4.2-20.6,4.2-38.3c0-17.6-1.8-32.6-4.2-38.3
		c-0.6-1.7-1.9-3-3.5-3.6C96,7.8,80.8,6,63,6C44.5,6,29,8,24,10.6c0,0-0.1,0-0.1,0c-0.2,0.1-0.3,0.2-0.4,0.3c0,0,0,0,0,0
		c-0.1,0.1-0.3,0.2-0.4,0.3c-0.2,0.2-0.4,0.3-0.6,0.5c0.1,0,0.1-0.1,0.2-0.1c-0.2,0.2-0.4,0.3-0.5,0.5c-3,3.3-5.3,20-5.3,40
		c0,20.4,2.4,37.3,5.4,40.2c0.2,0.2,0.3,0.3,0.5,0.5c1.5,1.6,6.5,2.9,13.7,3.9h0l11.9,1.1c4.5,0.3,9.5,0.4,14.6,0.4
		c18,0,33.2-1.8,38.6-4.4c0.1,0,0.2-0.1,0.2-0.1c0,0,0,0,0,0c0.4-0.2,0.7-0.4,1-0.6c0.3-0.2,0.5-0.4,0.7-0.7
		c0.1-0.1,0.1-0.2,0.2-0.2c0.2-0.2,0.3-0.4,0.5-0.6C104.4,91.6,104.4,91.5,104.5,91.4z"/>
	<path class="st25" d="M105.2,90.7c0.2-0.3,0.3-0.6,0.5-0.9c2.5-5.6,4.2-20.6,4.2-38.3c0-17.6-1.8-32.6-4.2-38.3
		c-0.6-1.7-1.9-3-3.5-3.6c-5.5-2.5-20.6-4.3-38.4-4.3c-18.5,0-34.1,2-39,4.6c0,0-0.1,0-0.1,0c-0.2,0.1-0.3,0.2-0.4,0.3c0,0,0,0,0,0
		c-0.1,0.1-0.3,0.2-0.4,0.3c-0.2,0.2-0.4,0.3-0.6,0.5c0.1,0,0.1-0.1,0.2-0.1c-0.2,0.2-0.4,0.3-0.5,0.5c-3,3.3-5.3,20-5.3,40
		c0,20.4,2.4,37.3,5.4,40.2c0.2,0.2,0.3,0.3,0.5,0.5C25,93.7,30,95,37.3,96h0l11.9,1.1c4.5,0.3,9.5,0.4,14.6,0.4
		c18,0,33.2-1.8,38.6-4.4c0.1,0,0.2-0.1,0.2-0.1c0,0,0,0,0,0c0.4-0.2,0.7-0.4,1-0.6c0.3-0.2,0.5-0.4,0.7-0.7
		c0.1-0.1,0.1-0.2,0.2-0.2c0.2-0.2,0.3-0.4,0.5-0.6C105.1,90.9,105.1,90.8,105.2,90.7z"/>
	<path class="st26" d="M105.9,90c0.2-0.3,0.3-0.6,0.5-0.9c2.5-5.6,4.2-20.6,4.2-38.3c0-17.6-1.8-32.6-4.2-38.3
		c-0.6-1.7-1.9-3-3.5-3.6c-5.5-2.5-20.6-4.3-38.4-4.3c-18.5,0-34.1,2-39,4.6c0,0-0.1,0-0.1,0c-0.2,0.1-0.3,0.2-0.4,0.3c0,0,0,0,0,0
		c-0.1,0.1-0.3,0.2-0.4,0.3c-0.2,0.2-0.4,0.3-0.6,0.5c0.1,0,0.1-0.1,0.2-0.1c-0.2,0.2-0.4,0.3-0.5,0.5c-3,3.3-5.3,20-5.3,40
		c0,20.4,2.4,37.3,5.4,40.2c0.2,0.2,0.3,0.3,0.5,0.5c1.5,1.6,6.5,2.9,13.7,3.9h0l11.9,1.1c4.5,0.3,9.5,0.4,14.6,0.4
		c18,0,33.2-1.8,38.6-4.4c0.1,0,0.2-0.1,0.2-0.1c0,0,0,0,0,0c0.4-0.2,0.7-0.4,1-0.6c0.3-0.2,0.5-0.4,0.7-0.7
		c0.1-0.1,0.1-0.2,0.2-0.2c0.2-0.2,0.3-0.4,0.5-0.6C105.8,90.1,105.8,90.1,105.9,90z"/>
	<path class="st27" d="M106.6,89.3c0.2-0.3,0.3-0.6,0.5-0.9c2.5-5.6,4.2-20.6,4.2-38.3c0-17.6-1.8-32.6-4.2-38.3
		c-0.6-1.7-1.9-3-3.5-3.6C98.1,5.6,83,3.9,65.2,3.9c-18.5,0-34.1,2-39,4.6c0,0-0.1,0-0.1,0c-0.2,0.1-0.3,0.2-0.4,0.3c0,0,0,0,0,0
		c-0.1,0.1-0.3,0.2-0.4,0.3c-0.2,0.2-0.4,0.3-0.6,0.5c0.1,0,0.1-0.1,0.2-0.1c-0.2,0.2-0.4,0.3-0.5,0.5c-3,3.3-5.3,20-5.3,40
		c0,20.4,2.4,37.3,5.4,40.2c0.2,0.2,0.3,0.3,0.5,0.5c1.5,1.6,6.5,2.9,13.7,3.9h0l11.9,1.1c4.5,0.3,9.5,0.4,14.6,0.4
		c18,0,33.2-1.8,38.6-4.4c0.1,0,0.2-0.1,0.2-0.1c0,0,0,0,0,0c0.4-0.2,0.7-0.4,1-0.6c0.3-0.2,0.5-0.4,0.7-0.7
		c0.1-0.1,0.1-0.2,0.2-0.2c0.2-0.2,0.3-0.4,0.5-0.6C106.5,89.4,106.6,89.4,106.6,89.3z"/>
	<path class="st28" d="M107.3,88.6c0.2-0.3,0.3-0.6,0.5-0.9C110.2,82,112,67,112,49.3c0-17.6-1.8-32.6-4.2-38.3
		c-0.6-1.7-1.9-3-3.5-3.6c-5.5-2.5-20.6-4.3-38.4-4.3c-18.5,0-34.1,2-39,4.6c0,0-0.1,0-0.1,0c-0.2,0.1-0.3,0.2-0.4,0.3c0,0,0,0,0,0
		c-0.1,0.1-0.3,0.2-0.4,0.3c-0.2,0.2-0.4,0.3-0.6,0.5c0.1,0,0.1-0.1,0.2-0.1c-0.2,0.2-0.4,0.3-0.5,0.5c-3,3.3-5.3,20-5.3,40
		c0,20.4,2.4,37.3,5.4,40.2c0.2,0.2,0.3,0.3,0.5,0.5c1.5,1.6,6.5,2.9,13.7,3.9h0L51.2,95c4.5,0.3,9.5,0.4,14.6,0.4
		c18,0,33.2-1.8,38.6-4.4c0.1,0,0.2-0.1,0.2-0.1c0,0,0,0,0,0c0.4-0.2,0.7-0.4,1-0.6c0.3-0.2,0.5-0.4,0.7-0.7
		c0.1-0.1,0.1-0.2,0.2-0.2c0.2-0.2,0.3-0.4,0.5-0.6C107.2,88.7,107.3,88.6,107.3,88.6z"/>
	<path class="st29" d="M108,87.8c0.2-0.3,0.3-0.6,0.5-0.9c2.5-5.6,4.2-20.6,4.2-38.3c0-17.6-1.8-32.6-4.2-38.3
		c-0.6-1.7-1.9-3-3.5-3.6c-5.5-2.5-20.6-4.3-38.4-4.3c-18.5,0-34.1,2-39,4.6c0,0-0.1,0-0.1,0c-0.2,0.1-0.3,0.2-0.4,0.3c0,0,0,0,0,0
		c-0.1,0.1-0.3,0.2-0.4,0.3c-0.2,0.2-0.4,0.3-0.6,0.5c0.1,0,0.1-0.1,0.2-0.1c-0.2,0.2-0.4,0.3-0.5,0.5c-3,3.3-5.3,20-5.3,40
		c0,20.4,2.4,37.3,5.4,40.2c0.2,0.2,0.3,0.3,0.5,0.5c1.5,1.6,6.5,2.9,13.7,3.9h0l11.9,1.1c4.5,0.3,9.5,0.4,14.6,0.4
		c18,0,33.2-1.8,38.6-4.4c0.1,0,0.2-0.1,0.2-0.1c0,0,0,0,0,0c0.4-0.2,0.7-0.4,1-0.6c0.3-0.2,0.5-0.4,0.7-0.7
		c0.1-0.1,0.1-0.2,0.2-0.2c0.2-0.2,0.3-0.4,0.5-0.6C107.9,88,108,87.9,108,87.8z"/>
	<path class="st30" d="M108.7,87.1c0.2-0.3,0.3-0.6,0.5-0.9c2.5-5.6,4.2-20.6,4.2-38.3c0-17.6-1.8-32.6-4.2-38.3
		c-0.6-1.7-1.9-3-3.5-3.6c-5.5-2.5-20.6-4.3-38.4-4.3c-18.5,0-34.1,2-39,4.6c0,0-0.1,0-0.1,0c-0.2,0.1-0.3,0.2-0.4,0.3c0,0,0,0,0,0
		c-0.1,0.1-0.3,0.2-0.4,0.3c-0.2,0.2-0.4,0.3-0.6,0.5c0.1,0,0.1-0.1,0.2-0.1c-0.2,0.2-0.4,0.3-0.5,0.5c-3,3.3-5.3,20-5.3,40
		c0,20.4,2.4,37.3,5.4,40.2c0.2,0.2,0.3,0.3,0.5,0.5c1.5,1.6,6.5,2.9,13.7,3.9h0l11.9,1.1c4.5,0.3,9.5,0.4,14.6,0.4
		c18,0,33.2-1.8,38.6-4.4c0.1,0,0.2-0.1,0.2-0.1c0,0,0,0,0,0c0.4-0.2,0.7-0.4,1-0.6c0.3-0.2,0.5-0.4,0.7-0.7
		c0.1-0.1,0.1-0.2,0.2-0.2c0.2-0.2,0.3-0.4,0.5-0.6C108.6,87.3,108.7,87.2,108.7,87.1z"/>
	<path class="st31" d="M109.4,86.4c0.2-0.3,0.3-0.6,0.5-0.9c2.5-5.6,4.2-20.6,4.2-38.3c0-17.6-1.8-32.6-4.2-38.3
		c-0.6-1.7-1.9-3-3.5-3.6C100.9,2.8,85.8,1,68,1C49.5,1,33.9,3,29,5.6c0,0-0.1,0-0.1,0c-0.2,0.1-0.3,0.2-0.4,0.3c0,0,0,0,0,0
		C28.3,6,28.2,6.1,28,6.2c-0.2,0.2-0.4,0.3-0.6,0.5c0.1,0,0.1-0.1,0.2-0.1c-0.2,0.2-0.4,0.3-0.5,0.5c-3,3.3-5.3,20-5.3,40
		c0,20.4,2.4,37.3,5.4,40.2c0.2,0.2,0.3,0.3,0.5,0.5c1.5,1.6,6.5,2.9,13.7,3.9h0l11.9,1.1c4.5,0.3,9.5,0.4,14.6,0.4
		c18,0,33.2-1.8,38.6-4.4c0.1,0,0.2-0.1,0.2-0.1c0,0,0,0,0,0c0.4-0.2,0.7-0.4,1-0.6c0.3-0.2,0.5-0.4,0.7-0.7
		c0.1-0.1,0.1-0.2,0.2-0.2c0.2-0.2,0.3-0.4,0.5-0.6C109.3,86.6,109.4,86.5,109.4,86.4z"/>
	<path class="st32" d="M110.1,85.7c0.2-0.3,0.3-0.6,0.5-0.9c2.5-5.6,4.2-20.6,4.2-38.3c0-17.6-1.8-32.6-4.2-38.3
		c-0.6-1.7-1.9-3-3.5-3.6c-5.5-2.5-20.6-4.3-38.4-4.3c-18.5,0-34.1,1.9-39,4.6c0,0-0.1,0-0.1,0c-0.2,0.1-0.3,0.2-0.4,0.3
		c0,0,0,0,0,0c-0.1,0.1-0.3,0.2-0.4,0.3c-0.2,0.2-0.4,0.3-0.6,0.5c0.1,0,0.1-0.1,0.2-0.1c-0.2,0.2-0.4,0.3-0.5,0.5
		c-3,3.3-5.3,20-5.3,40c0,20.4,2.4,37.3,5.4,40.2c0.2,0.2,0.3,0.3,0.5,0.5c1.5,1.6,6.5,2.9,13.7,3.9h0l11.9,1.1
		c4.5,0.3,9.5,0.4,14.6,0.4c18,0,33.2-1.8,38.6-4.4c0.1,0,0.2-0.1,0.2-0.1c0,0,0,0,0,0c0.4-0.2,0.7-0.4,1-0.6
		c0.3-0.2,0.5-0.4,0.7-0.7c0.1-0.1,0.1-0.2,0.2-0.2c0.2-0.2,0.3-0.4,0.5-0.6C110,85.9,110.1,85.8,110.1,85.7z"/>
</g>
<g>
	<linearGradient id="SVGID_1_" gradientUnits="userSpaceOnUse" x1="34.8115" y1="123.3092" x2="89.1788" y2="0.983">
		<stop  offset="0" style="stop-color:#FFFFFF"/>
		<stop  offset="1" style="stop-color:#C9C7C7"/>
	</linearGradient>
	<path class="st33" d="M110.6,8.8c-0.6-1.7-1.9-3-3.5-3.6c-5.5-2.5-20.6-4.3-38.4-4.3c-18.5,0-34.1,1.9-39,4.6c0,0-0.1,0-0.1,0
		c-0.2,0.1-0.3,0.2-0.4,0.3c0,0,0,0,0,0C29,5.9,28.9,6,28.8,6.1c-0.3,0.3-0.7,0.6-0.9,0.9c-3,3.3-5.3,20-5.3,40
		c0,20.4,2.4,37.3,5.4,40.2c0.2,0.2,0.3,0.3,0.5,0.5c1.5,1.6,6.5,2.9,13.7,3.9h0l-13.7,22.3l25.6-21.2c4.5,0.3,9.5,0.4,14.6,0.4
		c18,0,33.2-1.8,38.6-4.4c0.1,0,0.2-0.1,0.2-0.1c0,0,0,0,0,0c1.4-0.7,2.5-1.9,3.1-3.3c2.5-5.6,4.2-20.6,4.2-38.3
		C114.8,29.4,113.1,14.4,110.6,8.8z"/>
	<path class="st34" d="M110.6,8.8c-0.6-1.7-1.9-3-3.5-3.6c-5.5-2.5-20.6-4.3-38.4-4.3c-18.5,0-34.1,1.9-39,4.6c0,0-0.1,0-0.1,0
		c-0.2,0.1-0.3,0.2-0.4,0.3c0,0,0,0,0,0C29,5.9,28.9,6,28.8,6.1c-0.2,0.2-0.4,0.3-0.6,0.5c0.1-0.1,0.1-0.1,0.2-0.2c0,0,0,0,0,0
		c0.1-0.1,0.3-0.2,0.4-0.3c0,0,0.1,0,0.1,0c4.9-2.7,20.5-4.6,39-4.6c17.8,0,32.9,1.8,38.4,4.3c1.6,0.6,2.9,1.9,3.5,3.6
		c2.5,5.6,4.2,20.6,4.2,38.3c0,17.7-1.8,32.7-4.2,38.3c-0.3,0.8-0.8,1.5-1.3,2.1c0.9-0.7,1.7-1.6,2.1-2.8c2.5-5.6,4.2-20.6,4.2-38.3
		C114.8,29.4,113.1,14.4,110.6,8.8z"/>
</g>
<g>
	<ellipse class="st35" cx="54" cy="35" rx="9.4" ry="5.7"/>
	<ellipse class="st36" cx="54" cy="31.9" rx="1.6" ry="1"/>
	<ellipse class="st36" cx="54" cy="37.8" rx="1.6" ry="1"/>
	<ellipse class="st36" cx="49.8" cy="34.9" rx="1.6" ry="1"/>
	<ellipse class="st36" cx="58.2" cy="34.9" rx="1.6" ry="1"/>
	<path class="st37" d="M61.9,42.4c-1.7,1.6-4.6,2.6-7.9,2.6c-3.3,0-6.2-1.1-7.9-2.6c-5.2,3.4-3.3,22.8-3.3,22.8
		c0,3.2,5,5.7,11.2,5.7c6.2,0,11.2-2.6,11.2-5.7C65.2,65.2,67,45.8,61.9,42.4z"/>
	<path class="st36" d="M54,40.8c-5.2,0-9.4-2.6-9.4-5.7v4.3c0,3.2,4.2,5.7,9.4,5.7c5.2,0,9.4-2.6,9.4-5.7V35
		C63.4,38.2,59.2,40.8,54,40.8z"/>
	<g>
		<path class="st37" d="M54,67.1c-0.8,0-1.5-0.7-1.5-1.5V49.4c0-0.8,0.7-1.5,1.5-1.5c0.8,0,1.5,0.7,1.5,1.5v16.2
			C55.5,66.4,54.8,67.1,54,67.1z"/>
	</g>
	<g>
		<path class="st37" d="M47.6,67.1c-0.8,0-1.4-0.6-1.5-1.4c-0.7-8.9,0.3-16.2,0.3-16.5c0.1-0.8,0.9-1.4,1.7-1.3
			c0.8,0.1,1.4,0.9,1.3,1.7c0,0.1-1,7.3-0.3,15.8c0.1,0.8-0.6,1.6-1.4,1.6C47.7,67.1,47.7,67.1,47.6,67.1z"/>
	</g>
	<g>
		<path class="st37" d="M60.4,67.1c0.8,0,1.4-0.6,1.5-1.4c0.7-8.9-0.3-16.2-0.3-16.5c-0.1-0.8-0.9-1.4-1.7-1.3
			c-0.8,0.1-1.4,0.9-1.3,1.7c0,0.1,1,7.3,0.3,15.8c-0.1,0.8,0.6,1.6,1.4,1.6C60.3,67.1,60.3,67.1,60.4,67.1z"/>
	</g>
</g>
<g>
	<ellipse class="st35" cx="83.3" cy="35" rx="9.4" ry="5.7"/>
	<ellipse class="st36" cx="83.3" cy="31.9" rx="1.6" ry="1"/>
	<ellipse class="st36" cx="83.3" cy="37.8" rx="1.6" ry="1"/>
	<ellipse class="st36" cx="79.1" cy="34.9" rx="1.6" ry="1"/>
	<ellipse class="st36" cx="87.5" cy="34.9" rx="1.6" ry="1"/>
	<path class="st37" d="M91.2,42.4c-1.7,1.6-4.6,2.6-7.9,2.6c-3.3,0-6.2-1.1-7.9-2.6c-5.2,3.4-3.3,22.8-3.3,22.8
		c0,3.2,5,5.7,11.2,5.7c6.2,0,11.2-2.6,11.2-5.7C94.5,65.2,96.3,45.8,91.2,42.4z"/>
	<path class="st36" d="M83.3,40.8c-5.2,0-9.4-2.6-9.4-5.7v4.3c0,3.2,4.2,5.7,9.4,5.7c5.2,0,9.4-2.6,9.4-5.7V35
		C92.7,38.2,88.5,40.8,83.3,40.8z"/>
	<g>
		<path class="st37" d="M83.3,67.1c-0.8,0-1.5-0.7-1.5-1.5V49.4c0-0.8,0.7-1.5,1.5-1.5c0.8,0,1.5,0.7,1.5,1.5v16.2
			C84.8,66.4,84.1,67.1,83.3,67.1z"/>
	</g>
	<g>
		<path class="st37" d="M76.9,67.1c-0.8,0-1.4-0.6-1.5-1.4c-0.7-8.9,0.3-16.2,0.3-16.5c0.1-0.8,0.9-1.4,1.7-1.3
			c0.8,0.1,1.4,0.9,1.3,1.7c0,0.1-1,7.3-0.3,15.8c0.1,0.8-0.5,1.6-1.4,1.6C77,67.1,77,67.1,76.9,67.1z"/>
	</g>
	<g>
		<path class="st37" d="M89.7,67.1c0.8,0,1.4-0.6,1.5-1.4c0.7-8.9-0.3-16.2-0.3-16.5c-0.1-0.8-0.9-1.4-1.7-1.3
			c-0.8,0.1-1.4,0.9-1.3,1.7c0,0.1,1,7.3,0.3,15.8c-0.1,0.8,0.6,1.6,1.4,1.6C89.6,67.1,89.6,67.1,89.7,67.1z"/>
	</g>
</g>
</svg>
