<?xml version="1.0" encoding="utf-8"?>
<!-- Generator: Adobe Illustrator 16.2.1, SVG Export Plug-In . SVG Version: 6.00 Build 0)  -->
<!DOCTYPE svg PUBLIC "-//W3C//DTD SVG 1.1//EN" "http://www.w3.org/Graphics/SVG/1.1/DTD/svg11.dtd">
<svg version="1.1" id="Layer_1" xmlns="http://www.w3.org/2000/svg" xmlns:xlink="http://www.w3.org/1999/xlink" x="0px" y="0px"
	 width="103px" height="109px" viewBox="0 0 103 109" enable-background="new 0 0 103 109" xml:space="preserve">
<g opacity="0.8">
	<g opacity="0">
		<path fill="#766A37" d="M77.675,22.181H3.766c-1.969,0-3.564,1.596-3.564,3.565v58.399c0,1.969,1.596,3.564,3.564,3.564h9.627
			L3.229,108.887L24.419,87.71h53.256c1.969,0,3.564-1.596,3.564-3.564V25.746C81.239,23.777,79.644,22.181,77.675,22.181z"/>
		<g>
			<polygon fill="#766A37" points="24.053,88.025 3.278,108.786 3.229,108.887 24.105,88.025 			"/>
			<path fill="#766A37" d="M77.675,22.181H3.766c-0.982,0-1.871,0.397-2.516,1.04c0.598-0.453,1.341-0.726,2.149-0.726h73.908
				c1.969,0,3.565,1.596,3.565,3.564v58.4c0,0.986-0.401,1.879-1.049,2.524c0.858-0.65,1.415-1.679,1.415-2.839V25.746
				C81.239,23.777,79.644,22.181,77.675,22.181z"/>
		</g>
	</g>
	<g opacity="0.0323">
		<path fill="#766A37" d="M78.379,21.478H4.47c-1.969,0-3.565,1.596-3.565,3.565v58.4c0,1.968,1.596,3.563,3.565,3.563h9.627
			L3.934,108.183l21.189-21.177h53.256c1.969,0,3.564-1.596,3.564-3.563v-58.4C81.943,23.074,80.348,21.478,78.379,21.478z"/>
		<g>
			<polygon fill="#766A37" points="24.757,87.321 3.982,108.082 3.934,108.183 24.81,87.321 			"/>
			<path fill="#766A37" d="M78.379,21.478H4.47c-0.983,0-1.872,0.397-2.516,1.04c0.598-0.453,1.341-0.726,2.149-0.726h73.908
				c1.969,0,3.565,1.597,3.565,3.565v58.399c0,0.986-0.401,1.879-1.049,2.524c0.858-0.65,1.415-1.679,1.415-2.838v-58.4
				C81.943,23.074,80.348,21.478,78.379,21.478z"/>
		</g>
	</g>
	<g opacity="0.0645">
		<path fill="#766A37" d="M79.083,20.773H5.174c-1.969,0-3.564,1.596-3.564,3.565v58.399c0,1.969,1.595,3.564,3.564,3.564h9.627
			L4.638,107.479l21.189-21.177h53.256c1.969,0,3.564-1.596,3.564-3.564V24.338C82.647,22.369,81.052,20.773,79.083,20.773z"/>
		<g>
			<polygon fill="#766A37" points="25.461,86.617 4.687,107.378 4.638,107.479 25.514,86.617 			"/>
			<path fill="#766A37" d="M79.083,20.773H5.174c-0.982,0-1.872,0.398-2.516,1.041c0.598-0.453,1.34-0.726,2.149-0.726h73.908
				c1.969,0,3.565,1.596,3.565,3.564v58.399c0,0.986-0.401,1.879-1.049,2.524c0.858-0.65,1.415-1.679,1.415-2.839V24.338
				C82.647,22.369,81.052,20.773,79.083,20.773z"/>
		</g>
	</g>
	<g opacity="0.0968">
		<path fill="#766A37" d="M79.786,20.068H5.877c-1.969,0-3.564,1.597-3.564,3.565v58.399c0,1.969,1.596,3.564,3.564,3.564h9.627
			L5.341,106.774L26.53,85.598h53.256c1.969,0,3.564-1.596,3.564-3.564V23.634C83.351,21.665,81.755,20.068,79.786,20.068z"/>
		<g>
			<polygon fill="#766A37" points="26.165,85.913 5.39,106.674 5.341,106.774 26.217,85.913 			"/>
			<path fill="#766A37" d="M79.786,20.068H5.877c-0.983,0-1.871,0.398-2.516,1.041c0.598-0.453,1.341-0.726,2.149-0.726h73.908
				c1.969,0,3.566,1.596,3.566,3.564v58.4c0,0.986-0.402,1.879-1.05,2.524c0.858-0.65,1.415-1.679,1.415-2.839V23.634
				C83.351,21.665,81.755,20.068,79.786,20.068z"/>
		</g>
	</g>
	<g opacity="0.129">
		<path fill="#766A37" d="M80.49,19.365H6.582c-1.968,0-3.564,1.596-3.564,3.565v58.399c0,1.969,1.596,3.564,3.564,3.564h9.627
			L6.045,106.07l21.189-21.177H80.49c1.97,0,3.564-1.596,3.564-3.564V22.93C84.055,20.961,82.46,19.365,80.49,19.365z"/>
		<g>
			<polygon fill="#766A37" points="26.869,85.209 6.094,105.971 6.045,106.07 26.921,85.209 			"/>
			<path fill="#766A37" d="M80.49,19.365H6.582c-0.982,0-1.871,0.397-2.516,1.04c0.598-0.453,1.341-0.726,2.149-0.726h73.908
				c1.97,0,3.566,1.596,3.566,3.564v58.399c0,0.986-0.402,1.879-1.049,2.524c0.857-0.65,1.414-1.678,1.414-2.839V22.93
				C84.055,20.961,82.46,19.365,80.49,19.365z"/>
		</g>
	</g>
	<g opacity="0.1613">
		<path fill="#766A37" d="M81.195,18.661H7.286c-1.969,0-3.565,1.597-3.565,3.565v58.4c0,1.968,1.596,3.563,3.565,3.563h9.627
			L6.75,105.367l21.189-21.178h53.256c1.969,0,3.564-1.596,3.564-3.563v-58.4C84.76,20.258,83.164,18.661,81.195,18.661z"/>
		<g>
			<polygon fill="#766A37" points="27.573,84.506 6.799,105.266 6.75,105.367 27.625,84.506 			"/>
			<path fill="#766A37" d="M81.195,18.661H7.286c-0.983,0-1.871,0.397-2.516,1.04c0.597-0.453,1.341-0.726,2.149-0.726h73.908
				c1.969,0,3.565,1.597,3.565,3.564v58.4c0,0.986-0.401,1.878-1.049,2.524c0.858-0.65,1.415-1.68,1.415-2.839v-58.4
				C84.76,20.258,83.164,18.661,81.195,18.661z"/>
		</g>
	</g>
	<g opacity="0.1935">
		<path fill="#766A37" d="M81.898,17.957H7.989c-1.968,0-3.564,1.596-3.564,3.565v58.399c0,1.97,1.596,3.564,3.564,3.564h9.627
			L7.454,104.663l21.189-21.178h53.255c1.969,0,3.564-1.595,3.564-3.564V21.522C85.463,19.553,83.867,17.957,81.898,17.957z"/>
		<g>
			<polygon fill="#766A37" points="28.277,83.801 7.502,104.562 7.454,104.663 28.33,83.801 			"/>
			<path fill="#766A37" d="M81.898,17.957H7.989c-0.982,0-1.871,0.397-2.515,1.04c0.598-0.453,1.341-0.726,2.149-0.726h73.908
				c1.969,0,3.565,1.597,3.565,3.564v58.399c0,0.987-0.401,1.88-1.048,2.525c0.858-0.65,1.414-1.68,1.414-2.84V21.522
				C85.463,19.553,83.867,17.957,81.898,17.957z"/>
		</g>
	</g>
	<g opacity="0.2258">
		<path fill="#766A37" d="M82.603,17.253H8.693c-1.969,0-3.564,1.596-3.564,3.564v58.399c0,1.969,1.596,3.564,3.564,3.564h9.627
			L8.157,103.958l21.189-21.177h53.256c1.969,0,3.564-1.596,3.564-3.564V20.817C86.167,18.849,84.571,17.253,82.603,17.253z"/>
		<g>
			<polygon fill="#766A37" points="28.98,83.097 8.206,103.857 8.157,103.958 29.033,83.097 			"/>
			<path fill="#766A37" d="M82.603,17.253H8.693c-0.982,0-1.871,0.397-2.516,1.04c0.598-0.453,1.341-0.726,2.149-0.726h73.908
				c1.969,0,3.565,1.596,3.565,3.564v58.4c0,0.986-0.401,1.879-1.049,2.525c0.858-0.651,1.415-1.68,1.415-2.84V20.817
				C86.167,18.849,84.571,17.253,82.603,17.253z"/>
		</g>
	</g>
	<g opacity="0.2581">
		<path fill="#766A37" d="M83.307,16.549H9.398c-1.969,0-3.565,1.597-3.565,3.565v58.4c0,1.969,1.596,3.564,3.565,3.564h9.627
			L8.861,103.255l21.189-21.177h53.256c1.969,0,3.564-1.596,3.564-3.564v-58.4C86.871,18.146,85.275,16.549,83.307,16.549z"/>
		<g>
			<polygon fill="#766A37" points="29.685,82.394 8.91,103.154 8.861,103.255 29.737,82.394 			"/>
			<path fill="#766A37" d="M83.307,16.549H9.398c-0.983,0-1.871,0.397-2.516,1.04c0.598-0.453,1.341-0.726,2.149-0.726h73.908
				c1.969,0,3.565,1.596,3.565,3.564v58.4c0,0.986-0.401,1.879-1.049,2.524c0.858-0.65,1.415-1.679,1.415-2.839v-58.4
				C86.871,18.146,85.275,16.549,83.307,16.549z"/>
		</g>
	</g>
	<g opacity="0.2903">
		<path fill="#766A37" d="M84.011,15.845H10.102c-1.968,0-3.564,1.597-3.564,3.565V77.81c0,1.969,1.596,3.564,3.564,3.564h9.627
			L9.566,102.551l21.189-21.177h53.256c1.97,0,3.565-1.596,3.565-3.564V19.41C87.576,17.441,85.98,15.845,84.011,15.845z"/>
		<g>
			<polygon fill="#766A37" points="30.389,81.689 9.615,102.45 9.566,102.551 30.442,81.689 			"/>
			<path fill="#766A37" d="M84.011,15.845H10.102c-0.982,0-1.871,0.398-2.515,1.041c0.598-0.454,1.341-0.726,2.149-0.726h73.909
				c1.968,0,3.564,1.597,3.564,3.565v58.4c0,0.986-0.401,1.879-1.049,2.524c0.859-0.65,1.416-1.679,1.416-2.839V19.41
				C87.576,17.441,85.98,15.845,84.011,15.845z"/>
		</g>
	</g>
	<g opacity="0.3226">
		<path fill="#766A37" d="M84.715,15.141H10.806c-1.969,0-3.564,1.596-3.564,3.564v58.4c0,1.969,1.596,3.564,3.564,3.564h9.627
			L10.27,101.847L31.459,80.67h53.256c1.969,0,3.564-1.596,3.564-3.564v-58.4C88.279,16.737,86.684,15.141,84.715,15.141z"/>
		<g>
			<polygon fill="#766A37" points="31.093,80.985 10.318,101.746 10.27,101.847 31.146,80.985 			"/>
			<path fill="#766A37" d="M84.715,15.141H10.806c-0.982,0-1.871,0.397-2.516,1.04c0.598-0.453,1.341-0.725,2.149-0.725h73.908
				c1.969,0,3.565,1.596,3.565,3.564v58.4c0,0.986-0.401,1.879-1.049,2.524c0.858-0.651,1.415-1.679,1.415-2.839v-58.4
				C88.279,16.737,86.684,15.141,84.715,15.141z"/>
		</g>
	</g>
	<g opacity="0.3548">
		<path fill="#766A37" d="M85.419,14.437h-73.91c-1.968,0-3.564,1.597-3.564,3.565V76.4c0,1.969,1.596,3.564,3.564,3.564h9.627
			l-10.163,21.178l21.189-21.178h53.256c1.968,0,3.564-1.596,3.564-3.564V18.001C88.983,16.033,87.387,14.437,85.419,14.437z"/>
		<g>
			<polygon fill="#766A37" points="31.797,80.281 11.022,101.041 10.974,101.143 31.849,80.281 			"/>
			<path fill="#766A37" d="M85.419,14.437h-73.91c-0.982,0-1.871,0.397-2.516,1.04c0.598-0.453,1.341-0.726,2.149-0.726h73.909
				c1.969,0,3.565,1.596,3.565,3.564v58.399c0,0.986-0.402,1.879-1.049,2.525c0.858-0.651,1.415-1.679,1.415-2.84V18.001
				C88.983,16.033,87.387,14.437,85.419,14.437z"/>
		</g>
	</g>
	<g opacity="0.3871">
		<path fill="#766A37" d="M86.123,13.733H12.214c-1.969,0-3.564,1.596-3.564,3.565v58.399c0,1.969,1.596,3.564,3.564,3.564h9.627
			l-10.163,21.177l21.189-21.177h53.256c1.969,0,3.564-1.596,3.564-3.564V17.298C89.688,15.329,88.092,13.733,86.123,13.733z"/>
		<g>
			<polygon fill="#766A37" points="32.501,79.576 11.727,100.338 11.678,100.438 32.554,79.576 			"/>
			<path fill="#766A37" d="M86.123,13.733H12.214c-0.982,0-1.871,0.397-2.516,1.04c0.597-0.452,1.341-0.725,2.149-0.725h73.908
				c1.969,0,3.565,1.596,3.565,3.564v58.4c0,0.986-0.401,1.879-1.049,2.524c0.858-0.65,1.415-1.679,1.415-2.839V17.298
				C89.688,15.329,88.092,13.733,86.123,13.733z"/>
		</g>
	</g>
	<g opacity="0.4194">
		<path fill="#766A37" d="M86.827,13.029H12.918c-1.969,0-3.564,1.596-3.564,3.564v58.399c0,1.969,1.596,3.564,3.564,3.564h9.627
			L12.382,99.734l21.189-21.177h53.256c1.969,0,3.564-1.596,3.564-3.564V16.594C90.392,14.625,88.796,13.029,86.827,13.029z"/>
		<g>
			<polygon fill="#766A37" points="33.205,78.873 12.431,99.634 12.382,99.734 33.258,78.873 			"/>
			<path fill="#766A37" d="M86.827,13.029H12.918c-0.982,0-1.871,0.397-2.516,1.04c0.598-0.453,1.341-0.726,2.149-0.726H86.46
				c1.969,0,3.565,1.596,3.565,3.564v58.399c0,0.986-0.401,1.879-1.049,2.525c0.858-0.651,1.415-1.68,1.415-2.84V16.594
				C90.392,14.625,88.796,13.029,86.827,13.029z"/>
		</g>
	</g>
	<g opacity="0.4516">
		<path fill="#766A37" d="M87.531,12.325h-73.91c-1.968,0-3.564,1.596-3.564,3.565v58.399c0,1.969,1.596,3.564,3.564,3.564h9.627
			L13.086,99.03l21.189-21.177h53.256c1.969,0,3.564-1.596,3.564-3.564V15.89C91.096,13.921,89.5,12.325,87.531,12.325z"/>
		<g>
			<polygon fill="#766A37" points="33.909,78.169 13.135,98.93 13.086,99.03 33.962,78.169 			"/>
			<path fill="#766A37" d="M87.531,12.325h-73.91c-0.982,0-1.871,0.398-2.515,1.04c0.597-0.453,1.341-0.726,2.149-0.726h73.908
				c1.969,0,3.564,1.596,3.564,3.565v58.399c0,0.986-0.4,1.879-1.049,2.525c0.859-0.651,1.416-1.68,1.416-2.84V15.89
				C91.096,13.921,89.5,12.325,87.531,12.325z"/>
		</g>
	</g>
	<g opacity="0.4839">
		<path fill="#766A37" d="M88.234,11.62H14.326c-1.969,0-3.565,1.597-3.565,3.565v58.399c0,1.969,1.596,3.564,3.565,3.564h9.627
			L13.789,98.326l21.189-21.177h53.256c1.969,0,3.564-1.596,3.564-3.564V15.186C91.799,13.217,90.203,11.62,88.234,11.62z"/>
		<g>
			<polygon fill="#766A37" points="34.613,77.465 13.838,98.226 13.789,98.326 34.666,77.465 			"/>
			<path fill="#766A37" d="M88.234,11.62H14.326c-0.983,0-1.872,0.398-2.516,1.041c0.597-0.453,1.34-0.726,2.149-0.726h73.908
				c1.969,0,3.566,1.596,3.566,3.565v58.399c0,0.986-0.402,1.878-1.05,2.524c0.858-0.65,1.415-1.679,1.415-2.839V15.186
				C91.799,13.217,90.203,11.62,88.234,11.62z"/>
		</g>
	</g>
	<g opacity="0.5161">
		<path fill="#766A37" d="M88.939,10.917H15.03c-1.969,0-3.565,1.596-3.565,3.564v58.399c0,1.969,1.596,3.564,3.565,3.564h9.627
			L14.494,97.623l21.189-21.178h53.256c1.969,0,3.564-1.596,3.564-3.564V14.481C92.504,12.513,90.908,10.917,88.939,10.917z"/>
		<g>
			<polygon fill="#766A37" points="35.317,76.761 14.543,97.521 14.494,97.623 35.369,76.761 			"/>
			<path fill="#766A37" d="M88.939,10.917H15.03c-0.983,0-1.872,0.397-2.516,1.04c0.597-0.453,1.34-0.726,2.149-0.726h73.908
				c1.969,0,3.565,1.597,3.565,3.565v58.399c0,0.986-0.402,1.879-1.05,2.525c0.858-0.651,1.416-1.68,1.416-2.84V14.481
				C92.504,12.513,90.908,10.917,88.939,10.917z"/>
		</g>
	</g>
	<g opacity="0.5484">
		<path fill="#766A37" d="M89.643,10.213H15.734c-1.969,0-3.564,1.596-3.564,3.565v58.399c0,1.969,1.596,3.564,3.564,3.564h9.627
			L15.198,96.918l21.189-21.177h53.255c1.969,0,3.564-1.596,3.564-3.564V13.778C93.207,11.809,91.611,10.213,89.643,10.213z"/>
		<g>
			<polygon fill="#766A37" points="36.021,76.057 15.247,96.817 15.198,96.918 36.073,76.057 			"/>
			<path fill="#766A37" d="M89.643,10.213H15.734c-0.982,0-1.872,0.397-2.516,1.04c0.598-0.453,1.34-0.726,2.149-0.726h73.908
				c1.969,0,3.566,1.596,3.566,3.564v58.399c0,0.986-0.402,1.879-1.05,2.525c0.858-0.651,1.415-1.68,1.415-2.84V13.778
				C93.207,11.809,91.611,10.213,89.643,10.213z"/>
		</g>
	</g>
	<g opacity="0.5806">
		<path fill="#766A37" d="M90.347,9.509H16.438c-1.969,0-3.564,1.596-3.564,3.564v58.399c0,1.969,1.596,3.564,3.564,3.564h9.627
			L15.902,96.215l21.189-21.178h53.256c1.969,0,3.565-1.596,3.565-3.564V13.073C93.912,11.105,92.315,9.509,90.347,9.509z"/>
		<g>
			<polygon fill="#766A37" points="36.725,75.353 15.951,96.113 15.902,96.215 36.777,75.353 			"/>
			<path fill="#766A37" d="M90.347,9.509H16.438c-0.982,0-1.871,0.397-2.515,1.04c0.597-0.453,1.34-0.726,2.149-0.726h73.908
				c1.969,0,3.565,1.596,3.565,3.564v58.399c0,0.986-0.401,1.879-1.049,2.525c0.859-0.651,1.416-1.68,1.416-2.84V13.073
				C93.912,11.105,92.315,9.509,90.347,9.509z"/>
		</g>
	</g>
	<g opacity="0.6129">
		<path fill="#766A37" d="M91.051,8.805H17.142c-1.969,0-3.564,1.597-3.564,3.565v58.4c0,1.968,1.596,3.563,3.564,3.563h9.627
			L16.605,95.511l21.189-21.178h53.256c1.969,0,3.564-1.596,3.564-3.563v-58.4C94.615,10.401,93.02,8.805,91.051,8.805z"/>
		<g>
			<polygon fill="#766A37" points="37.429,74.648 16.654,95.409 16.605,95.511 37.481,74.648 			"/>
			<path fill="#766A37" d="M91.051,8.805H17.142c-0.982,0-1.871,0.397-2.516,1.04c0.598-0.453,1.341-0.726,2.149-0.726h73.908
				c1.969,0,3.565,1.596,3.565,3.564v58.399c0,0.986-0.401,1.879-1.049,2.525c0.858-0.651,1.415-1.68,1.415-2.839v-58.4
				C94.615,10.401,93.02,8.805,91.051,8.805z"/>
		</g>
	</g>
	<g opacity="0.6452">
		<path fill="#766A37" d="M91.755,8.101H17.846c-1.969,0-3.564,1.596-3.564,3.565v58.399c0,1.969,1.596,3.564,3.564,3.564h9.627
			L17.31,94.807l21.189-21.178h53.256c1.969,0,3.564-1.596,3.564-3.564V11.666C95.319,9.697,93.724,8.101,91.755,8.101z"/>
		<g>
			<polygon fill="#766A37" points="38.133,73.945 17.358,94.705 17.31,94.807 38.186,73.945 			"/>
			<path fill="#766A37" d="M91.755,8.101H17.846c-0.982,0-1.871,0.397-2.516,1.04c0.598-0.453,1.341-0.726,2.149-0.726h73.908
				c1.969,0,3.565,1.597,3.565,3.564v58.399c0,0.986-0.401,1.879-1.049,2.525c0.858-0.651,1.415-1.68,1.415-2.84V11.666
				C95.319,9.697,93.724,8.101,91.755,8.101z"/>
		</g>
	</g>
	<g opacity="0.6774">
		<path fill="#766A37" d="M92.459,7.396H18.55c-1.969,0-3.564,1.597-3.564,3.565v58.399c0,1.968,1.596,3.563,3.564,3.563h9.627
			L18.014,94.103l21.189-21.178h53.256c1.969,0,3.564-1.596,3.564-3.563V10.962C96.023,8.993,94.428,7.396,92.459,7.396z"/>
		<g>
			<polygon fill="#766A37" points="38.837,73.24 18.062,94.001 18.014,94.103 38.89,73.24 			"/>
			<path fill="#766A37" d="M92.459,7.396H18.55c-0.982,0-1.871,0.397-2.516,1.04c0.598-0.453,1.341-0.726,2.149-0.726h73.908
				c1.969,0,3.565,1.597,3.565,3.564v58.399c0,0.987-0.401,1.88-1.049,2.525c0.858-0.651,1.415-1.68,1.415-2.839V10.962
				C96.023,8.993,94.428,7.396,92.459,7.396z"/>
		</g>
	</g>
	<g opacity="0.7097">
		<path fill="#766A37" d="M93.163,6.692H19.254c-1.969,0-3.564,1.597-3.564,3.565v58.399c0,1.969,1.596,3.564,3.564,3.564h9.627
			L18.718,93.398l21.189-21.178h53.256c1.969,0,3.564-1.596,3.564-3.564V10.257C96.728,8.289,95.132,6.692,93.163,6.692z"/>
		<g>
			<polygon fill="#766A37" points="39.541,72.537 18.767,93.297 18.718,93.398 39.594,72.537 			"/>
			<path fill="#766A37" d="M93.163,6.692H19.254c-0.982,0-1.872,0.398-2.516,1.041c0.598-0.454,1.34-0.726,2.149-0.726h73.908
				c1.969,0,3.565,1.597,3.565,3.565v58.4c0,0.985-0.401,1.878-1.049,2.524c0.858-0.651,1.415-1.68,1.415-2.84V10.257
				C96.728,8.289,95.132,6.692,93.163,6.692z"/>
		</g>
	</g>
	<g opacity="0.7419">
		<path fill="#766A37" d="M93.867,5.988H19.958c-1.969,0-3.564,1.597-3.564,3.565v58.399c0,1.969,1.596,3.564,3.564,3.564h9.627
			L19.422,92.694l21.189-21.177h53.256c1.969,0,3.564-1.596,3.564-3.564V9.554C97.432,7.585,95.836,5.988,93.867,5.988z"/>
		<g>
			<polygon fill="#766A37" points="40.245,71.833 19.471,92.594 19.422,92.694 40.298,71.833 			"/>
			<path fill="#766A37" d="M93.867,5.988H19.958c-0.983,0-1.871,0.398-2.516,1.04c0.598-0.453,1.341-0.725,2.149-0.725H93.5
				c1.969,0,3.565,1.596,3.565,3.564v58.4c0,0.986-0.401,1.879-1.049,2.524c0.858-0.651,1.415-1.679,1.415-2.839V9.554
				C97.432,7.585,95.836,5.988,93.867,5.988z"/>
		</g>
	</g>
	<g opacity="0.7742">
		<path fill="#766A37" d="M94.571,5.285h-73.91c-1.968,0-3.564,1.596-3.564,3.565v58.399c0,1.968,1.596,3.563,3.564,3.563h9.627
			L20.125,91.99l21.189-21.178h53.256c1.969,0,3.564-1.596,3.564-3.563V8.85C98.136,6.881,96.54,5.285,94.571,5.285z"/>
		<g>
			<polygon fill="#766A37" points="40.949,71.128 20.175,91.89 20.125,91.99 41.001,71.128 			"/>
			<path fill="#766A37" d="M94.571,5.285h-73.91c-0.982,0-1.871,0.397-2.515,1.04c0.597-0.453,1.341-0.726,2.149-0.726h73.908
				c1.968,0,3.565,1.596,3.565,3.564v58.399c0,0.986-0.401,1.879-1.049,2.525c0.858-0.65,1.415-1.68,1.415-2.839V8.85
				C98.136,6.881,96.54,5.285,94.571,5.285z"/>
		</g>
	</g>
	<g opacity="0.8065">
		<path fill="#766A37" d="M95.275,4.581H21.366c-1.969,0-3.564,1.596-3.564,3.565v58.399c0,1.969,1.595,3.563,3.564,3.563h9.627
			L20.83,91.287l21.189-21.179h53.256c1.969,0,3.564-1.595,3.564-3.563V8.146C98.84,6.177,97.244,4.581,95.275,4.581z"/>
		<g>
			<polygon fill="#766A37" points="41.653,70.424 20.878,91.186 20.83,91.287 41.706,70.424 			"/>
			<path fill="#766A37" d="M95.275,4.581H21.366c-0.983,0-1.872,0.397-2.516,1.04C19.448,5.167,20.191,4.895,21,4.895h73.909
				c1.969,0,3.564,1.596,3.564,3.564v58.4c0,0.986-0.401,1.879-1.048,2.525c0.858-0.651,1.415-1.681,1.415-2.84V8.146
				C98.84,6.177,97.244,4.581,95.275,4.581z"/>
		</g>
	</g>
	<g opacity="0.8387">
		<path fill="#766A37" d="M95.979,3.876H22.07c-1.969,0-3.564,1.596-3.564,3.565v58.399c0,1.969,1.596,3.564,3.564,3.564h9.627
			L21.534,90.582l21.189-21.177h53.255c1.97,0,3.565-1.596,3.565-3.564V7.441C99.544,5.473,97.948,3.876,95.979,3.876z"/>
		<g>
			<polygon fill="#766A37" points="42.357,69.721 21.583,90.481 21.534,90.582 42.41,69.721 			"/>
			<path fill="#766A37" d="M95.979,3.876H22.07c-0.983,0-1.871,0.398-2.516,1.04c0.597-0.453,1.341-0.726,2.149-0.726h73.908
				c1.969,0,3.566,1.596,3.566,3.565v58.399c0,0.985-0.402,1.878-1.049,2.525c0.857-0.651,1.415-1.68,1.415-2.84V7.441
				C99.544,5.473,97.948,3.876,95.979,3.876z"/>
		</g>
	</g>
	<g opacity="0.871">
		<path fill="#766A37" d="M96.683,3.172H22.774c-1.969,0-3.564,1.596-3.564,3.565v58.399c0,1.969,1.595,3.564,3.564,3.564h9.627
			L22.238,89.879l21.189-21.178h53.256c1.97,0,3.564-1.596,3.564-3.564V6.737C100.247,4.769,98.652,3.172,96.683,3.172z"/>
		<g>
			<polygon fill="#766A37" points="43.061,69.017 22.287,89.777 22.238,89.879 43.114,69.017 			"/>
			<path fill="#766A37" d="M96.683,3.172H22.774c-0.982,0-1.871,0.398-2.516,1.04c0.598-0.453,1.341-0.725,2.149-0.725h73.908
				c1.97,0,3.565,1.596,3.565,3.564v58.399c0,0.986-0.401,1.879-1.049,2.525c0.858-0.651,1.415-1.68,1.415-2.84V6.737
				C100.247,4.769,98.652,3.172,96.683,3.172z"/>
		</g>
	</g>
	<g opacity="0.9032">
		<path fill="#766A37" d="M97.387,2.469H23.478c-1.968,0-3.564,1.596-3.564,3.564v58.399c0,1.969,1.596,3.564,3.564,3.564h9.627
			L22.942,89.174l21.189-21.177h53.255c1.969,0,3.564-1.596,3.564-3.564V6.033C100.951,4.065,99.355,2.469,97.387,2.469z"/>
		<g>
			<polygon fill="#766A37" points="43.765,68.312 22.991,89.073 22.942,89.174 43.817,68.312 			"/>
			<path fill="#766A37" d="M97.387,2.469H23.478c-0.982,0-1.871,0.397-2.515,1.04c0.597-0.453,1.34-0.726,2.149-0.726H97.02
				c1.969,0,3.565,1.596,3.565,3.564v58.4c0,0.986-0.401,1.879-1.049,2.525c0.858-0.651,1.415-1.68,1.415-2.84V6.033
				C100.951,4.065,99.355,2.469,97.387,2.469z"/>
		</g>
	</g>
	<g opacity="0.9355">
		<path fill="#766A37" d="M98.091,1.765H24.182c-1.969,0-3.564,1.596-3.564,3.565v58.399c0,1.969,1.596,3.564,3.564,3.564h9.627
			L23.646,88.471l21.19-21.178h53.255c1.969,0,3.564-1.596,3.564-3.564V5.33C101.655,3.361,100.06,1.765,98.091,1.765z"/>
		<g>
			<polygon fill="#766A37" points="44.469,67.608 23.694,88.369 23.646,88.471 44.521,67.608 			"/>
			<path fill="#766A37" d="M98.091,1.765H24.182c-0.983,0-1.871,0.397-2.516,1.04c0.598-0.454,1.341-0.726,2.149-0.726h73.908
				c1.969,0,3.565,1.597,3.565,3.564v58.4c0,0.986-0.401,1.879-1.049,2.525c0.858-0.651,1.415-1.68,1.415-2.84V5.33
				C101.655,3.361,100.06,1.765,98.091,1.765z"/>
		</g>
	</g>
	<g opacity="0.9677">
		<path fill="#766A37" d="M98.795,1.061H24.886c-1.969,0-3.564,1.596-3.564,3.564v58.399c0,1.969,1.596,3.564,3.564,3.564h9.627
			L24.35,87.767l21.189-21.178h53.256c1.969,0,3.564-1.596,3.564-3.564V4.625C102.359,2.657,100.764,1.061,98.795,1.061z"/>
		<g>
			<polygon fill="#766A37" points="45.173,66.904 24.398,87.665 24.35,87.767 45.226,66.904 			"/>
			<path fill="#766A37" d="M98.795,1.061H24.886c-0.982,0-1.871,0.397-2.516,1.04c0.598-0.453,1.341-0.726,2.149-0.726h73.908
				c1.969,0,3.565,1.596,3.565,3.564v58.399c0,0.986-0.401,1.879-1.049,2.525c0.858-0.651,1.415-1.68,1.415-2.84V4.625
				C102.359,2.657,100.764,1.061,98.795,1.061z"/>
		</g>
	</g>
	<g>
		<path fill="#766A37" d="M99.499,0.356H25.59c-1.969,0-3.564,1.596-3.564,3.565V62.32c0,1.969,1.596,3.564,3.564,3.564h9.627
			L25.054,87.062l21.189-21.178h53.256c1.969,0,3.564-1.596,3.564-3.564V3.921C103.063,1.953,101.468,0.356,99.499,0.356z"/>
		<g>
			<polygon fill="#766A37" points="45.877,66.2 25.103,86.961 25.054,87.062 45.93,66.2 			"/>
			<path fill="#766A37" d="M99.499,0.356H25.59c-0.982,0-1.871,0.397-2.516,1.04c0.598-0.453,1.341-0.726,2.149-0.726h73.908
				c1.969,0,3.565,1.596,3.565,3.564v58.399c0,0.986-0.401,1.879-1.049,2.525c0.858-0.651,1.415-1.68,1.415-2.84V3.921
				C103.063,1.953,101.468,0.356,99.499,0.356z"/>
		</g>
	</g>
</g>
<g>
	<radialGradient id="SVGID_1_" cx="85.5166" cy="-0.291" r="115.2138" gradientUnits="userSpaceOnUse">
		<stop  offset="0" style="stop-color:#FFFFFF"/>
		<stop  offset="1" style="stop-color:#969494"/>
	</radialGradient>
	<path fill="url(#SVGID_1_)" d="M99.499,0.356H25.59c-1.969,0-3.564,1.596-3.564,3.565V62.32c0,1.969,1.596,3.564,3.564,3.564h9.627
		L25.054,87.062l21.189-21.178h53.256c1.969,0,3.564-1.596,3.564-3.564V3.921C103.063,1.953,101.468,0.356,99.499,0.356z"/>
	<g>
		<radialGradient id="SVGID_2_" cx="35.4917" cy="76.6309" r="10.4348" gradientUnits="userSpaceOnUse">
			<stop  offset="0" style="stop-color:#FFFFFF"/>
			<stop  offset="1" style="stop-color:#FFFFFF"/>
		</radialGradient>
		<polygon fill="url(#SVGID_2_)" points="45.877,66.2 25.103,86.961 25.054,87.062 45.93,66.2 		"/>
		<radialGradient id="SVGID_3_" cx="63.0684" cy="32.7583" r="36.397" gradientUnits="userSpaceOnUse">
			<stop  offset="0" style="stop-color:#FFFFFF"/>
			<stop  offset="1" style="stop-color:#FFFFFF"/>
		</radialGradient>
		<path fill="url(#SVGID_3_)" d="M99.499,0.356H25.59c-0.982,0-1.871,0.397-2.516,1.04c0.598-0.453,1.341-0.726,2.149-0.726h73.908
			c1.969,0,3.565,1.596,3.565,3.564v58.399c0,0.986-0.401,1.879-1.049,2.525c0.858-0.651,1.415-1.68,1.415-2.84V3.921
			C103.063,1.953,101.468,0.356,99.499,0.356z"/>
	</g>
</g>
<g>
	<rect x="61.244" y="31.038" fill="#FCB874" width="2.098" height="20.549"/>
	<ellipse fill="#CC3D3C" cx="62.292" cy="30.227" rx="2.05" ry="3.195"/>
	<path opacity="0.9" fill="#FEDB4E" d="M61.783,36.52c2.628,0.235,5.173-1.275,6.195-3.715c1.149-2.742-0.077-5.245-1.758-7.43
		c-0.609-0.792-1.272-1.542-1.871-2.34c-0.352-0.469-0.873-1.092-0.855-1.718c0.048-1.668,0.667-2.431,0.667-2.431
		s-2.526-0.096-3.003,3.147c0,0-0.859-3.767,0.381-5.722c0,0-6.771,2.146-3.909,8.677c0.953,2.336-1.097,2.575-1.097,6.627
		c0,2.534,2.285,4.342,4.599,4.811C61.347,36.469,61.564,36.5,61.783,36.52z"/>
</g>
</svg>
