<?xml version="1.0" encoding="utf-8"?>
<!-- Generator: Adobe Illustrator 16.2.1, SVG Export Plug-In . SVG Version: 6.00 Build 0)  -->
<!DOCTYPE svg PUBLIC "-//W3C//DTD SVG 1.1//EN" "http://www.w3.org/Graphics/SVG/1.1/DTD/svg11.dtd">
<svg version="1.1" id="Layer_1" xmlns="http://www.w3.org/2000/svg" xmlns:xlink="http://www.w3.org/1999/xlink" x="0px" y="0px"
	 width="138px" height="138px" viewBox="0 0 138 138" enable-background="new 0 0 138 138" xml:space="preserve">
<g opacity="0.5">
	<circle opacity="0" fill="#766A37" cx="53.371" cy="84.474" r="52.962"/>
	<circle opacity="0.0222" fill="#766A37" cx="54.079" cy="83.765" r="52.962"/>
	<circle opacity="0.0444" fill="#766A37" cx="54.788" cy="83.057" r="52.962"/>
	<circle opacity="0.0667" fill="#766A37" cx="55.496" cy="82.349" r="52.962"/>
	<circle opacity="0.0889" fill="#766A37" cx="56.205" cy="81.64" r="52.962"/>
	<circle opacity="0.1111" fill="#766A37" cx="56.913" cy="80.932" r="52.962"/>
	<circle opacity="0.1333" fill="#766A37" cx="57.621" cy="80.224" r="52.962"/>
	<circle opacity="0.1556" fill="#766A37" cx="58.33" cy="79.515" r="52.962"/>
	<circle opacity="0.1778" fill="#766A37" cx="59.038" cy="78.807" r="52.962"/>
	<circle opacity="0.2" fill="#766A37" cx="59.746" cy="78.099" r="52.962"/>
	<circle opacity="0.2222" fill="#766A37" cx="60.455" cy="77.39" r="52.961"/>
	<circle opacity="0.2444" fill="#766A37" cx="61.163" cy="76.682" r="52.962"/>
	<circle opacity="0.2667" fill="#766A37" cx="61.871" cy="75.973" r="52.962"/>
	<circle opacity="0.2889" fill="#766A37" cx="62.58" cy="75.265" r="52.962"/>
	<circle opacity="0.3111" fill="#766A37" cx="63.288" cy="74.557" r="52.962"/>
	<circle opacity="0.3333" fill="#766A37" cx="63.997" cy="73.848" r="52.962"/>
	<circle opacity="0.3556" fill="#766A37" cx="64.705" cy="73.14" r="52.962"/>
	<circle opacity="0.3778" fill="#766A37" cx="65.414" cy="72.432" r="52.962"/>
	<circle opacity="0.4" fill="#766A37" cx="66.122" cy="71.723" r="52.962"/>
	<circle opacity="0.4222" fill="#766A37" cx="66.83" cy="71.014" r="52.962"/>
	<circle opacity="0.4444" fill="#766A37" cx="67.538" cy="70.307" r="52.962"/>
	<circle opacity="0.4667" fill="#766A37" cx="68.247" cy="69.598" r="52.962"/>
	<circle opacity="0.4889" fill="#766A37" cx="68.956" cy="68.889" r="52.962"/>
	<circle opacity="0.5111" fill="#766A37" cx="69.664" cy="68.181" r="52.961"/>
	<circle opacity="0.5333" fill="#766A37" cx="70.372" cy="67.473" r="52.962"/>
	<circle opacity="0.5556" fill="#766A37" cx="71.081" cy="66.764" r="52.962"/>
	<circle opacity="0.5778" fill="#766A37" cx="71.789" cy="66.056" r="52.962"/>
	<circle opacity="0.6" fill="#766A37" cx="72.497" cy="65.348" r="52.962"/>
	<circle opacity="0.6222" fill="#766A37" cx="73.206" cy="64.639" r="52.962"/>
	<circle opacity="0.6444" fill="#766A37" cx="73.914" cy="63.931" r="52.962"/>
	<circle opacity="0.6667" fill="#766A37" cx="74.622" cy="63.223" r="52.962"/>
	<circle opacity="0.6889" fill="#766A37" cx="75.331" cy="62.514" r="52.962"/>
	<circle opacity="0.7111" fill="#766A37" cx="76.039" cy="61.806" r="52.962"/>
	<circle opacity="0.7333" fill="#766A37" cx="76.747" cy="61.098" r="52.962"/>
	<circle opacity="0.7556" fill="#766A37" cx="77.456" cy="60.389" r="52.962"/>
	<circle opacity="0.7778" fill="#766A37" cx="78.164" cy="59.68" r="52.962"/>
	<circle opacity="0.8" fill="#766A37" cx="78.873" cy="58.972" r="52.961"/>
	<circle opacity="0.8222" fill="#766A37" cx="79.581" cy="58.264" r="52.962"/>
	<circle opacity="0.8444" fill="#766A37" cx="80.29" cy="57.555" r="52.962"/>
	<circle opacity="0.8667" fill="#766A37" cx="80.998" cy="56.847" r="52.962"/>
	<circle opacity="0.8889" fill="#766A37" cx="81.706" cy="56.139" r="52.962"/>
	<circle opacity="0.9111" fill="#766A37" cx="82.415" cy="55.43" r="52.962"/>
	<circle opacity="0.9333" fill="#766A37" cx="83.123" cy="54.722" r="52.962"/>
	<circle opacity="0.9556" fill="#766A37" cx="83.831" cy="54.013" r="52.962"/>
	<circle opacity="0.9778" fill="#766A37" cx="84.54" cy="53.305" r="52.962"/>
	<circle fill="#766A37" cx="85.248" cy="52.597" r="52.962"/>
</g>
<g>
	<g>
		<linearGradient id="SVGID_1_" gradientUnits="userSpaceOnUse" x1="44.8677" y1="118.9951" x2="110.9433" y2="10.1842">
			<stop  offset="0" style="stop-color:#FFFFFF"/>
			<stop  offset="1" style="stop-color:#C9C7C7"/>
		</linearGradient>
		<path fill="url(#SVGID_1_)" d="M85.134-0.365c-29.3,0-53.053,23.752-53.053,53.052c0,20.792,11.966,38.79,29.385,47.487
			c-1.58,3.252-3.619,6.199-6.253,8.59c-5.009,4.547-10.921,6.918-20.729,6.938c0,0,16.393,5.691,27.102-3.984
			c2.8-2.527,5.115-5.453,7.035-8.604c5.197,1.701,10.747,2.624,16.514,2.624c29.3,0,53.051-23.752,53.051-53.051
			C138.185,23.387,114.434-0.365,85.134-0.365z"/>
		<path fill="#FFFFFF" d="M85.134-0.365c-8.744,0-16.992,2.115-24.264,5.863c7.001-3.404,14.86-5.315,23.167-5.315
			c29.301,0,53.052,23.752,53.052,53.052c0,20.556-11.691,38.38-28.788,47.188c17.69-8.602,29.884-26.745,29.884-47.736
			C138.185,23.387,114.434-0.365,85.134-0.365z"/>
	</g>
</g>
<g>
	<path fill="#D94141" d="M63.891,63.347c1.234,9.302,6.761,18.339,16.591,20.141c1.869,0.343,3.714,0.331,5.491,0.028
		c-0.062-0.01-0.121-0.018-0.183-0.028c-9.829-1.802-15.355-10.839-16.591-20.141c-0.655-4.937-0.432-9.984,0.304-14.898
		C71.46,35.349,80.545,22.62,89.536,20.391C79.143,17.56,66.541,32.737,64.193,48.448C63.459,53.363,63.234,58.41,63.891,63.347z"/>
	<path fill="#FFEFDB" d="M91.537,83.474c-1.854,0.347-3.788,0.372-5.747,0.014c-9.829-1.802-15.355-10.839-16.591-20.14
		c-0.655-4.937-0.432-9.984,0.303-14.899C71.9,32.4,84.997,16.906,95.511,20.595c10.515,3.689,0.922,20.659,6.456,28.406
		c3.821,5.35,5.936,12.514,4.649,19.045C105.138,75.557,98.97,82.087,91.537,83.474z"/>
	<path fill="#F05050" d="M92.256,22.257c0.87,0,1.719,0.143,2.522,0.425c4.163,1.461,4.019,5.816,3.437,12.801
		c-0.443,5.314-0.901,10.81,1.952,14.805c3.719,5.208,5.358,11.849,4.279,17.332c-1.327,6.735-6.927,12.489-13.315,13.68
		c-0.83,0.156-1.674,0.234-2.507,0.234c-0.812,0-1.631-0.074-2.436-0.222c-4.076-0.747-7.492-2.906-10.154-6.419
		c-2.4-3.166-4.05-7.37-4.643-11.837c-0.573-4.315-0.472-9.12,0.299-14.281c0.981-6.57,3.918-13.337,8.057-18.565
		C83.749,25.156,88.309,22.257,92.256,22.257z"/>
	<g>
		<path fill="#9A2F2E" d="M82.786,32.524c-0.51,0-0.997-0.296-1.216-0.794c-0.294-0.671,0.011-1.454,0.683-1.749
			c4.281-1.878,8.569-3.462,12.745-4.706c0.704-0.209,1.441,0.191,1.651,0.893c0.208,0.703-0.191,1.442-0.894,1.651
			c-4.071,1.213-8.255,2.758-12.437,4.592C83.146,32.488,82.965,32.524,82.786,32.524z"/>
	</g>
	<g>
		<path fill="#9A2F2E" d="M78.007,43.312c-0.501,0-0.979-0.284-1.205-0.767c-0.309-0.665-0.021-1.454,0.644-1.763
			c5.575-2.597,11.142-4.688,16.546-6.216c0.705-0.199,1.438,0.211,1.639,0.917c0.199,0.706-0.211,1.438-0.917,1.638
			c-5.268,1.489-10.7,3.531-16.146,6.068C78.385,43.271,78.194,43.312,78.007,43.312z"/>
	</g>
	<g>
		<path fill="#9A2F2E" d="M75.183,53.223c-0.498,0-0.976-0.281-1.202-0.761c-0.312-0.664-0.028-1.454,0.635-1.767
			c6.383-3.01,12.726-5.347,18.851-6.948c0.712-0.185,1.435,0.239,1.62,0.948c0.186,0.71-0.24,1.435-0.948,1.62
			c-5.969,1.56-12.155,3.841-18.391,6.78C75.564,53.182,75.371,53.223,75.183,53.223z"/>
	</g>
	<g>
		<path fill="#9A2F2E" d="M75.183,61.833c-0.509,0-0.992-0.293-1.213-0.787c-0.299-0.669,0.001-1.454,0.671-1.753
			c9.924-4.433,17.896-6.401,22.835-7.271c0.722-0.125,1.41,0.355,1.537,1.077s-0.354,1.411-1.077,1.538
			c-4.791,0.845-12.535,2.759-22.213,7.081C75.547,61.795,75.363,61.833,75.183,61.833z"/>
	</g>
	<g>
		<path fill="#9A2F2E" d="M77.512,69.547c-0.528,0-1.028-0.317-1.234-0.839c-0.27-0.682,0.063-1.453,0.745-1.722
			c10.155-4.022,17.759-5.35,21.387-5.783c0.723-0.083,1.388,0.433,1.475,1.161c0.086,0.728-0.434,1.388-1.161,1.475
			c-3.5,0.417-10.846,1.703-20.723,5.615C77.84,69.517,77.674,69.547,77.512,69.547z"/>
	</g>
	<g>
		<path fill="#9A2F2E" d="M82.785,76.531c-0.565,0-1.09-0.364-1.267-0.934c-0.218-0.699,0.174-1.443,0.873-1.66
			c9.883-3.072,15.887-3.273,16.137-3.281c0.734-0.006,1.345,0.557,1.365,1.29c0.02,0.731-0.557,1.342-1.288,1.363l0,0
			c-0.059,0.002-5.93,0.21-15.426,3.162C83.048,76.512,82.916,76.531,82.785,76.531z"/>
	</g>
</g>
</svg>
